<?xml version="1.0" encoding="utf-8"?><!DOCTYPE svg PUBLIC "-//W3C//DTD SVG 1.1//EN" "http://www.w3.org/Graphics/SVG/1.1/DTD/svg11.dtd"><svg version="1.1" id="Contours" xmlns="http://www.w3.org/2000/svg" xmlns:xlink="http://www.w3.org/1999/xlink" x="0px" y="0px" width="652.063293px" height="652.063293px" viewBox="-0.000015 -0.000012 652.063293 900.940002" enable-background="new 0 0 652.063293 652.063293" xml:space="preserve" stroke="black" fill="none" stroke-linecap='round' stroke-linejoin='round'><path class="selected"  fill="#000000" opacity="1.000000" stroke="none" 
 	d="
M473.069046 374.943463 C465.397659 376.943463 458.219680 378.921002 451.061966 380.968670 C450.039871 381.261090 449.114700 381.893048 448.144729 382.367779 C449.134720 383.074872 450.105178 384.363080 451.117630 384.396893 C459.015579 384.660748 465.607010 390.001385 474.432693 388.361737 C484.259964 386.535992 494.728836 387.361371 504.845535 388.071210 C522.901199 389.337933 540.436355 393.236188 556.847854 401.233990 C575.903518 410.520306 590.373367 424.844220 602.036575 442.306744 C603.564285 444.594159 605.992630 446.265851 607.914871 448.306561 C617.041336 457.995160 625.845901 467.908429 632.351516 479.674664 C641.225418 495.724469 648.222366 512.464947 649.953811 530.850323 C651.209793 544.185101 652.645828 557.697369 651.819046 570.994855 C649.892166 601.990094 638.875808 630.490460 623.902176 657.317730 C614.650222 673.893780 603.927566 689.682110 590.848709 703.644391 C579.583938 715.670270 568.828201 728.255963 556.783767 739.449811 C536.774246 758.046368 515.185012 774.862897 491.978958 789.301251 C474.474319 800.191876 456.336746 810.111432 438.157058 819.859356 C415.288772 832.121197 391.029129 841.203106 366.679397 850.079083 C358.027786 853.232647 349.957718 857.972394 341.598220 861.937481 C323.242263 870.644757 304.063980 877.223736 284.333389 881.710675 C272.843521 884.323590 260.829178 884.651959 249.041458 885.921856 C244.694107 886.390240 240.314651 886.557232 235.963821 886.999493 C235.293472 887.067486 234.698684 887.879132 234.069046 888.347027 C234.801284 888.879254 235.553238 889.900006 236.262710 889.871075 C250.323501 889.301373 264.379470 888.608868 278.436660 887.947491 C279.101883 887.916119 279.770401 887.961896 280.436416 887.940655 C290.798294 887.611310 301.173660 887.504742 311.518264 886.885113 C324.118606 886.130475 336.693679 884.952130 349.278030 883.937970 C352.976150 883.639874 356.664871 883.157696 360.367019 883.030865 C361.248489 883.000470 362.167434 884.059308 363.069046 884.617169 C362.218216 885.392560 361.451980 886.709332 360.503250 886.857647 C353.108596 888.012921 345.669143 888.878399 338.262161 889.960553 C329.637283 891.220807 321.044876 892.708111 312.412368 893.910138 C306.379470 894.750226 300.300064 895.252911 294.246353 895.948590 C282.796768 897.264142 271.381729 899.176739 259.895645 899.806500 C243.897110 900.683575 227.829971 901.219830 211.822342 900.787335 C192.304031 900.259991 174.048172 894.061383 157.029434 884.791363 C149.318924 880.591412 142.020584 875.296734 135.429641 869.484601 C129.993850 864.691022 124.474624 861.567853 117.377578 859.664044 C107.926407 857.128644 98.905655 852.842511 89.880447 848.895611 C70.359878 840.359112 55.153640 826.371564 43.103531 809.207989 C35.135879 797.859234 29.649063 785.029645 28.123916 770.975812 C27.162674 762.117413 25.866592 753.163434 26.249221 744.318463 C27.054641 725.705548 30.852676 707.653180 37.968094 690.240948 C47.295486 667.416119 59.135208 646.008771 73.176101 625.855450 C81.106338 614.473004 89.567459 603.356061 98.764541 592.984234 C113.499649 576.367169 128.924759 560.352887 144.316543 544.332257 C149.254226 539.192792 155.337356 535.156109 160.295852 530.033612 C165.199844 524.967389 169.358535 519.177777 173.820388 513.686139 C179.490738 506.707135 184.872696 499.472088 190.861343 492.778973 C198.239456 484.533001 205.792190 476.388348 213.852737 468.821210 C224.980362 458.374554 235.891433 447.575848 249.313430 439.885357 C250.299820 439.320172 250.811844 437.927044 251.544387 436.918805 C250.150406 436.927044 248.592666 436.525067 247.387771 437.006451 C233.947097 442.376324 220.827102 448.711529 207.086502 453.123211 C192.880081 457.684369 178.105545 460.499371 163.542617 463.921185 C146.317642 467.968426 128.766006 468.490765 111.208206 467.869427 C92.039749 467.191022 73.340042 463.645672 55.703201 455.884137 C38.656631 448.382245 24.478531 437.053570 14.205581 421.436688 C7.141739 410.698285 1.870437 399.026410 1.111404 385.897320 C0.561233 376.381390 -0.509934 366.766278 0.281814 357.332318 C1.484085 343.009076 4.679214 328.880108 10.911148 315.815167 C13.899063 309.551129 10.898819 304.017926 10.811660 298.149579 C10.675979 289.013653 9.828750 279.746808 11.035598 270.771100 C12.310440 261.289410 14.325149 251.464276 18.366653 242.897870 C24.969314 228.902997 32.746658 215.317975 41.359512 202.451031 C53.019058 185.032574 67.413101 169.688580 83.017715 155.745221 C95.928787 144.208600 109.451675 133.243023 123.489761 123.114178 C136.774917 113.528729 150.613662 104.477093 165.064956 96.802716 C181.772964 87.929913 199.339004 80.643353 216.675125 72.991009 C235.457107 64.700421 255.614212 60.719342 275.125076 54.709271 C281.933670 52.612042 288.001236 47.964703 294.248550 44.217450 C311.914261 33.621411 330.317947 24.497387 349.491409 17.035534 C359.836624 13.009411 370.370437 9.174328 381.143509 6.621899 C392.672683 3.890301 404.561721 2.610455 416.336624 1.013348 C421.809646 0.270978 427.386184 -0.033924 432.912307 0.002972 C448.236526 0.105206 463.124832 2.893994 477.598343 7.939282 C479.065261 8.450604 480.649856 8.883740 482.184402 8.899426 C491.016555 8.989819 499.897781 8.360211 508.672683 9.075055 C523.188186 10.257580 537.644241 12.205426 552.109451 13.961957 C569.290970 16.048352 585.352981 21.931866 600.411941 30.075665 C618.431595 39.820630 633.455886 53.077191 642.515701 71.970807 C646.102249 79.450421 648.065628 87.358441 649.335403 95.711896 C651.353347 108.986432 649.897293 121.988934 645.674026 134.042218 C641.118362 147.043561 633.621780 159.043133 627.074295 171.301373 C624.930740 175.314740 621.969803 178.967389 618.967971 182.425030 C615.972366 185.875470 618.027420 188.939129 619.435379 191.678631 C628.359939 209.043988 631.260330 227.543439 630.016189 246.778241 C629.060745 261.549359 623.829422 275.064679 615.978836 287.430707 C601.533645 310.184613 581.158889 326.574566 558.119461 339.940533 C534.381302 353.711896 509.265457 364.312909 483.074539 372.414654 C479.944778 373.382794 476.739334 374.106427 473.069046 374.943463 M227.069046 725.443463 C253.160110 734.374005 280.241287 738.179425 307.568802 739.729718 C322.694046 740.587750 337.964920 739.678204 353.128494 738.824322 C366.772537 738.056134 380.388626 736.516949 393.962234 734.866070 C404.483963 733.586407 415.156326 732.488995 425.345413 729.757062 C445.359817 724.391095 465.164505 718.192486 484.896927 711.843976 C495.631790 708.390240 505.018753 702.727032 513.296829 694.523297 C531.352737 676.629498 547.820755 657.496197 562.648513 636.891583 C566.297928 631.820172 569.252395 626.315533 568.923294 620.056866 C568.566604 613.271710 567.274368 606.508526 566.030227 599.802472 C562.415725 580.319806 554.664993 562.529522 543.710525 546.063031 C532.481155 529.183331 520.244583 513.106122 504.088821 500.642743 C493.626541 492.571576 482.795120 484.827313 471.434158 478.112347 C458.083084 470.221173 443.181228 465.591473 428.132766 462.100567 C417.091995 459.539410 405.748123 455.273907 394.467239 461.906842 C391.418899 463.699200 388.086990 465.003155 384.921096 466.602337 C370.725784 473.772992 355.908157 479.960614 342.509720 488.399579 C323.841751 500.157574 305.663772 512.876751 288.337173 526.531109 C269.871536 541.083111 252.405838 556.943585 234.982315 572.760113 C227.379409 579.661847 220.848953 587.771832 214.048538 595.523663 C206.369461 604.276959 198.266616 612.769513 191.541275 622.224347 C179.816848 638.706769 169.161636 655.946271 157.686111 672.612164 C155.300796 676.076397 156.039138 678.401105 157.860061 681.233624 C163.983902 690.759625 172.578140 697.700299 181.710464 704.096661 C195.431656 713.707257 210.538772 720.313092 227.069046 725.443463 M137.069046 293.443463 C140.958938 312.806561 154.871109 323.000836 171.647964 329.763531 C182.221450 334.025738 193.366836 337.120587 204.500381 339.670514 C215.281509 342.139630 226.375991 343.240155 237.332534 344.943890 C243.749160 345.941693 250.144058 347.121869 256.588272 347.887005 C261.748123 348.499615 267.275283 349.885480 272.107010 348.720440 C292.017166 343.919476 311.897232 338.835675 331.458450 332.788556 C351.626663 326.553753 371.473343 319.250836 391.342727 312.087811 C404.518631 307.337811 417.657058 302.402752 430.490799 296.812481 C439.774368 292.768597 449.078567 288.679608 456.542312 281.144879 C472.548416 264.986554 488.682449 248.973858 502.020584 230.453900 C513.225662 214.895550 523.932937 199.017804 529.158279 180.238873 C529.673538 178.386822 529.625808 175.734051 528.648269 174.223675 C524.702346 168.126019 520.749466 161.924969 515.964065 156.498395 C500.749832 139.245587 482.529007 125.702984 462.239944 114.980939 C448.961746 107.964032 434.916458 102.877545 420.423538 98.883832 C404.620193 94.529095 388.556717 91.743146 372.237503 91.045697 C351.367508 90.153851 330.493728 90.887005 309.948074 95.057171 C302.864639 96.494916 295.497879 98.236004 289.237198 101.636578 C279.488052 106.931988 270.240921 113.324994 261.379532 120.042401 C246.703933 131.167340 231.612320 141.985455 218.336929 154.652569 C202.850113 169.429852 188.505935 185.541546 174.850052 202.053509 C165.487442 213.374310 157.192581 225.850567 150.198440 238.772626 C144.461441 249.372174 140.619278 261.188275 137.367569 272.863446 C135.673477 278.946026 137.069046 285.889081 137.069046 293.443463 M135.569046 718.943463 C134.507949 721.671246 133.200882 724.331036 132.426956 727.138043 C128.385757 741.796246 121.990982 756.042828 124.084121 771.831647 C125.505630 782.553570 129.004837 792.721661 133.981704 802.202618 C141.902481 817.291730 153.314651 829.321148 167.899185 838.323346 C177.489578 844.243023 186.887039 850.589093 198.988907 848.919903 C207.782791 847.707013 216.613052 846.608746 225.309402 844.870587 C240.798050 841.774762 256.550369 839.358380 271.563369 834.651349 C306.297683 823.760968 340.369339 810.992047 372.332840 793.215069 C382.336136 787.651715 392.754715 782.793805 402.516800 776.846905 C421.722122 765.147198 440.610550 752.926373 459.585891 740.851544 C460.506424 740.265729 461.002273 739.012677 461.695755 738.070294 C460.440261 737.907940 459.077835 737.344952 457.946243 737.646832 C449.110183 740.004010 440.431961 743.094952 431.489944 744.884015 C411.416702 748.900250 391.288528 752.759747 371.047317 755.774884 C358.268142 757.678814 345.247757 758.710064 332.330398 758.758282 C314.283340 758.825543 296.186905 758.175397 278.196487 756.756085 C264.955154 755.711285 251.821060 753.114361 238.690689 750.903180 C219.154678 747.613019 200.682693 740.917340 182.960464 732.242169 C169.542923 725.674420 156.896255 717.851910 146.463760 706.884503 C143.361343 703.623028 140.791641 704.160504 139.280899 708.276959 C138.057754 711.609845 137.128616 715.050519 135.569046 718.943463 M520.069046 55.443463 C520.069046 59.332379 520.472000 63.272626 519.983963 67.099286 C519.011673 74.724591 519.039627 81.777203 526.276443 86.729291 C527.424270 87.514691 528.078811 88.985882 529.081009 90.024823 C533.711258 94.824627 535.982864 101.302228 542.240799 105.176068 C550.744949 110.440228 558.607742 116.927655 566.066360 123.644574 C574.820633 131.528302 583.141067 139.952008 591.090286 148.652508 C596.885696 154.995526 602.143386 161.917218 606.962356 169.039898 C611.498977 175.745404 611.102615 176.006390 615.102615 169.431134 C615.354812 169.016339 615.891555 168.772259 616.135330 168.354901 C621.460281 159.237530 627.450271 150.428937 631.909134 140.904034 C638.716995 126.361249 642.078811 111.019635 639.125930 94.728253 C636.830520 82.064923 631.567947 70.934918 623.002884 61.433148 C612.957595 50.289227 600.694290 42.161603 586.937210 36.357617 C565.380325 27.262921 542.751175 22.980389 519.453811 21.962414 C516.295242 21.824444 513.123611 22.009198 509.961380 21.923077 C507.332351 21.851513 504.708328 21.601422 502.082107 21.430432 C503.604202 23.627881 504.914016 26.015973 506.685867 27.989148 C513.540603 35.622571 518.773636 44.022198 520.069046 55.443463 M74.569046 366.943463 C73.150161 365.943463 71.848770 364.681134 70.294021 363.984356 C56.133865 357.637921 42.501419 350.538312 31.622696 339.064862 C28.238662 335.495831 26.726761 339.589093 26.267044 341.423077 C22.182571 357.718548 20.061538 374.176556 24.078323 390.848675 C27.422073 404.727215 34.043533 416.967145 44.938980 426.110638 C65.246048 443.152325 89.815200 449.141583 115.571609 450.798504 C124.536697 451.375226 133.656021 450.733197 142.620742 449.821210 C152.530288 448.813092 162.454849 447.357220 172.171524 445.192486 C185.506607 442.221600 198.660904 438.432171 211.864456 434.888470 C213.038772 434.573346 214.005752 433.485821 215.069046 432.757001 C213.881485 432.152447 212.732071 431.127423 211.499832 431.015729 C205.989395 430.516095 200.351761 430.834088 194.950637 429.831097 C182.496780 427.518475 170.054763 424.994427 157.790786 421.844464 C143.064163 418.061993 129.459854 411.327313 116.294937 403.860089 C109.491836 400.001324 102.529068 395.990338 96.804336 390.769696 C88.977554 383.632123 82.261306 375.276837 74.569046 366.943463 M528.569046 337.943463 C535.022415 334.610150 541.572952 331.450543 547.911453 327.911542 C568.355423 316.496869 587.036209 302.917279 600.886917 283.611126 C609.835525 271.137982 614.959427 257.229352 616.054275 241.902447 C617.073562 227.634564 613.209304 214.301373 608.101883 201.205487 C607.046341 198.498883 606.091018 198.394147 604.045852 200.394574 C598.156936 206.154645 592.269241 211.936688 586.067947 217.351300 C578.672805 223.808331 570.800247 229.720074 563.440384 236.214642 C559.950393 239.294232 555.575393 242.708050 554.371414 246.787945 C550.906814 258.528424 547.832107 270.291485 542.126907 281.257306 C535.177078 294.615460 526.806839 306.884442 516.042068 317.434552 C508.730545 324.600201 501.605911 332.021710 493.746780 338.544476 C485.980301 344.990216 477.387283 350.438458 469.180862 356.357525 C468.191482 357.071148 467.351883 357.992352 466.442825 358.817303 C467.914261 359.096722 469.564773 359.948651 470.825271 359.553998 C475.671341 358.036664 480.392166 356.120038 485.159988 354.352337 C499.462967 349.049359 513.766067 343.746441 528.569046 337.943463 M122.069046 605.443463 C118.064468 610.447980 113.994278 615.401715 110.066909 620.466046 C94.320511 640.770855 79.861526 661.908063 70.570694 686.048321 C64.320816 702.287335 60.134903 719.123517 60.174087 736.665875 C60.188369 743.053692 60.886062 749.546124 62.186355 755.800763 C64.295425 765.945782 67.254715 775.806134 72.466324 785.014386 C79.542678 797.517560 88.622207 808.114972 99.736892 817.074933 C100.435867 817.638287 101.369461 817.910748 102.193985 818.318585 C102.424331 817.298932 102.965225 816.238751 102.838455 815.265606 C100.967483 800.902691 98.348098 786.601422 97.250686 772.183331 C96.107193 757.158917 98.562210 742.257550 100.906021 727.357403 C103.464798 711.090802 107.117813 695.231671 112.655105 679.720929 C115.469192 671.838360 120.310684 664.496808 119.170730 655.376080 C118.321670 648.582989 117.649490 641.605450 118.263504 634.833722 C118.997085 626.743268 121.262832 618.798199 122.686050 610.758526 C123.017593 608.885846 122.627273 606.885235 122.069046 605.443463 M506.069046 313.443463 C511.367752 307.144818 516.872635 301.006390 521.920486 294.512616 C531.156326 282.631085 537.257156 269.083661 542.029617 254.904522 C542.288162 254.136395 541.977615 253.176800 541.931839 252.306317 C541.127761 252.535260 540.224319 252.602398 539.538284 253.023541 C537.533279 254.254437 535.681839 255.741192 533.652176 256.925458 C516.088699 267.173810 498.543533 277.454876 480.893264 287.552228 C474.869827 290.998150 468.009353 293.204144 462.509842 297.292950 C453.190872 304.221478 444.690261 312.244488 435.770584 319.717816 C426.146682 327.781354 416.848587 336.316205 406.669265 343.614789 C390.995803 354.852582 374.684890 365.200787 358.680008 375.979352 C357.962600 376.462506 357.597976 377.469586 357.069046 378.232586 C357.928787 378.469525 358.776321 378.792462 359.651931 378.918439 C360.467727 379.035748 361.327713 379.043988 362.144119 378.928509 C376.138626 376.949322 390.143631 375.037396 404.115066 372.905011 C411.422439 371.789776 418.936844 371.067425 425.866897 368.718976 C432.661697 366.416424 438.941238 362.467084 445.260208 358.908978 C467.281326 346.509442 487.343948 331.450665 506.069046 313.443463 M527.569046 499.943463 C529.807083 502.514813 531.977005 505.149212 534.294510 507.646893 C545.883011 520.136395 555.830642 533.731854 563.671219 548.938763 C571.898513 564.896222 579.722488 580.894269 581.129593 599.193341 C581.202957 600.144635 582.156082 601.028302 582.699661 601.943463 C583.489456 601.108014 584.621170 600.406720 585.010574 599.414166 C586.809646 594.826886 588.258011 590.100567 590.099929 585.532086 C593.621414 576.797589 597.959793 568.227521 596.992996 558.448224 C596.404495 552.493085 595.319168 546.556195 594.022781 540.707379 C589.927688 522.232464 581.776565 505.657696 569.108230 491.612408 C556.387649 477.509076 541.331741 466.522015 523.775467 458.829632 C511.014846 453.238507 497.856765 449.356732 484.216751 447.009808 C478.065139 445.951336 471.803787 445.324811 465.566970 445.020062 C458.698074 444.684369 451.796951 444.844830 444.918167 445.058148 C443.971145 445.087567 443.072220 446.664776 442.151077 447.525494 C442.788040 447.998150 443.358474 448.644024 444.071853 448.917462 C453.989822 452.719647 464.238479 455.817486 473.795486 460.370038 C493.966385 469.978558 511.406204 483.560040 527.569046 499.943463 M511.569046 757.943463 C511.737136 757.943463 511.964431 758.015606 512.064773 757.933209 C526.232742 746.283429 541.036453 735.307965 554.365677 722.765606 C567.232254 710.658551 579.339309 697.547223 590.407180 683.773785 C605.864700 664.537701 619.030227 643.650006 627.994949 620.461529 C635.706253 600.515362 640.099807 579.792950 640.988968 558.411480 C641.196975 553.408307 640.458694 548.358929 640.049514 543.339459 C639.776443 539.989117 639.752884 536.531781 638.858474 533.334637 C635.775222 522.313336 632.995437 511.137921 628.864578 500.501019 C625.641433 492.201397 620.606399 484.601361 616.291946 476.736859 C615.929397 476.075787 614.924026 475.767376 614.217361 475.295086 C614.040603 476.217206 613.622635 477.166791 613.724197 478.057232 C614.791458 487.424786 616.211868 496.761517 616.951248 506.152814 C617.303177 510.624798 616.086380 515.198895 616.137405 519.720501 C616.231521 528.080243 617.143142 536.444195 616.962600 544.790021 C616.752029 554.517987 616.222854 564.293927 614.928177 573.927716 C613.700393 583.063702 612.056350 592.280743 609.280227 601.045636 C601.117630 626.817242 591.741653 652.191266 577.176468 675.159894 C569.663650 687.007428 561.240799 698.301861 552.823074 709.542096 C548.352493 715.511822 543.147049 720.955670 538.038650 726.417340 C530.025711 734.984479 522.033279 743.592145 513.609939 751.746441 C507.948562 757.227032 501.529251 761.920514 495.534744 767.066266 C494.871048 767.635846 494.771682 768.862897 494.410598 769.785016 C495.430374 769.537579 496.661941 769.573712 497.435012 768.996075 C502.038406 765.557232 506.535965 761.976544 511.569046 757.943463 M406.069046 810.443585 C413.544510 805.968121 421.165237 801.716778 428.469070 796.976910 C454.547195 780.053082 478.649734 760.531720 501.628860 739.683453 C513.826248 728.617291 525.051345 716.478375 536.670120 704.778912 C537.125076 704.320660 537.111526 703.397320 537.316238 702.690655 C536.512039 702.663434 535.495315 702.308697 534.941604 702.667828 C532.944656 703.962994 531.237014 705.732892 529.180252 706.901837 C521.373977 711.338605 513.159744 715.135480 505.694900 720.073834 C497.868606 725.251446 490.790359 731.547955 483.273025 737.206891 C470.467239 746.847027 457.802566 756.700055 444.648880 765.845440 C432.853592 774.046490 420.676345 781.747174 408.310745 789.065899 C393.381057 797.902569 378.227005 806.391949 362.872390 814.465802 C354.451492 818.893414 345.468582 822.278790 336.649124 825.915753 C321.854568 832.016705 307.111465 838.277691 292.105056 843.816632 C283.265457 847.079327 273.948196 849.039654 264.877823 851.695050 C263.621597 852.062726 262.549942 853.061017 261.392837 853.767315 C262.895950 854.159405 264.478164 855.066754 265.887954 854.850323 C270.840225 854.090069 275.717727 852.858258 280.651565 851.959210 C295.528030 849.248395 310.492630 846.966046 325.282913 843.851788 C343.177444 840.084088 360.518875 834.466412 376.807205 825.945660 C386.388504 820.933575 395.981399 815.943585 406.069046 810.443585 M108.069046 376.443463 C109.677261 377.718304 111.195572 379.131573 112.908950 380.244427 C121.033889 385.522320 128.787124 391.615826 137.473159 395.728497 C149.820633 401.574811 162.611648 406.810101 175.694534 410.678143 C186.807754 413.963727 198.594864 414.989544 210.099868 416.919903 C214.492508 417.656842 218.925979 418.589032 223.347183 418.623639 C232.167312 418.692608 241.563797 420.045819 249.684951 417.525799 C262.969314 413.403607 275.428909 406.619427 288.218399 400.917706 C288.911758 400.608624 289.438491 399.925946 290.042740 399.417157 C289.080642 398.925946 288.153640 398.107647 287.150406 398.000165 C282.806961 397.534588 278.424026 397.423016 274.086624 396.916302 C260.448562 395.323224 246.708633 394.241314 233.227981 391.764569 C219.941665 389.323468 206.917801 385.445660 193.791336 382.148175 C189.883560 381.166485 186.051407 379.249188 182.127456 379.078961 C166.794571 378.413800 151.433365 378.424786 136.094070 377.870160 C130.026687 377.650799 123.995132 376.545758 117.935379 375.969220 C114.659561 375.657635 111.358657 375.610089 108.069046 376.443463 M535.069046 158.443463 C535.058181 146.354840 535.959060 134.151349 531.048660 122.629254 C529.098098 118.052472 528.293655 112.981732 523.528152 109.791363 C505.523513 97.737408 485.947952 88.921429 465.539749 82.082928 C451.447586 77.360760 437.042068 73.387494 422.539993 70.134503 C411.106277 67.569684 399.345047 66.314984 387.669143 65.019024 C373.040970 63.395367 360.081253 70.877362 346.191604 73.402569 C345.391189 73.548138 344.772293 74.692303 344.069046 75.371686 C345.170608 75.895611 346.265945 76.858563 347.374588 76.874005 C356.258133 76.998272 365.143997 76.923077 374.029251 76.947980 C389.569290 76.991559 404.706131 80.149640 419.548660 84.140057 C431.261184 87.289044 442.926345 91.307049 453.851638 96.530682 C470.755935 104.613080 487.300369 113.653729 501.559280 126.072613 C507.928543 131.619855 513.794876 137.789898 519.520218 144.016766 C523.960525 148.845990 527.777420 154.244488 532.003738 159.278912 C532.640701 160.037701 533.895584 162.900982 535.069046 158.443463 M547.569046 162.943463 C547.099685 165.079510 546.288162 167.206402 546.230423 169.353558 C546.100906 174.168194 546.082718 179.018658 546.550979 183.802533 C546.782425 186.165997 548.269241 188.388287 549.055740 190.718976 C552.610183 201.251446 555.265335 211.949872 555.126053 223.188153 C555.111770 224.344769 555.888870 225.511334 556.298782 226.673260 C557.338089 226.147442 558.525222 225.794293 559.385086 225.058697 C561.024612 223.656109 562.402908 221.951397 564.019485 220.518536 C575.334427 210.488812 586.643386 200.451397 598.048294 190.524457 C600.844558 188.090497 600.848343 185.330243 599.008011 182.810467 C591.700882 172.805829 584.684646 162.512372 576.546463 153.213421 C569.182571 144.798993 560.538040 137.497784 552.356887 129.813458 C551.032669 128.569684 549.182327 127.886029 547.575149 126.943463 C547.590042 128.960431 547.476761 130.988202 547.645340 132.992230 C548.049392 137.792828 548.912918 142.577740 548.979080 147.377423 C549.048416 152.394269 548.402298 157.421063 547.569046 162.943463 M139.068985 137.443402 C126.962539 147.216595 114.220901 156.315411 102.927505 166.951764 C91.523636 177.692242 81.206802 189.660809 71.042740 201.625653 C56.901931 218.271832 46.072708 237.061993 37.414016 257.100812 C36.620681 258.936749 35.530899 260.725018 35.184341 262.644757 C34.963455 263.868573 35.859451 265.294049 36.254654 266.629071 C37.192764 265.895062 38.456192 265.347516 39.005081 264.390301 C40.379532 261.993023 41.150711 259.226971 42.654861 256.930462 C55.202713 237.771832 70.050918 220.433453 85.780532 203.885296 C95.343277 193.824872 105.436660 184.230511 115.747207 174.931866 C123.592056 167.856915 132.068985 161.467633 140.417862 154.970135 C151.848159 146.074322 163.429031 137.372113 174.935135 128.573590 C184.928909 120.931500 194.715164 112.999127 204.960647 105.711712 C212.052322 100.667523 219.806778 96.561444 227.168106 91.883587 C228.370071 91.119793 229.068802 89.564190 230.000198 88.374615 C228.765274 88.322125 227.322525 87.822674 226.327407 88.285565 C215.432144 93.353863 204.232864 97.921856 193.844803 103.893353 C175.486343 114.446393 157.633499 125.878949 139.068985 137.443402 M116.069046 228.443463 C119.603286 222.575848 123.206619 216.747845 126.611160 210.805951 C127.259109 209.674969 127.121353 208.093915 127.346084 206.720501 C126.167984 207.380597 124.517837 207.741864 123.882400 208.745526 C114.199844 224.039776 103.882400 239.004071 95.307205 254.905011 C88.199051 268.085919 83.739212 282.461468 80.818496 297.410199 C77.709549 313.322003 79.110672 328.285382 84.733169 343.267132 C86.330825 347.524335 89.319351 349.581830 93.004898 350.859906 C97.832657 352.534161 102.802932 353.975323 107.827163 354.868146 C118.589492 356.780560 129.422683 358.296795 140.235733 359.916363 C141.484817 360.103436 142.789932 359.917035 144.069046 359.903851 C143.019729 358.701031 142.112320 357.322735 140.889907 356.333783 C138.683731 354.548932 136.247329 353.052228 133.980301 351.338238 C122.912857 342.970440 114.202469 332.547223 107.930740 320.229535 C99.995132 304.644330 98.845657 287.871441 101.194595 270.939313 C103.251541 256.111798 109.079971 242.364361 116.069046 228.443463 M439.569046 42.943432 C446.345901 44.276776 453.186111 45.351849 459.887649 46.992962 C478.404617 51.527325 495.449173 59.181561 510.194290 71.520123 C510.995803 72.190838 512.118362 72.477826 513.091507 72.943463 C513.417434 71.839154 514.041580 70.730084 514.024246 69.631268 C513.771316 53.738690 506.763504 40.946179 494.634475 31.328229 C488.903030 26.783398 482.737747 21.666272 474.183181 22.898297 C465.799148 24.105725 457.347000 24.832043 448.952469 25.974103 C440.158401 27.170422 431.300125 28.162915 422.644485 30.046582 C409.116165 32.990643 395.724197 36.568768 382.295730 39.961896 C376.129593 41.520001 369.980056 43.168561 363.904251 45.039593 C362.762161 45.391278 362.004226 46.990216 361.069046 48.013592 C362.189285 48.323590 363.326004 48.939862 364.426223 48.880414 C366.797805 48.752240 369.233841 48.561078 371.497390 47.897259 C386.035110 43.633771 401.035354 42.771832 416.002761 42.063366 C423.494217 41.708783 431.045120 42.610119 439.569046 42.943432 M344.569046 415.943463 C331.826858 418.840436 319.887649 423.950421 308.527603 430.176495 C299.370620 435.195233 290.762405 441.231305 282.010330 446.968060 C274.263260 452.046124 266.634903 457.306683 259.015274 462.575116 C258.323867 463.053204 258.078872 464.177044 257.626663 465.001141 C258.645950 465.276776 259.686660 465.823163 260.677993 465.744671 C261.513870 465.678570 262.257522 464.809491 263.101944 464.428631 C269.413345 461.581647 275.628006 458.475506 282.086136 456.008587 C293.160232 451.778363 304.703933 448.648053 315.467239 443.769147 C326.848220 438.610455 337.477981 431.816327 348.560623 425.973187 C367.310989 416.087201 386.378494 406.959881 407.426345 402.871930 C408.410965 402.680707 409.192825 401.446576 410.069046 400.698102 C409.029251 400.113263 407.919387 398.937604 406.962234 399.050946 C403.709060 399.436322 400.538894 400.575238 397.284988 400.894024 C379.091873 402.676312 362.611038 410.259625 344.569046 415.943463 M296.569046 360.943402 C289.127151 362.276776 281.685318 363.610089 274.243423 364.943402 C263.080581 366.943463 251.912307 368.914715 240.764297 370.994366 C239.797622 371.174725 238.964309 372.070416 238.069046 372.633771 C238.895950 373.070355 239.687393 373.783490 240.555984 373.894940 C244.066909 374.345257 247.607071 374.560650 251.126541 374.952069 C265.927200 376.598370 280.701675 378.534894 295.532303 379.833172 C302.804580 380.469769 310.199966 380.276715 317.498184 379.810345 C321.461868 379.556988 325.637039 378.552472 329.189773 376.811261 C335.725662 373.607892 341.877639 369.619183 348.173538 365.930340 C348.857010 365.529889 349.434524 364.948651 350.061233 364.451275 C349.275345 363.948651 348.532547 363.108319 347.696121 363.001690 C344.020828 362.533185 340.324539 362.095074 336.625076 361.976300 C323.608841 361.558392 310.588089 361.276776 296.569046 360.943402 M576.569046 457.943402 C582.813553 464.854535 589.384353 471.506268 595.168411 478.783185 C598.183792 482.576886 599.707595 487.532330 602.148025 491.824933 C602.714065 492.820477 604.271560 493.252240 605.372879 493.943463 C605.346634 492.851849 605.518020 491.711468 605.262161 490.676617 C603.582473 483.884686 602.211380 476.979107 599.963089 470.374981 C597.415115 462.890973 595.810501 454.544171 588.970779 449.507672 C581.411087 443.941083 573.845901 437.861126 565.334060 434.228192 C551.894363 428.491925 537.710281 424.461407 523.737259 420.036969 C519.707595 418.761029 515.333572 418.495709 511.087478 418.053143 C510.358230 417.977154 509.478592 419.343060 508.668411 420.042828 C512.991531 423.387921 515.059158 429.115765 521.183059 430.694623 C528.947708 432.696271 536.574539 435.303387 544.141311 437.986432 C556.114944 442.232037 566.582718 449.059491 576.569046 457.943402 M543.569046 209.943463 C542.735794 206.298749 541.938430 202.645184 541.046707 199.014874 C540.786941 197.957074 540.257766 196.965436 539.852127 195.943463 C538.904495 196.796612 537.633255 197.474774 537.061966 198.531415 C533.321731 205.447857 529.861770 212.517132 526.068313 219.403241 C517.845901 234.329510 507.519851 247.737469 496.180618 260.412579 C494.569534 262.213360 493.531570 264.526715 492.228470 266.602826 C494.260940 265.716351 496.436233 265.060895 498.303177 263.906720 C512.211136 255.307843 526.022659 246.552533 539.947830 237.982098 C543.619827 235.721966 545.590164 233.022626 545.134597 228.476056 C544.534744 222.489728 544.402420 216.456524 543.569046 209.943463 M366.569046 337.943463 C362.627761 339.276776 358.716629 340.708905 354.739456 341.924481 C343.654495 345.312237 332.533523 348.582440 321.456253 351.994549 C320.546463 352.274823 319.859573 353.278363 319.069046 353.945782 C319.999099 354.278363 320.912185 354.833783 321.862136 354.906598 C327.210403 355.316388 332.582473 355.459881 337.917068 355.990094 C342.323684 356.428082 346.670730 357.580426 351.079055 357.850812 C354.841385 358.081647 358.653274 358.582440 362.121780 355.577679 C366.018753 352.201642 370.586258 349.600628 374.856521 346.654217 C385.341629 339.419781 395.844803 332.211285 406.267654 324.888165 C407.148636 324.269147 407.481521 322.869855 408.069046 321.833050 C407.074539 321.869855 406.043411 321.753216 405.094436 321.980267 C403.754837 322.300702 402.454055 322.822430 401.174514 323.349652 C389.801345 328.036114 378.436355 332.742779 366.569046 337.943463 M42.569046 300.943463 C38.855301 305.685528 37.247635 311.009076 41.179519 316.035992 C45.783218 321.921856 51.182022 327.192181 56.334549 332.636151 C57.226211 333.578229 58.608535 334.056012 59.764175 334.748272 C59.852127 333.299664 60.318008 331.752667 59.970352 330.417523 C55.998916 315.166730 57.654373 299.941693 60.800735 284.925397 C62.363418 277.467633 65.825515 270.413800 68.315994 263.138775 C68.742752 261.892010 68.603775 260.451520 68.726150 259.100567 C67.570449 259.818158 65.989761 260.267193 65.335769 261.301922 C63.025528 264.957318 61.052566 268.824566 58.915420 272.590985 C53.643997 281.881146 48.352432 291.160016 42.569046 300.943463 M491.569046 422.943463 C488.239212 420.943463 485.087478 417.728314 481.540847 417.208905 C475.134842 416.270733 468.421096 416.331097 461.966751 417.089032 C452.610794 418.187726 443.304153 419.976605 434.099319 422.022870 C423.650711 424.345624 413.335525 427.269879 402.969558 429.959637 C402.305130 430.132184 401.701126 430.537823 401.069046 430.835064 C401.657058 431.537884 402.122757 432.609173 402.862625 432.855023 C403.911087 433.203473 405.176468 433.063885 406.323806 432.924115 C414.230423 431.961041 422.112259 430.748639 430.038406 430.003522 C436.692337 429.378033 443.406204 429.417584 450.074661 428.912457 C461.810867 428.023541 473.525100 426.835431 485.265823 426.022015 C488.085037 425.826703 490.967605 426.662762 493.831131 426.906842 C494.557327 426.968731 495.321975 426.578961 496.069046 426.396832 C495.588089 425.598065 495.221511 424.688702 494.590042 424.035382 C494.082962 423.510541 493.254715 423.295819 491.569046 422.943463 M577.569046 481.943463 C579.336746 484.044537 581.312942 486.005230 582.837478 488.269940 C591.276321 500.805829 598.757400 513.806561 602.154861 528.775311 C602.409744 529.898541 603.884597 530.745038 604.792312 531.720196 C605.217849 530.396466 606.320877 528.843060 605.962234 527.785260 C603.042434 519.175702 600.551712 510.315838 596.583938 502.189618 C589.650711 487.990094 580.182937 475.594586 567.498001 465.774518 C557.664505 458.161969 547.536575 451.245831 535.409500 447.850812 C534.480301 447.590619 533.343216 448.072674 532.302810 448.209698 C533.069534 448.798932 533.770828 449.511090 534.612747 449.959149 C550.342117 458.330365 565.058548 468.060040 577.569046 481.943463 M273.569046 505.943463 C270.525650 508.653546 267.417434 511.296185 264.481399 514.117962 C263.681656 514.886700 263.400161 516.194684 262.880752 517.255169 C263.921035 517.007062 265.172256 517.048321 265.969741 516.467084 C276.225784 508.992474 286.264358 501.210797 296.658950 493.937054 C314.014114 481.792462 332.101638 470.848065 351.425857 462.051434 C352.720657 461.462018 353.858352 460.526959 355.069046 459.752545 C353.574661 459.482831 352.088333 459.127667 350.581863 458.988812 C350.037185 458.938580 349.459427 459.455609 348.872024 459.631207 C334.905471 463.807843 321.908645 469.811139 310.338211 478.892926 C298.581253 488.121380 286.505264 496.943402 273.569046 505.943463 M184.068985 547.443402 C182.735672 549.054364 181.240982 550.559002 180.097671 552.295086 C175.715347 558.949200 171.291336 565.584576 167.183487 572.407940 C163.918045 577.832135 161.025711 583.486554 158.125747 589.120099 C157.569595 590.200543 157.748367 591.659283 157.588089 592.943463 C158.748367 592.146832 160.262222 591.594586 161.010208 590.512921 C165.106033 584.589093 168.545059 578.152569 173.078140 572.601178 C184.619095 558.467999 195.488174 543.694439 209.594741 531.835858 C210.447708 531.118756 210.763321 529.762372 211.328994 528.703412 C209.957107 528.902020 208.239822 528.641400 207.268081 529.372113 C199.621353 535.122357 192.117202 541.062115 184.068985 547.443402 M360.569046 31.943493 C363.176223 31.002972 365.727005 29.840069 368.400345 29.159863 C380.763382 26.014294 393.129104 22.867474 405.558181 19.999310 C411.993728 18.514172 418.576736 17.676953 425.058426 16.373669 C426.152786 16.153637 427.070022 15.052472 428.069046 14.358410 C426.944656 13.886761 425.777908 12.930493 424.702957 13.024426 C418.972976 13.525250 413.144485 13.767926 407.575515 15.066540 C394.725052 18.063092 381.966629 21.480877 369.251907 25.019024 C364.981033 26.207501 360.917312 28.192364 356.850296 30.017010 C356.067703 30.368115 355.711624 31.669842 355.158645 32.533001 C355.962845 32.336468 356.758255 32.079907 357.573806 31.962414 C358.226272 31.868390 358.903030 31.943463 360.569046 31.943493 M188.569046 353.943463 C183.775833 352.276776 179.003677 350.543316 174.165786 349.018414 C173.473220 348.800152 172.463028 349.589642 171.599807 349.912701 C172.068435 350.735211 172.336074 351.929425 173.042801 352.311749 C175.331680 353.549664 177.826553 354.399518 180.162185 355.559674 C190.698379 360.793011 202.002151 360.182782 213.240615 359.856549 C214.534561 359.818951 215.793777 358.585003 217.069046 357.905682 C216.100906 357.251568 215.179580 356.119305 214.157058 356.019085 C205.971878 355.217084 197.767532 354.610089 188.569046 353.943463 M480.069046 73.443524 C482.669998 74.377789 485.256179 75.357770 487.884964 76.205914 C488.380813 76.365948 489.045730 76.001996 489.632522 75.879864 C489.453933 75.410382 489.412185 74.756146 489.072464 74.504315 C487.823196 73.578412 486.575882 72.510602 485.147903 71.987591 C474.910843 68.238324 464.645706 64.563458 454.333816 61.026959 C453.452224 60.724591 452.166824 61.599042 451.069046 61.926861 C452.017776 62.599042 452.875442 63.523846 453.929519 63.903546 C462.455154 66.974652 471.017776 69.943463 480.069046 73.443524 M586.069046 618.443463 C584.735672 623.206891 583.328445 627.952008 582.131424 632.749371 C581.891189 633.711773 582.450271 634.873639 582.640823 635.943463 C583.450271 635.131085 584.645095 634.461529 585.007644 633.483502 C587.785965 625.991314 590.439285 618.451642 593.015091 610.887066 C593.290481 610.078106 592.820144 609.015240 592.695633 608.070050 C591.775711 608.572125 590.465530 608.843854 590.007766 609.618878 C588.526321 612.127667 587.357986 614.821148 586.069046 618.443463 M278.069046 81.443463 C276.423477 82.276776 274.711441 83.004925 273.159011 83.985699 C272.321365 84.514874 271.756790 85.476239 271.069046 86.242657 C272.155410 86.223248 273.438125 86.576642 274.296829 86.124676 C280.572281 82.821759 286.773086 79.375714 292.959304 75.906720 C293.433670 75.640668 293.615432 74.852887 293.933181 74.307599 C293.366348 74.298321 292.706253 74.092511 292.247024 74.310284 C287.668777 76.481366 283.123550 78.722272 278.069046 81.443463 z"/></svg>