<?xml version="1.0" encoding="utf-8"?><!DOCTYPE svg PUBLIC "-//W3C//DTD SVG 1.1//EN" "http://www.w3.org/Graphics/SVG/1.1/DTD/svg11.dtd"><svg version="1.1" id="Contours" xmlns="http://www.w3.org/2000/svg" xmlns:xlink="http://www.w3.org/1999/xlink" x="0px" y="0px" width="631.365601px" height="631.365601px" viewBox="0.000018 0.000008 631.365601 898.890015" enable-background="new 0 0 631.365601 631.365601" xml:space="preserve" stroke="black" fill="none" stroke-linecap='round' stroke-linejoin='round'><path class="selected"  fill="#000000" opacity="1.000000" stroke="none" 
 	d="
M552.705549 694.258415 C546.798932 702.164909 541.180890 709.850700 535.435163 717.439812 C534.747297 718.348259 533.364728 718.730705 532.303937 719.357048 C532.327497 717.767693 531.738386 715.777946 532.473371 714.653801 C537.469831 707.011833 542.770490 699.569695 547.922590 692.028679 C552.798932 684.891472 557.629987 677.723137 562.433698 670.536858 C562.994977 669.697258 563.257062 668.657585 563.657697 667.710564 C562.401838 667.831657 560.840314 667.517448 559.941999 668.148064 C555.644391 671.164787 551.201520 674.095085 547.410871 677.689201 C538.989606 685.673943 531.214704 694.354973 522.617170 702.134026 C516.887067 707.318596 510.045270 711.253777 503.994977 716.114250 C501.126935 718.418205 498.338727 721.238029 496.562116 724.410881 C489.306745 737.367668 482.238996 750.440666 475.505353 763.676018 C464.797590 784.722160 454.327131 805.890495 443.925397 827.090080 C438.426862 838.296867 433.279767 849.676506 427.985822 860.983513 C426.548444 864.053459 424.828718 867.046013 423.866804 870.262077 C423.325788 872.071404 423.379011 874.701286 424.339704 876.216179 C432.693342 889.389275 424.305524 894.293083 414.110456 896.962151 C410.462140 897.917229 406.657941 898.983147 402.954694 898.883537 C393.315778 898.624626 383.684919 897.853874 374.067487 897.079704 C367.842756 896.578484 361.580549 896.071770 355.452253 894.935661 C341.416608 892.333855 327.436628 889.421013 313.466047 886.482536 C305.525007 884.812492 297.536237 883.213982 289.774518 880.895256 C283.156965 878.918205 276.786542 876.070305 270.390485 873.406609 C260.440534 869.262566 250.612531 864.821159 240.611066 860.809563 C238.545331 859.980949 235.856305 860.044670 233.618818 860.501579 C231.594953 860.914787 229.334882 862.040154 231.397565 865.111076 C232.668805 867.003654 233.326826 869.300041 234.339094 871.376701 C235.866376 874.509758 235.822614 874.383659 238.589704 872.574577 C239.001935 872.304924 241.266340 873.590691 241.322370 874.268547 C241.610090 877.744621 241.730573 881.285515 241.374433 884.748772 C241.049970 887.903557 235.579755 889.624504 233.177900 887.075554 C226.729535 880.232536 219.337385 873.796745 214.705243 865.814934 C200.801679 841.857170 188.308027 817.085930 174.735029 792.929680 C164.828534 775.298821 154.002363 758.186760 143.749433 740.747551 C138.486249 731.795525 133.418256 722.719475 128.545209 713.548943 C116.428754 690.747063 104.430036 667.881950 92.494733 644.984612 C90.221052 640.622551 87.595991 636.161491 86.685956 631.446526 C85.681562 626.242058 90.286970 621.897331 95.691388 622.089592 C100.687360 622.267204 100.715375 620.429802 99.595930 616.267937 C97.841230 609.744133 96.363080 602.933464 102.521467 597.386345 C106.037397 594.219597 111.690717 593.784050 115.080976 597.258049 C118.091230 600.342522 120.459821 604.044670 123.341596 607.268547 C124.163251 608.187737 125.786909 608.390129 127.042768 608.921135 C126.728742 607.665276 126.617170 606.311882 126.067243 605.169670 C122.921064 598.635124 119.290388 592.301872 116.625409 585.582268 C115.399946 582.492546 114.972822 578.345818 115.976240 575.261589 C118.295637 568.131584 126.636274 568.491692 130.740217 572.984245 C137.243207 580.103020 143.194684 587.737175 149.198224 595.297356 C156.144269 604.044182 162.904584 612.938835 169.726545 621.783928 C178.979108 633.780510 188.314374 645.714836 197.430890 657.813957 C209.853193 674.300774 221.856305 691.108635 234.499616 707.422112 C245.817670 722.025627 257.235090 736.618889 269.598920 750.323357 C278.817304 760.541374 289.245222 769.776604 299.823591 778.625603 C308.650007 786.009026 318.298444 792.465813 327.910383 798.838860 C337.751081 805.363762 341.740949 804.592644 351.513532 795.422234 C359.221906 788.188713 366.720930 780.731316 374.466779 773.539055 C386.232038 762.614616 398.139264 751.843376 409.953351 740.971428 C410.809064 740.183830 411.397931 739.106316 412.110700 738.163567 C410.854841 737.982658 409.571760 737.538445 408.347516 737.664299 C401.177228 738.401726 394.121076 738.537834 388.717512 732.711296 C383.523420 727.110710 384.429181 718.761711 391.093366 711.931877 C400.733137 702.052483 410.118513 691.850334 420.458478 682.746941 C434.693830 670.213860 449.857404 658.739861 464.296491 646.429070 C467.398298 643.784538 469.331891 639.632072 471.405988 635.950310 C475.123884 629.350334 478.145490 622.327141 482.219465 615.968864 C485.009015 611.615349 487.458722 605.441887 494.921125 607.973991 C495.236921 606.956535 496.093488 605.727043 495.789777 604.952629 C487.541730 583.917473 482.423200 561.993156 477.537946 540.033318 C474.431379 526.069572 472.101056 511.932610 469.469465 497.864616 C468.762311 494.083855 466.808332 491.650139 462.769880 492.061028 C457.272687 492.620110 453.223249 489.791130 449.566755 486.515495 C441.138776 478.965935 434.893903 469.673393 428.960676 460.097527 C419.225446 444.385185 411.054670 427.892998 405.476667 410.331230 C400.386335 394.304619 386.571515 385.900322 376.153303 374.556999 C374.051496 372.268547 369.679548 371.713005 366.222272 371.089653 C356.768171 369.384941 347.978132 365.955009 339.968488 360.851494 C334.909772 357.628166 330.037946 360.481987 325.113019 360.183464 C321.443220 359.961052 317.700300 361.649712 313.947492 361.942558 C306.770246 362.502739 299.565656 362.780998 292.367048 362.986015 C278.007856 363.394829 263.640790 364.055901 249.284894 363.897514 C235.889203 363.749870 222.496808 362.786125 209.116987 361.956474 C203.374067 361.600334 197.647748 360.804436 191.947675 359.975761 C184.779218 358.933586 179.043744 362.149223 173.277204 365.651848 C159.972028 373.733696 146.619001 381.737541 133.243635 389.702812 C121.085981 396.942986 108.701337 403.816887 96.721052 411.337029 C72.747297 426.385490 49.035138 441.850273 25.082868 456.933342 C20.545942 459.790276 15.579511 462.276176 10.475019 463.826347 C6.056135 465.168266 3.405622 461.965324 1.345136 458.005119 C-0.763690 453.952019 1.291425 450.913078 3.526349 448.718376 C6.982099 445.324883 11.373945 442.891472 15.321332 439.986382 C16.139020 439.384636 16.749494 438.501335 17.455549 437.747795 C16.604474 437.501396 15.741254 437.005180 14.904035 437.045586 C0.972944 437.718864 -1.830889 425.744926 0.983930 417.264275 C7.192182 398.559868 14.401594 380.179131 21.504011 361.782707 C27.603742 345.983330 33.979780 330.286247 40.493696 314.652275 C47.659406 297.454094 55.114667 280.376579 62.457990 263.252556 C68.162763 249.949333 74.076154 236.730705 79.481672 223.307304 C80.922956 219.728264 81.049787 215.554802 81.416181 211.620354 C82.525068 199.711845 83.658430 187.798210 84.331403 175.861137 C84.532209 172.298882 81.295637 174.148613 79.659772 174.385551 C74.836408 175.084343 70.079206 176.232903 65.260541 176.973686 C60.524274 177.701775 57.017682 175.700371 55.521772 171.161491 C54.184858 167.105339 56.397077 162.839653 61.322065 160.780388 C66.860883 158.464531 72.667829 156.741936 78.445234 155.060356 C82.769452 153.801689 86.240522 152.824699 86.717145 146.919548 C87.133832 141.755608 87.829633 137.152336 85.429670 132.137444 C84.285444 129.746696 84.425580 124.747185 86.048322 123.380302 C92.240766 118.164421 91.732587 110.912651 93.488019 104.293755 C95.271711 97.568230 95.543378 90.246269 101.016157 84.904839 C103.369916 82.607658 106.058820 80.999931 109.177900 82.366081 C112.595380 83.862907 115.298688 86.309746 115.484968 90.601189 C115.689069 95.301872 116.038251 100.001152 116.515424 104.681572 C116.632490 105.829521 117.494062 106.901543 118.013288 108.008415 C118.930280 107.405571 119.974042 106.928032 120.728315 106.164543 C121.480451 105.403008 121.736066 104.034538 122.572492 103.495476 C124.642133 102.161491 126.870832 100.288933 129.121869 100.161980 C137.481672 99.690544 139.983564 97.557854 142.606611 89.090752 C143.540510 86.076225 145.787702 83.116020 148.201337 81.007866 C150.808210 78.730949 154.215986 79.255791 156.209089 82.359795 C158.978010 86.672050 162.336225 85.773369 165.907270 83.997673 C194.672162 69.694878 224.310224 57.574089 254.975446 47.950188 C272.414350 42.477104 290.103498 38.298821 308.061262 34.763786 C330.133161 30.418877 352.350202 30.002373 374.415998 31.505608 C385.849470 32.284477 394.607038 27.258904 404.402570 24.413811 C429.059186 17.252678 453.504011 9.364555 478.140485 2.130913 C483.283063 0.620964 488.874738 0.567680 494.279157 0.048088 C497.602277 -0.271431 500.600080 0.981499 501.349103 4.401421 C502.244855 8.490837 499.224347 10.848442 495.926008 11.934624 C475.236432 18.747307 454.490949 25.391899 433.727399 31.976677 C427.817121 33.851067 421.769025 35.286797 415.822858 37.053947 C414.611310 37.414055 413.573469 38.358330 412.455549 39.033196 C413.148176 39.884270 413.723127 40.877678 414.552350 41.563713 C420.732526 46.676994 421.902692 52.974297 415.100080 57.653801 C408.346906 62.299187 401.174665 66.555473 393.697126 69.883598 C376.008283 77.756706 357.932966 84.671379 338.716169 88.037651 C336.121930 88.492058 333.571638 89.262383 331.057355 90.063103 C330.413190 90.268242 329.983625 91.147392 329.455549 91.716850 C330.122663 92.147331 330.814069 92.978508 331.452497 92.939446 C334.324079 92.764030 337.184186 92.043938 340.041364 92.079887 C344.073347 92.130669 348.159650 93.282707 352.115339 92.887810 C361.766340 91.924126 371.348127 90.286919 380.971540 89.025139 C389.212995 87.944450 397.487775 87.111626 405.721784 85.980339 C414.519636 84.771660 423.278180 83.280083 432.070783 82.030876 C437.610700 81.243828 443.168195 80.520317 448.741193 80.039726 C461.484601 78.940727 474.240339 77.981133 486.997419 77.052727 C488.205182 76.964836 489.699323 77.148430 490.648054 77.803398 C494.695417 80.597893 494.575788 84.210320 489.868513 85.908134 C482.883893 88.427361 475.657331 90.511162 468.364728 91.879082 C460.051008 93.438469 451.543317 93.948174 443.143903 95.090019 C442.169660 95.222466 441.348005 96.476006 440.455549 97.209770 C441.482160 97.809319 442.521467 98.946404 443.533307 98.922478 C450.898664 98.748955 458.284162 97.799431 465.613874 98.143791 C475.058698 98.587517 484.458600 99.999992 493.874250 101.028130 C494.467756 101.092949 495.143171 101.308464 495.586530 101.683342 C497.253034 103.092278 498.839216 104.596489 500.455549 106.064934 C498.853010 106.815300 497.318830 107.849480 495.633283 108.255058 C492.417585 109.028862 489.127912 109.838860 485.847394 109.941216 C470.324079 110.425102 454.792097 110.621025 439.266462 111.039421 C434.232648 111.175102 429.201764 111.600456 424.186384 112.072258 C423.200178 112.164970 422.235090 113.002007 421.355817 113.629509 C415.079694 118.108940 407.821027 119.939262 400.401227 120.948723 C386.620588 122.823601 372.802839 124.445488 358.977888 125.968620 C350.945051 126.853630 342.840314 127.104485 334.818342 128.063713 C322.650617 129.518608 310.536359 131.415276 298.381208 132.983635 C289.645490 134.110832 280.845930 134.776909 272.136518 136.065178 C260.416120 137.798882 248.758222 139.953117 237.067304 141.889885 C226.611677 143.622063 216.117719 145.140984 205.695722 147.053520 C194.897077 149.035149 184.164228 151.375603 173.403119 153.561699 C169.407087 154.373467 165.342634 154.959221 161.452070 156.124504 C159.919294 156.583488 157.888349 158.171135 157.622114 159.543266 C156.825483 163.648308 156.728620 167.897270 156.466169 172.096794 C155.440046 188.513603 154.573469 204.941338 153.414289 221.348503 C152.629987 232.449089 151.577680 243.534782 150.421613 254.603813 C149.241804 265.900444 147.797529 277.169548 146.452741 288.448723 C145.444318 296.906670 147.675580 304.503532 152.413679 311.482658 C155.762617 316.415459 159.113447 321.352348 162.255048 326.416679 C162.993207 327.606499 162.890668 329.317741 163.174848 330.789116 C161.683271 330.110405 159.653119 329.834587 158.792402 328.683952 C154.834821 323.393364 151.229597 317.840508 147.430707 312.428947 C146.781598 311.504326 145.805219 310.809441 144.980085 310.008415 C144.471906 311.126396 143.682294 312.200920 143.501752 313.369499 C142.409101 320.440666 141.197309 327.514763 140.686201 334.635368 C140.590742 335.965202 143.720441 338.932182 144.971845 338.729973 C154.716169 337.155815 164.387128 335.089287 174.027814 332.937675 C176.385908 332.411491 178.545148 331.001457 180.801069 330.009636 C187.427350 327.096489 194.116559 324.318230 200.670270 321.250237 C211.005170 316.412224 221.150983 311.162041 231.553266 306.478203 C251.957929 297.290703 272.134076 287.444145 294.316266 282.954948 C295.619489 282.691154 297.112897 281.938164 297.933088 280.934868 C307.648908 269.048515 317.715803 270.996880 328.286481 275.380669 C344.130720 281.951592 356.184064 293.602959 367.588849 305.861382 C371.578962 310.150139 376.064802 310.291374 380.924299 309.835930 C381.874982 309.746819 382.979230 307.532646 383.368390 306.121025 C383.916242 304.133598 383.515729 301.868950 384.141340 299.922356 C385.284528 296.365837 387.197004 293.370659 391.538190 292.987907 C397.187360 292.489861 401.099836 295.618706 404.295759 299.499931 C407.164411 302.983635 408.977765 307.351860 411.925763 310.749321 C413.902082 313.026909 416.975568 314.415764 419.695417 315.960686 C421.281843 316.861870 423.312482 317.010246 424.844709 317.972588 C433.055524 323.129753 431.761213 326.802483 425.712385 330.878105 C423.431623 332.414787 422.519636 333.278130 424.919050 334.909172 C438.037458 343.826103 451.487653 352.276299 464.339826 361.557060 C477.782941 371.264580 490.668073 381.744316 503.837507 391.833550 C504.657087 392.461418 505.830549 392.627495 506.839338 393.008415 C506.767438 391.897759 506.933210 390.706413 506.587873 389.688591 C501.927595 375.956902 497.028303 362.303337 492.587629 348.501946 C491.295881 344.487663 492.969343 340.289909 496.757795 338.475700 C499.925641 336.958611 503.619001 337.654167 506.522565 340.527275 C514.624494 348.544060 518.451398 358.926506 521.246320 369.410576 C524.479108 381.537041 525.729719 394.182854 528.701398 406.393791 C529.562116 409.930229 532.951887 413.244194 535.922712 415.798943 C544.189191 422.907585 553.026349 429.352654 561.289167 436.465263 C568.030378 442.268059 574.458356 448.469780 580.679059 454.833061 C587.447858 461.757011 593.085920 469.495110 596.702619 478.666985 C600.529401 488.371696 594.300275 500.468987 584.124982 500.716301 C579.499738 500.828606 574.175275 498.705193 570.241559 496.021965 C555.149885 485.728142 543.509992 472.217888 535.422223 455.737297 C534.782941 454.434746 533.670270 453.364555 532.777570 452.186394 C532.336896 453.670464 531.502546 455.160210 531.523786 456.637627 C531.615217 463.011833 530.016096 469.778740 534.490461 475.367180 C539.735578 481.918449 545.248762 488.254997 550.636701 494.692253 C555.710676 500.754143 560.851789 506.762199 565.812238 512.915886 C569.022565 516.898552 571.458478 516.821159 575.558698 513.544548 C582.363019 508.106926 589.783185 503.433830 596.524030 497.924797 C602.207746 493.279533 608.299787 489.644646 615.318464 487.709099 C620.636213 486.242546 626.824811 485.439323 629.594098 491.103020 C631.515363 495.031853 631.882795 500.749504 630.652692 505.005730 C626.153303 520.574211 617.383405 534.090813 607.854841 547.012932 C598.207013 560.097038 588.266340 572.974113 578.155134 585.704704 C572.107404 593.319206 565.236799 600.283684 559.258283 607.947746 C557.182477 610.608757 555.568952 614.522453 555.649030 617.817619 C555.980695 631.446037 553.982160 644.680290 550.405500 657.735954 C549.884870 659.636223 548.512800 661.292107 547.878522 663.176628 C547.504865 664.286980 547.808698 665.624992 547.807844 666.860710 C548.945905 666.487785 550.182599 666.289177 551.203840 665.710197 C554.588361 663.791374 557.823957 661.601921 561.252057 659.769890 C564.638532 657.960075 568.289777 658.582024 570.193342 661.605095 C571.279889 663.330437 571.029035 666.996574 569.873029 668.847649 C564.523054 677.415154 558.644636 685.652702 552.705549 694.258415 M236.955549 733.008415 C228.945722 722.998650 220.737531 713.139885 212.968244 702.946892 C197.750532 682.981804 182.787092 662.822990 167.693281 642.763420 C165.290693 639.570305 162.783613 636.454216 160.254560 633.359978 C159.873456 632.893669 159.105634 632.743645 158.516706 632.447258 C158.496320 633.162102 158.216230 634.005974 158.497114 634.571159 C160.559125 638.720573 162.741376 642.809929 164.871076 646.926018 C175.588300 667.638908 186.231122 688.390617 197.040876 709.055046 C203.851056 722.073479 210.873701 734.981194 217.865034 747.904045 C226.186139 763.284904 234.551496 778.641838 242.943159 793.984367 C249.853254 806.618156 256.877118 819.190056 263.745038 831.846550 C265.588972 835.244621 268.010785 836.945427 272.034711 837.117302 C276.276777 837.298576 280.498029 838.260246 284.687360 839.088738 C285.384260 839.226555 285.871442 840.424797 286.455549 841.133049 C285.621808 841.758171 284.862165 842.753532 283.940168 842.938225 C281.286359 843.470329 278.574811 843.842278 275.871442 843.969231 C271.786115 844.161003 271.731855 846.306877 273.151899 849.174797 C274.592206 852.083488 276.011518 855.029778 277.764448 857.750603 C280.722638 862.341911 287.070417 864.775383 289.662580 862.170158 C294.142560 857.667473 298.358503 852.878288 302.421735 847.990349 C308.671735 840.471672 314.528913 832.622551 320.882795 825.195793 C324.891096 820.510979 324.948835 819.647942 319.986310 815.985100 C312.812238 810.689568 305.714216 805.283318 298.733137 799.736443 C291.178815 793.734001 283.859968 787.435417 276.316816 781.418571 C270.973493 777.156364 265.365400 773.225578 260.035627 768.947258 C259.165754 768.248772 259.127118 766.515007 258.704328 765.259636 C259.841840 765.562981 261.142316 765.612907 262.085370 766.218864 C264.610883 767.841667 266.957075 769.740715 269.431196 771.447868 C270.260175 772.020012 271.260663 772.343864 272.182722 772.781242 C271.658002 771.741325 271.361127 770.463493 270.568036 769.703850 C267.627912 766.888420 264.222638 764.511101 261.538190 761.484856 C253.374006 752.280510 245.464338 742.850578 236.955549 733.008415 M54.455549 313.508415 C49.034284 327.596367 43.519941 341.649284 38.213788 355.780510 C30.468488 376.407768 22.848249 397.082207 15.271284 417.771904 C14.792158 419.080193 15.145673 420.693352 15.111860 422.164726 C16.523847 422.112602 18.118818 422.474663 19.319623 421.944389 C31.297407 416.654655 43.565290 411.874443 55.054059 405.660942 C70.371198 397.376946 85.102643 388.002800 99.992780 378.944145 C102.083661 377.672112 105.275129 375.428337 105.170637 373.814934 C104.744001 367.230949 103.174360 360.726555 102.139814 354.174858 C100.852888 346.025322 99.575117 337.871574 98.497541 329.692741 C97.926923 325.362358 97.877302 320.964897 97.384687 316.621269 C97.279951 315.697807 96.273054 314.876701 95.681806 314.008415 C94.939741 314.892509 93.671186 315.705681 93.541181 316.672173 C92.706830 322.873100 92.119123 329.107414 91.456342 335.331291 C90.453412 344.749626 89.527997 354.176994 88.427167 363.583855 C87.808942 368.867058 84.024274 373.267326 80.655683 373.008354 C76.947004 372.723137 73.328412 367.624138 73.491804 362.488640 C73.662641 357.121758 74.178998 351.766960 74.442121 346.401787 C74.827680 338.542839 75.133100 330.679802 75.453229 322.817741 C76.127363 306.261711 76.686689 289.700005 77.521833 273.152153 C77.752973 268.573235 78.871930 264.044426 79.395856 259.471123 C79.523115 258.360649 78.906843 257.164909 78.632367 256.008354 C77.643781 256.771355 76.488508 257.397881 75.717695 258.339348 C75.065778 259.135490 74.849225 260.292351 74.457013 261.296196 C67.788312 278.366325 61.122236 295.437492 54.455549 313.508415 M383.955549 866.008415 C382.455549 863.965569 379.824933 861.991081 379.696515 859.865349 C379.447126 855.738640 377.165021 853.872063 374.211164 851.991692 C366.427961 847.037590 358.800275 841.825920 350.855207 837.150871 C349.324811 836.250359 346.261091 836.671623 344.559186 837.636955 C341.794416 839.205437 339.514997 841.666863 337.127668 843.856926 C328.429914 851.835808 319.703229 859.786125 311.168561 867.936760 C309.775251 869.267571 308.410627 871.248894 312.476545 872.129875 C325.099103 874.864006 337.506818 878.651482 350.182355 881.059929 C362.210920 883.345451 374.461286 884.501335 386.647321 885.855949 C387.795148 885.983635 389.911847 884.209221 390.322736 882.918205 C391.736799 878.475334 392.567121 873.848625 393.684675 869.307854 C393.897199 868.444572 394.405256 867.653923 394.776838 866.829704 C393.558088 866.555901 392.349714 866.123283 391.118390 866.044060 C389.071760 865.912834 387.010602 866.008415 383.955549 866.008415 M495.455549 485.508415 C491.259992 481.979485 487.080671 478.430901 482.853010 474.940666 C482.141340 474.353142 481.221540 474.017937 480.397931 473.566032 C480.083845 474.600700 479.320417 475.736198 479.526594 476.654045 C481.196515 484.091667 482.603376 491.632805 484.949689 498.863518 C488.413679 509.538933 492.949323 519.868645 496.358137 530.559441 C500.118879 542.353874 503.089948 554.399162 506.513044 566.304192 C506.806623 567.324944 507.911725 568.112541 508.639753 569.008415 C509.244977 567.989616 510.313703 566.987053 510.350080 565.948357 C510.408918 564.269768 509.387555 562.535881 509.517927 560.880119 C510.746320 545.284050 512.115095 529.698845 513.470685 514.112907 C513.565412 513.025139 513.800886 511.934929 514.098127 510.881828 C515.704084 505.193352 513.795881 499.648186 509.201154 496.223869 C504.731061 492.892448 500.366559 489.419304 495.455549 485.508415 M412.955549 787.008415 C408.715925 791.914787 404.765485 797.116203 400.152082 801.641472 C395.869123 805.842400 390.750715 807.628899 384.770368 804.143303 C383.496076 803.400505 380.594465 803.681755 379.508649 804.666496 C371.685651 811.761833 364.051130 819.073479 356.559919 826.520744 C354.594221 828.474846 354.570783 830.489128 357.806623 832.096184 C363.905866 835.125237 369.769880 838.634026 375.688459 842.019157 C382.428937 845.874382 382.375348 845.889641 386.135114 839.839592 C394.945417 825.662102 403.962018 811.609001 412.532209 797.288322 C415.678327 792.031364 417.873762 786.193352 420.304792 780.535271 C420.626203 779.786980 419.770856 778.533073 419.460554 777.513420 C418.792219 778.065788 417.914655 778.492668 417.493635 779.193718 C416.060773 781.579826 414.788923 784.062492 412.955549 787.008415 M399.455549 57.508415 C402.437971 55.859367 405.452131 54.264092 408.381696 52.525932 C409.181257 52.051506 409.726056 51.147514 410.387800 50.440666 C409.585920 49.963249 408.833845 49.350029 407.972883 49.033196 C405.078840 47.968071 402.204938 46.726555 399.208845 46.099663 C396.904767 45.617546 394.137067 45.229057 392.074933 46.051323 C376.062482 52.436638 360.139753 59.050957 344.255964 65.753044 C336.312604 69.104607 328.554304 72.893486 320.628278 76.288384 C314.262433 79.014946 307.738386 81.371941 301.365339 84.082512 C300.319929 84.527153 299.690656 85.950676 298.869001 86.921806 C299.885236 87.283989 301.033552 88.156487 301.898054 87.932671 C317.382917 83.925041 332.988996 80.284966 348.249860 75.539421 C365.318342 70.231865 382.067487 63.896477 399.455549 57.508415 M612.455549 521.508415 C615.455549 516.427361 618.979963 511.567131 621.247907 506.177971 C622.496930 503.210197 626.446271 499.603752 622.938337 496.226921 C619.206769 492.634880 615.402814 496.422356 612.346662 498.143425 C600.680036 504.713860 590.313825 513.063469 581.096784 522.820671 C579.267316 524.757439 578.561139 526.393059 580.578351 528.693108 C583.645368 532.190300 586.683820 535.745232 589.362165 539.538445 C590.934675 541.765495 591.786481 544.501335 592.962385 547.008415 C594.823713 544.811516 596.804914 542.703972 598.523054 540.400261 C603.061506 534.315056 607.485822 528.144768 612.455549 521.508415 M227.955549 75.008415 C226.152631 75.478020 224.301069 75.822197 222.575239 76.490715 C222.029340 76.702141 221.819318 77.780388 221.455549 78.461967 C222.036847 78.644096 222.614545 78.964836 223.200178 78.980156 C224.506086 79.014397 225.869489 79.111748 227.115278 78.803093 C233.292524 77.272697 239.360761 74.723442 245.611249 74.176323 C264.343366 72.536858 281.717756 65.702873 299.608991 60.913078 C316.631696 56.355888 333.450300 51.032646 350.331159 45.955315 C351.489484 45.606865 352.419416 44.498772 353.455549 43.743950 C352.076642 43.165459 350.644758 41.999077 349.328718 42.117729 C345.250226 42.485344 341.204450 43.280693 337.166242 44.019768 C324.795392 46.283989 312.311139 48.090996 300.102399 51.035027 C287.337507 54.113213 274.740827 57.998833 262.256757 62.098381 C250.860212 65.840752 239.712751 70.341789 227.955549 75.008415 M553.455549 589.508415 C554.909650 591.460075 556.279523 591.548210 557.442487 589.263908 C557.927961 588.310051 558.034162 587.069084 558.713239 586.322746 C563.455793 581.110710 568.298688 575.989738 573.118268 570.847893 C578.258527 565.364006 583.435285 559.913445 588.487775 554.350212 C588.795514 554.011345 588.084577 552.098259 587.961774 552.110100 C581.058820 552.771843 576.735456 548.240593 572.260114 544.233635 C569.272077 541.558342 566.622541 541.007805 564.330427 544.686272 C560.229352 551.267204 556.008893 557.810173 552.504011 564.707390 C551.195783 567.281731 551.346784 570.829216 551.547956 573.885857 C551.870344 578.780754 552.788923 583.636223 553.455549 589.508415 M448.455549 693.508415 C451.512311 685.784904 454.599103 678.072868 457.580549 670.320427 C457.884748 669.529289 457.555402 668.494499 457.520002 667.572990 C456.813703 667.902946 455.978498 668.088615 455.421857 668.586052 C451.518049 672.073479 447.507429 675.463249 443.837995 679.186882 C432.688093 690.501701 421.660871 701.937737 410.651349 713.389641 C409.963727 714.104851 409.841047 715.363274 409.455549 716.368889 C410.338849 716.582024 411.232404 717.013298 412.103864 716.972771 C417.795759 716.708488 423.488019 716.003899 429.170026 716.093132 C436.390851 716.206291 440.962629 713.018791 443.531354 706.452507 C445.100080 702.442741 446.809308 698.487907 448.455549 693.508415 M507.955549 442.008415 C509.602521 444.321953 511.217512 446.659294 512.913923 448.935967 C513.487531 449.705742 514.267072 450.322014 514.952497 451.008415 C515.120222 450.079826 515.460798 449.145256 515.428449 448.223686 C515.141584 440.038506 515.123762 431.820305 514.265485 423.692253 C513.983259 421.019768 511.934797 418.096489 509.878156 416.149956 C506.693464 413.135551 502.754621 410.932060 499.230207 408.260124 C487.948591 399.706902 476.724714 391.077141 465.424299 382.549004 C464.620954 381.942741 463.376935 381.920097 462.337751 381.626091 C462.572980 382.782890 462.429548 384.264275 463.100690 385.047478 C472.055158 395.494316 481.473981 405.563774 490.048078 416.309013 C496.400495 424.270073 501.691633 433.077812 507.955549 442.008415 M197.455549 755.508415 C200.455549 759.929192 203.378461 764.405754 206.503827 768.736076 C207.408613 769.989616 208.894330 770.823845 210.113691 771.850212 C209.870832 770.379509 209.635541 768.907463 209.372846 767.440300 C209.348737 767.305779 209.114911 767.221916 209.036725 767.082024 C203.144208 756.531120 197.321576 745.940422 191.349347 735.434929 C186.743390 727.332634 182.047162 719.277946 177.218000 711.306877 C169.707685 698.910515 162.074262 686.588615 154.444440 674.265007 C151.154584 668.951286 147.782697 663.687004 144.340619 658.470940 C143.878034 657.769890 142.783857 657.485710 141.982099 657.008415 C141.986738 658.021843 141.649640 659.201164 142.048322 660.023430 C146.557355 669.321770 150.570844 678.932365 155.890058 687.751823 C169.426740 710.196159 183.560651 732.280144 197.455549 755.508415 M311.455549 287.508415 C310.282697 289.347832 308.697126 291.045647 308.009260 293.051445 C305.159894 301.359489 309.229474 306.990410 317.833967 307.019707 C319.293561 307.024712 320.751569 307.212456 322.212140 307.259575 C330.247419 307.518791 338.282819 307.791801 346.320295 307.949211 C346.960798 307.961784 347.617780 307.134087 348.267072 306.696892 C347.922956 306.227104 347.666608 305.640617 347.220930 305.305901 C343.428815 302.457695 339.703596 299.503777 335.764264 296.872124 C328.500104 292.019402 321.622297 286.108086 311.455549 287.508415 M451.455549 450.508415 C451.220075 449.606377 451.272931 448.420403 450.706037 447.844902 C442.425031 439.438774 434.078107 431.097343 425.668928 422.819756 C425.241926 422.399467 424.108503 422.696709 423.304059 422.659904 C423.354597 423.570915 423.096906 424.658318 423.502180 425.366142 C429.059553 435.070549 434.257551 445.025078 440.475690 454.292900 C445.555036 461.863213 451.832868 468.637260 457.714948 475.650383 C458.380964 476.444572 459.926496 476.501213 461.064191 476.899773 C460.861310 475.925652 460.775129 474.908928 460.437238 473.984123 C457.636335 466.315910 454.788923 458.664726 451.455549 450.508415 M466.455549 431.508415 C467.274030 427.689934 468.438093 423.902519 468.785138 420.041679 C469.003278 417.615166 468.746808 414.537468 467.410749 412.683220 C460.994977 403.778923 454.165265 395.171257 447.389875 386.530998 C446.844098 385.835136 445.597761 385.688713 444.677106 385.286980 C444.567853 386.325371 444.078351 387.511284 444.414289 388.376946 C445.969221 392.385429 447.945783 396.234734 449.419538 400.269463 C453.852888 412.407341 458.066999 424.625542 462.535993 436.749870 C463.013776 438.046257 464.605329 438.932121 465.680036 440.008415 C465.938581 438.838799 466.308576 437.680229 466.425641 436.496696 C466.555890 435.179131 466.455549 433.838799 466.455549 431.508415 M482.955549 456.008415 C488.588727 461.308281 494.190778 466.642082 499.893415 471.866142 C500.627424 472.538567 501.883161 472.641594 502.897199 473.008415 C502.792829 471.884697 502.953840 470.646477 502.528547 469.661369 C501.673444 467.680412 500.462018 465.856438 499.461652 463.934380 C493.899152 453.247856 488.374982 442.541252 482.765363 431.879509 C482.356183 431.101799 481.374982 430.625114 480.659772 430.008415 C480.258405 430.704033 479.570783 431.372673 479.502302 432.099663 C479.076032 436.616631 478.907453 441.159477 478.420514 445.668571 C477.979230 449.754204 479.253034 452.989861 482.955549 456.008415 M116.455549 264.508415 C116.788862 260.980766 117.281598 257.457085 117.371320 253.923271 C117.403913 252.640190 116.474164 251.332695 115.983442 250.036308 C115.140851 251.334892 113.655378 252.586601 113.556562 253.939507 C112.713544 265.480827 111.759931 277.035332 111.594221 288.596733 C111.498151 295.307915 112.884076 302.031181 113.426801 308.763298 C113.898420 314.612541 114.067182 320.485710 114.485395 326.340080 C114.631269 328.381584 115.045881 330.415825 115.504926 332.415031 C115.632123 332.968925 116.292158 333.623344 116.836103 333.776848 C117.174543 333.872368 118.123395 333.149406 118.163373 332.732780 C118.372663 330.554070 118.531232 328.348808 118.430646 326.165581 C117.813825 312.776176 117.012739 299.394524 116.501142 286.001457 C116.240583 279.179863 116.455549 272.340019 116.455549 264.508415 M575.455549 481.508415 C577.177717 482.119499 578.900007 482.730705 580.622175 483.341789 C579.887311 481.384636 579.649030 478.972160 578.338727 477.542595 C568.028303 466.293449 557.530134 455.215813 547.008039 444.163139 C546.495832 443.625114 545.220685 443.813164 544.301008 443.663139 C544.441388 444.700432 544.236677 445.982780 544.773542 446.738579 C553.633527 459.212761 562.608503 471.601372 575.455549 481.508415 M367.455549 339.508415 C365.124982 340.429436 364.653913 341.645500 366.534894 343.628288 C370.123151 347.410515 373.637922 351.265556 377.090558 355.172295 C379.889997 358.339958 382.957136 360.932549 387.516096 359.923882 C388.615461 359.680717 390.401960 358.263603 390.313581 357.591606 C389.408185 350.713921 385.693952 345.053764 380.500226 340.950859 C378.121076 339.071404 373.857892 339.556633 370.440168 339.027092 C369.630353 338.901665 368.784772 339.008415 367.455549 339.508415 M554.455549 537.508415 C556.963361 535.610588 557.276349 533.726799 554.602033 531.630241 C549.579572 527.692986 544.639875 523.649895 539.613263 519.718132 C538.958600 519.206047 537.993879 519.090569 537.172712 518.791252 C537.266950 519.715446 537.242170 520.670525 537.473981 521.558952 C539.776838 530.388054 542.102521 539.211296 544.492414 548.017082 C544.685041 548.726677 545.401716 549.294060 545.874738 549.927605 C546.695905 549.160393 547.723859 548.522820 548.300519 547.602287 C550.271100 544.458000 552.082990 541.214226 554.455549 537.508415 M128.455549 199.508415 C128.455549 198.345451 128.354474 197.172173 128.471479 196.021050 C129.443403 186.463982 130.533857 176.917717 131.368818 167.349052 C131.490278 165.957634 130.448591 164.464775 129.945173 163.018913 C129.115339 164.336540 127.722211 165.583550 127.546552 166.983269 C126.371381 176.349419 125.110395 185.728752 124.580732 195.143303 C124.244672 201.114800 125.107892 207.155510 125.459699 213.163567 C125.772809 218.509331 126.027875 223.862053 126.539838 229.189507 C126.635297 230.183098 127.825788 231.071465 128.510785 232.008415 C128.825666 231.062675 129.435346 230.108940 129.409955 229.172478 C129.151044 219.616203 128.788862 210.062675 128.455549 199.508415 M128.955549 307.008415 C129.455549 306.579704 130.335492 306.198479 130.395978 305.714836 C130.912763 301.577141 131.315473 297.423943 131.686078 293.269524 C132.301801 286.367912 133.523969 279.439323 133.286664 272.563713 C133.001752 264.309868 131.412397 256.104607 130.474470 247.868401 C130.030927 243.973442 129.820051 240.052361 129.409833 236.153008 C129.366132 235.737419 128.690412 235.388359 128.307905 235.008476 C128.023786 235.320671 127.525861 235.609306 127.488447 235.948601 C127.101545 239.461479 126.371686 243.002190 126.537275 246.497307 C126.957929 255.374809 128.107648 264.223198 128.374982 273.101067 C128.709943 284.227592 128.455549 295.371819 128.955549 307.008415 M137.455549 211.508415 C137.455549 216.721367 137.424482 221.934685 137.496442 227.146660 C137.505048 227.771233 138.073408 228.387993 138.382367 229.008476 C138.740095 228.436882 139.346052 227.894524 139.417219 227.289238 C140.146467 221.085686 140.956769 214.884087 141.411420 208.657646 C141.934736 201.490837 141.967451 194.287895 142.505292 187.122490 C142.922956 181.558220 143.896589 176.037468 144.410322 170.477715 C144.669294 167.674004 144.542646 164.821770 144.390973 162.002251 C144.355512 161.342766 143.510541 160.726860 143.037946 160.090813 C142.510480 160.649040 141.646650 161.136162 141.511091 161.777214 C140.730451 165.469109 139.770063 169.173821 139.519941 172.917534 C138.683576 185.437981 138.122236 197.976677 137.455549 211.508415 M482.955549 647.008415 C479.122297 655.245964 475.238263 663.461052 471.548810 671.762566 C471.244611 672.447014 472.261457 673.718620 472.664533 674.717400 C473.261579 674.159538 473.976179 673.684807 474.437971 673.031242 C481.988874 662.344109 489.517805 651.641228 497.017560 640.917961 C497.697370 639.945915 498.143049 638.810173 498.697492 637.750359 C497.324689 637.961906 495.682233 637.764030 494.627302 638.458488 C490.796979 640.980095 487.163312 643.800652 482.955549 647.008415 M528.455549 554.508415 C528.122175 555.699333 527.594465 556.873039 527.486921 558.083977 C526.760114 566.274895 526.154767 574.476799 525.432599 582.668083 C525.253156 584.703362 524.626325 586.706657 524.543561 588.738396 C524.514631 589.451286 525.500471 590.205681 526.022931 590.941032 C526.500471 590.308098 527.142438 589.741570 527.428449 589.031609 C529.149518 584.760002 530.908307 580.496819 532.410993 576.146843 C533.319684 573.516350 534.533674 570.667351 534.298566 568.033806 C533.826887 562.752434 532.507917 557.540642 531.415143 552.325920 C531.171857 551.165154 530.444562 550.095818 529.830793 549.048332 C529.795148 548.987541 528.318097 549.463860 528.292463 549.757927 C528.185163 550.994011 528.374616 552.255974 528.455549 554.508415 M484.455671 701.508537 C488.319684 696.311150 492.239362 691.153557 496.004987 685.885735 C496.847638 684.706657 497.150251 683.141716 497.701520 681.754265 C496.314191 682.310905 494.636701 682.545403 493.593976 683.484612 C490.416974 686.345940 487.484723 689.479118 484.457380 692.506584 C479.415998 697.547844 474.347394 702.562859 469.378644 707.674553 C468.921125 708.145256 469.098493 709.232780 468.981061 710.033806 C469.703229 710.025383 470.564069 710.272575 471.125593 709.968010 C475.601056 707.540520 480.019513 705.008415 484.455671 701.508537 M464.955549 733.008415 C463.007062 727.930046 459.707380 732.359978 457.255842 732.326897 C455.342512 732.301018 452.510236 734.753777 451.629011 736.776970 C449.433210 741.819084 448.037336 747.221184 446.507306 752.532707 C446.146711 753.784294 446.524274 755.248772 446.562360 756.615227 C447.526716 755.786125 448.685895 755.101189 449.424177 754.104607 C454.483991 747.275749 459.455549 740.381584 464.955549 733.008415 M427.455549 820.508415 C425.223615 826.406975 422.946760 832.289543 420.826032 838.227898 C420.601789 838.855949 421.294782 839.811516 421.562360 840.615227 C422.150739 840.288933 422.959943 840.106438 423.284406 839.608391 C424.122419 838.321770 424.770856 836.907829 425.451154 835.523186 C427.692365 830.960686 429.821515 826.340446 432.165754 821.831779 C435.516096 815.388664 439.066511 809.049553 442.395734 802.595940 C442.821515 801.770744 442.433332 800.525627 442.422223 799.475090 C441.598493 799.987663 440.476911 800.306633 439.997907 801.043449 C435.917585 807.322014 431.954084 813.676628 427.455549 820.508415 M427.955427 406.008415 C428.038312 404.757866 428.679181 403.109917 428.116193 402.319267 C423.345441 395.618828 418.304670 389.111626 413.454938 382.466057 C411.434553 379.697380 409.731794 376.698174 407.755964 373.894402 C407.427228 373.427849 406.437360 373.427116 405.752912 373.211113 C405.653791 373.833977 405.295881 374.559685 405.496198 375.063591 C407.194929 379.338066 408.260114 384.119682 410.925886 387.698601 C415.756452 394.183769 421.558820 399.945000 427.955427 406.008415 M243.455549 89.508415 C242.164716 90.008415 240.901533 90.602592 239.578107 90.992119 C233.788312 92.696648 227.943464 94.227104 222.212140 96.106133 C221.081525 96.476799 220.363752 98.106743 219.455549 99.155876 C220.434125 99.440056 221.549665 100.182304 222.369855 99.936882 C229.762067 97.726006 237.151594 95.480278 244.423017 92.908989 C246.196699 92.281670 247.533491 90.418816 249.071210 89.124016 C247.366010 89.085442 245.660749 89.046928 243.455549 89.508415 M536.955549 610.008415 C538.001813 606.628899 539.167463 603.279167 540.020490 599.851555 C540.272809 598.837395 539.643415 597.603874 539.417951 596.470818 C538.480207 597.100334 537.082258 597.521111 536.685407 598.395988 C535.105817 601.878410 533.762311 605.475334 532.486555 609.084831 C531.809797 610.999382 531.452009 613.026726 530.950300 615.003166 C532.785383 613.670647 534.623395 612.342278 536.445417 610.992058 C536.524640 610.933220 536.455549 610.674187 536.955549 610.008415 M499.455549 617.508415 C499.077497 615.814934 498.567975 613.895012 496.702619 616.342400 C494.636945 619.052849 492.779767 621.953606 491.135480 624.938713 C490.449445 626.183952 490.547590 627.861198 490.289167 629.342155 C491.408552 628.897575 492.725934 628.693718 493.611677 627.965202 C496.781354 625.357903 502.974592 624.572746 499.455549 617.508415 M319.455549 345.508415 C317.811872 344.675102 316.178937 343.167656 314.522199 343.140923 C310.357404 343.073662 306.179059 343.647148 302.018293 344.079704 C301.775983 344.104912 301.451887 345.180840 301.513776 345.728508 C301.565290 346.185112 302.145612 346.966118 302.461408 346.951530 C307.962263 346.697014 313.458356 346.341728 319.455549 345.508415 M414.455549 355.508415 C411.065046 361.285698 416.975568 364.210869 418.513166 368.468803 C418.691633 368.962761 419.852765 369.101982 420.558332 369.405632 C420.857404 368.531731 421.664167 367.402702 421.373762 366.825005 C419.362165 362.821953 417.122175 358.933586 414.455549 355.508415 M293.955549 303.008415 C291.600080 303.697197 289.191999 304.253410 286.921125 305.155388 C286.236555 305.427300 285.790876 306.614128 285.518293 307.471733 C285.390485 307.874077 286.049787 308.965141 286.155378 308.939262 C289.289289 308.172417 292.418683 307.362785 295.462995 306.311699 C295.651594 306.246635 295.140851 304.156425 293.955549 303.008415 M120.955549 348.008415 C120.458112 348.008415 119.525312 347.994499 119.524824 348.010368 C119.414472 351.464043 119.369428 354.919731 119.322553 358.375359 C120.033552 358.126457 121.348676 357.907280 121.362653 357.624077 C121.511945 354.591301 121.455549 351.548515 120.955549 348.008415 M323.455549 328.508415 C323.455549 328.840019 323.446149 329.462029 323.456891 329.462334 C327.049299 329.578789 330.643049 329.652519 334.236799 329.727165 C333.987897 328.820915 333.698102 327.117241 333.496076 327.127617 C330.309308 327.291252 327.133649 327.675102 323.455549 328.508415 M536.955549 498.008415 C536.608137 497.661003 536.312848 497.226189 535.903669 496.982414 C534.656598 496.239494 533.365583 495.570183 532.091779 494.872185 C532.585798 496.457146 532.907453 498.129753 533.649885 499.588371 C533.999006 500.274162 535.111432 500.690788 535.962873 500.968132 C536.811994 501.244621 537.767438 501.194572 538.676252 501.287712 C538.269391 500.361321 537.862409 499.434807 536.955549 498.008415 M327.455549 811.508415 C326.122175 811.677361 324.788923 811.846306 323.455549 812.015373 C325.042463 813.099968 326.578718 814.274162 328.244367 815.220207 C328.814191 815.543938 329.709211 815.295280 330.455549 815.308220 C329.622175 814.208244 328.788923 813.108391 327.455549 811.508415 M137.455549 357.508415 C138.161664 358.135674 138.867719 358.762932 139.573774 359.390190 C140.201032 358.151665 140.828290 356.913078 141.455549 355.674492 C140.122236 355.952446 138.788862 356.230400 137.455549 357.508415 M115.455549 142.508415 C116.279462 142.684563 117.103315 142.860649 117.927167 143.036736 C117.809186 141.899834 117.691205 140.762993 117.573285 139.626152 C116.867353 140.253593 116.161481 140.881035 115.455549 142.508415 z"/></svg>