<?xml version="1.0" encoding="utf-8"?><!DOCTYPE svg PUBLIC "-//W3C//DTD SVG 1.1//EN" "http://www.w3.org/Graphics/SVG/1.1/DTD/svg11.dtd"><svg version="1.1" id="Contours" xmlns="http://www.w3.org/2000/svg" xmlns:xlink="http://www.w3.org/1999/xlink" x="0px" y="0px" width="618.862610px" height="618.862610px" viewBox="0.000000 0.000003 618.862610 823.205811" enable-background="new 0 0 618.862610 618.862610" xml:space="preserve" stroke="black" fill="none" stroke-linecap='round' stroke-linejoin='round'><path class="selected"  fill="#000000" opacity="1.000000" stroke="none" 
 	d="
M420.000000 467.111813 C420.333252 486.138181 420.622070 504.665524 421.016235 523.190549 C421.261719 534.719601 421.651611 546.245847 422.004517 557.772458 C422.316528 567.967160 422.649780 578.161252 423.005127 588.354611 C423.314087 597.216306 423.656494 606.076779 424.002197 614.937131 C424.661255 631.825925 425.328125 648.714474 426.002319 665.602536 C426.322754 673.630612 426.715698 681.656247 426.988281 689.685910 C427.368286 700.878293 427.745850 712.071652 427.982300 723.267697 C428.380493 742.125973 429.201416 760.998044 428.799316 779.842038 C428.558228 791.145016 426.510254 802.431638 424.860474 813.664792 C424.503662 816.094235 422.717285 818.575070 420.986084 820.485471 C417.652344 824.164426 412.881470 823.974606 409.093506 820.743527 C402.238037 814.896237 398.234619 807.066525 395.146606 799.014889 C389.625977 784.620969 384.997559 769.884763 380.007446 755.287717 C379.756592 754.554196 379.867065 753.454831 379.381592 753.080075 C370.479248 746.207394 371.593506 735.819577 370.048828 726.428342 C368.807617 718.883176 368.032593 711.262082 366.954956 703.688351 C366.832764 702.829465 366.090454 702.058957 365.635620 701.247433 C365.090454 701.931027 364.517578 702.594723 364.004517 703.301633 C361.123169 707.271359 358.559082 711.521603 355.310791 715.162350 C350.806885 720.210446 340.478271 720.800656 335.039368 716.611447 C327.623108 710.899045 324.237976 702.729977 322.031128 694.023190 C317.839233 677.484250 318.619812 660.563473 319.181580 643.786008 C319.571533 632.141476 321.473083 620.527585 323.051453 608.948117 C324.828064 595.914304 326.574036 582.850461 329.119385 569.954831 C331.682495 556.969113 335.334595 544.201657 338.233887 531.276730 C339.007568 527.827389 339.142578 524.129880 338.935059 520.583615 C338.091064 506.157101 336.947510 491.748532 336.022217 477.326291 C335.561157 470.140012 335.379211 462.936398 334.982849 455.745480 C334.742249 451.379025 334.618896 446.969357 333.835022 442.690671 C333.582886 441.314816 331.355530 439.235348 330.090088 439.276242 C318.025452 439.667233 305.973450 440.446774 293.917358 441.107053 C293.252747 441.143430 292.584045 441.097165 291.917908 441.113889 C278.724182 441.444455 265.525391 441.645505 252.338257 442.149533 C239.442627 442.642453 226.457825 442.675778 213.701538 444.352170 C203.271301 445.722775 193.121704 449.222653 182.844421 451.765256 C163.495667 456.552609 144.217834 461.670895 124.741333 465.866330 C120.028625 466.881467 114.594360 465.123044 109.623779 464.036740 C108.002747 463.682492 105.839722 461.569577 105.580994 459.989865 C104.690552 454.553464 100.505432 455.463132 97.756958 456.305173 C92.141541 458.025876 87.584229 456.840573 83.002808 453.718625 C81.656982 452.801511 79.796753 452.158932 78.186951 452.188596 C68.490051 452.367551 58.797852 452.793820 49.102722 453.093625 C47.812317 453.133542 46.437988 453.167355 45.233582 452.788083 C40.907043 451.425534 36.820374 449.550900 36.037109 444.404050 C35.145569 438.545041 37.422241 433.722287 43.555420 431.229245 C55.254028 426.473996 67.104553 421.989133 79.147644 418.205930 C104.538025 410.229733 130.052063 402.636288 155.608765 395.207333 C162.371704 393.241391 169.491455 392.523618 176.406433 391.041806 C177.704041 390.763852 178.807129 389.578732 180.000000 388.812253 C178.802673 388.578793 177.568604 388.028806 176.413940 388.162900 C168.651062 389.064694 160.912048 390.171384 153.150696 391.087216 C149.139099 391.560483 145.087708 391.690121 141.071106 392.128537 C129.286377 393.414975 117.508911 394.768002 105.730896 396.115292 C97.144165 397.097470 88.496765 397.753842 80.006409 399.278989 C76.346619 399.936398 72.424683 401.762082 69.669128 404.227597 C65.222900 408.206052 60.926697 411.935605 55.271912 414.299985 C52.103516 415.624936 49.227112 418.473691 47.096741 421.297726 C41.220032 429.088010 30.736267 430.569577 25.997131 424.655026 C22.742371 420.593137 22.332642 415.108273 25.269592 411.325070 C25.777588 410.670712 26.159546 409.918515 26.599670 409.211484 C25.584961 408.844968 24.555481 408.128903 23.558105 408.171262 C18.857727 408.370908 14.170105 408.906430 9.469666 409.047971 C7.619690 409.103757 5.250610 409.030209 4.005737 407.971555 C2.240112 406.470090 1.295471 404.003293 0.000000 401.948972 C2.237366 400.669919 4.723633 398.003110 6.669006 398.351926 C15.112671 399.866208 22.839172 396.611996 30.895752 395.772336 C41.555237 394.661435 47.011658 386.815121 53.164551 379.583859 C55.888000 376.383115 59.445923 373.899716 62.548767 371.008725 C63.203613 370.398679 63.818298 369.453305 63.882874 368.618466 C63.917969 368.163937 62.835876 367.408993 62.125427 367.143735 C54.322327 364.230160 52.916260 361.476071 56.859680 353.895566 C61.157776 345.633176 65.877258 337.548154 70.969910 329.749326 C81.788513 313.182187 92.769775 296.712949 104.057251 280.462521 C114.794373 265.004514 125.965515 249.846616 137.021057 234.611386 C146.979919 220.887509 156.801575 207.053708 167.134521 193.615048 C174.990356 183.398068 183.350769 173.546994 191.854370 163.855771 C202.001770 152.291196 212.229065 140.762204 223.036194 129.825009 C228.848450 123.942868 235.767273 119.077084 242.560364 114.282040 C245.006042 112.555783 248.506653 111.757687 251.321716 114.878049 C253.922791 117.761166 253.766296 120.821103 251.960449 123.757382 C244.354980 136.124020 236.486328 148.329526 228.933472 160.727658 C220.434265 174.679135 212.037048 188.696652 203.846069 202.830746 C196.930176 214.764645 190.311096 226.872922 183.742676 239.002560 C183.017334 240.341977 183.488037 242.329160 183.404053 244.015866 C184.602722 243.105099 185.992126 242.361020 186.961914 241.250363 C189.278259 238.597775 191.196899 235.580319 193.629028 233.049313 C205.455444 220.742306 217.408203 208.556821 229.296448 196.309018 C239.327881 185.974423 249.348877 175.629452 259.342468 165.258298 C266.677002 157.646725 273.820251 149.845395 281.302124 142.382626 C290.082214 133.624814 299.022400 125.019223 308.101868 116.571957 C318.636108 106.771481 329.146790 96.919431 340.118286 87.621396 C356.561401 73.686276 373.332520 60.134152 390.103760 46.592160 C395.507446 42.228879 399.948486 43.252072 404.463989 49.012692 C405.282227 50.056454 405.820801 51.492978 408.045166 49.752133 C422.587524 38.371091 437.109619 26.930356 452.167603 16.255490 C460.357178 10.449704 469.530151 6.007016 478.372314 1.155026 C482.959351 -1.361881 486.799194 0.476376 489.656860 4.335263 C492.520142 8.201657 491.030151 12.256528 488.322144 15.104977 C479.044312 24.864072 469.417358 34.294492 459.820557 43.745724 C455.495728 48.004941 450.933716 52.023495 446.469116 56.140134 C438.029541 63.922055 429.847900 72.015622 421.026245 79.337704 C416.638550 82.979489 416.724976 87.208798 417.071655 91.751706 C417.408447 96.166806 418.570801 100.516965 418.943970 104.931760 C419.494263 111.441220 419.897095 117.980283 419.962280 124.510800 C420.370117 165.367123 420.909180 206.224423 420.927124 247.081662 C420.942871 282.939145 420.324707 318.796872 420.008423 354.654660 C419.956177 360.576901 420.542358 361.008786 426.505493 361.131833 C439.533813 361.400632 452.565674 361.634824 465.585205 362.154782 C477.149170 362.616696 488.696777 363.477658 500.254883 364.100034 C507.612549 364.496274 514.976318 364.777829 522.337402 365.112057 C526.566772 365.304196 530.893311 368.375607 530.947388 371.584714 C531.018311 375.780942 528.668945 377.881039 524.487549 378.161801 C522.776123 378.276791 521.088013 379.084103 519.394409 379.066891 C492.868286 378.797787 466.343140 378.436154 439.817505 378.119992 C434.985474 378.062375 430.145630 378.268735 425.321045 378.070676 C419.798706 377.843869 420.158813 381.448544 419.910278 385.249753 C419.644531 389.311642 421.169189 390.257993 425.022705 390.188840 C451.712280 389.709348 478.404907 389.338864 505.098022 389.172726 C513.789795 389.118649 522.523682 390.444516 531.171509 389.955807 C544.151367 389.222287 557.069580 387.415097 570.021484 386.141537 C572.167114 385.930539 574.362305 386.247311 576.514893 386.074826 C578.789185 385.892575 579.897217 386.819028 578.710693 388.788876 C576.695557 392.133542 579.494019 391.215390 580.680786 391.056332 C592.190674 389.514096 601.499634 396.365414 611.847778 399.194333 C615.876831 400.295834 619.872070 403.455319 618.633179 407.592648 C617.638428 410.914670 613.825684 414.736203 610.483398 415.740781 C602.830078 418.041135 594.713013 418.839047 586.759521 420.089352 C577.661499 421.519528 568.554810 422.924191 559.417480 424.065182 C552.223511 424.963620 544.973877 425.409665 537.755249 426.119626 C524.473267 427.426022 511.199463 428.818600 497.914185 430.090817 C493.065430 430.555051 488.196289 430.825925 483.331787 431.102658 C471.110962 431.797482 458.881592 432.353268 446.667358 433.145993 C439.265625 433.626706 431.894165 434.570187 424.492676 435.056149 C421.073486 435.280514 419.956177 436.923215 419.978394 440.079098 C420.040527 448.922971 420.000000 457.767575 420.000000 467.111813 M141.500000 377.111752 C154.113892 375.778439 166.714355 374.297177 179.345398 373.152707 C192.412354 371.968808 205.505798 371.068478 218.593506 370.125546 C228.810669 369.389523 239.033081 368.712460 249.260010 368.128537 C262.144409 367.392758 275.034851 366.758298 287.924438 366.117245 C301.811523 365.426450 315.715149 364.965573 329.572205 363.895810 C331.496643 363.747189 334.590027 360.822324 334.772156 358.951840 C335.893127 347.440732 336.314575 335.862302 337.005249 324.308408 C337.646362 313.584775 338.307251 302.862241 339.014160 292.142758 C339.258179 288.442258 339.573120 284.741269 340.017944 281.060056 C341.301025 270.441403 342.686035 259.835141 343.992310 249.219235 C344.715698 243.340756 345.169556 237.422726 346.086304 231.576047 C347.576904 222.070126 349.142578 212.566342 351.061035 203.140012 C352.769897 194.743954 355.007324 186.455746 356.987427 178.114255 C357.161499 177.380551 357.157715 176.604611 357.236450 175.848325 C356.196167 176.064328 354.923340 175.968869 354.151855 176.544858 C347.003784 181.882809 339.976929 187.382748 332.846985 192.745480 C322.439392 200.573361 311.915649 208.247861 301.557312 216.139889 C294.804688 221.284726 287.299072 225.864377 281.812561 232.162350 C269.297668 246.527951 258.167725 262.092709 245.822876 276.615842 C232.091980 292.769650 217.746582 308.407956 203.454895 324.075558 C195.323914 332.989377 187.037598 341.799741 178.296082 350.103879 C173.143555 354.998715 167.172424 359.146359 161.126099 362.919736 C159.166138 364.143002 155.528015 363.853207 153.126160 362.974423 C145.570374 360.210202 144.258850 354.854001 147.147766 346.434079 C148.731934 341.816586 151.912842 337.762387 154.167297 333.348691 C154.748535 332.210751 154.549683 330.674313 154.709106 329.320920 C153.668823 329.888425 152.562317 330.361752 151.599182 331.039059 C145.914001 335.037045 140.720459 340.202267 134.457336 342.765927 C129.219543 344.910092 124.889526 346.916684 120.991638 351.326840 C111.573730 361.982297 101.342529 371.918210 91.481689 382.184933 C91.002686 382.683591 90.929443 383.572079 90.667236 384.278989 C91.354065 384.480710 92.154907 385.021359 92.710876 384.834348 C104.596436 380.835873 117.060974 380.612424 129.326538 379.081052 C133.074524 378.613034 136.776794 377.778500 141.500000 377.111752 M122.000061 308.611874 C130.126648 300.151913 138.326050 291.760129 146.345581 283.199826 C149.757629 279.557675 153.479614 275.944577 155.865601 271.653806 C161.936401 260.735959 167.259155 249.404965 173.016724 238.309689 C182.622192 219.799069 191.801453 201.037900 202.179504 182.967587 C209.588440 170.067197 218.684265 158.137204 226.962952 145.731259 C227.553528 144.846249 227.614929 143.608090 227.922363 142.534177 C226.882629 142.958981 225.506897 143.094723 224.854797 143.852902 C217.590332 152.298703 210.180054 160.638913 203.314697 169.403561 C192.726746 182.920529 182.367737 196.624936 172.214294 210.471860 C160.257568 226.777951 148.622925 243.320187 136.850891 259.761594 C130.137634 269.137631 123.411255 278.504269 116.722534 287.897702 C110.224304 297.023618 103.729675 306.152707 97.345581 315.358212 C96.669434 316.333310 96.746521 317.830807 96.474121 319.085934 C97.513794 318.396786 98.779846 317.900327 99.556946 316.987607 C105.093933 310.484250 110.557068 303.917355 115.991211 297.327328 C119.869629 292.623837 123.582214 287.779538 127.592712 283.193845 C128.175659 282.527402 130.009766 282.955258 131.264832 282.876706 C131.048523 283.916440 131.144897 285.190610 130.567993 285.959836 C124.168274 294.492795 117.641846 302.930356 111.195251 311.428342 C105.433716 319.023251 99.700378 326.640012 94.039856 334.310117 C93.394043 335.185056 93.296936 336.465085 92.945435 337.557248 C94.102905 337.102841 95.594727 336.963681 96.366577 336.145505 C104.809082 327.195248 113.139282 318.139157 122.000061 308.611874 M368.000000 306.611813 C368.000000 322.445126 368.000000 338.278439 368.000000 354.111752 C368.000000 360.480649 368.533691 361.106992 373.964355 361.111813 C379.330933 361.116574 380.868896 359.336056 381.032593 353.598202 C381.228271 346.732419 381.663940 339.873410 382.000488 333.011716 C382.665283 319.454465 383.241577 305.892087 384.034058 292.342343 C384.515625 284.107663 385.407349 275.897946 385.983887 267.667783 C387.040405 252.586056 388.884277 237.489316 388.742920 222.414365 C388.610229 208.288754 386.548706 194.158017 384.892700 180.081662 C384.241455 174.545773 382.437744 169.138303 381.030396 163.705624 C380.799683 162.814816 379.902222 162.096738 379.312988 161.298825 C378.875244 162.117490 378.150635 162.900265 378.042969 163.760312 C376.315430 177.562253 374.465088 191.353635 373.067505 205.190427 C372.055054 215.212582 371.539551 225.291318 371.029541 235.356442 C370.250122 250.741147 369.585693 266.132870 369.038452 281.527524 C368.807739 288.019284 369.062012 294.527158 368.954346 301.025327 C368.929077 302.558957 368.333252 304.083188 368.000000 306.611813 M192.500000 416.111813 C197.748352 415.111813 202.972107 413.949765 208.250488 413.147153 C217.838074 411.689206 227.483337 410.603085 237.058960 409.076230 C252.962036 406.540280 268.783691 403.456662 284.724670 401.205380 C299.626953 399.100827 314.656067 397.902219 329.580811 395.935666 C331.218079 395.719907 333.181946 393.301205 333.829163 391.488278 C334.567444 389.420285 334.582703 386.670773 333.824280 384.619626 C333.161560 382.827145 330.954590 380.286618 329.489929 380.325742 C320.595032 380.563412 311.659546 381.019711 302.848267 382.217099 C291.294434 383.787228 279.823730 386.006650 268.352661 388.137448 C252.755859 391.034543 237.000610 393.360776 221.658508 397.282407 C196.750977 403.649289 172.127747 411.126950 147.376038 418.105771 C134.249268 421.806882 121.098022 425.421628 107.980530 429.155148 C106.897888 429.463376 105.989441 430.383420 105.000000 431.019162 C106.065735 431.383420 107.219666 432.216794 108.182800 432.035641 C114.486389 430.850217 120.750549 429.453976 127.024048 428.109982 C137.883179 425.783566 148.696472 423.213132 159.609741 421.178098 C170.186951 419.205624 180.865784 417.778439 192.500000 416.111813 M411.000122 275.611813 C411.333374 268.754330 411.851562 261.899960 411.966797 255.038815 C412.384399 230.194638 412.805908 205.348996 412.934814 180.502316 C412.990356 169.816220 412.232422 159.128232 412.032104 148.437558 C411.873047 139.946103 412.388306 131.426755 411.896606 122.960873 C411.348267 113.522031 410.058594 104.122372 408.910278 94.727841 C408.794189 93.777707 407.429443 92.980160 406.644165 92.111813 C405.096069 94.273923 402.709595 96.262448 402.216797 98.643002 C401.629639 101.478940 402.793457 104.643491 402.977783 107.679013 C403.699097 119.558285 404.767822 131.438412 404.887817 143.326535 C405.031128 157.507565 404.263916 171.695920 404.015015 185.883237 C403.547729 212.503659 404.563843 239.055661 406.850708 265.600156 C408.033203 279.327145 407.622803 293.188779 408.016113 306.987302 C408.263916 315.679135 408.641968 324.367795 409.025879 333.054990 C409.085938 334.415036 409.489502 335.759946 409.734253 337.111813 C410.489502 335.742062 411.446899 334.439450 411.932129 332.979855 C412.281006 331.929990 412.075195 330.664792 411.986206 329.505734 C411.689331 325.643674 411.021729 321.782285 411.069458 317.927670 C411.150879 311.343320 411.937866 304.763974 411.926880 298.183285 C411.914917 290.992306 411.333252 283.802243 411.000122 275.611813 M347.000000 701.611813 C350.298462 696.313351 354.051880 691.233517 356.740601 685.641843 C358.630249 681.712033 360.436035 676.908810 359.906250 672.801999 C358.194824 659.540524 355.115479 646.462155 353.076782 633.234250 C351.059937 620.149045 349.713623 606.961423 347.927490 593.838498 C347.748901 592.525876 346.559814 591.350705 345.839600 590.111813 C345.226440 591.291135 344.187866 592.428220 344.066284 593.656247 C342.953491 604.894284 341.989624 616.147214 341.005371 627.397824 C340.638672 631.588986 340.337524 635.785764 339.999023 639.979367 C339.335449 648.201169 338.169067 656.421139 338.146118 664.644406 C338.125000 672.197629 338.855591 679.837888 340.162231 687.280637 C341.085449 692.539792 341.606934 698.374753 347.000000 701.611813 M355.000000 169.611813 C356.666748 167.500607 359.092163 165.635495 359.870361 163.236142 C363.496216 152.058285 366.694458 140.740598 369.936646 129.441647 C370.151245 128.694089 369.458496 127.686215 369.187622 126.799374 C368.481201 127.047360 367.627197 127.120297 367.092163 127.571469 C363.373535 130.707639 359.667847 133.863339 356.059448 137.124997 C349.764404 142.814877 343.133423 148.210751 337.421387 154.442868 C332.995911 159.271359 329.820923 165.233090 325.977356 170.610471 C319.082703 180.256528 312.083557 189.827878 305.200317 199.481869 C304.702454 200.180112 304.790344 201.296017 304.605896 202.217709 C305.645386 202.107602 306.962708 202.358823 307.669006 201.815610 C309.370178 200.507016 310.575684 198.505978 312.348877 197.346799 C326.350586 188.194028 340.438599 179.173276 355.000000 169.611813 M458.500000 409.111752 C448.139771 409.445126 437.777954 409.735898 427.421143 410.154599 C425.730103 410.222958 423.888428 410.525510 422.418213 411.295956 C419.099854 413.035092 419.663574 416.430905 420.114258 419.221677 C420.621948 422.365598 422.924194 420.383176 424.596313 420.143185 C425.739258 419.979123 426.927368 420.164426 428.090820 420.103818 C440.646362 419.450070 453.201782 418.788693 465.755981 418.108762 C477.811768 417.455868 489.870728 416.849911 501.919678 416.087460 C510.483276 415.545590 519.030396 414.748959 527.588745 414.118649 C541.503540 413.093808 555.422485 412.123654 569.337646 411.104123 C573.202637 410.820981 577.084595 410.600156 580.906982 410.014035 C582.004028 409.845761 582.920166 408.499020 583.919189 407.692624 C582.858154 407.165707 581.782471 406.163998 580.738892 406.196469 C576.870972 406.316891 573.019775 406.907956 569.151367 407.085751 C560.128174 407.500729 551.100952 407.887448 542.071045 408.088925 C523.713989 408.498715 505.354736 408.831601 486.994873 409.089413 C477.831665 409.218198 468.665039 409.111813 458.500000 409.111752 M387.000000 712.611813 C387.333374 714.473264 387.879517 716.325436 387.962769 718.197995 C388.306030 725.920285 387.373291 733.900265 389.015503 741.319455 C391.851440 754.133054 395.778687 766.767819 400.150024 779.159421 C403.674683 789.151608 408.502441 798.686642 412.846558 808.382199 C413.181763 809.130246 414.265137 809.543088 415.000732 810.111813 C415.333862 809.347409 415.850342 808.609982 415.967041 807.813840 C416.384644 804.964963 416.999634 802.084225 416.897339 799.238522 C416.811401 796.846310 416.327881 792.744138 415.160645 792.410886 C409.885498 790.905514 408.568237 786.566525 408.173340 782.621335 C406.734619 768.249142 405.813721 753.815671 405.106201 739.385129 C404.874390 734.656979 405.290894 730.361203 399.349731 728.772824 C397.976807 728.405637 396.775513 726.319943 396.063721 724.764767 C394.207642 720.709592 392.577148 716.542966 391.031616 712.356198 C390.015137 709.602414 388.795898 709.416745 387.000000 712.611813 M395.000000 544.611813 C396.333374 535.851315 398.710327 527.101315 398.799805 518.328122 C399.046021 494.192258 398.331543 470.046506 398.003540 445.904660 C397.976440 443.909421 398.253174 441.868893 397.913208 439.932980 C397.676392 438.585202 396.625488 437.380490 395.938232 436.111813 C394.958740 437.449826 393.212646 438.736691 393.119385 440.133908 C392.250977 453.148434 391.270752 466.176877 391.110107 479.211056 C390.946045 492.537228 391.618286 505.875851 392.018677 519.206052 C392.249390 526.887326 392.617798 534.565549 393.060669 542.237302 C393.117432 543.219968 394.000000 544.154782 395.000000 544.611813 M377.000000 570.611813 C377.116089 567.162473 377.320801 563.713254 377.330444 560.263669 C377.353149 552.130002 378.039917 543.904172 377.067749 535.884274 C375.708252 524.668332 373.108765 513.600583 370.962646 502.484372 C370.735718 501.309201 369.993042 500.233639 369.489502 499.111813 C368.568726 500.036130 367.346558 500.814206 366.807983 501.923825 C366.212280 503.150876 365.930298 504.708981 366.049561 506.076047 C366.958984 516.495114 367.990234 526.903928 369.002563 537.313962 C370.325684 550.919064 371.676270 564.521603 372.994019 578.127316 C373.367310 581.982419 373.466187 585.878049 374.097168 589.687741 C374.354492 591.242062 375.691406 592.617795 376.537109 594.074704 C377.024780 592.611203 377.957886 591.136716 377.922119 589.686154 C377.773804 583.657346 377.333252 577.635983 377.000000 570.611813 M256.499939 235.111752 C258.246033 233.699033 260.256226 232.512997 261.695251 230.836606 C270.845642 220.176694 279.877075 209.414670 288.907715 198.652768 C289.247559 198.247800 289.448486 197.131528 289.245239 196.981320 C288.715759 196.590024 287.752380 196.203061 287.272583 196.440793 C286.015503 197.063779 284.821045 197.908871 283.782898 198.862729 C274.845947 207.074155 265.875000 215.251096 257.060242 223.592587 C247.474731 232.663449 237.966797 241.820676 228.627502 251.143063 C227.110535 252.657223 226.642456 255.222165 225.689575 257.301327 C227.671204 256.193295 229.798340 255.282162 231.609619 253.943600 C239.788574 247.899106 247.878174 241.733639 256.499939 235.111752 M369.999878 441.611813 C370.333252 447.136105 370.657471 452.661008 371.012939 458.183835 C371.052490 458.800290 371.282471 459.402951 371.402100 460.016232 C372.604004 466.180783 374.264404 472.301022 374.869019 478.523923 C375.467651 484.684811 374.740112 490.963132 375.074951 497.164059 C375.393921 503.068723 376.261597 508.949826 377.080200 514.814450 C377.197754 515.657346 378.393311 516.349728 379.089966 517.111813 C379.393311 516.318356 379.947388 515.528561 379.959351 514.730710 C380.038330 509.512204 380.070679 504.290768 379.987305 499.072385 C379.686157 480.224240 379.414429 461.374631 378.871704 442.533078 C378.818726 440.699460 377.374878 437.963620 375.867432 437.327267 C373.381104 436.277829 370.688965 437.236935 369.999878 441.611813 M389.000000 661.611813 C389.333374 663.138913 389.655151 664.668576 390.001953 666.192624 C391.664307 673.495969 393.296143 680.807004 395.054810 688.087155 C395.240479 688.855954 396.185547 689.441281 396.778320 690.111813 C397.185547 689.255856 397.974609 688.379147 397.929810 687.547604 C397.784058 684.844723 397.312622 682.160764 397.003296 679.465329 C394.996826 661.977658 393.033813 644.484982 390.934570 627.008420 C390.771606 625.652341 389.676392 624.408078 389.014648 623.111813 C388.343140 624.731320 387.147827 626.339963 387.113403 627.972897 C387.049683 630.990231 387.810669 634.014279 387.971924 637.049191 C388.388916 644.899533 388.666626 652.757077 389.000000 661.611813 M186.999939 315.611752 C192.881348 309.397031 198.709961 303.131284 204.660706 296.983701 C209.499695 291.984677 214.511414 287.153134 219.374939 282.177365 C220.067688 281.468625 220.356140 280.364560 220.831665 279.443417 C219.695312 279.692014 218.291504 279.598996 217.466431 280.245175 C212.535828 284.106198 207.909119 288.371030 202.858643 292.059811 C194.182922 298.396542 188.434998 307.099973 182.779785 315.911984 C182.277283 316.695126 182.460388 317.918149 182.325073 318.936948 C183.246216 318.465756 184.206848 318.056332 185.074097 317.501096 C185.621460 317.150571 186.029419 316.582333 186.999939 315.611752 M386.000000 134.611813 C385.489136 136.434323 384.049561 138.662106 384.635864 140.005978 C386.668335 144.664975 389.359375 149.043271 391.919067 153.459164 C392.341675 154.188168 393.363770 154.569699 394.108765 155.111813 C394.405884 154.312863 395.001465 153.492429 394.945923 152.718808 C394.752197 150.018002 394.096802 147.337827 394.045898 144.641721 C393.910767 137.489011 394.093262 130.329709 393.918457 123.178708 C393.885010 121.809811 392.796143 120.466733 392.194092 119.111813 C391.185303 120.222470 389.723267 121.170224 389.254517 122.474973 C387.949219 126.108029 387.055908 129.889157 386.000000 134.611813 M401.000000 590.611813 C401.000000 587.068723 401.000000 583.525510 401.000000 579.982419 C401.000000 577.989743 401.170776 575.974362 400.909302 574.016598 C400.815063 573.310300 399.683350 572.742673 399.025024 572.111813 C398.683350 572.697995 398.128174 573.252927 398.036743 573.875851 C397.619873 576.714597 396.939575 579.590573 397.069946 582.420163 C397.562500 593.111569 398.304077 603.792355 399.040039 614.470944 C399.124878 615.703976 399.758911 616.899167 400.138306 618.111813 C400.758911 616.778928 401.933716 615.435422 401.908325 614.114865 C401.764160 606.610837 401.333252 599.112302 401.000000 590.611813 M368.000000 381.611813 C368.000000 384.103452 367.590576 386.691525 368.146729 389.052121 C368.506104 390.577634 370.051025 392.538388 371.464722 392.958737 C374.850830 393.965451 378.785767 392.984494 379.682617 389.585324 C380.447876 386.684933 379.924316 382.100400 378.027710 380.186276 C375.723877 377.861142 371.427856 377.933224 368.000000 381.611813 M349.000000 487.611813 C349.616211 489.778439 350.232422 491.945187 350.848633 494.111813 C351.232422 492.073972 351.718506 490.048459 351.965576 487.994138 C352.142700 486.521481 352.200317 484.977170 351.959229 483.523068 C351.423340 480.291623 350.706909 477.087033 349.943726 473.900388 C349.858398 473.544431 348.995361 473.374753 348.493042 473.118771 C348.328735 473.548703 347.996338 473.990598 348.026001 474.406735 C348.315918 478.477536 348.666626 482.544064 349.000000 487.611813 M347.499878 460.111813 C347.666626 462.849240 347.716553 465.601559 348.062500 468.316159 C348.185547 469.281613 349.027222 470.155392 349.540771 471.071042 C350.027222 470.116940 350.958008 469.148068 350.927246 468.211056 C350.739624 462.512204 350.357788 456.819089 349.960571 451.129636 C349.922729 450.586789 349.367798 450.055661 348.990601 449.567380 C348.592285 449.051999 348.119385 448.594601 347.679077 448.111813 C347.452637 448.643430 347.040405 449.171628 347.030518 449.707272 C346.969971 453.007809 347.000000 456.310056 347.499878 460.111813 M370.500000 422.111813 C371.645630 422.111813 372.911499 422.425900 373.910400 422.043088 C375.692017 421.360104 377.383301 420.351804 378.915894 419.214780 C379.122070 419.061703 378.270874 416.586484 377.769043 416.534238 C375.812012 416.330502 373.455444 416.092587 371.924194 417.004269 C370.868164 417.632870 367.093872 418.691525 370.500000 422.111813 M415.000000 688.611813 C415.459717 689.738156 415.919312 690.864499 416.379028 691.990964 C416.844604 691.606076 417.725708 691.206174 417.712402 690.838498 C417.551514 686.395383 417.298828 681.953732 416.944092 677.521848 C416.904053 677.020383 416.095825 676.580319 415.643677 676.111813 C415.429077 676.653195 415.038452 677.191647 415.028931 677.736569 C414.970947 681.027463 415.000000 684.319943 415.000000 688.611813 M416.000000 708.611813 C416.000000 711.407712 415.893677 714.210690 416.075806 716.994626 C416.120483 717.678586 417.106934 718.300778 417.660522 718.951535 C418.107056 718.314084 418.910645 717.692136 418.939331 717.036496 C419.075073 713.917599 419.162476 710.776730 418.919312 707.670895 C418.823486 706.448117 417.822388 705.296017 417.233398 704.111813 C416.822266 705.278439 416.411133 706.445065 416.000000 708.611813 M397.500000 421.111813 C397.666626 419.192929 398.057983 417.254636 397.893921 415.364438 C397.824219 414.561520 396.590576 413.859616 395.885986 413.111874 C395.257324 415.260983 394.462891 417.378354 394.043335 419.567563 C393.553711 422.122189 394.707275 422.817014 397.500000 421.111813 M397.499878 390.111813 C397.666626 388.859860 398.174194 387.533627 397.921387 386.372983 C397.526733 384.560361 396.616943 382.859860 395.925415 381.111813 C395.616943 382.717343 395.321045 384.325436 394.994141 385.927182 C394.839966 386.682065 394.238525 387.658688 394.519531 388.124264 C395.107300 389.097775 396.146362 389.798825 397.499878 390.111813 M354.000000 545.611813 C354.000000 546.110471 353.911743 546.628415 354.015381 547.104611 C354.445190 549.080319 354.919678 551.046994 355.454224 552.996091 C355.472900 553.064694 356.695190 552.879025 356.694092 552.866452 C356.502075 550.540890 356.305908 548.211301 355.938110 545.909299 C355.884766 545.575314 355.000000 545.374387 354.000000 545.611813 M357.500000 560.111813 C356.975830 558.778439 356.451660 557.445187 355.927490 556.111813 C355.618408 557.063840 354.992920 558.041867 355.067993 558.962399 C355.209717 560.696286 355.755493 562.397214 356.133179 564.111813 C356.755493 562.945187 357.377808 561.778439 357.500000 560.111813 z"/></svg>