<?xml version="1.0" encoding="utf-8"?><!DOCTYPE svg PUBLIC "-//W3C//DTD SVG 1.1//EN" "http://www.w3.org/Graphics/SVG/1.1/DTD/svg11.dtd"><svg version="1.1" id="Contours" xmlns="http://www.w3.org/2000/svg" xmlns:xlink="http://www.w3.org/1999/xlink" x="0px" y="0px" width="588.896912px" height="588.896912px" viewBox="-0.000000 0.000007 588.896912 992.136047" enable-background="new 0 0 588.896912 588.896912" xml:space="preserve" stroke="black" fill="none" stroke-linecap='round' stroke-linejoin='round'><path class="selected"  fill="#000000" opacity="1.000000" stroke="none" 
 	d="
M421.135411 835.136056 C422.468724 822.189828 423.813634 809.744820 425.130681 797.296883 C425.824101 790.743294 426.285863 784.159615 427.176427 777.633797 C428.677739 766.631783 430.425786 755.663399 432.091496 744.684090 C433.422978 735.907967 434.662541 727.115426 436.167241 718.368783 C437.981785 707.820931 440.026829 697.312630 441.984135 686.789437 C444.027104 675.805550 446.052403 664.818185 448.150273 653.844735 C449.061894 649.075936 450.729985 644.369576 450.983098 639.578194 C451.290929 633.750863 450.617619 627.850350 450.089574 622.006722 C449.645909 617.096627 448.587071 612.240670 448.176762 607.329293 C447.056706 593.921822 446.135503 580.497689 445.135442 567.080147 C444.135442 553.662606 443.045842 540.251046 442.162053 526.825814 C441.368962 514.778390 440.724858 502.719613 440.159825 490.659066 C439.705937 480.970589 439.419774 471.273385 439.147221 461.577523 C438.767003 448.051766 438.409917 434.524850 438.170415 420.996163 C438.096348 416.811654 436.358464 416.443246 432.900670 417.815926 C419.303380 423.213753 405.671330 428.526681 392.003636 433.743966 C375.453618 440.061532 358.855260 446.252572 342.273747 452.487435 C341.550877 452.759225 340.744878 452.831185 340.050236 453.152901 C337.811284 454.190133 335.606358 455.300728 333.388341 456.383126 C335.034611 457.634102 336.744755 458.810067 338.316746 460.148324 C348.106602 468.482308 353.469151 474.770028 348.734318 485.977120 C346.488194 491.293648 340.680974 496.392769 335.249119 498.819161 C322.323308 504.593209 308.514653 507.962533 294.124333 508.175728 C287.093175 508.279854 280.045537 508.569466 273.051518 509.249764 C270.217839 509.525399 267.058903 510.473519 264.835332 512.156075 C260.411107 515.503853 256.497868 519.535714 252.434788 523.350167 C240.908406 534.171212 229.495900 545.115609 217.851628 555.807870 C214.611150 558.783394 210.795735 561.164010 207.109471 563.615121 C202.329900 566.793343 196.628712 565.199288 192.863347 561.291146 C188.788548 557.061959 187.603917 551.819527 190.770131 547.040536 C193.124715 543.486580 195.347462 539.749093 198.240391 536.667428 C204.852376 529.623910 211.754582 522.844247 218.718816 516.144417 C221.226292 513.732186 224.290303 511.906380 227.010136 509.701607 C227.760136 509.093636 228.185200 508.084847 228.759373 507.260018 C227.914662 506.885323 227.103566 506.321969 226.220174 506.164742 C215.501240 504.257027 204.774968 502.389413 194.037785 500.587899 C193.287526 500.462044 192.093098 500.700204 191.731526 501.211678 C191.399235 501.681771 191.742726 502.831856 192.083913 503.540047 C193.424519 506.322640 195.398762 508.919869 196.128117 511.838204 C196.686970 514.074288 196.622868 517.602791 195.255070 518.941842 C192.581914 521.558846 189.399922 520.024911 186.965871 517.467171 C180.367985 510.534005 173.768330 503.602547 167.169652 496.670174 C164.142918 493.490304 160.584080 491.733163 156.047246 492.112801 C149.652135 492.648018 144.664174 489.960946 139.392018 486.317391 C133.934315 482.545540 127.106343 480.741158 120.849835 478.143380 C103.571194 470.969002 86.729573 463.206490 74.044881 448.640206 C66.993451 440.542855 65.368237 427.866402 72.807492 417.011971 C74.259434 414.893380 75.822903 412.712655 77.785741 411.114144 C81.032986 408.469552 79.774853 406.499215 77.618344 404.072396 C65.077359 389.959847 52.224595 376.099007 40.230492 361.532815 C28.168015 346.883645 15.894568 332.253243 6.999383 315.337075 C3.569927 308.815194 -0.115869 301.987954 3.576912 293.956093 C4.273883 292.440194 3.222271 289.775582 2.350412 287.938668 C-3.661450 275.272317 2.406651 264.228249 14.333564 259.582467 C16.501525 258.738015 19.250626 259.499245 21.621049 258.997597 C22.423871 258.827675 23.607043 256.314522 23.399632 256.110757 C16.163995 249.002511 19.784726 242.024850 23.672072 235.206704 C25.009640 232.860695 27.095807 230.927956 28.913476 228.871407 C39.268403 217.155526 49.041459 204.840371 60.201405 193.947121 C69.560590 184.811623 80.531934 177.324288 90.816785 169.141549 C100.084553 161.768044 109.456151 154.523507 118.657872 147.068917 C126.803258 140.470070 134.738484 133.612282 142.849416 126.970116 C145.630452 124.692681 146.154042 117.658105 143.107152 115.862054 C141.984578 115.200326 139.595143 115.986748 138.110692 116.749367 C124.773961 123.601067 111.511044 130.596352 98.221677 137.540352 C97.677998 137.824441 97.102376 138.164254 96.515080 138.226143 C94.728848 138.414406 92.929593 138.479134 91.135411 138.591927 C92.186070 137.222634 92.962659 135.421822 94.331021 134.552712 C104.732098 127.946511 115.082669 121.232049 125.771825 115.115533 C139.069554 107.506356 152.601384 100.294381 166.169514 93.172646 C182.855717 84.414300 199.998250 76.476708 216.345784 67.137948 C228.323353 60.295617 239.282597 51.684289 250.801549 44.020501 C257.954777 39.261346 265.078191 34.363640 272.670354 30.400460 C276.104802 28.607644 275.073094 26.853356 273.766637 25.479165 C271.734685 23.341912 268.979497 21.896584 266.549596 20.132165 C264.111180 18.361535 261.499272 16.767815 259.321355 14.716530 C256.765538 12.309319 255.915471 8.883141 257.947758 6.028329 C260.230473 2.821648 263.275944 0.858330 267.879643 3.043374 C276.358617 7.067696 284.987370 10.850854 293.802861 14.047265 C296.522099 15.033242 300.305211 14.477181 303.158025 13.425271 C310.010167 10.898675 316.195653 6.658379 324.049290 7.020898 C327.873265 7.197411 331.101292 7.830788 333.445164 10.969903 C335.039708 13.105492 336.529027 13.206170 339.187901 12.264474 C350.684483 8.192681 362.326909 4.525536 373.958958 0.846154 C380.720463 -1.292594 383.824437 0.541543 386.195714 7.280846 C386.904698 9.295891 388.014928 11.366509 389.484776 12.885934 C401.284978 25.084466 411.036137 38.766091 419.107030 53.641534 C426.777440 67.778786 434.641331 81.836602 441.631383 96.310296 C448.658177 110.860131 454.519688 125.969018 461.317021 140.635842 C463.211705 144.723977 466.799138 147.993844 469.284978 151.848672 C474.635747 160.146187 476.518437 169.626870 478.163212 179.165536 C478.316014 180.051644 478.858525 180.870583 479.220067 181.720711 C480.044896 181.172707 481.200993 180.812386 481.636357 180.043801 C483.370457 176.982216 485.106023 175.445260 489.121373 176.978432 C493.058263 178.481698 494.367223 180.963051 494.092839 184.607674 C493.573338 191.508462 492.334233 198.387185 492.288640 205.280984 C492.254277 210.468453 493.162358 215.784218 494.483189 220.824776 C495.841557 226.008401 498.177281 230.940285 500.169041 235.949013 C500.476140 236.721230 501.231877 237.315011 501.780125 237.991341 C502.231908 237.178597 502.968816 236.406777 503.092259 235.546883 C504.739873 224.072182 507.967686 213.038216 513.251378 202.759072 C515.655553 198.081826 518.967198 193.754342 525.466283 194.081490 C531.486729 194.384560 536.445286 198.765481 536.053929 204.764474 C535.340611 215.700997 534.073399 226.600197 533.154698 237.524850 C532.393834 246.573067 531.692723 255.629128 531.167393 264.693459 C530.683385 273.045693 530.747655 281.436013 530.075047 289.769570 C528.825902 305.246987 532.158726 319.830544 536.994115 334.416360 C541.964207 349.408394 546.131932 364.693612 549.950780 380.024880 C551.232823 385.171639 550.718297 390.876778 550.367161 396.284005 C550.092198 400.519417 547.713292 403.604134 542.989903 404.149483 C537.730015 404.756539 534.538914 402.050179 532.119176 397.778023 C526.961400 388.671700 524.003514 378.946816 523.056920 368.507607 C522.677220 364.319680 521.478184 360.198006 520.513646 356.078622 C520.342869 355.349160 519.489598 354.779488 518.951512 354.136056 C518.679478 354.961526 518.158910 355.790993 518.172032 356.611947 C518.457371 374.472573 519.137669 392.334420 519.022008 410.191353 C518.939549 422.917489 517.883946 435.641854 517.106419 448.357430 C516.592808 456.756295 515.823643 465.140023 515.130772 473.527413 C513.813451 489.474496 513.194432 505.526436 510.865208 521.325387 C509.452306 530.909127 510.969884 539.044869 515.570348 547.209847 C517.589879 550.794076 518.582066 554.948189 520.180638 558.785226 C520.557469 559.689767 521.499608 560.358712 522.181737 561.136056 C522.499669 560.189767 523.059178 559.251778 523.091649 558.295785 C523.204808 554.966683 522.906956 551.608101 523.242894 548.309334 C523.386082 546.903145 524.708531 545.617074 525.495091 544.276375 C526.041844 545.622811 527.079625 546.980721 527.048619 548.313729 C526.927952 553.513314 526.613927 558.719552 526.096898 563.895821 C525.515233 569.718758 528.013585 574.613228 530.083226 579.761788 C540.511327 605.703866 550.104283 631.933419 557.170506 659.037484 C561.555394 675.856759 566.609227 692.506722 570.746678 709.383736 C573.734837 721.572823 575.795811 733.994088 578.109898 746.341927 C580.230138 757.656258 582.231114 768.995125 584.094212 780.354439 C584.999119 785.871834 585.770787 791.443917 586.081334 797.020272 C587.217992 817.429452 588.643773 837.844613 588.888035 858.270394 C588.987218 866.570138 588.326573 875.262643 583.232457 882.844247 C579.370702 888.591744 572.105809 889.985238 566.934300 885.500619 C556.754857 876.673226 552.002843 864.447091 547.394261 852.582406 C539.246434 831.606026 532.385167 810.125130 525.202428 788.782296 C523.420140 783.486397 522.600194 777.872750 521.040135 772.491463 C520.664586 771.196297 519.101842 770.245309 518.085118 769.136056 C518.085057 770.285836 518.026646 771.439156 518.094701 772.584847 C518.422887 778.107125 518.974583 783.624276 519.065648 789.149483 C519.121922 792.563790 517.009190 794.844674 513.569554 795.068856 C509.760106 795.317147 509.010716 797.448800 509.117772 800.661629 C509.496373 812.020699 509.678258 823.387581 510.169408 834.741341 C510.683934 846.637093 511.451634 858.522042 512.143712 870.409737 C512.426915 875.273995 512.720860 880.140633 513.179845 884.990060 C513.338658 886.668282 513.470738 888.978036 514.543736 889.830330 C518.892430 893.284859 518.118809 897.912545 518.130101 902.420968 C518.149327 910.086739 518.006322 917.755318 518.174290 925.417428 C518.321202 932.116036 518.814671 938.806710 519.130833 945.502022 C519.327000 949.655953 517.626683 953.226388 513.602269 953.955636 C509.187779 954.755562 505.940282 952.349679 505.028996 947.542672 C503.771184 940.907662 502.437199 934.287057 501.135319 927.660348 C500.469273 924.270089 499.828252 920.874581 499.106663 917.496163 C499.000828 917.000680 498.509618 916.587350 498.196690 916.136056 C497.842931 916.713204 497.151372 917.315255 497.191899 917.863228 C497.404240 920.733712 497.849980 923.585885 498.126012 926.452950 C498.821110 933.673287 499.513676 940.894356 500.125371 948.122018 C501.161900 960.369942 502.139317 972.622750 503.126683 984.874825 C503.193425 985.702706 503.450474 986.738106 503.075413 987.336251 C502.012761 989.030953 500.667790 990.548653 499.433995 992.136056 C498.001103 990.747750 495.778813 989.584908 495.304204 987.922799 C494.391576 984.726632 494.266606 981.252511 494.191411 977.885201 C494.113957 974.415719 493.186345 971.846139 489.877629 970.060128 C486.542088 968.259591 485.343693 964.971383 485.106480 961.204293 C484.177312 946.449044 483.157689 931.699532 482.127080 916.950997 C481.505681 908.058297 480.967381 899.154976 480.085087 890.286935 C479.328068 882.677926 478.148625 875.110360 477.105138 867.531502 C477.036900 867.035775 476.534520 866.599801 476.234044 866.136056 C475.867833 866.700692 475.158757 867.282418 475.185796 867.827523 C475.786656 879.943734 476.845677 892.050240 477.026616 904.170357 C477.198643 915.690011 476.369023 927.221871 476.195317 938.751412 C476.142277 942.273873 476.864323 945.802437 477.120885 949.336251 C477.509770 954.693551 477.822179 960.056588 478.106419 965.420601 C478.137089 965.999337 477.952275 966.828438 477.552251 967.152901 C474.607823 969.541329 473.906102 972.649727 474.030217 976.264351 C474.062291 977.198800 472.800175 978.177560 472.132542 979.136056 C471.466832 978.342354 470.350804 977.623604 470.203953 976.743355 C468.431370 966.119454 466.821385 955.468453 465.125004 944.831612 C464.529179 941.095406 463.410130 937.394478 463.261723 933.648385 C463.102971 929.641793 463.946202 925.606393 464.097935 921.573800 C464.262883 917.190011 464.135411 912.795357 464.135411 908.405343 C464.135411 907.572091 464.135411 906.738839 464.135411 905.905587 C464.135411 893.016610 464.154088 880.127450 464.084660 867.238839 C464.080907 866.535897 463.342076 865.836922 462.945409 865.136056 C462.228368 865.749825 461.217137 866.221017 460.839970 866.999459 C457.210759 874.489693 454.195836 882.334176 449.955083 889.451607 C447.178044 894.112313 443.273839 898.649117 438.799199 901.624337 C431.782841 906.289620 423.822942 902.714181 421.213628 894.477242 C420.080876 890.901497 419.327763 887.068001 419.227055 883.329415 C418.957951 873.337777 418.904179 863.326729 419.222844 853.338082 C419.411565 847.423104 420.468724 841.535775 421.135411 835.136056 M106.135403 219.636056 C111.317052 214.121071 116.578473 208.677498 121.624402 203.041024 C122.888402 201.629067 123.459691 199.597054 124.349370 197.850014 C122.602345 198.787758 120.693623 199.512643 119.134076 200.697182 C107.584279 209.469979 96.117085 218.351357 84.596829 227.163216 C77.773823 232.382119 70.818059 237.433419 64.142361 242.832528 C63.153142 243.632607 63.068257 245.948372 63.120412 247.544778 C63.197453 249.902993 63.435994 252.362221 64.205411 254.569405 C65.809010 259.169533 65.955548 264.717660 71.397763 267.131631 C79.701794 270.815133 88.136342 274.227425 96.301732 278.194771 C107.550473 283.660195 118.816960 289.153390 129.685475 295.322457 C147.262440 305.299294 164.556050 315.778451 181.902013 326.157967 C191.987355 332.192910 202.193776 338.089303 210.343526 346.820229 C213.763509 350.484170 215.610524 354.653573 213.035512 359.281716 C210.930867 363.064431 207.218236 365.479592 202.724309 365.052895 C195.444905 364.361733 188.101765 363.638985 180.992528 362.020424 C169.799779 359.472054 158.573720 356.761849 147.744252 353.014748 C137.444890 349.451058 127.644337 344.450448 117.595547 340.149178 C116.793736 339.805947 115.766774 339.988717 114.844441 339.927041 C115.196461 340.751748 115.326916 341.833748 115.936848 342.358895 C119.593205 345.507088 123.515172 348.358498 127.060368 351.621956 C137.586980 361.311867 148.068059 371.054940 158.402165 380.949319 C170.848500 392.866036 183.131535 404.953499 195.471165 416.981454 C198.095799 419.539803 200.668309 422.151925 203.249577 424.754403 C206.829823 428.364083 210.411809 431.182076 215.671284 427.237801 C217.579991 425.806344 220.127186 425.172860 222.444554 424.348153 C246.114720 415.923714 269.607976 406.941537 293.528813 399.298592 C318.750645 391.240060 344.391576 384.495614 369.833165 377.120949 C378.033848 374.743783 386.556737 372.997841 393.020726 366.741372 C404.444981 355.683907 415.936345 344.692086 427.146580 333.421059 C428.841984 331.716439 429.949620 328.666573 429.986241 326.218819 C430.086247 319.532143 429.145848 312.832131 429.201054 306.142190 C429.324986 291.116585 429.761815 276.092873 430.149571 261.070412 C430.408360 251.043069 430.642003 241.010232 431.202306 230.997506 C431.486394 225.920540 432.699650 220.899392 433.066563 215.822182 C433.394078 211.290169 433.578953 206.654153 432.957799 202.184792 C432.621617 199.766060 430.401189 197.636208 429.147832 195.312935 C425.035344 187.690072 421.395573 179.776742 416.819920 172.445778 C401.965367 148.646065 383.110570 127.970620 364.495915 107.175377 C355.619450 97.259102 345.869511 88.104012 336.200383 78.936165 C334.369969 77.200661 330.957524 76.047280 328.444096 76.300820 C315.436284 77.613000 302.460881 79.315316 289.521336 81.204537 C283.534733 82.078622 277.350072 82.568246 272.509587 87.196511 C262.168736 97.083993 251.622472 106.756234 241.213536 116.573052 C228.381413 128.675210 215.396550 140.625191 202.846318 153.014351 C178.895100 176.658181 155.204961 200.566476 131.406483 224.364998 C126.596333 229.175149 121.955853 234.173226 116.912938 238.725503 C113.850140 241.490243 110.302716 243.514870 105.707020 241.297585 C101.268971 239.156289 98.840054 235.807137 100.299962 231.198861 C101.491070 227.439034 104.135411 224.139626 106.135403 219.636056 M558.635411 717.136056 C557.468724 711.456246 556.454930 705.739876 555.107030 700.103402 C550.942296 682.688668 546.843297 665.254403 542.353368 647.922310 C537.842381 630.509041 532.904698 613.206124 528.110753 595.866830 C527.763097 594.609261 527.063939 593.448861 526.528111 592.243294 C526.063878 593.549935 525.240391 594.843331 525.191746 596.165352 C524.761510 607.848885 524.467808 619.537484 524.137791 631.224618 C524.118993 631.890267 524.206334 632.565804 524.124791 633.221871 C522.806493 643.830453 521.589513 654.453683 520.094456 665.037484 C519.035313 672.535592 517.506261 679.966073 516.352391 687.452279 C515.478184 693.123665 513.175877 699.242623 514.433385 704.457223 C519.372044 724.936593 525.142369 745.235360 531.239476 765.409127 C536.055455 781.343880 541.696385 797.034310 547.171483 812.763375 C551.018651 823.815438 554.918004 834.866219 559.333104 845.697884 C562.468419 853.389779 566.463963 860.734505 570.188634 868.177560 C570.609532 869.018624 571.765050 869.492074 572.579930 870.136056 C572.765111 869.224312 573.056676 868.319649 573.118016 867.399666 C573.486485 861.877267 574.098729 856.349557 574.063756 850.827157 C574.015050 843.135506 573.465916 835.447152 573.136204 827.757088 C572.799290 819.900826 572.524205 812.041390 572.109471 804.189217 C571.931493 800.821541 571.558385 797.457039 571.118565 794.111519 C569.832738 784.331368 568.564610 774.547127 567.103917 764.792245 C566.006139 757.461129 564.607884 750.175179 563.368504 742.864937 C561.943028 734.457711 560.545201 726.045907 558.635411 717.136056 M452.135411 718.636056 C451.802098 718.997872 451.232854 719.322823 451.169835 719.726815 C449.460087 730.690011 447.638737 741.639474 446.174107 752.636300 C444.024144 768.778573 441.910405 784.932015 440.206792 801.125435 C438.852391 813.999947 438.120183 826.940438 437.143040 839.853951 C436.763005 844.876229 436.382451 849.901009 436.154423 854.931527 C435.753087 863.785470 435.432439 872.643685 435.196690 881.503304 C435.175267 882.308480 436.014073 883.136605 436.453435 883.954049 C437.014104 883.308175 437.761540 882.748971 438.107609 882.003426 C443.943608 869.430977 450.026555 856.960885 455.423161 844.200936 C459.071934 835.573678 462.796605 827.325143 461.532658 816.865121 C459.413335 799.326668 459.818181 781.484505 459.127690 763.771432 C458.840825 756.411751 458.401311 749.057809 458.150883 741.697091 C457.758946 730.176888 457.452428 718.653695 457.146886 707.130746 C457.070317 704.243966 457.202641 701.350838 457.091313 698.466378 C457.060887 697.678963 456.493657 696.912240 456.172765 696.136056 C455.493626 696.915841 454.322484 697.632943 454.213872 698.485482 C453.402898 704.853951 452.802037 711.249215 452.135411 718.636056 M452.135411 259.636056 C452.135411 262.300789 452.194768 264.967080 452.125188 267.629983 C451.815404 279.483956 451.433537 291.336251 451.201634 303.191598 C451.182957 304.147286 452.102605 305.121346 452.586186 306.086831 C453.435918 305.501015 454.468785 305.066384 455.100682 304.300759 C456.919682 302.096810 458.402226 299.598519 460.330113 297.504098 C466.168187 291.161690 470.152562 284.484170 469.341649 275.135567 C468.667760 267.366738 469.642674 259.429909 470.189366 251.588570 C470.577855 246.016183 471.826970 240.492837 472.045903 234.922249 C472.327580 227.753914 473.356053 220.184731 471.545445 213.466714 C468.925816 203.746926 464.065892 194.628365 460.103764 185.277840 C459.784886 184.525338 459.018407 183.962502 458.459965 183.311532 C458.018468 184.127938 457.267155 184.913247 457.181615 185.765389 C455.783086 199.696206 454.223973 213.617776 453.216344 227.578622 C452.471165 237.903329 452.468724 248.281624 452.135411 259.636056 M414.135411 88.636056 C411.216191 85.050164 408.580113 81.158929 405.222752 78.045525 C404.061650 76.968773 400.990971 77.431725 399.036809 78.012810 C398.357396 78.214852 397.828557 81.068413 398.229039 82.413933 C401.176762 92.317895 403.808232 102.372780 407.615178 111.952584 C415.911504 132.829690 422.505284 154.533150 435.700169 173.171792 C436.462804 174.249032 437.471623 175.151986 438.365849 176.136056 C438.955693 174.935891 439.696904 173.784890 440.105809 172.525979 C441.155858 169.293374 442.077946 166.018502 443.014958 162.750161 C444.205174 158.598672 446.505162 154.512276 444.113042 150.081063 C443.297948 148.571175 442.010197 147.299080 441.301244 145.752053 C436.304784 134.849526 431.588353 123.814858 426.409337 113.001107 C422.611882 105.072014 418.247258 97.414574 414.135411 88.636056 M249.635411 481.136056 C244.894246 483.627633 240.903722 481.615731 236.732823 479.332467 C232.017049 476.750924 228.086934 471.429574 221.868718 473.219918 C210.013554 476.633126 198.282643 480.485299 186.553914 484.319649 C185.236836 484.750252 183.247655 486.383065 183.362447 487.209359 C183.558751 488.622140 185.030492 489.996468 186.237660 491.086861 C187.241475 491.993661 188.567158 492.844491 189.865788 493.078194 C203.352055 495.505501 216.836903 497.969308 230.386800 499.989327 C232.963368 500.373421 236.348744 499.584176 238.442570 498.068001 C242.784230 494.924142 246.404118 490.805123 250.511052 487.310738 C257.735203 481.164071 265.111607 475.196541 272.393834 469.117562 C273.084874 468.540658 273.560033 467.705208 274.135380 466.989754 C273.296178 466.371895 272.471867 465.243844 271.615361 465.218819 C266.075078 465.057198 260.487309 464.718636 254.993931 465.251046 C249.261342 465.806527 249.149068 466.289925 251.958928 471.382149 C254.043828 475.160592 253.046544 478.006539 249.635411 481.136056 M123.135411 470.636056 C125.980199 471.814156 128.736272 473.417733 131.697957 474.035226 C134.046468 474.524850 137.489003 474.734017 138.943806 473.413277 C141.297490 471.276497 139.218983 468.730111 137.254353 466.724557 C124.027669 453.222848 110.827916 439.694588 97.666684 426.129037 C95.875790 424.283089 94.397473 422.138009 92.685277 420.210580 C90.725331 418.004220 88.535924 416.285164 85.460492 418.320504 C78.272145 423.077706 76.216603 434.404915 81.041066 441.580330 C86.203931 449.259164 93.398625 454.599557 101.233014 459.070870 C108.202176 463.048287 115.488850 466.469430 123.135411 470.636056 M288.135411 501.636056 C296.149998 500.469369 304.351140 500.005440 312.127385 497.940987 C320.115910 495.820199 327.905125 492.582711 335.368016 488.977791 C340.279027 486.605538 342.723973 479.420357 336.576482 475.238473 C331.474034 471.767342 325.965214 468.756173 320.308964 466.293221 C317.371098 465.013924 313.956151 464.610055 310.835820 467.769601 C301.187810 477.539071 291.174962 486.948678 281.275090 496.468209 C280.244359 497.459359 279.006596 498.232308 277.895604 499.143929 C277.304204 499.629159 276.778599 500.194649 276.223332 500.723946 C277.028111 501.194649 277.813054 502.025826 278.641240 502.071419 C281.631413 502.235970 284.636174 502.136056 288.135411 501.636056 M507.135411 585.636056 C507.468724 587.163094 508.070409 588.685738 508.095250 590.217843 C508.485875 614.223214 508.789098 638.229989 509.171056 662.235604 C509.191746 663.539986 509.728001 664.836068 510.024205 666.136056 C510.727940 664.881722 511.874119 663.690316 512.062840 662.362801 C513.208226 654.305550 514.154515 646.219552 515.131383 638.138802 C517.144688 621.484933 519.101048 604.824166 521.145848 588.174203 C522.917088 573.751107 514.220982 562.024483 511.064549 548.872201 C510.895299 548.167184 509.697545 547.709115 508.978612 547.136056 C508.697545 547.951729 508.195653 548.760140 508.168736 549.584115 C507.786595 561.266854 507.468724 572.951729 507.135411 585.636056 M110.635403 356.136056 C102.595219 349.429207 94.690404 342.550881 86.474843 336.066231 C79.017163 330.179757 71.251424 324.679909 63.537572 319.126198 C62.531514 318.401864 61.025456 318.371987 59.750981 318.020486 C60.281743 319.294961 60.496220 320.888436 61.401105 321.785531 C64.405415 324.764077 67.661946 327.487740 70.814702 330.317025 C77.367551 336.197610 83.843877 342.165841 90.480763 347.949898 C105.259289 360.829415 119.997723 373.759408 134.979832 386.399422 C147.367787 396.850716 160.068288 406.932442 172.693471 417.099435 C173.285649 417.576241 174.494069 417.287911 175.415486 417.355965 C175.071645 416.532174 174.947621 415.468087 174.350163 414.921517 C167.853963 408.978951 161.211537 403.195443 154.747975 397.218209 C140.168767 383.735909 125.668065 370.168709 110.635403 356.136056 M287.635411 420.136056 C286.970067 420.136056 286.227605 419.939400 285.650914 420.165536 C276.779149 423.643807 267.909520 427.129159 259.079167 430.711007 C249.964848 434.407967 240.841466 438.093026 231.846516 442.065194 C229.994145 442.883248 228.691472 444.946053 227.135411 446.435067 C229.023808 447.002083 230.882710 447.729500 232.810231 448.083504 C234.258473 448.349557 235.818043 448.307442 237.288151 448.108224 C246.724049 446.829476 256.159672 445.538888 265.569096 444.082406 C267.668584 443.757455 269.936681 443.158822 271.656956 441.992623 C277.799290 437.828377 283.757451 433.390511 289.750767 429.008980 C296.142186 424.336434 302.535649 419.664071 308.821507 414.852242 C309.815556 414.091317 310.246739 412.595101 310.938206 411.438851 C309.787327 411.671273 308.578557 411.750863 307.495030 412.161141 C301.025792 414.610421 294.585454 417.136056 287.635411 420.136056 M383.135411 402.636056 C382.831364 404.277962 381.180913 406.871224 385.196843 405.166817 C389.446873 403.363045 393.718632 401.535348 398.124913 400.189583 C408.494664 397.022408 418.964055 394.182992 429.362126 391.106148 C432.307317 390.234688 434.756657 389.182076 434.259068 384.924203 C433.463719 378.118203 433.516209 371.215920 433.117375 364.359688 C432.882725 360.326516 432.538579 356.295907 432.086888 352.281777 C431.971989 351.260537 431.259160 350.306557 430.821049 349.321694 C429.898686 349.786965 428.805913 350.071084 428.084447 350.749856 C425.415929 353.260537 422.801396 355.838479 420.322911 358.534829 C419.646001 359.271310 419.516270 360.510689 419.135411 361.519265 C420.245702 361.447884 421.415593 361.574959 422.453679 361.263192 C424.516179 360.643746 426.931798 358.801125 428.173863 361.842782 C429.068028 364.032418 429.605626 366.914315 428.923924 369.046822 C428.244115 371.173379 426.120518 373.145943 424.158330 374.505410 C410.720067 383.815743 397.157750 392.947091 383.135411 402.636056 M83.135426 386.636056 C85.802098 389.693246 88.901898 392.482064 91.010899 395.884896 C93.032689 399.146920 95.643956 399.255196 98.723973 399.047921 C103.259305 398.742684 107.793011 398.406380 112.331731 398.164010 C113.256489 398.114693 114.200352 398.423104 115.135411 398.566598 C114.648724 397.436410 114.475369 395.909554 113.625958 395.238473 C106.633237 389.714242 99.242696 384.666085 92.490811 378.870095 C77.929982 366.370614 63.690251 353.497384 49.271062 340.831826 C48.309754 339.987404 46.944878 339.602425 45.767731 339.003731 C46.169648 340.493874 46.163579 342.307717 47.044442 343.417824 C50.760838 348.101571 54.787007 352.537728 58.616215 357.134133 C66.650563 366.778176 74.632161 376.466134 83.135426 386.636056 M344.135411 410.636056 C349.373387 406.398080 354.641515 402.196297 359.817876 397.884408 C360.624760 397.212289 361.013554 396.038277 361.595708 395.096383 C360.340794 395.044442 358.960820 394.624215 357.851414 395.000924 C351.144292 397.278145 344.374547 399.445138 337.866215 402.214181 C330.627934 405.293893 322.020695 405.799752 316.821385 412.931954 C315.596989 414.611580 314.369969 416.321053 312.923924 417.801705 C307.941777 422.903206 302.842198 427.889962 297.857854 432.989327 C297.464390 433.391854 297.613377 434.324593 297.510258 435.010934 C298.216710 435.054574 298.993535 435.311288 299.617467 435.105172 C302.394078 434.187752 305.082280 432.986214 307.883214 432.161751 C321.565495 428.134469 333.263249 420.771676 344.135411 410.636056 M135.135411 427.636056 C128.675877 418.405404 121.805539 409.626473 109.813428 407.419808 C108.132176 407.110543 106.229428 408.005013 104.429204 408.342232 C104.935918 410.044808 105.024014 412.072518 106.039342 413.380135 C107.960065 415.853829 110.520467 417.817818 112.627454 420.162179 C123.822560 432.618416 134.945332 445.139535 146.145802 457.590890 C146.959859 458.495858 148.109013 459.356576 149.250935 459.640511 C150.503895 459.952157 152.174855 459.962411 153.178487 459.331795 C153.702214 459.002694 153.632497 456.737618 153.065999 455.818185 C147.346562 446.534859 141.468754 437.349190 135.135411 427.636056 M93.135411 297.636056 C93.057690 298.225014 92.703480 299.155373 92.944600 299.350594 C95.664487 301.553261 98.538846 303.565560 101.252507 305.775399 C122.665715 323.213265 147.674184 333.710244 173.247731 343.115639 C174.149403 343.447274 175.161778 343.477944 176.122563 343.648903 C175.507405 342.477944 175.183980 340.859536 174.216603 340.228799 C172.175053 338.897683 169.721318 338.220101 167.568028 337.035653 C147.077321 325.764290 126.634343 314.406014 106.125676 303.167580 C102.076466 300.948678 97.804593 299.136056 93.135411 297.636056 M481.135380 711.636056 C480.135380 702.567940 479.156041 693.497445 478.130254 684.432259 C476.818242 672.838082 475.532780 661.240182 474.092656 649.661690 C473.708806 646.575509 472.882329 643.532662 472.066228 640.522103 C471.907323 639.935921 470.855412 639.591805 470.215367 639.136056 C469.855382 639.871834 469.127141 640.641183 469.190739 641.338326 C470.109929 651.411996 471.153630 661.474129 472.129246 671.542794 C472.827550 678.749642 473.359257 685.974251 474.160802 693.169137 C475.397801 704.272591 476.993291 715.338692 478.077641 726.455697 C479.021641 736.133919 479.437749 745.862984 480.164586 755.563729 C480.292485 757.270943 480.653416 758.999032 481.192540 760.622506 C481.503483 761.558663 482.387150 762.304513 483.013005 763.136056 C483.387120 762.248055 484.062840 761.367379 484.084599 760.470833 C484.194890 755.925301 484.412419 751.355416 484.081029 746.831429 C483.245244 735.422249 482.135411 724.033211 481.135380 711.636056 M388.135411 99.636056 C386.377507 93.544823 384.906865 87.346978 382.707341 81.419625 C381.927983 79.319420 379.583501 76.722161 377.588017 76.358727 C372.189366 75.375466 366.596593 75.420876 361.075474 75.181893 C360.108769 75.140069 359.116093 75.698556 358.135411 75.979790 C358.568303 76.964760 358.788487 78.136956 359.465947 78.906685 C369.885716 90.745675 380.351598 102.544243 390.855046 114.309121 C391.727666 115.286568 392.947423 115.954049 394.005925 116.765526 C393.858952 115.198891 394.026402 113.517663 393.505131 112.087426 C392.033147 108.048501 390.278599 104.112572 388.135411 99.636056 M161.135411 450.635995 C162.958440 450.812997 165.062962 451.660287 166.549535 451.036080 C170.379903 449.427560 173.773320 446.729134 177.646733 445.285836 C181.942418 443.685189 179.034322 442.235116 177.740330 441.349557 C169.986043 436.042855 162.043080 431.012215 154.277486 425.721505 C150.342747 423.040841 146.699315 419.935006 142.803944 417.192147 C141.914769 416.565987 140.529027 416.645089 139.371815 416.399666 C139.802449 417.321236 140.121983 418.316964 140.680608 419.153023 C147.478444 429.327645 154.311513 439.478829 161.135411 450.635995 M467.135411 345.636056 C467.135411 343.138314 467.007603 340.632363 467.168126 338.144967 C467.363957 335.110360 468.034733 332.090798 468.027196 329.065926 C468.023900 327.754464 466.839024 326.445931 466.190831 325.136056 C465.548314 326.260110 464.499242 327.328652 464.336858 328.518227 C463.770695 332.665963 463.547246 336.859170 463.128728 341.028603 C461.813481 354.132455 460.352971 367.223183 459.200841 380.341103 C458.819493 384.682992 460.483311 385.600167 464.115147 383.009774 C465.633641 381.926674 466.953496 379.471932 467.003422 377.604500 C467.279301 367.287881 467.135411 356.960061 467.135411 345.636056 M243.635411 92.136056 C243.108449 91.802727 242.434407 91.065468 242.076314 91.195870 C235.381901 93.633629 227.978062 94.505166 223.034871 100.671105 C215.297765 110.322030 207.297795 119.761956 199.489842 129.356881 C198.771977 130.239052 198.636052 131.594765 198.229909 132.730569 C199.483296 132.414193 201.098408 132.491860 201.936177 131.722726 C216.059972 118.756341 230.086964 105.684502 243.635411 92.136056 M363.635411 25.136056 C357.373967 28.064171 351.029546 30.830742 344.884831 33.986199 C341.644078 35.650384 344.421330 37.531579 345.695653 38.026284 C353.141209 40.916787 360.712651 43.484490 368.257237 46.116280 C369.163914 46.432564 370.165074 46.478051 371.122410 46.649041 C371.016057 45.534005 371.074071 44.372079 370.771916 43.312905 C369.927403 40.352425 369.054509 37.388802 367.965916 34.512292 C366.826512 31.501549 365.423314 28.590615 363.635411 25.136056 M51.135411 295.636056 C54.234956 297.402260 57.293072 299.248849 60.461316 300.881753 C61.321362 301.325051 62.513844 301.123391 63.553746 301.217721 C63.234952 300.177804 63.203465 298.880837 62.544965 298.144875 C60.326970 295.665993 56.812699 293.800637 55.716714 290.959084 C51.050568 278.861367 39.932721 282.422158 31.221989 280.174142 C30.887593 280.087838 30.381070 280.521279 30.001527 280.780892 C27.318955 282.616067 28.068593 286.273110 32.086060 288.048012 C38.132783 290.719430 44.439328 292.802712 51.135411 295.636056 M494.135411 838.636056 C493.802098 837.274544 493.312840 835.929635 493.165074 834.548287 C492.746983 830.639413 492.509434 826.711129 492.091710 822.802193 C492.028935 822.214730 491.381535 821.689889 491.004552 821.136056 C490.714848 821.777108 490.185826 822.413827 490.174290 823.059823 C490.098851 827.281197 489.926945 831.517037 490.178868 835.724618 C490.701604 844.454781 491.468693 853.170296 492.135411 861.891793 C492.802067 870.613351 493.454106 879.336007 494.142338 888.055855 C494.434178 891.753426 494.685185 895.461739 495.208317 899.128853 C495.360509 900.195504 496.389287 901.137154 497.016209 902.136056 C497.389287 901.078560 498.118718 900.004464 498.070592 898.966500 C497.906712 895.430855 497.376561 891.914010 497.151189 888.379525 C496.115391 872.133614 495.135442 855.884225 494.135411 838.636056 M489.135411 289.636056 C489.135411 292.798134 489.033513 295.965371 489.193822 299.119301 C489.245854 300.142830 489.984257 301.131478 490.408726 302.136056 C491.317601 301.254220 492.848729 300.486336 493.034459 299.472085 C494.231999 292.932595 495.191167 286.347085 496.112065 279.760384 C496.578770 276.422188 496.941563 273.054726 497.057164 269.690407 C497.095830 268.565163 496.222233 267.408547 495.765629 266.266244 C494.726536 266.885171 493.581975 267.382546 492.682896 268.162789 C492.004307 268.751656 491.663457 269.718728 491.131657 270.489419 C487.203526 276.181985 489.956700 282.605080 489.135411 289.636056 M168.635411 143.136025 C170.220479 142.550973 172.274892 142.405434 173.307423 141.302926 C177.270528 137.071114 180.925801 132.549050 184.657384 128.102944 C187.856984 124.290688 191.040242 120.463067 194.134465 116.565819 C194.591634 115.989998 194.517552 114.992379 194.689275 114.189919 C193.906651 114.269967 192.894551 114.064461 192.379933 114.478005 C189.732243 116.605782 187.159184 118.834756 184.658314 121.135186 C178.531453 126.770928 172.436223 132.441720 166.387685 138.161263 C165.473714 139.025521 164.878224 140.226571 164.135411 141.271828 C165.302083 141.893227 166.468739 142.514657 168.635411 143.136025 M128.135411 171.636056 C123.469868 175.634896 118.766568 179.591378 114.179593 183.678414 C113.492245 184.290841 113.349835 185.514870 112.955342 186.455971 C113.994084 186.203957 115.237897 186.236184 116.040677 185.657052 C127.199620 177.607064 138.307027 169.485421 149.388005 161.328255 C150.012608 160.868447 150.298436 159.948403 150.741917 159.242562 C149.487904 159.092232 147.865132 158.360268 147.038609 158.884255 C140.816075 162.829140 134.750233 167.021248 128.135411 171.636056 M336.135411 50.636040 C334.853459 50.136040 333.599126 49.521523 332.273717 49.201699 C331.842717 49.097680 331.098973 49.664406 330.745000 50.117226 C330.554204 50.361367 330.719884 51.198006 331.005498 51.453545 C335.117253 55.132638 338.658299 59.800484 345.188695 59.204812 C346.662450 59.070397 348.210637 60.038369 349.733067 60.068398 C351.194768 60.097222 352.667515 59.567544 354.135411 59.283288 C352.906163 58.234215 351.838292 56.793191 350.417882 56.208474 C345.894261 54.346322 341.239506 52.802712 336.135411 50.636040 M304.135411 55.636056 C302.377537 57.393960 300.565129 59.102639 298.901280 60.945458 C298.501103 61.388665 298.395970 62.319817 298.531438 62.945031 C298.617650 63.342843 299.454472 63.923592 299.857518 63.854577 C304.792058 63.009408 309.717534 62.101647 314.617039 61.075051 C315.149876 60.963418 315.997136 59.826867 315.866399 59.473473 C314.817815 56.638207 307.614018 53.939477 304.135411 55.636056 M460.635411 406.136056 C455.428258 411.678414 459.197209 418.437569 458.265416 424.564828 C458.104619 425.622140 459.651036 426.939034 460.408848 428.136056 C460.984349 426.756722 461.866063 425.423165 462.080144 423.989876 C462.833470 418.946053 463.034489 413.799935 464.082585 408.826974 C464.775731 405.538277 465.059117 405.412057 460.635411 406.136056 M390.635411 47.136056 C389.605839 46.498971 388.576237 45.861901 387.546666 45.224816 C387.733067 46.352028 387.733372 47.553200 388.145726 48.590615 C388.932042 50.569054 389.828618 52.531365 390.945653 54.335564 C391.331212 54.958367 392.508183 55.091179 393.323613 55.447808 C393.520726 54.437081 394.135716 53.269753 393.827855 52.448311 C393.190190 50.746834 392.061955 49.229256 390.635411 47.136056 M489.635442 254.136056 C489.468754 255.207009 489.124577 256.288643 489.188298 257.345711 C489.245183 258.289956 489.752507 259.207009 490.061040 260.136025 C490.752507 259.068917 491.812993 258.065163 492.010838 256.913277 C492.152135 256.090554 491.135411 255.068917 489.635442 254.136056 z"/></svg>