<?xml version="1.0" encoding="utf-8"?><!DOCTYPE svg PUBLIC "-//W3C//DTD SVG 1.1//EN" "http://www.w3.org/Graphics/SVG/1.1/DTD/svg11.dtd"><svg version="1.1" id="Contours" xmlns="http://www.w3.org/2000/svg" xmlns:xlink="http://www.w3.org/1999/xlink" x="0px" y="0px" width="94.790314px" height="94.790314px" viewBox="-0.000016 0.000027 94.790314 577.956055" enable-background="new 0 0 94.790314 94.790314" xml:space="preserve" stroke="black" fill="none" stroke-linecap='round' stroke-linejoin='round'><path class="selected"  fill="#000000" opacity="1.000000" stroke="none" 
 	d="
M90.891129 80.182590 C90.224381 84.739780 89.365738 88.776218 88.926529 92.857883 C87.498795 106.128696 86.269425 119.420749 84.877823 132.695590 C83.607071 144.816501 82.168107 156.919772 80.906144 169.041538 C79.506852 182.482272 78.160904 195.929355 76.910172 209.384677 C75.818619 221.128513 74.764176 232.878574 73.922501 244.642307 C72.796158 260.385654 71.721818 276.136325 70.936661 291.899387 C70.070939 309.279941 69.438492 326.674472 68.925431 344.069492 C68.433365 360.759982 67.954484 377.458957 67.964127 394.153903 C67.974503 412.182590 68.509293 430.212009 68.909806 448.238986 C69.140030 458.603122 69.657731 468.961154 69.869889 479.325534 C70.276627 499.185764 70.713028 519.048435 70.748307 538.910739 C70.754654 542.496066 69.249772 546.231784 67.826554 549.640720 C65.083512 556.211154 59.020524 555.149631 56.110734 549.973483 C52.524918 543.594821 50.554215 536.307468 47.895646 529.409030 C47.562882 528.545871 47.468277 527.527683 46.942032 526.820285 C46.419205 526.117404 45.491044 525.716159 44.740677 525.182590 C44.457474 525.997043 43.948746 526.805393 43.926346 527.626926 C43.721573 535.122287 44.141678 542.681857 43.295365 550.098850 C42.539689 556.722629 40.292923 563.166599 39.013382 569.749973 C38.808487 570.804294 40.302689 572.138767 40.870682 573.406833 C41.533646 574.887058 42.042191 576.436618 42.617692 577.956027 C41.126053 577.282077 39.632218 576.613132 38.143570 575.932712 C36.882096 575.356052 35.666031 574.392429 34.360856 574.254855 C30.879532 573.887668 27.416031 574.875339 24.423234 571.446018 C21.101090 567.639133 19.287247 563.433688 18.958634 558.676242 C18.092179 546.132907 17.922501 533.533664 16.792923 521.018405 C15.558121 507.336398 13.518509 493.728366 11.905045 480.079196 C10.832047 471.002048 9.794755 461.918552 8.913163 452.821384 C7.497696 438.215061 6.151017 423.601230 4.917313 408.978488 C4.111954 399.433078 3.424881 389.873386 2.921830 380.307712 C2.138993 365.423374 1.235245 350.534396 0.958817 335.636691 C0.398636 305.445773 0.012284 275.247836 0.000016 245.052585 C-0.004623 233.662448 1.015091 222.254550 1.945511 210.885715 C3.047562 197.419162 4.157609 183.931064 5.993729 170.552463 C8.229081 154.264560 10.686661 137.969516 14.023026 121.879672 C18.489457 100.340244 23.530411 78.901950 29.008744 57.596225 C33.161881 41.444248 38.980057 25.793613 46.918351 11.036716 C48.175431 8.699985 49.551285 6.341159 51.302018 4.375278 C54.219376 1.099338 58.125504 -0.898770 62.453751 0.401523 C67.128556 1.805942 68.316544 6.424777 68.771622 10.557102 C69.540543 17.537692 69.502701 24.604526 69.945328 31.626193 C70.019059 32.793735 70.808854 33.916110 71.267838 35.059360 C71.808854 34.032321 72.513810 33.058139 72.864762 31.969760 C75.316300 24.366550 77.545426 16.663852 83.641861 10.931369 C87.057755 7.719455 90.890763 8.350437 92.832413 12.699741 C93.833146 14.941196 94.812516 17.460117 94.789933 19.844089 C94.688859 30.541477 94.499283 41.253330 93.808243 51.925327 C93.207291 61.201816 91.891007 70.431979 90.891129 80.182590 M63.391129 134.182590 C62.224503 148.528293 61.057145 162.873874 59.891495 177.219638 C59.223404 185.440708 58.488053 193.656955 57.906510 201.884128 C56.852799 216.794528 55.892594 231.711521 54.890641 246.625583 C54.226456 256.512973 53.506241 266.397006 52.904435 276.288181 C52.181412 288.171359 51.497208 300.057651 50.906632 311.948032 C50.175675 326.663852 49.519791 341.383762 48.904557 356.104953 C48.499772 365.794040 48.185563 375.487460 47.900773 385.181003 C47.528092 397.871005 47.168351 410.561801 46.904435 423.254428 C46.519364 441.775974 45.649003 460.314670 46.138077 478.815524 C46.376236 487.826389 48.939957 496.833225 50.965714 505.724582 C53.312027 516.022678 56.187150 526.201999 58.947892 536.401584 C59.228409 537.438083 60.298966 538.260715 61.003068 539.182590 C61.632462 538.186252 62.720841 537.226779 62.804337 536.186496 C63.048234 533.149875 62.957657 530.079440 62.879288 527.025241 C62.574845 515.166477 62.222672 503.308811 61.891617 491.450778 C61.555924 479.426120 61.174698 467.402438 60.903092 455.376437 C60.522355 438.521030 59.925187 421.663059 59.962418 404.807468 C60.015885 380.619357 60.506730 356.431552 60.924332 332.245517 C61.039811 325.548740 61.563004 318.859042 61.890030 312.165683 C62.560441 298.446506 63.202408 284.725925 63.897477 271.007968 C64.533585 258.453342 65.198868 245.900058 65.905045 233.349216 C66.150773 228.983798 66.469986 224.618564 66.907853 220.268588 C68.194596 207.487216 69.587052 194.716342 70.879777 181.935520 C71.609513 174.720493 72.062272 167.474277 72.926896 160.276584 C74.466813 147.456088 76.341446 134.675449 77.853776 121.851962 C79.040299 111.791538 79.825577 101.684482 80.906388 91.610751 C82.513688 76.633090 84.231827 61.667331 85.887711 46.694919 C86.575577 40.475437 87.296402 34.257907 87.829972 28.024692 C87.936783 26.778415 87.261612 25.465061 86.947037 24.182590 C85.928360 25.122958 84.347916 25.883579 83.980362 27.032321 C81.151993 35.872836 78.260270 44.712253 75.961319 53.698642 C72.367814 67.746250 68.367936 81.776218 66.151139 96.063693 C64.233536 108.422702 64.557877 121.129489 63.391129 134.182590 M37.891129 75.682590 C31.084794 95.009006 28.388749 115.245273 24.996842 135.298007 C23.077775 146.643344 22.224381 158.168857 20.891007 169.613254 C19.224259 183.918674 17.373551 198.205905 15.954056 212.535800 C14.961258 222.557834 14.364762 232.629978 13.939896 242.694553 C13.404496 255.377658 12.931229 268.076572 12.963151 280.767307 C13.005936 297.791843 13.503800 314.816379 13.914506 331.838352 C14.112198 340.034519 14.596146 348.223422 14.881547 356.418002 C15.253983 367.108920 15.503983 377.804233 15.914200 388.493503 C16.113724 393.692478 16.517045 398.885227 16.937577 404.071933 C16.996720 404.801486 17.681290 405.480319 18.076249 406.182590 C18.347855 405.523471 18.821610 404.875888 18.859940 404.203464 C19.244645 397.455966 19.553422 390.704074 19.892289 383.953952 C20.219925 377.426914 20.531937 370.898959 20.896866 364.373996 C21.543168 352.819003 22.623246 341.272556 22.815384 329.710727 C23.364029 296.694980 23.512589 263.672824 23.926652 230.654453 C24.016984 223.458225 24.606522 216.269443 24.879410 209.074008 C25.259537 199.050021 25.441727 189.017368 25.922135 178.998630 C26.452591 167.938083 27.194779 156.887180 27.909134 145.836215 C28.126847 142.467807 28.396805 139.087741 28.923295 135.757358 C30.155594 127.962619 31.272904 120.132358 32.959366 112.431003 C35.357499 101.480075 37.958512 90.556491 41.015580 79.775119 C42.329117 75.142917 47.387467 73.101657 52.446061 74.268344 C53.392716 74.486606 54.082657 75.817417 54.891129 76.634860 C54.143082 77.150729 53.460099 77.938754 52.635758 78.136264 C48.653458 79.090671 46.732987 81.934543 45.926407 85.567417 C43.822037 95.046237 41.329972 104.487827 40.034073 114.084934 C38.435990 125.919895 37.865738 137.894931 36.903092 149.813693 C36.497513 154.834995 36.242142 159.868198 35.887528 164.893894 C35.057084 176.662387 32.783402 188.350559 33.919022 200.224277 C33.983231 200.896701 34.448868 201.530673 34.727677 202.182590 C35.115494 201.639682 35.766984 201.134067 35.849869 200.548068 C36.587479 195.335727 37.325638 190.119663 37.866837 184.884372 C38.629593 177.505954 38.856949 170.053867 39.977433 162.735019 C41.644059 151.848972 43.857621 141.045505 45.900406 130.218601 C47.969010 119.254917 49.281022 108.060397 52.419449 97.407443 C57.094498 81.538120 58.969620 65.372958 59.792374 49.035129 C60.319596 38.564609 59.949235 28.045322 59.824112 17.549716 C59.806656 16.091037 58.886002 14.643222 58.383439 13.190402 C57.558854 14.348361 56.407731 15.393344 55.961319 16.682285 C52.527726 26.596591 49.059098 36.504794 45.941239 46.520664 C43.040055 55.840244 40.557816 65.290073 37.891129 75.682590 M43.891129 230.682590 C43.224442 236.566501 42.458451 242.441257 41.912247 248.336337 C40.840531 259.902500 39.777482 271.471530 38.919388 283.054843 C37.803727 298.115329 36.696183 313.181186 35.951371 328.262851 C35.325760 340.929782 35.224015 353.622592 34.892777 366.304050 C34.879715 366.803134 34.978531 367.321262 34.878312 367.799716 C32.471329 379.290012 34.551224 390.645969 35.928116 402.016879 C36.019547 402.771701 36.643387 403.462192 37.019608 404.182590 C37.211686 403.250827 37.600541 402.309116 37.553666 401.389499 C37.464860 399.648044 36.801652 397.890964 36.949967 396.190402 C37.464310 390.293247 38.344681 384.427646 38.842972 378.529575 C39.113053 375.332309 38.789200 372.089755 38.908219 368.874057 C39.538651 351.834262 40.189408 334.795139 40.907486 317.758823 C41.221024 310.319187 41.609025 302.879428 42.155350 295.453891 C42.579239 289.692417 43.448868 283.963229 43.853470 278.200961 C44.345719 271.191257 44.409073 264.150668 44.936722 257.144504 C45.381180 251.243930 46.314591 245.381748 46.863663 239.486911 C47.330460 234.476352 47.645157 229.446811 47.833268 224.418369 C47.883561 223.072421 47.290543 221.678134 46.855057 220.351413 C46.703995 219.891330 46.135270 219.568271 45.757340 219.182590 C45.468583 219.657443 44.988724 220.107089 44.922379 220.611179 C44.525773 223.628024 44.224503 226.657443 43.891129 230.682590 M30.891129 509.682590 C30.891129 514.168430 30.785416 518.658664 30.970292 523.136813 C31.013016 524.173068 32.048600 525.168430 32.627457 526.182590 C33.048722 525.177097 33.822709 524.175998 33.835343 523.165256 C33.935563 515.135593 33.761124 507.101413 33.926957 499.073825 C34.099259 490.735324 34.758133 482.403903 34.803422 474.067111 C34.824845 470.118991 34.076066 466.134128 33.321793 462.234470 C33.101517 461.095920 31.660721 460.193332 30.779313 459.182590 C30.483231 460.479465 29.938309 461.774631 29.930253 463.073337 C29.861771 474.094455 29.801407 485.117282 29.936905 496.137058 C29.988297 500.322238 30.557816 504.500949 30.891129 509.682590 z"/></svg>