<?xml version="1.0" encoding="utf-8"?><!DOCTYPE svg PUBLIC "-//W3C//DTD SVG 1.1//EN" "http://www.w3.org/Graphics/SVG/1.1/DTD/svg11.dtd"><svg version="1.1" id="Contours" xmlns="http://www.w3.org/2000/svg" xmlns:xlink="http://www.w3.org/1999/xlink" x="0px" y="0px" width="845.115051px" height="845.115051px" viewBox="-0.000012 0.000024 845.115051 806.520752" enable-background="new 0 0 845.115051 845.115051" xml:space="preserve" stroke="black" fill="none" stroke-linecap='round' stroke-linejoin='round'><path class="selected"  fill="#000000" opacity="1.000000" stroke="none" 
 	d="
M222.548749 621.079383 C229.278485 610.016272 235.624494 599.120276 242.266706 588.407874 C254.854474 568.106970 267.639447 547.928504 280.289411 527.665930 C289.211103 513.375525 298.192365 499.118933 306.878095 484.685340 C316.012128 469.506751 324.461225 453.906531 333.870709 438.905188 C346.105634 419.399207 358.833051 400.195288 371.654767 381.066626 C380.261273 368.226599 389.204450 355.599890 398.350873 343.137488 C408.426862 329.408484 418.619489 315.744910 429.288861 302.477027 C441.328351 287.505469 453.844586 272.911170 466.365338 258.334815 C474.762799 248.558753 483.654462 239.208167 492.095807 229.468543 C501.084699 219.097083 509.763104 208.457190 518.661054 198.005957 C521.948041 194.145117 525.367963 190.384436 528.908856 186.755164 C545.481610 169.768714 561.676435 152.379553 578.875165 136.049231 C591.847821 123.731665 605.156415 111.479285 621.033124 102.812354 C626.237348 99.971350 632.240033 98.371375 638.058026 96.933386 C645.128461 95.185767 649.954877 101.976538 651.201459 107.474097 C651.990399 110.953589 652.272748 111.429297 655.692182 109.260108 C659.767987 106.674475 664.662152 104.856787 669.430829 104.033911 C674.063520 103.234534 677.946332 107.871680 678.333905 112.642005 C679.151898 122.712134 674.147870 130.893958 669.496991 138.976904 C660.645185 154.360694 651.674970 169.714453 641.921063 184.532385 C626.529950 207.914221 610.626752 230.965796 594.617719 253.932227 C576.200971 280.352576 557.722089 306.739050 538.741132 332.754187 C517.395978 362.009863 495.478009 390.847937 473.775128 419.842078 C458.726178 439.946997 444.109967 460.401648 428.416730 479.991980 C407.994855 505.485266 389.835431 532.540564 371.272321 559.339636 C357.260907 579.567542 343.081464 599.680335 328.838605 619.746131 C319.311200 633.168860 309.843000 646.652381 299.791974 659.679236 C290.546796 671.661780 280.808271 683.290686 270.816205 694.661536 C262.967572 703.593176 254.510114 712.002844 246.117780 720.440100 C239.580365 727.012366 231.874738 731.956580 222.657758 733.649695 C220.179730 734.104895 217.086042 732.779090 214.654889 731.531043 C211.421552 729.871253 209.175275 729.501258 205.545758 731.596472 C199.618634 735.017859 193.414228 738.994666 185.637128 735.913245 C178.112531 732.931922 173.946027 724.776770 175.566571 716.944129 C179.619672 697.355261 189.362531 680.274085 198.694196 663.024695 C206.292157 648.980139 214.410932 635.217200 222.548749 621.079383 M388.298749 395.329383 C387.943524 395.684607 387.512799 395.990454 387.243817 396.402014 C360.254193 437.698157 333.554853 479.187537 306.196393 520.237586 C289.271710 545.632483 277.203595 573.574133 262.568097 600.160315 C261.965497 601.254920 262.310407 602.871253 262.213910 604.244544 C263.242230 603.394446 264.551496 602.730750 265.257550 601.666785 C282.420880 575.802893 299.312970 549.756384 316.692060 524.038977 C332.301374 500.940466 348.417646 478.183997 364.340314 455.297644 C373.612958 441.969763 382.856549 428.620215 392.273297 415.394446 C403.190167 400.061621 414.225751 384.812415 425.315106 369.603736 C435.777814 355.254492 446.274457 340.927527 456.948468 326.735388 C465.863385 314.882117 475.039533 303.224890 484.131635 291.505347 C492.353192 280.907996 500.514203 270.261023 508.896161 259.791419 C515.445111 251.611304 522.284223 243.663245 529.008100 235.623633 C537.599408 225.351294 546.393964 215.241431 554.734052 204.769568 C559.936566 198.237341 564.493207 191.187720 569.241254 184.302222 C569.698773 183.638526 569.456586 182.492285 569.539350 181.570105 C568.446942 181.656531 567.116620 181.373023 566.304486 181.895239 C563.248944 183.859839 560.235639 185.933753 557.435956 188.244666 C548.969403 195.233008 540.289105 202.008826 532.288251 209.503821 C521.736981 219.387976 511.068158 229.291541 501.695294 240.251807 C489.794599 254.167822 479.037335 269.072180 467.984723 283.699744 C458.523786 296.220984 449.309735 308.929602 440.046063 321.598853 C432.107099 332.456336 424.097211 343.267127 416.400373 354.295142 C407.045514 367.698889 397.986005 381.308692 388.298749 395.329383 M569.798749 211.829444 C568.965497 213.153174 568.122968 214.471289 567.300092 215.801550 C557.293012 231.981482 547.679975 248.421362 537.206342 264.293555 C511.447797 303.329505 485.431500 342.197669 459.242780 380.946692 C445.387555 401.446997 431.076520 421.643530 416.742353 441.814429 C406.828473 455.765174 396.466291 469.396643 386.451215 483.276770 C384.839765 485.510047 383.996320 488.297278 382.797834 490.828528 C385.133771 488.826453 387.896100 487.153357 389.736066 484.768714 C401.299665 469.782019 412.579938 454.576941 424.103131 439.558631 C439.929792 418.931372 456.410443 398.783240 471.650250 377.734290 C488.059735 355.069861 503.643170 331.789466 519.071332 308.437110 C538.218061 279.456336 556.780194 250.089881 575.704267 220.961157 C585.783246 205.447119 596.106366 190.091773 606.265302 174.629370 C606.871503 173.706641 606.996747 172.467932 607.345624 171.376258 C606.187787 171.836218 604.693524 171.981970 603.924359 172.805152 C596.884931 180.338843 589.862958 187.894995 583.059491 195.641089 C578.614057 200.702124 574.539350 206.088599 569.798749 211.829444 M556.798749 282.829383 C563.631757 272.996314 570.401044 263.118262 577.310590 253.339209 C593.527021 230.388220 610.264447 207.789649 625.927777 184.468665 C639.319135 164.530249 651.519574 143.791419 664.190229 123.371375 C664.637494 122.650488 664.476728 121.552344 664.599408 120.630042 C663.461713 120.567359 662.038007 120.042456 661.243207 120.534094 C659.340009 121.711402 657.646405 123.277625 656.022138 124.846228 C651.284223 129.421790 645.553144 133.401221 642.130658 138.825354 C632.024091 154.843360 623.202558 171.668372 613.212567 187.764441 C598.947309 210.748755 584.192426 233.432044 569.454145 256.118994 C558.432172 273.085669 547.092816 289.846167 535.946576 306.732581 C535.220868 307.832007 534.937421 309.223425 534.448285 310.478980 C535.606244 309.887976 537.163983 309.594458 537.859540 308.659522 C544.092328 300.280371 550.173139 291.788245 556.798749 282.829383 M577.298749 156.329383 C574.256146 159.038672 571.127484 161.660498 568.227216 164.514441 C567.433148 165.295813 567.323773 166.772925 566.900067 167.930762 C567.804120 167.896948 568.816205 168.118140 569.594770 167.788245 C574.796918 165.584265 578.636029 167.809668 581.606854 171.753272 C583.714643 174.551184 584.757733 172.973548 586.283124 171.376258 C594.731244 162.529395 603.151410 153.653540 611.732953 144.937110 C621.125775 135.396643 634.391645 129.127295 637.404706 114.244605 C637.601117 113.274756 638.051190 112.356238 638.383222 111.413794 C637.147870 111.259497 635.686444 110.605322 634.719037 111.043067 C631.624433 112.443457 628.603559 114.079077 625.748822 115.924903 C608.164350 127.294287 592.525678 141.017676 577.298749 156.329383 M411.298749 419.329383 C408.826276 423.135108 406.307050 426.912024 403.923322 430.772498 C403.477887 431.493933 403.574933 432.550391 403.421613 433.452246 C404.128217 432.997046 405.046674 432.696631 405.509259 432.063208 C411.476911 423.891333 417.399518 415.686255 423.293988 407.461157 C431.758344 395.650366 440.252362 383.859900 448.603864 371.969641 C451.744550 367.498206 454.569623 362.800818 457.422467 358.135474 C457.931317 357.303320 457.870343 356.122779 458.072492 355.103125 C457.365888 355.627234 456.512372 356.032752 455.977521 356.695471 C453.371198 359.924536 450.704694 363.120398 448.323163 366.512976 C436.103803 383.920508 423.965436 401.384924 411.298749 419.329383 M206.298749 705.329383 C206.965436 702.605628 207.494916 699.839148 208.326764 697.166785 C210.162458 691.269934 212.234906 685.445593 213.991010 679.526526 C214.275189 678.568640 213.430097 677.275672 213.107099 676.137610 C212.504315 676.849158 211.703839 677.470130 211.330304 678.286414 C208.575116 684.309119 205.900739 690.368933 203.209333 696.420691 C201.081403 701.205603 198.884320 705.962805 196.914655 710.812293 C196.533124 711.751624 197.059674 713.059851 197.167279 714.197791 C197.638654 714.147376 198.285016 714.278235 198.554242 714.018469 C201.171857 711.492835 203.726300 708.901770 206.298749 705.329383 M242.298810 703.329383 C244.413617 701.214636 246.556378 699.126380 248.617963 696.960852 C248.997846 696.561804 249.048749 695.849768 249.251508 695.282141 C248.815534 695.131262 248.117719 694.726966 247.982282 694.866858 C245.381696 697.553870 242.846967 700.304846 240.298749 703.042639 C240.798749 703.304968 241.298749 703.567175 242.298810 703.329383 z"/><path class="selected"  fill="#000000" opacity="1.000000" stroke="none" 
 	d="
M93.548749 378.079383 C78.659101 380.708838 63.952619 381.433020 49.728986 376.673743 C41.284833 373.848303 33.187299 369.658423 26.966291 362.927649 C19.686566 355.051367 10.204633 348.968421 5.832379 338.709021 C3.420850 333.050513 1.205579 327.033789 0.470197 320.987769 C-1.619983 303.804358 3.711103 287.495825 7.561566 271.037695 C12.530988 249.796485 21.004987 229.856909 31.828534 211.142737 C41.392316 194.606787 52.577313 178.981055 63.479474 163.253638 C76.272321 144.798865 92.673932 129.519507 108.771100 114.089575 C117.215253 105.995337 126.994428 99.311743 135.862775 91.635413 C141.140119 87.067359 145.818830 81.808020 150.767804 76.860571 C165.513593 62.119116 182.422223 50.316382 200.512982 40.087622 C211.594464 33.821997 222.359479 26.959754 233.659345 21.126135 C248.900006 13.257910 264.297101 5.492346 281.557843 2.863562 C289.443769 1.662573 297.380475 0.054724 305.303327 0.001807 C318.867719 -0.088647 332.108319 3.210730 342.944440 11.350562 C354.836713 20.283789 364.025739 32.090918 368.144086 46.729895 C370.649152 55.633948 371.379865 65.023841 373.445478 74.072608 C374.104047 76.957678 375.896649 80.216223 378.187360 81.991370 C390.741925 91.720252 399.963239 103.895300 405.497113 118.661231 C409.180219 128.488867 409.192548 138.822730 407.484601 149.155005 C404.553388 166.888098 394.913495 181.041052 383.419843 194.160559 C376.844953 201.665503 370.474591 209.438696 363.207929 216.230689 C345.682416 232.611365 327.644452 248.428565 307.718244 261.936255 C288.710431 274.821448 269.689313 287.691931 250.885236 300.870093 C243.809857 305.828528 237.486676 311.847632 230.539777 317.004920 C218.732526 325.770850 207.235089 335.135779 194.630963 342.600134 C179.138471 351.775000 163.231366 360.589758 145.507184 365.081397 C136.433820 367.380835 127.255963 369.265662 118.164105 371.495703 C110.014752 373.494483 101.918439 375.709693 93.548749 378.079383 M294.298749 67.329383 C291.450238 61.595496 286.623212 59.562476 280.485150 59.816931 C271.293195 60.198035 262.003522 59.793799 252.928327 61.011939 C242.242230 62.446265 231.494794 64.469397 221.225141 67.680335 C209.948346 71.206214 199.176679 76.354407 188.201093 80.835425 C177.620343 85.155310 167.912946 91.153357 159.822125 99.052405 C147.804364 110.785132 136.645063 123.394507 125.046552 135.560340 C112.504865 148.715552 103.742780 164.360205 95.290631 180.231726 C84.373883 200.731543 76.124433 222.281714 69.216962 244.430213 C64.445844 259.728491 61.581769 275.342200 60.471601 291.232581 C60.065351 297.047278 61.493939 303.019385 62.327008 308.885413 C64.171125 321.871741 69.859906 332.978064 79.759015 341.579383 C82.576581 344.027503 86.565961 346.495398 90.033368 346.517371 C95.730084 346.553443 101.556012 345.005164 107.120282 343.404639 C120.940717 339.429541 134.764020 335.395300 148.352765 330.708045 C157.500104 327.552710 167.238080 324.635657 174.962812 319.149451 C189.239240 309.010230 202.469831 297.334387 215.661786 285.758216 C222.576398 279.690405 228.666120 272.637732 234.809064 265.745276 C246.374005 252.769385 258.060285 239.874793 269.038922 226.410620 C280.204633 212.716895 291.350812 198.890051 301.106061 184.192664 C313.722760 165.184241 326.324262 146.104346 335.755597 125.109290 C341.294965 112.777991 345.690045 100.202490 349.505292 87.280615 C351.127973 81.784766 348.612836 79.556311 344.879865 78.046790 C332.602521 73.082068 320.212323 68.377051 307.732099 63.947974 C304.829389 62.917761 301.784650 63.543921 302.192365 68.240515 C302.374005 70.333289 301.402631 72.526160 300.954572 74.673560 C299.069318 73.087317 297.160016 71.528235 295.316022 69.895423 C294.866864 69.497717 294.632123 68.857886 294.298749 67.329383 M367.798810 122.829383 C365.329755 130.298438 363.438947 138.023169 360.272443 145.183814 C353.485456 160.531592 346.687787 175.941260 338.667646 190.657080 C331.727887 203.390357 323.258161 215.311011 315.126752 227.362891 C311.984296 232.020606 307.821332 235.979895 304.331830 240.421240 C303.564313 241.398230 303.682660 243.071204 303.393048 244.423743 C304.432538 243.988074 305.658368 243.774573 306.483258 243.082923 C317.374127 233.951575 328.092511 224.611243 339.085187 215.605383 C354.352704 203.097205 367.903791 189.020484 379.576459 173.095984 C386.493939 163.658972 391.991681 153.400183 393.109418 141.791236 C394.707563 125.192725 387.237775 111.696997 376.012494 100.010352 C373.984174 97.898779 372.792340 98.881079 372.349103 101.020056 C370.882306 108.098975 369.632123 115.222815 367.798810 122.829383 M46.798749 344.829383 C49.022504 345.496070 51.226789 346.242591 53.478925 346.793311 C54.499433 347.042883 55.615094 346.903540 56.687604 346.940528 C56.270124 345.782263 56.051129 344.495154 55.398664 343.489417 C53.256513 340.187354 50.475568 337.216712 48.804303 333.707190 C42.801251 321.101172 40.690473 307.556250 40.371015 293.734839 C40.255048 288.716712 40.775800 283.657752 41.348920 278.656714 C41.998212 272.991004 42.681562 267.285925 43.998151 261.752112 C45.316632 256.210852 47.556928 250.894507 49.116559 245.401160 C49.505109 244.032508 48.828778 242.361426 48.641950 240.829383 C47.616864 241.906775 46.239301 242.814063 45.624066 244.089209 C41.739667 252.138953 38.035871 260.275672 34.250714 268.373572 C28.558209 280.551734 23.784894 292.977393 24.321698 306.749732 C24.511396 311.617163 24.449384 316.579749 25.415814 321.312232 C26.993329 329.036902 28.816571 336.934363 36.920087 340.919654 C39.819318 342.345496 42.835736 343.533118 46.798749 344.829383 M281.298810 233.329444 C270.110639 246.517615 259.043378 259.811194 247.675275 272.842383 C243.087323 278.101538 237.825360 282.770850 232.918134 287.755835 C232.388837 288.293433 232.179975 289.146399 231.822370 289.853003 C232.744428 289.915259 233.935529 290.380286 234.544354 289.973609 C238.223493 287.515784 242.174481 285.267859 245.283917 282.191138 C254.447980 273.123206 263.468915 263.889868 272.151227 254.361670 C280.322431 245.394446 288.463178 236.327429 295.785321 226.673255 C311.944867 205.366980 326.602582 183.021460 337.810163 158.666419 C343.206891 146.938819 347.522321 134.712439 352.252851 122.682654 C352.536603 121.961218 352.158307 120.979407 352.088056 120.118689 C351.491620 120.678015 350.648603 121.126074 350.337750 121.814429 C347.804486 127.424719 345.528119 133.155066 342.879010 138.708289 C332.054792 161.399024 319.163007 182.880408 304.368329 203.191870 C297.058881 213.226782 289.335126 222.959815 281.298810 233.329444 M346.298749 54.329383 C345.710065 53.407385 345.338971 52.120154 344.499066 51.619910 C336.095929 46.615637 327.954511 40.979407 319.069806 37.025549 C308.403546 32.278784 296.885358 29.468604 286.123700 24.905493 C279.530194 22.109717 273.573041 22.898230 267.347089 24.900122 C266.506757 25.170264 265.973920 26.396521 265.298749 27.180091 C266.041181 27.729834 266.723920 28.639441 267.535260 28.774207 C276.629987 30.284644 283.703778 35.220984 290.433759 41.224036 C293.331220 43.808508 297.282697 45.852820 301.074628 46.681861 C317.202252 50.207495 332.851728 54.859778 347.229474 63.204383 C347.972699 63.635718 349.012799 63.555518 349.914716 63.713416 C350.042768 62.767127 350.559308 61.644568 350.225141 60.907935 C349.267804 58.797888 347.965436 56.844458 346.298749 54.329383 M302.798749 16.829383 C298.445417 17.162695 294.077802 17.378760 289.747968 17.905066 C288.540937 18.051795 287.445417 19.116126 286.298749 19.759497 C287.066144 20.449439 287.731671 21.545813 288.616437 21.767554 C299.631696 24.528662 310.965375 26.345374 321.628583 30.083716 C330.420026 33.165747 338.419477 38.499854 346.792646 42.791541 C347.731732 43.272864 348.819196 43.464392 349.837934 43.790259 C349.658185 42.661170 349.836652 41.266516 349.232587 40.452063 C347.311933 37.862097 345.155866 35.437659 342.990766 33.039527 C332.504926 21.425208 319.081769 16.868445 302.798749 16.829383 M259.798749 44.829383 C260.960858 44.829383 262.153974 44.993445 263.276105 44.781592 C264.322919 44.583960 265.294232 43.986914 266.298749 43.565650 C265.423749 42.653540 264.633893 41.080969 263.657575 40.955054 C260.881391 40.597083 258.025189 40.925818 255.207440 40.812110 C244.914899 40.397009 234.869733 41.335120 225.535382 46.143225 C224.417157 46.719275 223.533979 47.751624 222.541791 48.572486 C224.008649 48.943579 225.722882 50.002722 226.903546 49.578101 C237.240888 45.859717 247.851911 44.296668 259.798749 44.829383 z"/><path class="selected"  fill="#000000" opacity="1.000000" stroke="none" 
 	d="
M841.298749 636.829383 C837.999921 648.961463 835.240399 660.781165 831.273725 672.180823 C825.597943 688.492102 816.823529 703.416663 805.736005 716.494788 C796.700727 727.152136 786.411176 737.007483 775.490888 745.732947 C764.264447 754.702918 752.162519 762.969519 739.403852 769.517859 C726.876874 775.947180 713.208539 780.347083 699.729413 784.664588 C689.068402 788.079627 677.897748 789.873816 667.021405 792.653601 C653.572187 796.091223 640.013227 798.824622 626.091229 798.727210 C620.863568 798.690711 615.622968 796.847205 610.426923 797.016638 C605.492963 797.177649 600.625287 798.973548 595.701215 799.906775 C585.028241 801.929724 574.383466 804.168494 563.643964 805.756995 C547.569379 808.135047 532.067426 804.834632 517.920026 797.599768 C505.036115 791.010657 495.627545 780.402136 490.239484 766.509558 C485.276654 753.713538 484.948163 740.402503 485.429120 727.067298 C485.721662 718.956824 487.608563 710.914710 488.179303 702.799719 C488.506146 698.151526 487.331891 693.417517 487.351361 688.724280 C487.430707 669.555457 492.195966 651.298987 499.408246 633.746619 C505.200604 619.649573 511.548322 605.742468 518.395673 592.126135 C528.915570 571.206824 541.549848 551.596472 556.238568 533.277136 C570.314374 515.722327 583.408856 497.367102 597.783979 480.069373 C614.095502 460.441687 632.234906 442.737769 654.617597 429.666907 C666.349530 422.815711 678.417523 416.928198 691.401532 413.466345 C703.948163 410.121131 716.768842 409.255957 730.032514 410.535987 C749.842694 412.447791 765.438397 422.061560 780.632855 433.508948 C786.206952 437.708472 792.677777 440.695471 798.495404 444.599280 C810.018354 452.331580 818.707074 462.581580 825.748334 474.580969 C832.331708 485.800208 836.766767 497.775549 839.956220 510.187537 C841.884442 517.690955 842.831952 525.573767 843.161908 533.331091 C843.678266 545.474402 843.038983 557.662879 843.373700 569.818884 C843.692304 581.384314 845.390302 592.953284 845.076581 604.482337 C844.786786 615.124426 842.632123 625.715735 841.298749 636.829383 M562.298749 737.329383 C566.306562 743.670569 569.664716 750.562415 574.468793 756.228552 C582.420941 765.607825 592.004193 772.899939 605.073041 773.861121 C611.642255 774.344397 618.173627 775.428015 624.746259 775.755652 C631.452069 776.089514 638.266278 776.472937 644.889203 775.661170 C652.618695 774.714026 660.374799 773.062293 667.783490 770.674109 C675.610150 768.151282 684.312787 768.725623 691.442182 763.849280 C693.231854 762.625159 695.198651 761.661536 697.070111 760.554480 C715.201703 749.829749 732.416425 737.715125 747.390302 722.939734 C759.087323 711.397864 770.192182 699.075476 780.202680 686.056311 C790.111493 673.169470 799.410077 659.549353 806.970380 645.194373 C814.684247 630.547766 820.658368 614.855383 826.030561 599.154212 C829.151532 590.032630 832.232953 580.731848 830.600141 570.191199 C828.190229 554.633582 825.577680 539.213294 820.217572 524.419837 C816.287030 513.571936 812.937177 502.169226 806.927533 492.506995 C799.536420 480.623450 788.071210 471.999426 776.710370 463.704749 C761.277143 452.436926 743.822187 446.515906 725.023603 444.963416 C710.048993 443.726843 697.419477 451.515296 685.329877 458.690833 C672.066693 466.563025 659.477460 475.777503 647.457929 485.477210 C636.503339 494.317420 626.073041 504.010047 616.552899 514.375159 C604.016645 528.024451 592.229047 542.413123 580.850873 557.052405 C575.162396 564.371131 569.791669 572.469397 566.610517 581.077429 C562.053510 593.408118 558.957685 606.399085 556.478070 619.345496 C553.697431 633.864295 551.651044 648.596716 550.487348 663.331091 C549.399701 677.098670 550.869428 690.879920 553.168012 704.586707 C555.011151 715.577307 558.098798 726.081091 562.298749 737.329383 M517.298749 721.329383 C518.632062 723.442786 520.077680 725.494299 521.279340 727.680091 C526.657147 737.461341 535.504071 743.995276 543.444989 751.361975 C544.294354 752.149939 545.901410 752.121131 547.156903 752.471228 C546.870893 751.296057 546.762982 750.037024 546.258954 748.964270 C545.403852 747.144690 544.173017 745.501380 543.318158 743.681555 C534.826215 725.605383 530.996381 706.441565 530.338910 686.596839 C530.090863 679.107703 530.148480 671.599646 530.349408 664.107703 C530.492597 658.770423 531.116010 653.446204 531.506391 648.114783 C531.586347 647.022742 531.583417 645.924719 531.618695 644.829383 C530.512128 645.681677 528.806439 646.309851 528.390790 647.420691 C523.909833 659.398841 519.763349 671.502356 515.262982 683.473059 C510.509503 696.117102 509.601422 708.430091 517.298749 721.329383 M807.798627 686.829383 C808.859296 685.102088 810.015302 683.425574 810.965741 681.639563 C819.650312 665.321814 825.094892 647.780188 830.229047 630.135169 C830.601361 628.855628 829.981244 627.287268 829.822553 625.853186 C828.782147 626.877600 827.183271 627.722083 826.786664 628.953894 C821.964521 643.929480 814.454633 657.579383 806.583783 671.093543 C796.134320 689.035437 783.938764 705.711341 769.682172 720.740027 C761.226117 729.654090 751.679120 737.528601 742.740399 745.994910 C741.590863 747.083777 741.151898 748.922888 740.383710 750.414466 C741.875287 749.866248 743.594037 749.626380 744.822064 748.720862 C754.291303 741.739783 763.770673 734.764563 773.044232 727.527991 C787.192060 716.487708 798.114057 702.632849 807.798627 686.829383 M507.798749 746.829383 C506.965436 747.315222 505.436811 747.789832 505.428632 748.289099 C505.403668 749.809363 505.920331 751.350623 506.306134 752.863440 C508.619733 761.935095 511.863813 770.663245 519.071271 776.993933 C531.689374 788.077185 547.151044 791.854041 563.414472 792.723914 C569.398969 793.044104 575.456830 792.269324 581.459760 791.746863 C582.786176 791.631384 584.021405 790.469763 585.298749 789.789954 C583.995282 789.136389 582.743573 788.062171 581.380292 787.893958 C566.315106 786.035071 553.059491 779.208533 539.735639 772.688513 C527.381635 766.643103 517.617841 757.223059 507.798749 746.829383 M731.798749 425.829383 C729.439374 425.496008 727.072675 424.842261 724.722211 424.896338 C719.860272 425.007910 714.980023 425.278662 710.155438 425.873450 C699.288983 427.212988 688.731977 429.788672 678.899091 434.786170 C678.072553 435.206275 677.517377 436.160559 676.836103 436.866614 C677.973188 437.037940 679.269940 437.655249 680.223432 437.313758 C694.390424 432.239478 708.926557 430.025305 723.991010 430.737708 C729.153485 430.981787 734.372846 430.235083 739.550092 429.764014 C740.505902 429.677100 741.384564 428.741004 742.298749 428.196875 C741.491498 427.741065 740.731610 427.048010 739.867719 426.875159 C737.535077 426.408179 735.158124 426.162695 731.798749 425.829383 M813.298749 476.329383 C819.772870 488.629798 826.438886 500.833533 829.394452 514.638709 C829.795087 516.510901 831.490399 518.105994 832.586347 519.829383 C832.806317 517.645300 833.790204 515.187415 833.121381 513.321936 C829.019452 501.880774 824.992353 490.371619 820.007611 479.305091 C817.401776 473.519812 812.942548 468.556311 809.186078 463.318152 C808.694989 462.633460 807.401532 462.524207 806.479779 462.148352 C806.419354 463.179358 805.925336 464.481970 806.372113 465.195227 C808.542768 468.659949 810.965375 471.966712 813.298749 476.329383 M769.298749 441.329383 C767.942670 440.639868 766.647992 439.707190 765.209516 439.343360 C764.193402 439.086402 762.982465 439.600134 761.858441 439.769690 C762.413983 440.698401 762.757978 441.943701 763.571088 442.486914 C765.066205 443.485755 766.791059 444.207312 768.506024 444.792883 C770.386396 445.434973 772.363690 445.793006 774.298749 446.274817 C772.798749 444.793006 771.298749 443.311194 769.298749 441.329383 z"/></svg>