<?xml version="1.0" encoding="utf-8"?><!DOCTYPE svg PUBLIC "-//W3C//DTD SVG 1.1//EN" "http://www.w3.org/Graphics/SVG/1.1/DTD/svg11.dtd"><svg version="1.1" id="Contours" xmlns="http://www.w3.org/2000/svg" xmlns:xlink="http://www.w3.org/1999/xlink" x="0px" y="0px" width="840.968994px" height="840.968994px" viewBox="0.000028 -0.000014 840.968994 836.390076" enable-background="new 0 0 840.968994 840.968994" xml:space="preserve" stroke="black" fill="none" stroke-linecap='round' stroke-linejoin='round'><path class="selected"  fill="#000000" opacity="1.000000" stroke="none" 
 	d="
M579.649386 79.996657 C574.451021 92.861770 569.781344 105.595168 564.490084 118.064834 C556.129366 137.767959 547.455172 157.340346 538.712862 176.878249 C533.300387 188.974624 527.393526 200.849196 521.926974 212.922256 C512.715548 233.266433 503.752047 253.722976 494.536959 274.065566 C489.640169 284.875564 484.319552 295.493117 479.391634 306.289504 C469.413790 328.149856 459.648409 350.107253 449.648165 371.957290 C443.554659 385.271194 437.020663 398.384353 430.981478 411.722121 C422.342623 430.801589 414.047274 450.036452 405.462740 469.140822 C400.915072 479.261428 395.971834 489.203689 391.372652 499.301833 C381.412447 521.170241 371.667879 543.137527 361.622713 564.966506 C355.113741 579.111159 348.242037 593.089187 341.510409 607.131057 C331.978487 627.013991 322.282381 646.819533 312.924410 666.783889 C304.359713 685.055984 296.299898 703.564773 287.728487 721.833694 C282.746309 732.452346 277.584139 743.029616 271.706148 753.163405 C269.381991 757.170241 264.776583 759.808913 261.437105 763.288650 C259.370089 765.442702 256.868136 767.743362 256.045687 770.432204 C252.054964 783.479079 248.513888 796.665603 244.990023 809.849685 C244.679171 811.012893 245.643404 812.517043 246.015413 813.862746 C246.976717 813.017043 248.247347 812.349929 248.853731 811.299392 C261.580660 789.250930 274.382662 767.243606 286.843844 745.044875 C294.489413 731.424758 301.588656 717.498000 308.940096 703.712600 C309.378512 702.890456 309.704134 701.870803 310.390902 701.350783 C311.387789 700.596023 312.665987 700.212966 313.824190 699.671462 C313.951876 700.927199 314.580111 702.408279 314.131746 703.404861 C307.999178 717.033279 301.690706 730.582351 295.483614 744.177566 C291.901522 752.023513 288.655062 760.031081 284.849276 767.764846 C277.827181 782.034377 270.393099 796.101028 263.349764 810.360305 C259.275301 818.609084 254.417086 826.189529 247.399264 832.246291 C244.050387 835.136550 240.435091 837.765822 235.836764 835.583816 C231.103304 833.337478 228.209566 829.490554 227.894076 824.014358 C226.924410 807.184035 231.220797 791.167678 235.516329 775.170730 C237.805269 766.646682 240.788180 758.294997 242.758944 749.705031 C243.871432 744.855788 243.610872 739.683547 243.852816 734.651198 C243.890658 733.864944 243.308871 733.048904 243.013643 732.246657 C242.308871 732.834670 241.257235 733.281814 240.952547 734.032302 C237.535189 742.449538 234.436861 751.001418 230.842440 759.340285 C227.183871 767.827956 223.417269 776.306106 219.048739 784.439773 C215.018099 791.944289 209.417818 794.175368 204.246493 792.337478 C198.056429 790.137404 194.822237 783.939284 198.264681 774.469314 C205.474276 754.635940 213.045077 734.933913 220.467867 715.178054 C227.944918 695.278029 235.367647 675.357497 242.916292 655.484572 C249.259920 638.784133 255.735079 622.133498 262.180147 605.471633 C269.069369 587.661696 275.957308 569.851150 282.909029 552.065627 C289.860079 534.281692 296.883394 516.526198 303.886019 498.762527 C310.549715 481.858718 317.082918 464.901321 323.945650 448.078689 C329.295443 434.964675 335.034151 422.008620 340.650850 409.004348 C350.053194 387.235000 359.122225 365.311233 369.033114 343.775344 C377.931490 324.439773 387.442476 305.366164 397.270846 286.482863 C416.261629 249.995620 435.534273 213.653029 454.953829 177.391738 C464.977144 158.675429 475.423250 140.180617 485.943636 121.737075 C494.639925 106.491592 503.951693 91.617019 515.995211 78.697341 C519.562350 74.870681 525.247774 73.969009 529.134981 76.246657 C532.616305 78.286269 534.158297 83.146621 532.281466 88.277846 C529.373751 96.227370 526.120943 104.054275 522.860567 111.868972 C521.687594 114.680068 521.110079 117.389541 524.223849 118.934646 C526.852633 120.239150 528.343477 118.356216 529.978731 116.154311 C541.731539 100.328445 553.188448 84.235671 567.827486 70.810866 C572.853975 66.201308 578.799288 66.334548 579.800509 71.268752 C580.352511 73.989333 579.899386 76.914016 579.649386 79.996657 M536.899386 153.746657 C538.232638 150.964370 539.573214 148.185561 540.898165 145.399306 C549.900484 126.467300 558.913912 107.540603 567.866427 88.585097 C568.452975 87.343093 568.737642 85.888198 568.822970 84.511245 C568.862520 83.874770 568.083834 83.187575 567.675997 82.523330 C567.086886 82.927993 566.317476 83.206985 565.935274 83.755752 C557.653414 95.644973 549.287813 107.478957 541.209688 119.505813 C535.109102 128.588576 528.389986 137.450942 523.722262 147.256850 C516.057345 163.359023 509.895357 180.172988 502.983919 196.638198 C495.357210 214.807571 487.645724 232.941726 479.884981 251.054275 C473.639315 265.630630 467.148775 280.102737 460.975313 294.709182 C451.566256 316.971084 442.363924 339.320327 433.022860 361.611037 C425.526095 379.500808 417.938570 397.352614 410.462679 415.250930 C410.107516 416.101272 410.446444 417.241408 410.462130 418.246657 C411.274569 417.599807 412.412203 417.119826 412.844271 416.277785 C414.954561 412.165237 416.932650 407.981643 418.855623 403.776565 C427.888521 384.024978 436.798067 364.216384 445.927218 344.509353 C453.506930 328.147170 461.269686 311.868850 469.064913 295.607741 C476.264620 280.588943 483.699129 265.682571 490.876253 250.653091 C498.313692 235.078384 505.462008 219.365310 512.927828 203.804519 C520.800753 187.395461 528.899386 171.094741 536.899386 153.746657 M463.399386 251.246657 C462.566073 251.569717 461.287508 251.655166 460.968538 252.252700 C457.916170 257.971267 454.867953 263.702407 452.117464 269.570022 C441.982943 291.189590 431.933382 312.849135 421.909945 334.520461 C415.315340 348.778396 408.561617 362.970656 402.339815 377.391128 C392.462740 400.283401 382.821871 423.280959 373.360567 446.348586 C365.008394 466.712112 356.801546 487.142043 348.951082 507.703200 C334.889681 544.531570 321.117953 581.470656 307.296236 618.390090 C305.295687 623.733596 303.636507 629.208449 301.961825 634.666335 C301.738680 635.393508 302.360689 636.380202 302.591402 637.246657 C303.141390 636.632644 303.877291 636.105178 304.209810 635.390090 C305.832186 631.900954 307.475985 628.412185 308.877352 624.831374 C315.497896 607.915114 321.860995 590.895827 328.660250 574.052321 C336.552645 554.500808 344.965609 535.159377 352.853243 515.606032 C360.512057 496.619704 367.559969 477.386062 375.295748 458.432082 C385.182284 434.208571 395.465670 410.146682 405.622042 386.033767 C415.599337 362.345840 425.465609 338.609145 435.689181 315.027663 C444.874911 293.839675 454.479525 272.833205 463.399386 251.246657 z"/><path class="selected"  fill="#000000" opacity="1.000000" stroke="none" 
 	d="
M102.649386 67.996657 C115.623446 57.022597 128.337435 46.286330 141.095980 35.603530 C141.891878 34.937148 143.070589 34.748611 144.014925 34.234572 C146.136202 33.080092 149.269015 32.092177 144.869173 29.630569 C144.369051 29.350722 143.988985 27.751906 144.066988 27.709487 C145.141939 27.124892 146.667757 25.994033 147.392061 26.360915 C152.525728 28.961623 156.452425 25.798293 160.677523 23.968764 C175.374239 17.604690 189.899264 10.796706 204.824801 5.024123 C215.964327 0.715896 227.921908 -0.738633 239.839998 0.342910 C262.973116 2.442031 279.764925 14.826980 291.397371 34.368117 C298.656283 46.562331 303.117647 59.890884 303.842562 74.177077 C304.452120 86.191299 304.974947 98.238540 304.742220 110.255752 C304.607882 117.191421 302.766390 124.081618 301.984225 131.025039 C301.762789 132.991103 302.882967 135.077712 302.850191 137.100295 C302.535250 156.538589 300.605440 175.705276 296.150545 194.764419 C291.610811 214.187026 284.881014 232.686538 276.819246 250.793716 C267.282137 272.214431 255.475741 292.360305 241.400423 311.091384 C235.567354 318.853896 228.980684 326.090468 222.338106 333.193496 C215.076204 340.958694 207.884981 348.942824 199.692660 355.645461 C190.077120 363.512527 179.619600 370.417861 169.148836 377.151870 C159.972506 383.053298 149.671725 386.530349 138.954500 388.703872 C118.682528 392.815139 100.070772 389.984450 83.997896 375.943740 C82.909884 374.993239 81.128573 374.246779 79.731295 374.338943 C72.661104 374.804946 65.621065 375.999221 58.552401 376.164687 C40.451204 376.588332 24.973665 370.422927 13.426913 356.148757 C7.503390 348.826125 3.303927 340.288711 2.049959 330.931716 C0.714205 320.964553 -0.420286 310.781692 0.151888 300.795791 C0.848971 288.630752 2.921908 276.475539 5.276156 264.488174 C10.910006 235.801955 24.085726 209.632094 33.430758 182.176772 C39.657992 163.881362 47.332369 146.219375 56.493563 129.236404 C65.202608 113.091445 75.236666 97.785232 87.567293 84.110671 C92.414400 78.735244 97.449801 73.529616 102.649386 67.996657 M193.399386 193.246657 C197.899386 183.610183 203.193148 174.254043 206.717745 164.273147 C212.336153 148.362624 219.243624 132.748488 220.972323 115.671096 C221.960360 105.910293 223.435946 96.162612 223.733736 86.379836 C223.962130 78.875686 221.625643 76.280532 216.031527 77.452285 C208.210970 79.090468 200.095064 81.060683 193.159456 84.828628 C177.450106 93.363174 165.007235 105.893508 153.712679 119.760940 C140.148958 136.414626 128.645296 154.369338 119.067415 173.458388 C112.522555 186.502761 106.886324 200.107925 102.095003 213.897109 C97.520724 227.061843 94.269503 240.718093 91.002718 254.294448 C88.794161 263.473037 87.310457 272.851211 85.980196 282.207961 C84.913851 289.707778 84.473238 297.303298 83.945711 304.869643 C83.739901 307.822585 84.951754 309.188369 88.122957 307.576369 C91.001009 306.113296 94.084933 305.058852 96.984469 303.633864 C110.985323 296.753005 123.402865 287.366714 134.009493 276.235610 C145.863436 263.795486 156.910799 250.398940 166.870272 236.395278 C176.499117 222.856521 184.297213 208.015639 193.399386 193.246657 M174.899386 294.746657 C177.473421 292.505935 180.212496 290.426528 182.590243 287.993972 C189.512301 280.912246 196.549837 273.916274 203.057528 266.463454 C210.881624 257.502822 218.584933 248.386794 225.663607 238.836318 C237.935824 222.278945 249.175936 205.031447 257.566195 186.088943 C266.694918 165.479323 273.909029 144.446609 276.177279 121.721694 C277.209444 111.380202 276.767733 101.382217 274.526156 91.566909 C270.489657 73.891982 261.209627 59.204848 246.452852 48.331801 C234.824740 39.764052 221.953280 34.365554 207.299837 34.305984 C201.273653 34.281447 195.239596 34.844802 189.221895 35.307815 C188.097262 35.394363 187.033724 36.275100 185.941988 36.789260 C186.935824 37.608413 187.806795 38.829360 188.944674 39.177016 C193.841707 40.673354 199.100924 41.286025 203.707857 43.370681 C215.075411 48.514236 226.339144 53.964919 233.002230 65.554458 C234.317660 67.842483 236.671358 69.916640 239.035921 71.152785 C249.856661 76.809524 256.493258 85.975783 259.703829 97.221328 C262.330599 106.421889 263.269686 116.108840 264.826571 125.601516 C264.946139 126.330581 264.213289 127.578872 263.535616 127.932693 C263.042818 128.190078 261.545382 127.586989 261.254427 126.994765 C259.353975 123.126723 257.303621 119.273940 255.968966 115.197829 C252.507052 104.625259 249.985323 93.630935 241.016451 85.905227 C240.238863 85.235366 239.190767 84.879470 238.268343 84.377700 C238.145357 85.326613 237.898348 86.278152 237.918123 87.224074 C238.179964 99.745559 237.197664 112.105056 235.031954 124.498855 C230.935518 147.941970 222.387911 169.813003 212.337740 191.110610 C205.743685 205.084304 198.626192 218.935988 190.350863 231.957473 C181.363253 246.099929 171.293673 259.651321 160.684847 272.634231 C153.149142 281.856216 144.128634 289.911147 135.429293 298.125259 C122.149019 310.664687 107.324068 320.830703 89.624972 326.290114 C87.041170 327.087173 85.071505 328.750991 85.900301 331.997451 C87.015841 336.367385 88.082796 340.750625 89.274630 345.099746 C90.237948 348.614883 92.826693 348.916579 95.717928 347.878188 C98.175448 346.995437 100.653597 346.022048 102.889864 344.696181 C115.477022 337.233718 128.406771 330.249709 140.417208 321.942397 C152.242281 313.763259 163.111056 304.201675 174.899386 294.746657 M87.899386 192.746657 C88.232699 192.382888 88.662325 192.070022 88.885409 191.647964 C97.046725 176.208999 104.420199 160.289748 113.514071 145.422561 C127.118014 123.182204 144.523897 103.948928 164.516939 87.160842 C179.121432 74.897414 195.083285 65.616225 214.894198 65.215102 C215.567354 65.201430 216.231173 64.722121 216.899386 64.459975 C216.478609 63.801467 216.214754 62.867629 215.613802 62.525283 C204.974825 56.464309 194.500765 50.056472 183.529818 44.661696 C178.629610 42.252029 172.894625 38.612868 167.073519 42.664748 C158.236605 48.815688 148.752840 54.416091 141.162691 61.893630 C128.750399 74.121841 117.049410 87.197219 106.132662 100.786330 C92.829195 117.346450 82.439425 135.835830 73.396273 155.119643 C64.266207 174.588821 57.016024 194.730849 51.046969 215.304763 C47.569674 227.289870 45.644198 239.720229 42.876375 251.917678 C40.350374 263.049270 39.624117 274.197158 42.963167 285.224502 C45.578280 293.860732 49.267000 302.036696 57.348910 307.120315 C59.610628 308.543105 61.884432 309.170425 61.957491 304.900710 C62.049349 299.538161 62.282808 294.146926 62.957369 288.831801 C64.436861 277.172927 65.427706 265.367263 68.075167 253.959731 C72.860811 233.339370 79.474459 213.219680 87.899386 192.746657 M221.899386 305.746657 C231.566073 291.264175 241.812716 277.127151 250.712984 262.188064 C257.635042 250.569289 262.922701 237.971694 268.795931 225.741592 C269.328036 224.633620 268.830355 223.031081 268.810946 221.658217 C267.840426 222.480666 266.551729 223.120071 265.954928 224.157485 C263.489046 228.443923 261.125887 232.797561 258.917452 237.222610 C248.094393 258.908279 233.615328 278.153762 217.420016 295.883620 C200.186800 314.749770 181.977755 332.798415 160.104159 346.593459 C146.543551 355.145827 132.510225 362.525710 116.788790 366.291274 C115.415316 366.620254 114.192293 367.577407 112.899386 368.242751 C114.356234 368.910720 115.821627 370.164992 117.268343 370.143874 C123.129244 370.058120 129.257601 370.564406 134.781771 369.031142 C144.695528 366.279433 154.878939 363.366530 163.809054 358.449538 C180.241366 349.401565 194.496432 337.166274 207.221834 323.331863 C212.225374 317.892226 216.689547 311.956496 221.899386 305.746657 M264.899386 37.746657 C275.227938 48.000747 283.599581 59.496535 287.976778 73.603713 C288.304415 74.659499 289.733126 75.373672 290.650057 76.246657 C291.066500 75.068496 292.014193 73.784316 291.803927 72.731216 C291.046908 68.938735 289.899996 65.223891 288.899264 61.480117 C284.865694 46.389602 278.491305 32.669875 265.851290 22.719619 C255.559847 14.617934 243.558748 12.058303 230.774691 12.305678 C230.141085 12.317885 229.524080 13.188491 228.899386 13.659377 C229.465914 14.188491 229.943941 14.939162 230.614718 15.206985 C233.042513 16.175918 235.570284 16.894668 237.997103 17.865737 C248.458895 22.051650 256.909273 29.000381 264.899386 37.746657 M36.899386 343.746657 C34.232699 339.692153 31.126497 335.852187 29.015169 331.526626 C26.597628 326.573745 25.117830 321.168227 23.085665 316.016494 C22.788851 315.264113 21.688387 314.828750 20.959749 314.246657 C20.606295 314.989333 19.835726 315.816909 19.966891 316.461013 C20.836519 320.733169 21.580050 325.073196 22.962618 329.190322 C26.354098 339.289809 31.704012 348.046706 41.492098 353.239150 C42.487765 353.767287 43.966097 353.385268 45.220492 353.425551 C44.731661 352.484145 44.414828 351.384353 43.721529 350.631179 C41.694674 348.428908 39.517611 346.364821 36.899386 343.746657 M52.399386 331.246657 C54.036288 333.216933 55.539400 335.321548 57.346590 337.120742 C59.271761 339.037490 61.450899 340.710158 63.626253 342.346999 C63.834383 342.503432 65.386568 341.508864 65.332674 341.285720 C63.895418 335.331435 63.303194 328.690078 55.440462 327.313979 C53.887362 327.042129 52.283724 327.058974 50.703402 326.942641 C51.102022 328.210647 51.500704 329.478652 52.399386 331.246657 z"/><path class="selected"  fill="#000000" opacity="1.000000" stroke="none" 
 	d="
M774.649386 664.996657 C774.045992 665.933303 773.835909 666.761062 773.318697 667.286452 C754.743258 686.155959 736.455050 705.219192 711.931490 716.935500 C695.969698 724.561477 679.867769 731.200393 662.191744 733.206740 C651.467501 734.424026 640.682100 736.227737 629.952730 736.049514 C604.959444 735.634475 581.405977 729.018386 561.314913 713.845046 C545.445284 701.859939 532.156100 687.105544 523.948336 668.550613 C520.650240 661.094680 518.247408 653.233718 514.794405 645.857863 C511.778597 639.415603 507.330416 633.628371 504.479037 627.128860 C501.082308 619.386306 497.361971 611.382155 496.209322 603.151198 C494.380770 590.094314 494.093661 576.757888 494.024386 563.535232 C493.945894 548.553908 497.175142 533.941238 501.135531 519.544387 C505.739901 502.806716 512.554781 486.831252 521.142794 471.892165 C528.194308 459.626052 536.446139 447.748000 545.867159 437.220534 C558.310518 423.315871 572.256075 410.729812 585.851900 397.890456 C598.222750 386.207839 611.849581 375.956130 627.225435 368.692702 C640.106783 362.607680 653.658053 358.154983 668.013766 356.036330 C678.895357 354.430434 689.464327 350.781386 700.229220 348.286635 C709.537447 346.129409 718.858492 345.219497 728.573702 345.993545 C737.687960 346.719680 746.523897 348.009536 754.945284 351.318374 C766.449068 355.838271 777.319430 361.471145 786.899874 369.589919 C796.766085 377.950820 805.890475 386.982497 812.822848 397.831374 C824.412691 415.968703 832.945162 435.369948 837.082003 456.779250 C840.378390 473.839431 841.564303 490.951247 840.692354 508.130446 C840.124239 519.325515 838.518526 530.669753 835.672701 541.499099 C831.558321 557.155227 826.342867 572.567214 820.788668 587.788405 C813.643282 607.369704 803.698824 625.626174 791.800753 642.736648 C786.525728 650.322707 780.554537 657.424880 774.649386 664.996657 M776.899386 536.746657 C777.162203 525.715285 776.248141 514.846999 774.000338 503.978835 C769.495577 482.198562 762.456026 461.439529 749.769747 443.062697 C744.173311 434.956252 738.488375 425.794387 730.553683 420.629592 C707.401583 405.559646 681.636812 397.520949 653.545016 399.315017 C647.327486 399.711989 641.360567 401.038772 637.017306 406.514724 C631.388643 413.611281 625.143282 420.215896 619.441378 427.257400 C600.537691 450.601638 587.173678 477.125564 577.099459 505.152785 C568.580660 528.852370 560.370089 552.818191 557.932589 578.177077 C556.741060 590.571975 555.585299 602.987624 555.079317 615.421096 C554.914767 619.466140 555.554659 624.985549 558.116915 627.396316 C563.258028 632.233474 569.651095 636.088088 576.105929 639.114089 C594.108004 647.553054 613.319552 651.663039 633.133883 652.095779 C642.667452 652.304030 652.285128 651.309279 661.774019 650.129104 C670.334322 649.064651 678.869478 647.397903 687.241183 645.300735 C703.743136 641.166579 717.967867 631.802932 733.085055 624.502517 C737.680758 622.283156 743.273165 620.601516 746.291231 616.931716 C754.903536 606.459914 762.624727 595.195510 767.351656 582.270583 C772.612887 567.884719 776.862765 553.262160 776.899386 536.746657 M763.899264 659.746657 C768.899264 653.153274 774.271578 646.805373 778.815890 639.911452 C786.454195 628.323196 793.636934 616.431228 800.859469 604.574538 C803.266695 600.623000 805.304903 596.433669 807.285738 592.246169 C807.704806 591.360427 807.136080 590.007522 807.022555 588.869826 C806.197970 589.279006 805.304781 589.593459 804.569430 590.125808 C803.921236 590.594924 803.453341 591.311477 802.898775 591.912307 C795.557100 599.866897 788.772555 608.444778 780.739474 615.626174 C769.026827 626.096877 755.857027 634.957839 744.327364 645.607986 C729.289522 659.498366 712.167330 669.642043 693.839449 678.333327 C671.816378 688.776931 648.480562 692.931106 624.454806 694.161086 C619.458590 694.416946 614.368502 693.018874 609.387789 693.357375 C596.988375 694.199782 585.412325 690.931106 574.075655 686.766555 C567.449923 684.332473 561.269869 680.699660 554.821871 677.753738 C553.775728 677.275832 552.377779 677.567580 551.142550 677.503493 C551.569308 678.425735 551.828097 679.484084 552.447970 680.249953 C563.665011 694.109572 576.775606 705.459426 593.486056 712.443557 C605.185274 717.332961 617.267916 720.507155 629.828341 721.124465 C644.052340 721.823562 658.138277 720.785720 672.192354 717.440871 C689.130221 713.409499 704.968844 707.298293 719.659151 698.014236 C736.133761 687.602614 750.477511 674.756179 763.899264 659.746657 M797.899386 463.746657 C790.263643 458.444289 782.649508 453.110183 774.967501 447.875564 C773.889986 447.141311 772.480562 446.893996 771.224825 446.421218 C771.449679 447.737990 771.406832 449.177199 771.944308 450.350905 C774.704317 456.377395 777.787935 462.259475 780.438570 468.331618 C789.258150 488.535232 792.641939 509.951613 793.787569 531.749953 C794.163668 538.906814 793.458346 546.152297 792.819185 553.319045 C792.401217 558.006911 791.589083 562.734695 790.285372 567.251662 C788.104342 574.808059 785.384859 582.208816 782.906344 589.679885 C782.642916 590.474074 782.476046 591.300246 782.264376 592.111648 C783.284517 591.848220 784.601534 591.894240 785.264254 591.258376 C786.753023 589.829665 787.894259 588.043899 789.216524 586.435988 C800.228609 573.045241 810.733858 559.319167 817.482638 543.151687 C822.252657 531.724563 826.128023 519.904616 826.684176 507.548904 C827.104586 498.208816 825.855929 488.745437 824.725313 479.412795 C824.379976 476.561843 821.941256 471.619094 820.499483 471.632888 C812.112154 471.712722 805.530489 467.320022 797.899386 463.746657 M736.399386 377.246657 C734.510836 376.580031 732.658663 375.773025 730.727389 375.270644 C721.551607 372.883803 712.441256 370.110671 703.138277 368.388808 C695.070528 366.895522 686.915987 367.503066 679.695650 372.275405 C678.961642 372.760634 678.491793 373.645461 677.899386 374.344802 C678.695406 374.645400 679.468477 375.088759 680.291475 375.221328 C683.428072 375.726699 686.678805 375.781631 689.710909 376.632155 C707.543917 381.633498 723.287325 390.327468 736.598482 403.357741 C739.914278 406.603469 743.667574 409.434524 747.397921 412.217727 C754.622530 417.607741 762.053316 422.722732 769.251925 428.146438 C778.163424 434.860793 786.909762 441.794265 795.758028 448.593215 C802.695284 453.923659 809.656710 459.223464 816.666231 464.458083 C817.751314 465.268386 819.152193 465.655959 820.406954 466.238967 C820.264986 464.768752 820.487276 463.136916 819.918551 461.856277 C817.356295 456.086989 815.020601 450.145583 811.777682 444.763869 C802.923067 430.069411 792.916720 416.357131 779.533541 405.169143 C766.412813 394.200515 752.248507 385.118728 736.399386 377.246657 M552.899386 487.746657 C551.016451 491.962966 548.973726 496.116042 547.278414 500.406447 C540.143526 518.463698 534.826632 537.091872 533.118868 556.421462 C532.213717 566.665603 533.542574 577.110183 533.939181 587.461379 C533.975191 588.400710 534.570284 589.318801 534.905733 590.246657 C535.570284 589.285964 536.683687 588.384719 536.819918 587.354201 C537.348360 583.354690 537.353365 579.282790 537.940767 575.294997 C539.485079 564.809402 540.524142 554.180373 543.037203 543.920241 C549.586764 517.180373 558.947359 491.323318 571.225924 466.706008 C577.184786 454.758987 585.169893 443.823562 592.203951 432.409255 C592.652559 431.681228 592.809176 430.773269 593.101656 429.948928 C592.061983 430.187087 590.627901 430.072219 590.046725 430.721023 C586.387545 434.806472 582.747408 438.931228 579.417086 443.284743 C569.053805 456.831985 560.371432 471.425002 552.899386 487.746657 M805.399386 415.246657 C806.566012 416.429519 807.736178 417.609084 808.898409 418.796096 C810.209810 420.135451 811.514010 421.481521 812.821383 422.824660 C812.514010 420.917068 812.219942 419.007033 811.885225 417.104201 C811.834566 416.816115 811.619600 416.543899 811.440157 416.293288 C802.561007 403.898635 793.874727 391.453933 781.898531 381.563674 C766.982760 369.246047 749.835177 362.583449 731.102633 359.347488 C729.829195 359.127456 728.306246 360.350905 726.899386 360.903152 C728.077242 361.684341 729.168795 362.940566 730.446383 363.172683 C742.316378 365.328750 752.511324 371.364333 762.473971 377.538283 C771.328829 383.025649 779.928683 389.132705 787.791842 395.946487 C794.150240 401.456374 799.244478 408.425002 805.399386 415.246657 M596.399386 666.246657 C592.445650 664.959670 588.479098 663.710891 584.542086 662.374465 C580.903170 661.139236 577.346773 659.623244 573.647799 658.623611 C572.351290 658.273391 570.739229 659.090652 569.271334 659.374709 C570.061007 660.079055 570.756685 660.954055 571.660128 661.452102 C573.540865 662.489333 575.449801 663.612136 577.491060 664.198196 C587.156832 666.973586 596.744723 670.322707 606.609835 672.001540 C613.931978 673.247390 621.636934 672.280959 629.169771 672.179519 C629.752901 672.171706 630.323092 671.209670 630.899386 670.691238 C630.286226 670.209670 629.709933 669.367385 629.054415 669.300490 C618.508761 668.224196 607.952852 667.246657 596.399386 666.246657 z"/></svg>