<?xml version="1.0" encoding="utf-8"?><!DOCTYPE svg PUBLIC "-//W3C//DTD SVG 1.1//EN" "http://www.w3.org/Graphics/SVG/1.1/DTD/svg11.dtd"><svg version="1.1" id="Contours" xmlns="http://www.w3.org/2000/svg" xmlns:xlink="http://www.w3.org/1999/xlink" x="0px" y="0px" width="898.612610px" height="898.612610px" viewBox="0.000010 0.000029 898.612610 823.842346" enable-background="new 0 0 898.612610 898.612610" xml:space="preserve" stroke="black" fill="none" stroke-linecap='round' stroke-linejoin='round'><path class="selected"  fill="#000000" opacity="1.000000" stroke="none" 
 	d="
M417.140676 118.952913 C415.259267 135.184663 411.358083 150.350496 405.638296 165.172701 C402.636220 172.952364 401.017446 181.304353 399.191457 189.490999 C395.675771 205.253999 390.923086 220.578584 384.144338 235.256502 C375.742727 253.448152 367.237783 271.621675 355.069326 287.674043 C347.015798 298.297884 338.856069 308.951021 329.700552 318.601167 C318.952016 329.930391 307.577932 340.799959 295.531362 350.723177 C285.120168 359.299348 273.624685 366.647981 262.178762 373.856844 C248.146780 382.694246 232.821401 388.778658 217.085134 394.099641 C199.382436 400.085664 180.949819 402.280733 163.141531 399.306184 C149.044607 396.951631 138.424245 403.446382 126.325918 406.307161 C110.411550 410.070284 94.606191 414.310213 78.642690 417.842378 C71.201772 419.488863 63.501272 420.769502 55.914724 420.789583 C37.947500 420.837190 21.083578 417.264803 9.426992 401.688570 C4.984365 395.752168 2.305105 388.942842 1.168111 381.631502 C-2.335734 359.100984 2.384511 337.666170 10.769796 316.967378 C16.721853 302.274812 22.898000 287.584016 30.281881 273.582063 C40.413076 254.370393 51.225088 235.461641 62.777334 217.071382 C74.315847 198.703035 86.795827 180.895052 99.505178 163.305330 C106.944082 153.009920 115.296316 143.311067 123.843862 133.894136 C138.771474 117.448274 153.438528 100.653536 169.580740 85.455904 C184.276723 71.619966 200.463735 59.282381 216.610952 47.102937 C227.452322 38.925630 238.887380 31.245271 250.917409 25.000459 C269.951650 15.119600 289.062124 4.789949 310.844961 2.049287 C320.661672 0.814119 330.682119 -0.476469 340.482839 0.174654 C362.797964 1.657259 379.485708 13.082002 390.794546 32.233186 C392.882558 35.769136 393.553701 40.129121 395.560354 43.728853 C398.376150 48.780122 401.893972 53.435152 404.998281 58.331453 C412.249746 69.769075 416.932485 82.073824 417.121999 95.789766 C417.226369 103.342806 417.140676 110.898470 417.140676 118.952913 M116.140615 325.452913 C116.473989 326.646639 116.971609 327.821016 117.115041 329.037141 C118.407949 339.999971 122.761037 349.674959 129.196645 358.542390 C133.196767 364.053926 137.659414 366.228426 142.608022 363.887972 C156.412710 357.358858 170.565542 351.358797 183.679067 343.621431 C206.889761 329.926485 228.155569 313.350740 248.129079 295.277986 C259.091970 285.358308 269.143972 274.432954 279.621450 263.975801 C295.929800 247.699312 310.280141 229.782930 324.220815 211.477144 C338.028493 193.346040 350.496938 174.307161 360.894887 154.131075 C368.484670 139.404024 373.912099 123.550386 380.069143 108.105562 C381.669424 104.091341 381.990407 99.869844 379.501333 95.717806 C376.803762 91.218050 374.835256 86.277620 372.093740 81.808504 C362.230215 65.729463 348.702505 53.815340 330.888235 47.282381 C319.080923 42.952425 306.681570 40.228243 294.622060 45.219637 C280.396474 51.107637 266.215261 57.449800 252.918630 65.154756 C232.663503 76.891817 213.794668 90.804903 196.721426 106.941499 C189.215383 114.035677 182.018178 121.461702 174.820913 128.873140 C173.459585 130.274934 172.758962 132.318330 171.753469 134.065645 C173.618642 133.125276 175.629140 132.392732 177.323782 131.208345 C184.450490 126.227205 191.046011 120.304536 198.631826 116.195772 C221.007192 104.076204 244.659353 96.352571 270.628286 98.994966 C277.741262 99.718721 284.873342 100.603914 291.872427 102.026094 C306.098257 104.916719 319.321218 110.522615 331.670156 118.116426 C332.725942 118.765657 333.061880 120.585420 333.732168 121.861421 C332.354482 121.891939 330.894949 122.236360 329.612234 121.902254 C320.901479 119.633211 312.226553 117.226411 303.542959 114.853548 C288.031606 110.614839 272.370840 109.371858 256.399038 111.901338 C245.104055 113.690096 234.263174 116.793001 223.936452 121.668916 C204.175832 130.999056 186.031423 142.729158 172.590566 160.231111 C162.823171 172.949800 153.332326 186.058321 145.365835 199.938692 C134.740407 218.451692 127.941518 238.781892 122.393484 259.360994 C118.345754 274.375276 115.242849 289.688142 115.198659 305.369539 C115.180715 311.729707 115.807363 318.091707 116.140615 325.452913 M51.140676 275.452913 C47.140005 284.120332 42.892568 292.684114 39.198537 301.480257 C34.135671 313.535738 28.827413 325.554536 24.849844 337.981355 C20.545705 351.428560 17.173849 365.218294 20.077444 379.691927 C22.090078 389.724214 27.252035 397.233431 36.787221 400.849886 C48.119070 405.147737 60.214223 404.703218 71.955740 403.745088 C85.520620 402.638277 98.963613 399.996919 112.437734 397.883150 C113.750173 397.677217 114.909963 396.498018 116.140676 395.770601 C114.955068 395.164705 113.728261 393.966280 112.590200 394.045381 C102.182302 394.769014 92.216177 392.601595 82.262990 389.977205 C60.936025 384.353792 48.092580 368.598238 47.343740 347.193636 C46.900381 334.520296 48.185171 321.752901 49.218374 309.070589 C50.352895 295.142488 54.339101 281.849397 59.650503 268.957491 C61.349966 264.832552 63.329824 260.815035 64.842275 256.625948 C65.331899 255.269807 64.740163 253.523286 64.643056 251.955293 C63.721426 252.875337 62.503652 253.640108 61.926626 254.740816 C58.416982 261.435701 55.053213 268.207124 51.140676 275.452913 M384.640615 136.952913 C376.867239 153.059602 369.771535 169.540193 361.144704 185.175996 C350.940542 203.670686 339.080984 221.196260 325.297048 237.328706 C314.492239 249.974275 304.467580 263.353120 292.966360 275.320223 C278.219778 290.664156 262.659719 305.274385 246.829519 319.510652 C237.376516 328.011934 226.872549 335.380098 216.576406 342.895052 C210.401662 347.401949 203.695547 351.177339 197.288686 355.373872 C196.498464 355.891573 196.082876 356.981294 195.493703 357.805940 C196.533681 357.863924 197.724050 358.279329 198.587026 357.916414 C201.850942 356.543611 205.217397 355.241365 208.171072 353.333101 C223.174551 343.639497 238.478506 334.335054 252.873891 323.796968 C268.127126 312.630769 282.854421 300.663057 297.098745 288.228975 C307.720327 278.957124 317.317556 268.492525 327.154775 258.349275 C332.242300 253.103426 337.251455 247.693575 341.610647 241.846773 C352.098806 227.779451 362.419424 213.572664 372.323904 199.091219 C376.851125 192.471956 381.251089 185.433748 383.920583 177.947847 C388.820425 164.207246 389.251638 149.623140 389.092336 135.118440 C389.073354 133.392854 388.390554 131.674593 388.015493 129.952913 C387.057180 131.619783 386.058584 133.265657 385.170827 134.969270 C384.966054 135.362337 385.140676 135.953157 384.640615 136.952913 M92.140615 289.452913 C92.473989 288.259004 92.897024 287.082063 93.126333 285.868440 C94.819448 276.908357 95.959219 267.804170 98.294179 259.016573 C100.380178 251.165926 103.840932 243.686006 106.507619 235.977693 C106.871816 234.924959 106.148855 233.496126 105.929189 232.241426 C105.223196 233.088411 104.282644 233.829988 103.846914 234.798555 C98.734609 246.163362 93.577261 257.510469 88.667715 268.963350 C79.723257 289.829073 72.023733 310.976839 68.855154 333.750398 C67.197988 345.661043 71.016408 354.759065 78.017568 363.220674 C85.860586 372.699678 96.980764 372.118745 107.819875 371.847139 C107.947195 371.843965 108.418630 370.028108 108.076772 369.433687 C106.210989 366.189546 103.985036 363.149629 102.167348 359.881319 C93.978139 345.156587 91.997976 328.913240 91.253164 312.507539 C90.920644 305.184541 91.807302 297.806184 92.140615 289.452913 M278.140676 339.452913 C294.801137 327.232515 310.175649 313.505647 323.007497 297.348665 C335.514028 281.601228 346.978689 265.023286 358.762014 248.709810 C359.884573 247.155733 360.020315 244.888887 360.614065 242.952852 C358.789602 244.144319 356.540884 244.983003 355.209585 246.584444 C346.692800 256.828645 339.090139 267.935762 329.825613 277.430818 C316.656484 290.927278 302.594839 303.600557 288.378469 316.011507 C278.289358 324.819185 267.481008 332.839388 256.667776 340.766451 C250.915761 344.983186 244.457143 348.232271 238.357534 351.983308 C237.647512 352.419954 237.193655 353.273164 236.621023 353.933260 C237.508413 353.939790 238.489065 354.197847 239.267019 353.909273 C242.584707 352.678499 245.788747 351.119844 249.148183 350.033174 C250.533437 349.584993 252.205801 350.024141 253.747488 350.059786 C252.713674 351.355684 251.949148 353.257478 250.604848 353.854829 C235.271596 360.669161 219.844900 367.272737 204.461843 373.975801 C203.282033 374.489900 202.244436 375.330171 201.140676 376.018770 C202.426382 376.330171 203.700796 376.711092 205.002798 376.921907 C205.605093 377.019380 206.309316 376.908174 206.885549 376.682649 C217.350454 372.585970 228.287771 369.367098 238.140310 364.115022 C251.736867 356.867220 264.513113 348.080476 278.140676 339.452913 M285.640676 29.952913 C288.668325 29.619600 291.694997 29.277559 294.723745 28.954439 C304.139516 27.949983 313.615835 27.332307 322.957693 25.860201 C335.632314 23.862947 348.071035 24.840608 360.379018 27.812410 C365.132009 28.960054 369.601064 31.259126 374.243215 32.910677 C375.220327 33.258272 376.389089 33.067049 377.469533 33.124056 C377.092214 32.299348 376.898428 31.298799 376.305837 30.680452 C373.777822 28.043062 371.412527 25.129610 368.483022 23.016878 C351.211111 10.560396 331.998464 9.367891 312.173086 14.581148 C301.452322 17.400240 290.989126 21.291719 280.573904 25.143282 C274.813833 27.273409 269.371633 30.277132 263.843618 33.003572 C263.102773 33.368929 262.699941 34.419466 262.140676 35.152803 C263.137929 35.419527 264.261282 36.126619 265.112356 35.882845 C271.651601 34.010164 278.137929 31.952913 285.640676 29.952913 M371.140676 58.452913 C372.787466 60.099764 374.683767 61.566744 376.028371 63.431490 C378.676321 67.103975 380.939443 71.052400 383.540273 74.761446 C384.218313 75.728609 385.553640 76.234895 386.587087 76.952913 C386.771596 75.875276 387.090810 74.800752 387.115224 73.719515 C387.186758 70.560335 387.439687 67.363741 387.076589 64.245210 C386.383962 58.295564 386.751699 51.736910 380.623769 48.004060 C377.339895 46.003633 373.964834 43.817537 370.327566 42.800508 C362.079519 40.494417 353.648611 38.836946 345.273672 36.999605 C344.637075 36.859895 343.855093 37.382906 343.140676 37.597932 C343.646719 38.382906 344.005300 39.682161 344.680837 39.876009 C355.410635 42.953340 363.004385 50.474336 371.140676 58.452913 M398.140676 103.452913 C399.474050 110.218233 400.787344 116.987581 402.168081 123.743196 C402.326711 124.519197 402.862234 125.218233 403.222951 125.952852 C403.862173 125.301363 404.905569 124.736177 405.066640 123.982515 C405.596853 121.501680 406.132680 118.946199 406.082998 116.430879 C405.891836 106.753938 405.728078 97.062898 405.024587 87.415804 C404.711660 83.123262 403.230581 78.897737 402.076284 74.697725 C401.793874 73.670015 400.711965 72.861971 399.997732 71.952913 C399.712026 72.929048 399.291555 73.888399 399.167593 74.884676 C398.869619 77.279939 398.491506 79.696565 398.537099 82.097200 C398.669668 89.072969 394.906423 95.877535 398.140676 103.452913 z"/><path class="selected"  fill="#000000" opacity="1.000000" stroke="none" 
 	d="
M334.140676 533.952913 C342.140676 519.101473 350.006032 504.672762 358.174978 490.418123 C368.296621 472.756380 378.341421 455.036653 389.014089 437.708040 C403.765493 413.756868 418.710439 389.907747 434.252737 366.465852 C447.153249 347.008577 461.110769 328.254610 474.459524 309.091158 C483.809072 295.668977 492.814016 282.006746 502.165761 268.586031 C516.418813 248.131563 530.620779 227.635408 545.249563 207.450533 C559.696950 187.515962 574.401784 167.756136 589.457204 148.277864 C600.957571 133.399019 612.728567 118.678255 625.193532 104.608736 C642.071218 85.558626 659.661794 67.136446 677.113210 48.601778 C680.167043 45.358369 683.817190 42.529024 687.602468 40.166536 C690.901052 38.107942 694.566457 36.778536 698.820486 38.799959 C700.723806 39.704439 703.415823 38.894075 705.746755 38.964632 C711.288503 39.132173 715.114675 45.405550 712.166921 49.797456 C705.876638 59.168977 700.374197 69.146211 693.398977 77.965669 C676.623952 99.175874 661.842214 121.718599 647.127859 144.337618 C635.078786 162.859651 622.721487 181.183931 610.859670 199.824251 C599.053884 218.376375 587.666921 237.195650 576.149099 255.930208 C565.863699 272.660066 555.569265 289.385347 545.434865 306.206697 C539.262502 316.451692 533.300161 326.826143 527.395925 337.228914 C518.364553 353.141390 509.431081 369.109834 500.517507 385.088838 C488.361623 406.880098 476.189138 428.662630 464.169057 450.528841 C457.164358 463.271516 450.554494 476.231111 443.568777 488.984651 C432.849172 508.555574 421.901784 528.001619 411.161428 547.561311 C404.383779 559.904329 397.939870 572.431551 391.106435 584.742830 C383.049551 599.258211 374.777944 613.655061 366.517629 628.056307 C358.326162 642.337557 350.413137 656.797762 341.701406 670.757234 C325.969106 695.966341 309.927541 720.988680 293.619009 745.829012 C286.242239 757.064729 278.440786 768.115144 269.836355 778.418001 C264.136159 785.243318 256.983449 791.004305 249.871450 796.444856 C245.721242 799.619783 240.047781 799.012605 235.926015 795.966585 C231.680105 792.829012 227.897390 788.631746 231.067251 782.349886 C231.335500 781.818269 230.568227 780.764192 230.282033 779.952913 C229.234914 780.698518 227.840932 781.222078 227.197683 782.226350 C223.414968 788.132600 219.955007 794.249300 216.070180 800.084627 C214.449148 802.519685 212.313406 804.824007 209.914236 806.456575 C208.236684 807.598055 205.021169 808.604646 203.686025 807.767732 C196.655935 803.360506 194.725332 808.510774 191.384817 812.971346 C186.153005 819.957552 177.752859 822.082307 171.984182 814.177278 C168.789907 809.800081 169.074331 804.631380 171.616445 800.085359 C178.364370 788.018709 185.437429 776.133455 192.408132 764.191927 C199.460195 752.110994 206.502126 740.023958 213.626882 727.986116 C220.523366 716.334016 227.374868 704.651277 234.504995 693.142366 C245.937917 674.688142 257.575307 656.360140 269.142812 637.989290 C287.037832 609.569612 304.956350 581.164583 322.842275 552.739168 C326.658010 546.674959 330.377065 540.549959 334.140676 533.952913 M544.640676 266.952913 C538.279409 276.314180 532.060354 285.775972 525.528127 295.016390 C510.479848 316.303499 494.991262 337.284883 480.222158 358.762178 C465.650991 379.951692 452.009695 401.779695 437.483694 423.001192 C417.818471 451.730745 399.582998 481.303987 383.150198 511.989168 C371.102041 534.486604 359.074209 556.995515 347.165578 579.566927 C340.029714 593.092073 333.166189 606.760530 326.134267 620.340852 C316.826528 638.316560 307.302297 656.182405 298.188711 674.255769 C288.952444 692.572054 280.088613 711.076448 271.089651 729.511995 C265.745657 740.459993 260.446523 751.430086 255.159902 762.405794 C254.803884 763.144807 254.723257 764.016634 254.514516 764.826692 C255.534536 764.557405 256.693410 764.501131 257.532522 763.954378 C258.257314 763.481844 258.602346 762.440462 259.143117 761.670076 C266.393362 751.341829 273.892934 741.178743 280.851186 730.657625 C295.275686 708.847078 309.669302 687.007600 323.579824 664.868562 C333.000661 649.875154 341.635000 634.384554 350.513540 619.054109 C359.458364 603.609163 368.347890 588.130891 377.116445 572.585359 C384.269887 559.903108 391.180105 547.083894 398.250173 534.354402 C407.882375 517.011751 417.599172 499.715974 427.211721 482.362337 C433.288320 471.392000 439.185171 460.321932 445.261831 449.351595 C454.874258 431.997896 464.582571 414.697420 474.225576 397.360628 C480.024099 386.935701 485.660329 376.418794 491.575063 366.060640 C500.662405 350.146516 509.902578 334.319307 519.123647 318.481844 C527.099294 304.783418 534.978200 291.024568 543.203847 277.476900 C549.050466 267.847383 555.431203 258.543062 561.472829 249.029512 C561.950246 248.277986 561.637868 247.024812 561.692556 246.004793 C560.887990 246.441438 559.972219 246.753389 559.306936 247.346285 C558.476980 248.085970 557.810354 249.025728 557.147634 249.933382 C553.133474 255.431307 549.140676 260.944734 544.640676 266.952913 z"/><path class="selected"  fill="#000000" opacity="1.000000" stroke="none" 
 	d="
M895.890676 473.202913 C899.359426 481.410921 899.350149 489.792635 896.783987 497.568391 C891.623464 513.206087 885.906545 528.705476 879.482839 543.865144 C875.335989 553.651888 869.439992 562.689363 864.523611 572.164217 C863.332693 574.459505 862.348440 577.133089 862.247243 579.671785 C861.948659 587.157015 862.368825 594.670076 862.099416 602.157625 C861.162893 628.192415 856.827566 653.649690 846.699270 677.731844 C837.861501 698.745515 826.593069 718.322664 811.249807 735.582063 C794.228811 754.728548 774.775686 770.434358 752.197927 782.439973 C735.664968 791.231111 718.156057 797.165071 699.875783 800.907015 C695.208913 801.862337 690.186452 801.546297 685.750417 803.056795 C678.487966 805.529939 671.490041 808.846956 664.529470 812.124056 C653.879201 817.138094 642.779592 820.598909 631.105154 821.887361 C622.087698 822.882600 612.965017 824.171785 603.959646 823.765413 C586.184133 822.963289 570.375783 816.973787 556.979665 804.491121 C540.828298 789.440828 531.856802 770.962801 529.308828 749.463777 C527.735158 736.185823 526.639272 722.646272 527.397451 709.342073 C528.743276 685.727571 532.947805 662.448885 540.652822 639.951570 C547.797781 619.089265 553.996755 597.825349 562.503347 577.530916 C569.710500 560.336946 578.959890 543.956087 591.053518 529.330232 C600.347341 518.090120 608.438894 505.864778 617.380056 494.321321 C622.823171 487.294099 628.658620 480.540559 634.685720 474.003084 C643.088796 464.888460 651.533010 455.773348 660.499929 447.225252 C678.063161 430.482515 697.178884 415.683748 718.574148 404.090303 C734.098928 395.677828 750.327322 388.611848 767.658376 385.128023 C787.843923 381.070345 808.088064 381.583284 827.099905 390.584993 C839.299978 396.361421 849.265066 405.243501 856.051809 417.068269 C859.877981 423.734895 862.178152 431.327303 866.356985 437.724397 C869.251150 442.154939 874.100271 445.347444 878.215017 448.933382 C885.879812 455.613435 891.858449 463.476106 895.890676 473.202913 M783.640676 454.952913 C769.749197 449.339143 755.247365 446.681429 740.489309 449.130403 C724.566824 451.772493 709.408498 457.319978 695.102102 464.955843 C692.643850 466.267854 690.099782 467.463777 687.814138 469.032137 C686.940359 469.631624 686.680349 471.125398 686.140676 472.211580 C687.019460 472.125398 687.906057 471.917268 688.775930 471.971956 C696.234670 472.440706 703.805349 472.308138 711.122243 473.601228 C724.384328 475.944612 736.612722 481.368074 747.657888 489.040682 C753.587942 493.160188 758.965749 498.096712 764.408987 502.874056 C765.315847 503.669954 765.280447 505.539583 765.680471 506.913118 C764.189138 506.781648 762.504079 507.056795 761.237844 506.453157 C752.604055 502.337679 744.089162 497.973665 735.476614 493.812410 C724.170339 488.349519 712.030202 485.867586 699.647146 485.124056 C693.985281 484.784212 688.141408 485.923616 682.505910 487.032015 C672.280080 489.043123 662.547170 492.589021 653.583669 498.018709 C640.757497 505.788362 632.323049 518.027010 623.531179 529.464021 C608.777761 548.656038 596.084646 569.253694 584.462087 590.639803 C573.988821 609.911409 568.262014 630.004060 567.344045 651.497469 C566.859792 662.835970 567.567068 674.408357 569.351491 685.617952 C572.086965 702.802644 576.997976 719.507356 586.257619 734.543977 C595.593679 749.704622 607.911916 761.886751 623.458547 770.622224 C625.461477 771.747469 628.344900 772.334993 630.561330 771.887605 C647.511159 768.466219 662.584035 760.403597 677.011648 751.399324 C702.125783 735.725374 725.233938 717.285188 747.084768 697.353548 C757.393484 687.950349 767.112234 677.871370 776.732229 667.750642 C786.182546 657.808260 795.532400 647.725496 804.266897 637.158968 C815.251272 623.870515 825.622488 610.072176 836.144094 596.405794 C841.206228 589.830598 846.453420 583.072298 846.990163 574.466951 C847.408376 567.763216 847.346731 560.792024 845.977224 554.258699 C841.842092 534.530794 836.323782 515.150179 826.098562 497.549593 C815.832204 479.878206 802.663259 464.962190 783.640676 454.952913 M821.640676 468.952913 C824.140676 472.084261 826.702199 475.168733 829.129446 478.355501 C837.193777 488.943758 842.804006 500.936189 847.612234 513.176057 C850.996267 521.790682 852.654592 531.079012 855.188894 540.036775 C855.491262 541.105013 856.457082 541.985506 857.115285 542.952913 C857.790456 541.835603 858.893240 540.783968 859.076101 539.591341 C861.506277 523.745638 864.383474 507.937410 865.966970 492.002351 C867.351491 478.068880 865.619802 464.078767 862.866994 450.359529 C862.060354 446.340608 860.868825 442.305086 856.462820 439.519807 C843.053030 431.043062 830.061574 421.900789 817.000173 412.882906 C815.852346 412.090425 815.384573 410.312715 814.601003 408.992525 C816.152029 408.979280 818.101369 408.346712 819.192800 409.048433 C830.535574 416.340974 841.728323 423.866548 853.002370 431.266878 C854.116506 431.998140 855.494558 432.327547 856.750051 432.843538 C856.539480 431.372591 856.790212 429.587862 856.039602 428.484224 C852.566457 423.377840 848.632986 418.582124 845.205740 413.447359 C839.957326 405.584139 832.322927 400.515230 824.023366 397.151277 C810.981008 391.864717 797.398855 389.719453 782.988699 391.730257 C768.128225 393.803926 753.992483 398.008821 740.629690 404.224825 C719.251150 414.169405 700.119436 427.886629 682.410451 443.372591 C671.585256 452.839143 661.598562 463.268221 651.334402 473.365755 C650.450246 474.235628 650.311819 475.863435 649.826955 477.139070 C651.220388 476.621370 652.866506 476.415682 653.961599 475.529451 C657.748464 472.465242 661.167409 468.931062 665.045583 465.997835 C675.509939 458.083284 687.088186 452.137605 698.914602 446.465486 C711.759450 440.304842 725.266531 436.529451 739.160329 435.175569 C759.985281 433.146333 780.491262 435.516023 798.118215 448.109163 C806.406667 454.030672 813.503713 461.619539 821.640676 468.952913 M818.640676 640.952913 C818.697561 639.676546 818.754568 638.400179 818.811574 637.123811 C817.921316 637.778352 816.850515 638.284090 816.168386 639.110506 C808.085134 648.903963 800.624441 659.283357 791.887868 668.448518 C778.630910 682.355989 764.923391 695.902742 750.622121 708.727205 C735.276174 722.488557 719.351491 735.661043 703.071462 748.307893 C687.180227 760.652376 670.048025 771.202791 651.355276 778.977205 C650.541311 779.315706 649.875539 780.010652 649.140676 780.539339 C650.099782 781.010530 651.021291 781.778352 652.023855 781.904939 C659.013113 782.788240 666.089040 783.160432 673.000417 784.437288 C680.068166 785.743318 687.383962 785.151765 692.717092 781.430696 C706.972341 771.484651 720.966848 760.962679 733.888845 749.359773 C749.354421 735.473177 764.041555 720.571077 776.027029 703.443391 C790.348074 682.977937 804.127004 662.133333 818.640676 640.952913 M730.640676 773.952913 C742.684621 767.242464 755.137746 761.160677 766.664968 753.656526 C780.010427 744.968538 791.689016 734.157747 801.916921 721.781038 C814.774221 706.222322 825.342092 689.404939 833.218923 670.770174 C842.215627 649.486116 846.196462 627.098421 849.087453 604.410677 C849.227834 603.308748 848.590383 602.107820 848.315237 600.952913 C847.542898 601.833650 846.695241 602.661409 846.025686 603.614290 C845.595266 604.226961 845.434377 605.026888 845.139577 605.737581 C841.896902 613.554598 838.933523 621.501985 835.355520 629.162264 C823.748220 654.011995 810.491506 677.972444 794.039846 699.954012 C783.850027 713.568636 773.263113 726.986726 761.771291 739.497957 C750.713552 751.536165 739.588186 763.737093 725.759817 772.903474 C725.188161 773.282381 725.023366 774.274812 724.669118 774.981355 C725.534231 775.305208 726.446096 775.974397 727.252737 775.865511 C728.260671 775.729280 729.181936 774.952913 730.640676 773.952913 M623.640676 792.953035 C620.394826 791.953035 617.191824 790.306184 613.894338 790.088045 C607.103078 789.638826 600.261037 789.989778 593.440359 789.944002 C584.343679 789.882967 575.782400 787.497469 567.522512 783.843050 C565.481618 782.939973 563.410085 782.106355 561.352590 781.240999 C562.503957 783.533723 563.207082 786.239534 564.878225 788.053499 C577.687795 801.958162 593.953542 808.283601 612.577444 808.882967 C616.916067 809.022615 621.339407 808.616121 625.624563 807.882478 C633.959035 806.455721 642.229299 804.647493 650.505056 802.897615 C651.135427 802.764436 651.599416 801.843904 652.140676 801.289339 C651.490285 800.843904 650.860036 800.044466 650.186574 800.006380 C641.153127 799.497102 632.750173 796.771272 623.640676 792.953035 M872.140676 473.452913 C872.474050 476.146272 873.201223 478.859041 873.070608 481.529695 C872.578664 491.588655 872.291555 501.696199 871.012014 511.668001 C869.570364 522.903474 867.086721 534.002840 865.195852 545.185091 C864.894216 546.969515 865.324514 548.877840 865.416555 550.728792 C866.358449 549.269563 867.582571 547.920076 868.198415 546.334383 C874.272878 530.693758 879.671072 514.760408 886.430715 499.425691 C891.823415 487.192049 890.173391 476.412630 883.090749 465.915315 C879.713308 460.909456 875.834280 456.239168 872.099050 451.482332 C871.687551 450.958406 870.725637 450.866731 870.018972 450.574617 C869.786550 451.594270 869.242116 452.655794 869.371999 453.626985 C870.212942 459.913240 871.200979 466.179842 872.140676 473.452913 M547.140676 706.452913 C547.362112 715.708406 545.959035 724.985506 548.095266 734.217806 C551.111135 747.250887 556.450368 759.003206 568.162405 766.195100 C574.918996 770.344026 582.710622 772.832674 590.122854 775.856355 C591.026174 776.225008 592.468191 775.272981 593.660574 774.933015 C593.273611 774.225984 593.033010 773.365266 592.476980 772.835848 C587.134573 767.749056 580.896291 763.346468 576.556814 757.523836 C570.056936 748.802522 564.100027 739.471834 559.375906 729.693269 C555.247854 721.148470 553.162405 711.620271 550.094778 702.553377 C549.875906 701.906526 549.002248 701.481233 548.433034 700.952913 C548.002248 701.453035 547.319265 701.898592 547.197073 702.465364 C546.991018 703.420808 547.140676 704.453035 547.140676 706.452913 z"/></svg>