<?xml version="1.0" encoding="utf-8"?><!DOCTYPE svg PUBLIC "-//W3C//DTD SVG 1.1//EN" "http://www.w3.org/Graphics/SVG/1.1/DTD/svg11.dtd"><svg version="1.1" id="Contours" xmlns="http://www.w3.org/2000/svg" xmlns:xlink="http://www.w3.org/1999/xlink" x="0px" y="0px" width="629.106873px" height="629.106873px" viewBox="0.000006 0.000026 629.106873 986.284790" enable-background="new 0 0 629.106873 629.106873" xml:space="preserve" stroke="black" fill="none" stroke-linecap='round' stroke-linejoin='round'><path class="selected"  fill="#000000" opacity="1.000000" stroke="none" 
 	d="
M397.985834 692.512791 C394.553949 702.278050 391.592645 711.875218 388.097772 721.274021 C386.336664 726.010227 381.599115 727.859959 376.535394 726.762669 C373.900873 726.191868 369.058587 720.298924 369.296747 717.259739 C370.140130 706.495213 370.448114 695.604100 372.411126 685.030613 C375.776483 666.903172 380.255121 648.983006 384.183099 630.957859 C384.396478 629.978123 383.844964 628.831639 383.649530 627.762791 C382.844964 628.584446 381.632806 629.265965 381.295404 630.248143 C372.625360 655.495213 363.376825 680.570164 355.625848 706.099461 C346.479120 736.225560 338.734613 766.775486 330.179925 797.084568 C327.538568 806.442967 324.572381 815.742771 321.119501 824.827854 C318.744378 831.077610 316.081659 831.808811 309.298822 830.917942 C308.081048 830.758030 305.829950 832.338719 305.356073 833.603001 C301.190179 844.718724 297.255609 855.923558 293.443841 867.166722 C292.992059 868.499363 293.688592 870.221287 293.852777 871.762791 C294.881830 871.028172 296.028375 870.413426 296.920099 869.538792 C301.441278 865.104100 305.867364 860.572483 310.397149 856.146946 C311.402154 855.165135 312.611505 854.302342 313.879388 853.713597 C314.638910 853.360813 315.694635 853.645848 316.617181 853.644139 C316.440362 854.566746 316.514032 855.654515 316.036554 856.379002 C314.895074 858.110691 313.584161 859.753880 312.181085 861.285862 C307.629388 866.255955 303.434564 871.671116 298.310785 875.972019 C290.215326 882.767063 286.077081 891.396458 283.107171 901.265232 C278.394403 916.924900 273.191217 932.460423 267.533685 947.804539 C263.544427 958.624363 258.882440 969.252903 253.703729 979.556126 C250.601678 985.727757 245.678399 987.233738 239.986505 985.762791 C236.198480 984.783787 231.970941 978.334324 232.323114 972.711521 C233.029046 961.440769 233.588189 950.096165 235.397394 938.975437 C237.734491 924.610447 241.189264 910.424778 244.267999 896.184666 C245.053277 892.552586 246.310296 889.024021 247.176996 885.406468 C247.366144 884.616551 246.812433 883.648655 246.600641 882.762791 C245.812311 883.433934 244.716730 883.948704 244.283075 884.800633 C239.872186 893.466038 235.970697 902.416355 231.146600 910.840306 C222.823053 925.374974 214.875665 940.332249 202.428094 951.905613 C193.391900 960.307102 184.278497 957.698582 180.807977 947.405857 C178.950677 941.897557 179.129083 934.961521 180.574518 929.220188 C184.881524 912.111424 189.655939 895.063938 195.391656 878.385838 C202.502130 857.710545 210.618951 837.374852 218.561517 816.993992 C225.941705 798.055882 233.500970 779.183445 241.297174 760.413304 C245.963251 749.179173 251.300043 738.225437 256.221063 727.094944 C263.943353 709.628880 271.193841 691.942601 279.351617 674.683934 C286.197626 660.200535 290.602350 645.200535 293.391717 629.456517 C296.307916 612.996800 300.409418 596.744358 304.092645 580.423924 C308.080316 562.754856 312.001397 545.067478 316.287591 527.469944 C320.482293 510.248265 324.615960 492.986302 329.643060 475.998448 C337.802118 448.426792 346.337152 420.954686 355.381463 393.661839 C359.634515 380.827427 364.904413 368.253758 370.693231 356.025730 C376.580072 343.590855 383.217889 331.446446 390.441766 319.739353 C393.690057 314.475010 398.093744 309.007969 405.537591 308.785557 C411.248895 308.614964 414.909173 312.566197 415.285272 318.282200 C416.289667 333.544529 411.742914 347.892613 408.060418 362.326817 C403.459222 380.361851 398.215326 398.233006 393.233026 416.170567 C389.497308 429.621128 385.804681 443.084141 381.959955 456.503636 C379.873285 463.786351 377.412347 470.962376 375.357416 478.253331 C374.980340 479.591648 375.743524 481.251438 375.980462 482.762791 C377.065545 481.693150 378.733514 480.810093 379.145013 479.524754 C382.965082 467.592808 386.688836 455.626683 390.204461 443.601475 C394.337640 429.464146 398.028802 415.195591 402.287835 401.097508 C407.740838 383.047154 413.097772 364.944493 419.347406 347.163487 C428.492059 321.145603 438.461419 295.418553 447.952264 269.521092 C458.107293 241.810765 471.052850 215.345799 484.544061 189.194371 C495.065545 168.799534 506.904535 149.071202 520.827386 130.717259 C521.925165 129.270298 523.434076 128.141575 524.673211 126.792759 C525.286737 126.124913 525.720697 125.292393 526.235834 124.534397 C525.228753 124.277195 524.179681 123.691197 523.221063 123.813572 C513.429559 125.063938 503.644403 126.371373 493.873895 127.776951 C480.361200 129.720738 466.858758 131.738194 453.359002 133.770542 C442.543573 135.398777 431.690057 136.833287 420.941034 138.826634 C406.136712 141.571934 391.416498 144.770420 376.653680 147.741917 C375.852655 147.903172 374.893426 147.525242 374.180780 147.818516 C373.118280 148.255650 372.209833 149.067234 371.235834 149.719456 C372.014276 150.400547 372.695184 151.267796 373.585809 151.734776 C386.179803 158.336766 398.931390 164.650547 411.375116 171.522618 C420.507196 176.565831 429.567743 181.870030 438.051996 187.912022 C444.381708 192.419773 450.583612 197.639988 455.296136 203.737767 C460.152093 210.021092 454.993280 218.502964 446.839349 218.701512 C436.455072 218.954441 426.009759 219.405308 415.682733 218.595982 C403.484247 217.639988 391.377801 215.473179 379.243036 213.750035 C367.925043 212.142979 356.572503 210.707127 345.325311 208.692417 C331.270501 206.174839 317.260736 203.355809 303.318292 200.274021 C288.553827 197.010594 273.945245 193.019993 259.134027 190.008946 C256.478998 189.469273 252.937005 191.754978 250.201166 193.397007 C230.161920 205.424351 210.286859 217.726109 190.203668 229.678685 C185.875116 232.254856 181.055841 234.307164 176.196466 235.602452 C171.764703 236.783726 168.236688 234.620396 166.080987 230.198948 C163.837945 225.598484 165.918573 222.084507 168.656915 219.002049 C171.097040 216.255101 174.293695 214.188816 177.088251 211.744175 C178.230096 210.745274 179.192071 209.540745 180.235834 208.429783 C178.470453 208.472813 176.524530 208.047947 174.973382 208.646336 C170.237237 210.473606 165.738153 212.919895 160.991998 214.716282 C150.901971 218.535313 140.769403 222.260899 130.541925 225.689549 C125.805658 227.277256 119.502130 223.519139 117.605768 218.632786 C116.100519 214.754185 118.257989 211.171665 123.910394 207.723728 C125.463189 206.776463 126.725274 205.352757 128.120721 204.147740 C126.145318 204.352757 124.082757 204.261021 122.208551 204.811009 C110.033319 208.383824 97.966424 212.341587 85.733941 215.699436 C71.034845 219.734471 56.281610 223.637242 41.406915 226.945469 C31.529352 229.142308 21.414239 230.315708 11.373041 231.714329 C6.083124 232.451207 2.950494 229.101475 0.878290 224.829624 C-1.126837 220.696080 0.470880 216.925877 3.951349 214.713291 C10.618341 210.475071 17.307184 205.891209 24.619073 203.116429 C49.404779 193.710301 74.449579 184.983433 99.440301 176.123936 C103.527398 174.675022 107.881524 173.993260 112.025140 172.681736 C113.188959 172.313328 114.042474 170.964451 115.038324 170.065281 C113.856256 169.964451 112.629999 169.606846 111.498651 169.801121 C93.189813 172.945103 74.708429 173.457554 56.244806 172.568394 C49.488092 172.242955 42.790033 169.870335 36.181817 168.015965 C34.919366 167.661717 34.203729 165.358982 33.235834 163.955174 C34.631280 163.224461 36.003106 161.921604 37.426263 161.862950 C43.249566 161.622959 49.089105 161.710301 54.921686 161.772679 C71.917474 161.954563 88.672906 159.983555 105.365106 156.842625 C118.127618 154.441136 131.050409 152.899327 143.840326 150.628208 C145.969720 150.250096 149.924249 150.530308 149.225213 146.171727 C147.650689 136.355320 154.043573 130.831272 161.075921 126.937718 C176.874627 118.190647 192.759698 109.335606 209.402948 102.438694 C235.291864 91.710362 261.920587 82.779576 288.049249 72.607884 C294.054620 70.270115 299.430719 66.179722 304.874994 62.562474 C320.187066 52.388951 335.330560 41.961644 350.640985 31.785740 C365.126092 22.158421 379.663690 12.604405 394.359002 3.304051 C397.275018 1.458470 400.959955 0.300022 404.390863 0.008763 C406.228631 -0.147304 409.134027 1.810276 409.977289 3.570957 C410.707147 5.094883 409.910028 8.495579 408.567254 9.664707 C403.294671 14.255711 397.676141 18.487950 391.937005 22.496983 C377.096918 32.863438 362.142816 43.067540 347.183587 53.262181 C345.151483 54.646946 342.725458 55.450535 340.679437 56.818638 C339.358880 57.701695 338.398675 59.123509 337.276971 60.303929 C338.963861 60.256321 340.702020 60.451573 342.326166 60.107640 C345.202020 59.498753 347.964349 58.307225 350.851678 57.807164 C363.004876 55.702244 375.135858 53.333409 387.372308 51.880589 C400.228631 50.354161 413.186273 49.577305 426.121820 48.889866 C429.467523 48.712071 433.069696 49.640171 436.252069 50.853001 C444.045892 53.823460 443.881708 60.605992 440.144647 64.999485 C434.889764 71.177403 428.606927 76.603733 422.214349 81.656468 C415.949457 86.608372 408.963861 90.642796 402.381463 95.205479 C401.421991 95.870518 400.946893 97.234165 400.247674 98.274571 C401.346918 98.437290 402.533197 98.952977 403.531610 98.706761 C411.228265 96.808628 419.078119 95.299961 426.526361 92.668186 C455.949579 82.272007 485.858392 73.636998 516.286981 66.754124 C532.279046 63.136692 548.194818 59.152378 564.260736 55.905735 C570.277582 54.689854 576.620233 54.886875 582.817987 54.829869 C587.661737 54.785313 589.353876 57.599217 588.272943 62.488377 C587.421869 66.338108 587.017572 70.286290 586.177240 74.138829 C585.857904 75.602330 584.903924 76.936558 584.187372 78.302403 C582.318963 81.863743 580.294793 85.350437 578.590814 88.987644 C577.760980 90.758885 579.020013 91.467198 581.414544 91.119602 C589.610223 89.930027 597.817010 88.809361 606.035394 87.788914 C610.147821 87.278294 613.581293 88.594090 614.147088 93.120335 C614.751092 97.952183 610.099359 98.913609 607.209100 99.565586 C597.516717 101.751683 587.632562 103.084507 577.827386 104.775975 C576.448968 105.013707 574.734979 105.026097 573.822626 105.854527 C572.345209 107.195896 571.403558 109.127232 570.235834 110.809422 C571.877557 111.460606 573.573114 112.784153 575.152704 112.657933 C589.614496 111.502964 604.052606 110.055455 618.506708 108.798069 C621.318841 108.553379 624.178094 108.646824 626.998529 108.838291 C627.776239 108.891087 628.999872 109.783482 629.097772 110.430088 C629.202508 111.121861 628.380243 112.211766 627.669183 112.702488 C626.816644 113.290989 625.671258 113.642063 624.622186 113.729344 C615.903314 114.454991 607.168207 114.992894 598.456415 115.790440 C588.859613 116.669102 579.267328 117.646824 569.714960 118.900242 C568.429437 119.068882 566.871087 120.893162 566.315179 122.297581 C561.836786 133.611668 557.262811 144.904087 553.311395 156.406895 C548.142694 171.454136 543.644647 186.730442 538.628168 201.831883 C530.260003 227.023289 521.732293 252.161839 513.208490 277.301243 C512.073358 280.649449 510.551507 283.865513 509.248895 287.158665 C508.940057 287.939366 508.793695 288.784275 508.572748 289.599705 C509.593011 289.354954 510.784906 289.359104 511.590570 288.803257 C512.633661 288.083592 513.348871 286.899082 514.238763 285.946080 C523.354364 276.184849 531.776117 265.644139 543.645990 258.912449 C547.420282 256.772129 551.597162 255.059727 555.472894 258.584690 C559.335077 262.097325 559.256463 266.741246 557.348871 271.042820 C552.850702 281.186253 548.347406 291.360203 543.161004 301.159092 C530.053827 325.922276 516.592401 350.498143 503.226190 375.123753 C496.280633 387.920201 489.125604 400.603977 482.266229 413.446080 C475.129876 426.806919 468.379144 440.374241 461.198602 453.710667 C452.767450 469.369786 447.266595 486.000096 443.141717 503.251683 C438.479974 522.748875 432.937494 542.033787 428.073602 561.484959 C423.911004 578.132176 420.130365 594.875340 416.248651 611.591770 C413.845331 621.942234 411.597772 632.328709 409.229120 642.687229 C405.922967 657.145848 402.552850 671.590061 399.254022 686.050267 C398.788202 688.092259 398.569208 690.190525 397.985834 692.512791 M516.735834 163.762791 C506.841668 182.990269 496.537835 202.020848 487.174920 221.503575 C478.710077 239.117527 470.514398 256.936314 463.556878 275.182041 C452.522333 304.119664 442.487665 333.442784 432.286493 362.692295 C426.493036 379.303501 421.194208 396.087559 415.741327 412.816136 C415.456170 413.690892 415.815790 414.775730 415.875238 415.762730 C416.763543 415.161167 417.964715 414.754490 418.483026 413.922520 C420.199945 411.166722 421.466058 408.120396 423.269647 405.429905 C433.767694 389.768528 444.518915 374.275059 454.881585 358.525425 C461.205560 348.913975 469.125482 340.577427 472.864618 328.978367 C481.940545 300.823887 492.405877 273.118626 502.218011 245.199620 C508.097650 228.469822 513.399896 211.526036 519.680658 194.950901 C528.515985 171.634617 538.020868 148.572178 547.221795 125.394261 C547.443353 124.836094 547.455804 124.195042 547.565668 123.592625 C546.818719 123.649327 545.962152 123.494358 545.349603 123.811131 C544.373773 124.315647 543.317010 124.967442 542.714960 125.845372 C534.180292 138.289341 525.716668 150.781956 516.735834 163.762791 M377.235834 162.262791 C371.715082 159.096104 366.258539 155.807713 360.632684 152.840306 C359.038690 151.999668 356.795282 151.454686 355.112787 151.861790 C337.872186 156.033543 320.742120 160.673008 303.462640 164.669346 C293.448785 166.985264 284.462091 171.238377 275.991266 176.809056 C274.861566 177.551976 274.144159 178.921849 273.235834 180.001377 C274.607904 180.588536 275.944574 181.289952 277.362420 181.729710 C278.705560 182.146336 280.148187 182.229039 281.522210 182.561314 C290.000909 184.612400 298.441339 186.832859 306.953851 188.730564 C320.399408 191.727940 333.862909 194.660557 347.373163 197.347264 C359.115594 199.682408 370.909173 201.789585 382.726800 203.709812 C390.598993 204.988926 398.534295 205.963841 406.475335 206.716343 C418.875482 207.891514 431.302118 208.792088 443.725213 209.707005 C444.715448 209.780003 445.764154 209.062962 446.785638 208.713047 C446.260980 207.888218 445.847162 206.961216 445.194940 206.254124 C436.438226 196.760411 425.422601 190.257237 414.542962 183.693638 C402.461786 176.405125 390.020379 169.714024 377.235834 162.262791 M374.735834 441.762791 C375.913080 436.918858 377.032586 432.059971 378.277093 427.233433 C386.581781 395.027012 394.914911 362.827915 403.225580 330.623020 C403.466668 329.689122 403.559686 328.717076 403.721673 327.762730 C402.559686 328.392918 400.883539 328.730564 400.328607 329.706089 C398.351190 333.181614 396.640008 336.823704 395.034418 340.492955 C388.061761 356.427830 380.270868 372.077244 374.450189 388.426060 C366.268548 411.406834 359.346918 434.848484 352.308099 458.220005 C346.944330 476.029637 342.053705 493.988194 337.280267 511.967503 C330.819085 536.304417 324.627069 560.713719 318.489923 585.134617 C318.085382 586.744480 319.126153 588.717381 319.494623 590.521458 C320.408380 589.228367 321.525934 588.033421 322.203790 586.626683 C327.822992 574.965061 333.304803 563.237156 338.940057 551.583226 C344.042596 541.030735 349.926751 530.801976 354.254510 519.947361 C357.452386 511.926487 358.675531 503.122166 360.826654 494.679173 C365.279413 477.202732 369.764276 459.734410 374.735834 441.762791 M198.235772 931.262791 C198.276361 932.636692 198.316949 934.010716 198.357599 935.384617 C199.300165 934.694187 200.496087 934.185154 201.142328 933.282566 C204.254754 928.935520 207.493463 924.643162 210.189447 920.039646 C223.531305 897.258030 237.010248 874.547459 249.814203 851.464329 C255.096002 841.942112 260.521844 831.924900 262.813592 821.460789 C265.858331 807.558689 265.755182 792.983494 267.293268 778.728611 C268.160882 770.687962 269.482843 762.688572 270.838861 754.711155 C271.756097 749.315403 273.154230 744.002781 274.169793 738.621311 C274.333612 737.753147 273.621881 736.719822 273.314813 735.762791 C272.621820 736.362400 271.613885 736.827854 271.291376 737.585301 C270.025201 740.558201 269.080621 743.667698 267.826227 746.646336 C262.687738 758.847508 257.286737 770.941868 252.344659 783.221409 C246.021356 798.932835 239.957574 814.750706 233.944940 830.584690 C226.289911 850.743992 218.625665 870.902928 211.298028 891.182225 C206.631769 904.096287 202.569085 917.228367 198.235772 931.262791 M560.735834 73.762791 C549.915643 76.582981 539.077142 79.334996 528.279168 82.237767 C506.711053 88.035679 485.162713 93.907688 463.616327 99.785923 C462.442621 100.106175 461.360834 100.763096 460.236322 101.263279 C461.223260 102.096470 462.161981 102.997044 463.208978 103.746189 C464.606317 104.745823 466.416131 105.353184 467.469598 106.613255 C470.269891 109.962620 473.374627 110.198887 477.442499 109.198155 C483.704095 107.657811 490.160394 106.922642 496.516351 105.749790 C504.857904 104.210423 513.168451 102.502171 521.517450 101.006138 C529.908563 99.502537 538.293817 97.866001 546.749383 96.852513 C554.464349 95.927891 560.970819 94.178990 563.266717 85.383702 C564.181512 81.878697 566.436883 78.722691 568.090326 75.411961 C568.564691 74.462193 569.067987 73.526951 569.558099 72.585057 C568.339593 72.311009 567.049188 71.649754 565.920526 71.859227 C564.458246 72.130711 563.124750 73.096226 560.735834 73.762791 M380.235834 581.262791 C386.127679 569.370945 392.052850 557.495213 397.902337 545.582615 C403.953119 533.260105 410.494256 521.135960 415.756952 508.482518 C419.776849 498.816868 422.007440 488.418675 425.276971 478.425694 C427.864618 470.516209 430.847650 462.736668 433.577875 454.872532 C433.900628 453.943150 433.736200 452.844639 433.797601 451.824498 C432.875116 452.372532 431.880487 452.832554 431.059564 453.504673 C430.628045 453.858006 430.516351 454.590733 430.233514 455.138279 C425.552484 464.198704 420.749017 473.198094 416.208978 482.328587 C408.104120 498.628636 400.321649 515.090550 392.099481 531.330418 C383.709833 547.900975 375.515130 564.495335 371.595941 582.845799 C370.430536 588.301609 368.654291 593.625096 367.290155 599.042454 C367.085565 599.855442 367.608270 600.851414 367.794427 601.762791 C368.608270 601.117161 369.728265 600.638645 370.186639 599.799046 C373.445550 593.828343 376.569085 587.783787 380.235834 581.262791 M333.235834 603.262791 C326.063959 618.434788 318.905877 633.613255 311.715753 648.776463 C306.016168 660.796238 299.917413 672.575535 298.098016 686.116917 C296.809930 695.703587 294.257318 705.122044 292.229059 714.607029 C290.595636 722.245945 288.843072 729.860203 287.309625 737.518650 C287.113702 738.497044 287.921625 739.676487 288.264459 740.762791 C288.921564 739.795384 289.859064 738.915501 290.192254 737.847264 C293.412591 727.522679 296.244867 717.068089 299.756280 706.845799 C303.603204 695.647068 307.973504 684.624729 312.252130 673.578465 C320.529474 652.208470 329.066888 630.937596 337.133050 609.488743 C339.469964 603.274144 340.611444 596.604100 342.172479 590.112034 C342.334833 589.436985 341.619623 588.550999 341.311517 587.762791 C340.619623 588.362522 339.623163 588.826634 339.286249 589.584202 C337.349603 593.938572 335.569208 598.362400 333.235834 603.262791 M181.735834 131.762791 C177.479669 134.352207 173.160333 136.845677 169.002374 139.584141 C167.570855 140.527012 166.541864 142.081028 165.328973 143.355931 C167.603509 144.019322 169.878900 145.219395 172.152276 145.215550 C175.265069 145.210301 178.453668 144.561741 181.470270 143.700352 C186.208246 142.347264 191.379388 141.435337 195.395746 138.835850 C206.643182 131.556065 217.299859 123.370884 228.373041 115.811558 C235.588495 110.885899 243.156549 106.478855 250.474176 101.697972 C251.357599 101.120945 251.662713 99.658787 252.235834 98.606785 C251.225397 98.658787 250.100824 98.440159 249.224481 98.809910 C245.538202 100.365147 241.932794 102.110874 238.285638 103.760044 C227.626642 108.579991 216.850580 113.158421 206.335077 118.272618 C198.135553 122.260472 190.257013 126.908299 181.735834 131.762791 M496.735834 330.762791 C494.738397 334.426915 492.568475 338.012730 490.846185 341.801915 C490.315057 342.970249 491.004999 344.693577 491.135858 346.162754 C492.076898 345.621739 493.249383 345.281040 493.920038 344.506016 C497.299554 340.600498 501.137079 339.740330 505.946771 341.783482 C506.947748 342.208592 509.371942 341.339329 509.945917 340.363926 C512.678705 335.719761 514.938348 330.800511 517.477655 326.038548 C525.035638 311.864659 532.677850 297.735447 540.193353 283.539158 C541.086175 281.852696 541.399042 279.859104 541.980829 278.007847 C540.236444 279.255589 538.167718 280.222203 536.801629 281.797947 C529.513055 290.205357 522.293573 298.677952 515.258783 307.298374 C509.107538 314.836033 503.232660 322.599217 496.735834 330.762791 M392.735834 81.762791 C389.367303 84.464695 386.035150 87.213658 382.620721 89.856175 C378.607293 92.962254 374.504144 95.952488 370.495111 99.064061 C370.064203 99.398411 370.000116 100.205235 369.765985 100.792881 C370.236078 100.969395 370.783197 101.399449 371.164422 101.283543 C375.587396 99.939610 380.409051 99.237461 384.303216 96.960179 C392.798700 91.992100 400.981561 86.438450 408.988763 80.700413 C417.384759 74.683873 425.461664 68.217930 433.602167 61.851475 C436.383417 59.676487 436.209222 57.664280 432.386346 57.478977 C424.469720 57.095433 416.534906 56.965855 408.610589 57.041172 C407.808710 57.048802 406.240960 59.255833 406.357293 60.293370 C407.538934 70.845433 400.145013 75.875462 392.735834 81.762791 M355.735834 82.762730 C348.156854 85.762730 340.550531 88.695713 333.005121 91.777989 C320.904901 96.720982 308.821771 101.708042 296.799493 106.836155 C295.391351 107.436863 294.413263 109.045933 293.235834 110.187596 C294.668146 110.712681 296.201654 111.869664 297.516107 111.659031 C305.426751 110.391453 313.295953 108.854649 321.161065 107.316380 C325.452264 106.477085 330.301629 106.458897 333.874994 104.341832 C347.836542 96.070408 361.399652 87.124913 375.068475 78.364109 C375.870843 77.849949 376.301996 76.756626 376.905755 75.932774 C375.768915 75.622959 374.386590 74.735020 373.535028 75.096836 C367.871942 77.502903 362.322381 80.176304 355.735834 82.762730 M275.235834 848.262791 C273.569147 854.896214 271.854486 861.517918 270.245050 868.165135 C265.665521 887.078953 261.097650 905.995701 256.592523 924.927220 C255.038019 931.459812 253.652826 938.033421 252.281793 944.607395 C252.146173 945.257298 252.652154 946.041111 252.860284 946.762669 C253.651971 946.262913 254.867364 945.939061 255.160943 945.232395 C256.340936 942.392430 257.238946 939.434910 258.235284 936.518894 C262.569940 923.833226 266.939386 911.159153 271.218194 898.454563 C272.991571 893.188816 275.452264 887.950291 276.025384 882.532933 C276.849786 874.740208 276.135980 866.793553 276.281183 858.916355 C276.346246 855.387547 276.956903 851.870701 277.144891 848.339085 C277.162103 848.015232 275.902460 847.623265 275.235834 848.262791 M302.235834 811.262791 C304.235834 804.763768 306.513238 798.335057 308.179315 791.751561 C311.886163 777.103977 315.314203 762.385594 318.763360 747.674290 C319.049310 746.454563 318.634210 745.070530 318.544855 743.762791 C317.641778 744.729588 316.679803 745.649754 315.862726 746.684422 C315.502191 747.140965 315.409845 747.822239 315.239618 748.414158 C308.901788 770.436253 302.551751 792.455052 296.244928 814.486058 C293.856378 822.829686 291.472589 831.177464 289.321832 839.583592 C288.917474 841.163792 289.627374 843.029026 289.823114 844.762791 C290.853876 843.369602 292.336542 842.122410 292.841424 840.559300 C295.929437 831.000218 298.795770 821.369602 302.235834 811.262791 M348.735834 67.762791 C343.136224 69.096104 337.585321 70.703160 331.927484 71.709629 C317.092340 74.348606 304.996759 82.499852 292.892389 90.672520 C292.303460 91.070164 292.103387 92.043797 291.722223 92.749180 C292.579889 93.087010 293.478387 93.770603 294.284845 93.675267 C295.291559 93.556187 296.196771 92.733738 297.190057 92.321873 C310.528436 86.791294 323.770746 81.007969 337.252801 75.852085 C347.312372 72.005040 357.693475 69.001133 367.901849 65.535191 C368.792230 65.232945 369.463006 64.284031 370.235834 63.635533 C369.265252 63.344639 368.199701 62.634983 367.339349 62.829991 C361.281122 64.203282 355.265252 65.762791 348.735834 67.762791 M215.735834 154.762791 C212.362787 155.469151 208.934625 155.998814 205.660394 157.021763 C204.952386 157.242894 204.798517 159.238194 204.389459 160.416416 C207.782709 160.920750 211.428216 162.486607 214.526544 161.750157 C229.935174 158.087437 245.209161 153.852879 260.494073 149.685887 C261.524713 149.404942 262.255060 148.022251 263.125116 147.152073 C261.987298 146.696995 260.745233 145.681858 259.727350 145.871250 C245.212396 148.572911 230.727777 151.437474 215.735834 154.762791 M364.235834 632.262791 C362.357660 636.474339 360.128045 640.568455 358.674432 644.921727 C355.644159 653.997654 352.972040 663.195530 350.313348 672.389744 C350.034173 673.355076 350.828485 674.630955 351.124872 675.762791 C351.828485 674.842991 352.787835 674.024388 353.197626 672.988255 C359.415033 657.267674 365.512079 641.499363 371.751459 625.787571 C373.678827 620.934300 376.092157 616.272190 377.966302 611.400852 C378.472894 610.083714 377.820550 608.321019 377.700311 606.762791 C376.783319 607.691502 375.534295 608.461766 375.003412 609.574681 C371.494745 616.929661 368.140497 624.358250 364.235834 632.262791 M477.235711 395.262730 C482.569085 384.975498 487.892206 374.682835 493.245599 364.406040 C494.176874 362.618382 495.462762 360.977879 496.126947 359.106846 C496.402215 358.331272 495.473871 357.128392 495.092889 356.119847 C494.503778 356.470860 493.723504 356.683262 493.353631 357.193272 C484.361566 369.590916 476.520990 382.586155 472.865106 397.677708 C472.553094 398.965733 472.744378 400.375584 472.701898 401.728916 C473.624261 400.829197 474.620233 399.991673 475.446039 399.010777 C476.144891 398.180821 476.646844 397.185154 477.235711 395.262730 M524.235834 113.262791 C521.303094 113.762791 518.352777 114.181614 515.449212 114.815220 C514.640130 114.991734 513.969842 115.803685 513.235834 116.324131 C514.175897 116.803685 515.133050 117.722874 516.053216 117.687290 C520.218377 117.526585 524.400995 117.289769 528.522088 116.696446 C531.397455 116.282505 534.210321 115.329197 536.986932 114.420872 C537.550409 114.236668 537.826898 113.175389 538.235834 112.518467 C537.563836 112.266575 536.875482 111.761998 536.222528 111.804356 C532.389032 112.053013 528.563836 112.429417 524.235834 113.262791 M277.235895 115.262791 C277.713128 116.096104 278.383539 117.708287 278.638360 117.645054 C282.062860 116.795933 285.447748 115.766941 288.790826 114.630772 C289.296564 114.458836 289.541070 113.518345 289.906427 112.933384 C289.240777 112.543186 288.462518 111.702427 287.927789 111.836033 C284.500665 112.692478 281.127069 113.762791 277.235895 115.262791 M362.235834 549.262791 C361.235834 549.810765 359.621820 550.147435 359.347162 550.945164 C358.392572 553.717259 357.812005 556.633396 357.303705 559.532322 C357.186883 560.198948 357.923944 561.015354 358.268060 561.762791 C358.923944 561.131932 359.970941 560.603489 360.167718 559.852391 C360.995355 556.691990 361.569208 553.465306 362.235834 549.262791 M150.735834 176.762791 C151.425287 177.429478 152.171930 178.681797 152.790521 178.621556 C153.655633 178.537144 154.425348 177.473851 155.235834 176.829197 C153.902521 176.640415 152.569147 176.451573 150.735834 176.762791 M392.235834 578.262791 C392.552240 577.579197 392.868646 576.895603 393.185052 576.212010 C392.384271 576.379978 391.583490 576.547947 390.782709 576.715916 C391.100458 577.398167 391.418085 578.080540 392.235834 578.262791 z"/></svg>