<?xml version="1.0" encoding="utf-8"?><!DOCTYPE svg PUBLIC "-//W3C//DTD SVG 1.1//EN" "http://www.w3.org/Graphics/SVG/1.1/DTD/svg11.dtd"><svg version="1.1" id="Contours" xmlns="http://www.w3.org/2000/svg" xmlns:xlink="http://www.w3.org/1999/xlink" x="0px" y="0px" width="705.257324px" height="705.257324px" viewBox="0.000017 0.000002 705.257324 1084.381714" enable-background="new 0 0 705.257324 705.257324" xml:space="preserve" stroke="black" fill="none" stroke-linecap='round' stroke-linejoin='round'><path class="selected"  fill="#000000" opacity="1.000000" stroke="none" 
 	d="
M24.292342 798.976347 C20.175215 791.150664 22.768965 787.286284 28.118880 785.021269 C33.165511 782.884795 31.187788 778.608916 31.188277 775.204375 C31.189436 767.675810 29.982649 760.106230 30.460677 752.629545 C31.015608 743.950224 28.167281 736.409086 24.698958 728.937651 C17.828474 714.137602 15.002791 698.582426 16.402937 682.427763 C17.286116 672.238554 21.401045 663.181914 28.243697 655.318266 C30.273299 652.985869 31.880843 649.578886 32.140791 646.532744 C33.468794 630.975004 34.085738 615.357451 35.358138 599.793974 C36.364424 587.486235 37.679854 575.188139 39.364119 562.955534 C41.394026 548.213652 43.634627 533.484831 46.368880 518.859709 C50.405928 497.266081 54.229781 475.588957 59.487105 454.278593 C65.333174 430.582182 72.728865 407.272185 84.934493 385.854216 C86.017134 383.954375 87.385664 382.214934 88.431136 380.297209 C89.833296 377.725188 90.844527 374.923857 92.389327 372.449248 C95.545577 367.393156 98.480208 362.088957 102.338179 357.602507 C111.717879 346.694487 121.570540 336.193083 131.238265 325.532988 C134.647200 321.774077 138.083601 318.040007 141.478804 314.268767 C142.051802 313.632353 142.478926 312.864592 142.973433 312.157439 C141.803206 311.763762 140.483138 310.834563 139.499983 311.109587 C138.221419 311.467192 137.175032 312.741057 136.089766 313.690459 C122.629805 325.466093 109.325545 337.426665 95.631270 348.922758 C92.041914 351.935942 87.391646 353.869231 82.965620 355.641691 C79.642195 356.972502 76.398238 355.828215 73.801863 353.039885 C70.942183 349.968718 70.043379 346.299101 72.047224 342.896879 C75.787764 336.545866 79.590987 330.059477 84.423872 324.556670 C98.364546 308.683073 112.895552 293.329497 127.060835 277.650786 C133.249190 270.801237 139.888838 264.164152 144.890791 256.496001 C149.378462 249.616240 151.708785 241.361601 155.334517 233.880095 C161.931014 220.268706 167.960432 206.288237 175.713667 193.353117 C188.339705 172.288542 201.698164 151.621428 215.631636 131.395720 C225.929732 116.447172 236.955244 101.872954 248.905318 88.225310 C260.608687 74.859404 273.619978 62.587431 286.588789 50.400999 C293.786665 43.637388 301.723677 37.504393 309.967757 32.055754 C317.650069 26.978422 323.243391 25.900999 328.344588 31.425322 C332.573836 36.005278 331.322432 40.742003 329.293929 45.402769 C321.949385 62.277556 311.668868 77.399382 300.677596 92.040556 C290.916060 105.043547 281.056258 117.979155 270.945418 130.710783 C265.884016 137.084135 260.128767 142.903960 254.794478 149.066923 C254.167769 149.790983 254.222334 151.104765 253.961165 152.145170 C254.903975 151.756499 256.065596 151.598601 256.756331 150.943938 C265.154768 142.984282 273.227889 134.661711 281.891158 127.005583 C294.855818 115.548186 307.993941 104.261565 321.475020 93.420439 C339.269515 79.110564 357.470808 65.306853 375.479720 51.263060 C376.392683 50.551054 377.128890 49.615263 377.967757 48.804594 C387.726180 39.373534 397.352400 29.799864 407.296980 20.569029 C414.181502 14.178374 421.628767 8.396513 428.581160 2.074950 C431.858504 -0.905061 439.852522 -0.559908 442.282454 2.372191 C445.192122 5.883147 445.072371 10.487669 441.021956 14.690581 C428.135603 28.061888 415.191267 41.379057 402.127303 54.576659 C396.686263 60.073393 390.856551 65.184111 385.290511 70.560393 C384.631819 71.196562 384.525374 72.404265 384.163069 73.347075 C385.203474 73.059477 386.481551 73.063017 387.246687 72.438322 C393.498763 67.334441 399.534651 61.959074 405.892928 56.995177 C408.933455 54.621458 412.316634 52.269987 415.929427 51.151274 C420.435286 49.755949 424.800398 51.130736 427.265242 55.709807 C429.882185 60.571501 427.020735 64.763823 424.402571 68.118925 C419.092879 74.923186 413.105086 81.215910 407.193709 87.529204 C395.134261 100.408415 382.922591 113.145232 370.806990 125.972075 C360.292830 137.103422 349.848860 148.301054 339.329329 159.427336 C326.864058 172.611540 314.321394 185.722624 301.868697 198.918730 C292.274519 209.085722 282.770491 219.337797 273.220503 229.546477 C263.442915 239.998503 253.659712 250.445341 243.876082 260.891691 C233.978682 271.459624 224.080794 282.027190 214.177412 292.589628 C204.046187 303.395109 193.848799 314.139311 183.788924 325.010832 C173.110457 336.550749 162.500288 348.155424 151.973555 359.833891 C144.678572 367.927153 137.678206 376.286955 130.334761 384.334868 C127.489973 387.452544 123.772200 389.786955 121.016707 392.967375 C119.502364 394.715239 118.429915 397.478789 118.425581 399.786894 C118.410811 407.648100 119.158736 415.508208 119.248274 423.372832 C119.405867 437.204314 119.552046 451.045073 119.221541 464.870390 C118.869429 479.601713 118.010848 494.322233 117.276106 509.042692 C116.690718 520.770537 115.933455 532.489653 115.299361 544.215239 C114.602400 557.104033 113.985823 569.997282 113.284529 582.885771 C112.655562 594.444975 111.944136 605.999663 111.296492 617.557890 C110.611617 629.780669 109.997359 642.007475 109.280501 654.228300 C108.670821 664.622221 107.936324 675.008574 107.297530 685.400786 C106.278120 701.985258 105.329451 718.574126 104.277754 735.156523 C103.692427 744.385649 103.048140 753.612700 102.259688 762.826201 C101.768660 768.564970 100.976363 774.278715 100.286116 779.999663 C99.847029 783.638823 101.509383 786.636503 104.874922 786.838408 C121.519576 787.836943 137.311751 792.346220 152.776228 798.067656 C161.283308 801.214995 169.468245 805.243193 177.755110 808.970610 C181.555953 810.680083 183.490828 809.577421 184.329268 805.472563 C187.181563 791.507719 190.016951 777.534941 193.208235 763.645537 C194.941512 756.101836 197.394637 748.724150 199.475264 741.258086 C199.623091 740.727568 199.376936 740.087187 199.313948 739.497832 C198.391402 739.739409 197.269576 739.724638 196.577498 740.262602 C190.781050 744.768095 183.476546 744.453154 178.928206 738.930937 C177.449690 737.135893 176.654890 734.436552 176.375716 732.053740 C175.149458 721.588774 178.298201 711.971098 182.981368 702.837553 C191.585677 686.056914 200.293257 669.327299 209.162032 652.685087 C212.379744 646.646879 216.790450 641.190459 219.551131 634.977446 C222.482344 628.380522 224.449629 621.288115 226.218977 614.256377 C229.798201 600.032378 232.631880 585.616728 236.374495 571.438872 C241.149703 553.349577 247.621077 535.803191 256.401167 519.259489 C260.421797 511.683745 265.030806 504.242461 270.506697 497.687346 C273.505110 494.098112 278.594038 491.591460 283.223128 490.179716 C290.644576 487.916472 296.597823 495.381804 299.192122 501.949492 C300.440596 505.110197 300.599043 508.696684 301.315108 512.076689 C301.456099 512.741850 301.890974 513.344755 302.190352 513.976347 C302.838423 513.529021 303.774825 513.229826 304.092024 512.612456 C310.867232 499.424528 317.520796 486.173918 324.313826 472.995207 C327.858748 466.118010 331.539778 459.307036 335.325667 452.559355 C337.479231 448.721159 341.692488 447.306425 344.949812 448.976347 C349.320174 451.216765 350.884016 455.906218 348.762801 460.964445 C347.631087 463.663176 346.066023 466.182463 344.974715 468.894682 C344.589583 469.851836 345.031599 471.141936 345.095931 472.280058 C346.038802 471.801482 347.202864 471.534086 347.891463 470.812895 C360.075545 458.050932 371.741072 444.753569 384.461531 432.555022 C399.040022 418.574553 414.542830 405.557951 429.645125 392.123808 C443.659895 379.657011 459.068343 369.104765 475.242171 359.718413 C479.838728 357.050871 485.179182 355.420561 490.379988 354.122343 C494.053694 353.205290 497.434554 354.318816 499.472762 358.494963 C501.547224 362.745329 500.029890 366.373137 497.561263 368.965605 C490.509139 376.371855 482.875594 383.224699 475.473860 390.298491 C474.871443 390.874113 474.302962 391.484892 473.702986 392.063017 C464.650618 400.785979 455.642683 409.555571 446.529646 418.214751 C435.188094 428.991240 423.640486 439.553129 412.395979 450.429167 C395.574324 466.699553 378.785872 483.010344 362.281477 499.600676 C352.192000 509.742766 342.436629 520.242155 332.967452 530.966276 C327.619246 537.023222 323.095808 543.817961 318.352156 550.389555 C317.591597 551.443144 317.576155 553.063933 317.400252 554.445891 C317.388167 554.540922 319.229964 555.282683 319.690718 554.966826 C330.742354 547.391203 341.615950 539.552580 352.737044 532.082182 C384.795149 510.547880 416.947371 489.153837 449.063216 467.705900 C484.181624 444.252836 519.261336 420.741789 554.442854 397.383879 C565.509993 390.036101 576.723860 382.886198 588.144881 376.108305 C591.533186 374.097441 592.104353 371.343352 591.133406 368.798308 C588.942488 363.056242 592.234847 359.758208 595.929060 357.102141 C599.828597 354.298491 603.451277 356.482390 606.421492 359.604948 C608.809432 362.115141 611.221297 362.344145 614.352400 360.531218 C619.694441 357.438444 625.398543 354.973601 630.762190 351.914824 C634.557723 349.750212 637.341902 351.163542 639.626326 353.916838 C642.155013 356.964567 642.248274 360.649809 639.290999 363.322600 C635.039046 367.165617 630.542220 370.875090 625.666853 373.850004 C621.335310 376.493071 620.151106 378.827055 623.055403 383.361479 C627.579207 390.424040 632.263899 397.505766 635.702010 405.111967 C640.574202 415.890349 646.763045 426.632353 645.122176 439.111052 C644.472884 444.048735 643.263289 450.243254 639.939070 453.209318 C633.854109 458.638640 636.254866 463.970366 637.467757 469.598723 C640.628279 484.263945 644.022566 498.878569 647.287093 513.521574 C650.621565 528.478239 654.064925 543.413115 657.175642 558.416533 C659.762312 570.892668 662.046126 583.435210 664.243147 595.986967 C665.255232 601.768950 666.883284 606.324492 673.003157 609.187163 C679.930281 612.427397 681.464095 619.917631 682.169905 626.777495 C683.527693 639.971953 681.940413 652.931670 678.585432 665.855498 C677.497054 670.048369 679.726668 675.158842 680.652571 679.806914 C682.796370 690.568877 685.054671 701.308134 687.296492 712.050322 C689.888655 724.472807 692.558943 736.879179 695.111067 749.309843 C697.888411 762.837309 700.609969 776.376738 703.268050 789.928129 C704.090559 794.121489 704.873640 798.350859 705.218855 802.600859 C705.530135 806.434233 703.957625 809.763579 700.294539 811.393339 C696.414534 813.119902 692.665877 811.973784 690.532698 808.550688 C687.105086 803.050200 683.706892 797.377470 681.420515 791.351103 C676.279402 777.799711 671.634383 764.049589 667.164290 750.258086 C664.202254 741.119170 661.911116 731.763579 659.263899 722.520903 C659.014754 721.651396 658.366805 720.896147 657.903914 720.087920 C657.033431 721.319609 655.479475 722.525297 655.431136 723.788481 C655.322249 726.633452 655.842390 729.526152 656.311507 732.365629 C659.274031 750.295805 662.398421 768.199736 665.257918 786.146025 C667.431868 799.789824 669.327986 813.478545 671.267806 827.158598 C671.764754 830.663847 672.043318 834.206816 672.270979 837.742216 C672.561385 842.249174 669.813582 844.920561 666.127791 846.550078 C662.703719 848.063994 659.472884 846.627959 657.708479 843.749907 C652.681014 835.549223 647.483870 827.365385 643.445784 818.667753 C638.785872 808.631010 635.307600 798.046904 631.278914 787.714995 C630.501448 785.720976 629.479109 785.993681 628.261214 787.481474 C623.464095 793.341826 618.594954 799.143217 613.784163 804.992338 C607.756087 812.321440 601.730940 819.653227 595.755110 827.025175 C585.949934 839.121001 575.986189 851.095610 566.458846 863.407255 C556.548689 876.213530 547.070906 889.354765 537.414290 902.356962 C523.973738 920.454497 510.266341 938.361845 497.175276 956.708891 C479.228743 981.861113 461.811263 1007.390288 444.046492 1032.673003 C437.034285 1042.652861 430.016463 1052.660429 422.389876 1062.164824 C417.764876 1067.928618 410.874373 1067.726103 405.481184 1062.575957 C403.527205 1060.710356 402.085066 1060.262236 400.244002 1062.503325 C396.964461 1066.495146 393.921370 1070.751005 390.206404 1074.295805 C386.435042 1077.894560 382.344588 1081.586455 377.695662 1083.706816 C373.766097 1085.499174 369.482283 1083.563017 366.540755 1079.772612 C363.548079 1075.916289 363.026961 1071.560087 365.304915 1067.631377 C370.629622 1058.448759 376.522566 1049.595854 382.155989 1040.591093 C382.843001 1039.493193 383.350081 1038.282744 383.940535 1037.124541 C382.737166 1037.075102 381.318587 1036.584868 380.366438 1037.049956 C375.322249 1039.512968 371.660262 1037.446928 368.537093 1033.682402 C365.456038 1029.968535 365.022322 1025.542876 367.357649 1021.581206 C370.709090 1015.895903 374.672957 1010.552397 378.635970 1005.258086 C379.859480 1003.623564 381.302473 1002.360258 378.819075 1001.059599 C367.185652 994.966093 355.608748 988.741606 343.766951 983.075835 C334.748335 978.760893 325.634200 974.252104 316.076216 971.550810 C301.948103 967.558134 287.370955 965.170195 273.018355 961.950102 C262.824934 959.663115 252.650618 957.270415 242.532820 954.671538 C230.503584 951.581572 218.701094 946.539458 206.514754 945.401640 C191.277144 943.978911 178.246443 936.792265 164.102156 932.710112 C143.376509 926.728422 122.813704 919.823271 102.837141 911.699370 C79.351424 902.148100 56.208723 891.504668 35.268172 876.910185 C23.089766 868.422392 11.330061 859.258696 3.854231 845.972441 C-1.626726 836.231474 -1.865861 822.423857 7.096358 813.816923 C12.466353 808.659819 18.536787 804.231962 24.292342 798.976347 M349.292342 935.476347 C358.812849 940.642973 368.455916 945.599516 377.811507 951.049345 C384.186873 954.763212 390.262557 955.596831 397.410140 953.097929 C412.134261 947.950468 425.948470 941.497832 436.816145 929.935332 C445.933455 920.235136 454.910994 910.402983 464.082015 900.754301 C467.161116 897.514921 470.465315 894.860380 475.738020 896.781767 C477.560164 897.445708 480.838484 896.560087 482.365462 895.180327 C490.678938 887.668974 498.990096 880.098540 506.650252 871.936674 C514.497176 863.575957 521.641951 854.550932 529.004378 845.741728 C538.717513 834.120024 548.278548 822.370756 558.029524 810.781157 C564.508406 803.080473 571.200179 795.558867 577.805769 787.964995 C588.996932 775.099394 599.947615 762.011626 611.508162 749.486845 C616.361067 744.229155 619.397444 738.942900 618.282088 731.739531 C618.017928 730.033598 617.278792 728.333525 617.346907 726.654570 C617.917586 712.594145 617.819197 698.439848 619.535140 684.512602 C621.038802 672.307768 624.103499 660.209257 627.516341 648.362822 C629.182478 642.578642 630.773421 636.997954 630.245345 631.045927 C629.423201 621.778105 628.290266 612.537993 627.293196 603.285551 C626.622542 597.062529 626.266219 590.786772 625.227889 584.625883 C623.109602 572.056792 620.409895 559.584379 618.359969 547.005278 C616.693587 536.779021 615.644026 526.452788 614.287703 516.175261 C612.640852 503.696928 610.796248 491.241545 609.390852 478.736418 C608.966170 474.957304 607.526350 474.731657 604.351424 475.345732 C588.894515 478.335234 573.420149 481.248869 557.904402 483.912321 C551.747786 484.969206 545.461043 485.249296 539.246199 485.989775 C528.459944 487.274931 517.680037 488.614897 506.904280 489.985991 C499.160140 490.971281 491.361922 491.700896 483.704329 493.157683 C471.406233 495.497343 459.206648 498.353300 446.961165 500.970915 C443.127181 501.790495 438.631209 501.531889 435.548445 503.503203 C420.854353 512.899016 406.613142 522.998808 392.078963 532.649687 C368.699690 548.173979 345.243391 563.582365 321.760054 578.948759 C315.718855 582.901762 308.611494 585.229765 307.384261 594.218779 C305.530623 607.795073 302.317610 621.184721 300.423506 634.757109 C299.079756 644.386015 298.993086 654.188139 298.284102 663.908476 C297.317366 677.162749 296.386397 690.420683 295.261458 703.662016 C294.417647 713.593779 293.380232 723.511748 292.271346 733.418120 C290.687178 747.569609 289.197188 761.738432 287.226485 775.838286 C285.189497 790.412504 283.148848 805.023588 280.108748 819.407011 C278.073897 829.034575 274.823592 838.511259 271.075911 847.627470 C269.101119 852.431181 265.107527 856.781889 258.664290 855.940459 C253.373457 855.249663 249.207259 852.387358 248.136641 847.133818 C247.115218 842.122465 247.306319 836.851958 247.107893 831.689848 C247.006758 829.059721 247.356551 826.408964 247.195296 823.786406 C247.155867 823.144804 245.909407 822.577666 245.217879 821.976347 C244.909346 822.598784 244.477461 823.190336 244.313643 823.848784 C243.597456 826.726836 242.594222 829.595122 242.360091 832.520048 C241.625777 841.691923 238.602278 851.255400 248.688338 858.156523 C252.951765 861.073881 254.125716 868.814604 250.171919 873.682524 C248.272871 876.020537 248.801558 877.821318 251.891524 879.214628 C255.415022 880.803618 258.629561 883.090727 261.941023 885.134795 C276.808028 894.312773 291.448348 903.882963 306.583113 912.594755 C320.376814 920.534819 334.701582 927.552275 349.292342 935.476347 M552.292342 426.476347 C536.958968 437.309721 521.662459 448.195708 506.271223 458.946074 C501.275618 462.435393 496.010970 465.538115 490.930891 468.910246 C490.350935 469.295256 490.169051 470.279997 489.802718 470.986662 C490.489241 471.293242 491.221053 471.940520 491.855452 471.855986 C503.675642 470.281340 515.457015 468.376066 527.303084 467.045195 C539.012068 465.729826 550.846175 465.433684 562.512434 463.856169 C575.939803 462.040434 589.269881 459.446135 602.581648 456.876250 C605.736189 456.267302 607.563948 453.629912 607.279402 450.124785 C607.006209 446.760283 606.119490 443.364714 606.379744 440.051726 C607.518172 425.563078 605.244002 411.616545 600.220686 398.086027 C599.407088 395.894560 597.992537 393.451628 594.798445 395.923064 C591.298567 398.630888 587.649519 401.147124 584.045149 403.718230 C573.633040 411.145232 563.210677 418.557951 552.292342 426.476347 M93.292342 884.476347 C101.663802 887.976347 109.952681 891.692534 118.423933 894.931425 C136.246626 901.745878 154.177962 908.275664 172.029829 915.014799 C174.556014 915.968291 175.516890 915.337187 175.277205 912.768950 C175.009932 909.904570 174.079939 906.990752 174.388533 904.203642 C175.607100 893.199858 169.452254 886.392973 161.419966 880.678740 C157.105025 877.609160 152.504866 874.932524 147.974776 872.174956 C131.893477 862.385527 115.817732 852.586088 99.670515 842.906157 C94.990096 840.100371 94.596541 840.406889 93.292342 845.744047 C92.126265 850.516142 88.059432 854.701079 84.234663 854.967314 C78.648726 855.356108 75.556319 852.095244 74.190596 847.268706 C72.871077 842.605131 72.222395 837.751005 71.296553 832.977080 C70.936934 831.122832 70.728072 829.232085 70.247603 827.411528 C70.019331 826.546416 69.315169 825.807036 68.826521 825.010649 C68.315108 825.774687 67.514510 826.480009 67.345137 827.313505 C66.778182 830.104155 66.707198 833.014921 65.959273 835.746245 C63.507613 844.699492 60.782576 853.578154 58.340743 862.533964 C58.071639 863.520903 58.597701 865.461699 59.353133 865.880156 C70.439925 872.019926 81.628157 877.976347 93.292342 884.476347 M205.292281 183.476286 C206.822981 181.612273 208.327864 179.726347 209.888960 177.888151 C215.644637 171.110991 221.502852 164.418974 227.166975 157.566374 C236.066756 146.799345 244.801314 135.895781 253.680525 125.111540 C260.442610 116.898772 267.566695 108.972380 274.087386 100.575102 C283.035078 89.052275 291.580061 77.215971 300.265059 65.489897 C303.652937 60.915770 307.014082 56.318602 310.238448 51.629423 C310.855330 50.732237 310.774641 49.355376 311.015791 48.199827 C310.094161 48.639159 309.013960 48.897948 308.275862 49.546232 C302.033308 55.028624 295.544295 60.277708 289.725386 66.184111 C280.513411 75.534575 271.544722 85.148222 262.887984 95.014555 C256.353133 102.462431 250.324751 110.371611 244.327620 118.270293 C236.471480 128.617583 228.538802 138.932585 221.230452 149.664152 C209.420577 167.005827 198.059676 184.654387 186.632552 202.253386 C185.830733 203.488310 186.044844 205.382780 185.786543 206.970549 C187.061385 206.032988 188.401534 205.169768 189.586043 204.129423 C190.282576 203.517668 190.722090 202.616911 191.293929 201.858794 C195.791060 195.896208 200.292342 189.936796 205.292281 183.476286 M285.792342 918.976347 C271.283308 906.856474 253.927351 899.447050 237.735274 890.122343 C236.616499 889.478178 233.772200 890.094755 232.869246 891.124052 C229.660140 894.781889 231.134078 903.036772 235.520552 905.620756 C250.637740 914.525542 265.860030 923.253081 281.091780 931.961455 C292.264571 938.349394 303.448348 944.724760 314.767134 950.847075 C318.671065 952.958647 322.952803 954.417998 327.164534 955.879668 C328.140120 956.218291 329.535872 955.345610 330.738265 955.030302 C330.400679 954.323393 330.247542 953.386381 329.696944 952.944975 C323.834700 948.243559 317.898482 943.634550 312.004134 938.972929 C303.590804 932.319243 295.195357 925.642973 285.792342 918.976347 M69.292342 652.476347 C69.625655 645.290678 70.493819 638.078154 70.135481 630.927153 C69.805464 624.341704 68.060469 617.836088 67.108504 611.270659 C64.784163 595.239897 62.389510 579.215849 60.391036 563.143339 C59.759200 558.061980 60.398543 552.831511 60.194441 547.679716 C60.157759 546.752592 58.843062 545.876189 58.118391 544.976347 C57.843001 545.797331 57.527937 546.607512 57.301436 547.441740 C56.934554 548.792631 56.448348 550.142729 56.319624 551.521757 C54.942488 566.278715 53.573225 581.036772 52.311812 595.803984 C51.539961 604.839873 51.042586 613.899443 50.262618 622.934599 C49.753706 628.830595 48.977828 634.704375 48.285750 640.583891 C47.822371 644.520170 48.769148 647.458159 52.854659 649.172636 C55.267622 650.185332 57.757124 651.755888 59.375777 653.753203 C62.007124 657.000395 63.917830 660.825835 66.210371 664.356840 C66.837203 665.322417 67.741072 666.108061 68.517744 666.976347 C68.775984 665.971831 69.230147 664.972319 69.256819 663.961699 C69.349043 660.468657 69.292342 656.971831 69.292342 652.476347 M84.292342 767.476347 C84.292342 770.973784 84.122176 774.482573 84.352156 777.964873 C84.505721 780.289824 85.228926 782.577055 85.697310 784.881254 C86.562300 782.471709 87.972151 780.112700 88.201094 777.644194 C89.396712 764.752959 90.307356 751.834990 91.288191 738.924223 C92.306807 725.516753 93.386824 712.112944 94.264449 698.695952 C95.062788 686.490019 95.613753 674.267729 96.312972 662.055083 C96.375044 660.970122 96.873640 659.907744 96.917036 658.824858 C97.095320 654.378813 97.175887 649.928984 97.292342 645.480498 C94.612654 646.312407 91.751570 646.802641 89.316512 648.095366 C87.665450 648.971831 85.542769 650.919951 85.461897 652.483549 C84.823409 664.820586 84.409285 677.178984 84.337386 689.533232 C84.188094 715.180205 84.292342 740.828520 84.292342 767.476347 M56.292281 674.476347 C54.646895 671.497587 53.073714 668.474882 51.305281 665.570952 C50.862105 664.843169 49.791304 664.497587 49.008894 663.976347 C48.436690 664.861723 47.475691 665.699248 47.359786 666.640776 C46.867537 670.642607 46.369490 674.673369 46.338118 678.697050 C46.222701 693.503935 46.271101 708.312407 46.327376 723.119902 C46.332625 724.507353 46.521223 726.052519 47.145735 727.253447 C50.923140 734.517607 54.808028 741.727202 58.767195 748.894194 C59.571883 750.350493 60.847334 751.546782 61.905684 752.862944 C62.367903 751.224150 63.280318 749.569365 63.222395 747.949126 C62.673140 732.581450 62.398848 717.183012 61.123640 701.870146 C60.384993 692.999663 57.958968 684.269560 56.292281 674.476347 M145.792342 810.976347 C138.251753 809.102324 130.735274 807.122221 123.161238 805.394804 C118.716231 804.380888 114.192061 803.678984 109.673811 803.049956 C108.736494 802.919462 107.668013 803.731230 106.660017 804.108671 C107.002974 804.696806 107.204573 805.484892 107.710555 805.842314 C113.490645 809.924956 118.972701 814.603911 125.199995 817.844145 C140.080428 825.586577 155.324690 832.628813 170.407942 839.982573 C177.243514 843.315459 177.685835 843.158964 179.292342 836.336088 C181.268416 827.943999 179.908919 824.560698 171.759200 821.069609 C163.429060 817.501128 154.793929 814.644682 145.792342 810.976347 M208.792281 225.976286 C204.316634 231.118681 199.911910 236.324919 195.351790 241.391264 C182.671797 255.478850 169.909834 269.492583 157.250349 283.598295 C156.472823 284.464628 156.302290 285.875700 155.849287 287.033293 C157.124678 286.719939 158.718733 286.785490 159.620100 286.027434 C163.498030 282.765837 167.119246 279.201445 170.935591 275.863554 C175.190840 272.141814 180.036177 268.977568 183.781722 264.812651 C194.174422 253.256316 204.066267 241.251311 214.277266 229.529265 C222.302901 220.315825 230.543257 211.289885 238.627058 202.126677 C250.670271 188.475127 262.644637 174.762785 274.681258 161.105376 C278.033797 157.301420 281.563887 153.652434 284.861556 149.803068 C285.464217 149.099638 285.337508 147.771330 285.547530 146.731535 C284.723128 147.052519 283.727766 147.178496 283.102461 147.726591 C279.414473 150.958952 275.650557 154.130034 272.215132 157.619963 C264.921248 165.029326 257.779219 172.589506 250.637495 180.146941 C240.241988 191.147612 229.844527 202.147429 219.568770 213.259428 C215.959822 217.162077 212.707503 221.394499 208.792281 225.976286 M239.292342 786.476347 C239.292342 785.310576 239.128096 784.116972 239.318953 782.983427 C240.601302 775.367094 242.078658 767.782133 243.261946 760.151152 C244.722640 750.731474 245.967879 741.278105 247.289656 731.837065 C248.634322 722.232695 249.978377 712.628081 251.286177 703.018584 C252.317061 695.443632 253.546553 687.883452 254.220320 680.275420 C254.883772 672.782378 254.993758 665.238310 255.222151 657.712920 C255.239241 657.149443 254.257796 656.555937 253.740523 655.976347 C253.257796 656.423979 252.452559 656.804838 252.344099 657.329741 C251.579878 661.030180 250.869429 664.746733 250.310042 668.483427 C248.922957 677.748320 247.745955 687.045927 246.261885 696.294707 C244.387495 707.976103 242.180586 719.604521 240.332015 731.289702 C239.112532 738.998076 238.330489 746.774565 237.245467 754.505522 C235.988997 763.459135 234.597640 772.393584 233.297896 781.341215 C232.270003 788.416655 231.145491 795.482939 230.341536 802.584746 C229.757063 807.747221 229.544051 812.958159 229.369307 818.154326 C229.338667 819.065581 230.316512 820.010649 230.828536 820.940092 C231.316451 820.142973 232.041121 819.403105 232.250166 818.538603 C233.023116 815.343413 233.571272 812.094389 234.303267 808.888457 C235.934493 801.743803 237.625594 794.612822 239.292342 786.476347 M256.292342 581.476347 C261.089522 571.856657 264.965987 561.663908 272.870955 553.940214 C276.468550 550.425017 280.704573 547.486662 283.906538 543.663176 C287.580794 539.275664 292.487105 535.186857 291.301863 528.311674 C290.256880 522.249419 289.396040 516.153105 288.216536 510.118193 C287.936140 508.683623 286.827742 506.447417 285.887557 506.333403 C284.509016 506.166228 282.417281 507.198149 281.548079 508.389372 C278.893721 512.026823 275.974959 515.719328 274.411787 519.863066 C266.814375 540.002409 259.588179 560.282622 252.385237 580.567900 C251.949690 581.794340 252.851912 583.495878 253.131697 584.976347 C254.018599 583.976347 254.905440 582.976347 256.292342 581.476347 M94.292342 534.476347 C94.959029 523.030974 95.690718 511.588835 96.271101 500.139067 C96.711470 491.450957 96.960738 482.753203 97.289107 474.059477 C97.314192 473.393889 97.509871 472.616423 97.241316 472.085783 C96.839522 471.291838 96.095992 470.670927 95.497847 469.976347 C95.095992 470.671904 94.377364 471.354155 94.347334 472.065459 C94.218489 475.116545 94.573714 478.207670 94.236739 481.226530 C93.406599 488.663115 91.891402 496.040312 91.378645 503.491423 C90.412764 517.525236 89.986494 531.595671 89.284041 545.648222 C88.656416 558.204863 87.763655 570.751616 87.355330 583.314726 C87.039656 593.026396 87.272932 602.756621 87.326765 612.478178 C87.331404 613.312285 87.821883 614.143706 88.086592 614.976347 C88.744612 614.220244 89.619429 613.557890 89.998457 612.681181 C90.363142 611.837675 90.225264 610.773100 90.290816 609.804472 C90.960005 599.916167 91.747664 590.033964 92.263838 580.137602 C93.040083 565.255705 93.625716 550.363920 94.292342 534.476347 M263.792342 622.976347 C259.856856 629.346831 257.794112 635.593413 262.084395 642.985991 C263.699995 645.769682 262.892928 649.929472 263.338667 653.443022 C263.450606 654.324858 264.135481 655.133818 264.556990 655.976347 C265.135420 655.290678 266.042647 654.683745 266.229414 653.904326 C266.744795 651.753203 266.954512 649.529082 267.293196 647.335112 C268.501753 639.504545 269.625655 631.659453 270.953536 623.849272 C271.926985 618.123442 273.263045 612.458891 274.214888 606.730131 C274.408675 605.563628 273.608687 604.231840 273.266829 602.976225 C272.608626 603.943999 271.779707 604.837553 271.320967 605.892119 C268.926314 611.397612 266.625716 616.944121 263.792342 622.976347 M208.292342 789.476347 C208.959029 783.106962 209.679366 776.741972 210.220747 770.361967 C210.284590 769.609526 209.365584 768.773588 208.902266 767.976347 C208.365645 768.700346 207.781477 769.394804 207.306929 770.157378 C206.903182 770.806181 206.451338 771.501738 206.318282 772.230986 C203.949263 785.213652 201.597090 798.199614 199.308760 811.196806 C198.566267 815.413603 197.861922 819.496123 202.287337 822.659453 C204.503706 824.243559 205.053267 823.508452 205.250533 821.626616 C206.337935 811.250883 207.292342 800.861235 208.292342 789.476347 M23.792342 824.976347 C21.430159 828.217070 20.205000 832.125761 22.448286 835.392729 C25.904219 840.425444 30.280013 844.829741 34.328474 849.445586 C34.624190 849.782744 35.622359 849.943144 35.949690 849.707426 C36.410323 849.375883 36.861678 848.547392 36.777754 848.016508 C35.671187 841.012114 34.504012 834.016875 33.274825 827.032744 C32.811568 824.400542 32.149764 821.803374 31.578536 819.190214 C29.149764 820.952177 26.721053 822.714262 23.792342 824.976347 M110.792342 420.976347 C110.323286 420.173979 109.827193 419.385893 109.392744 418.565153 C108.944624 417.718779 108.556624 416.840605 108.142317 415.976347 C107.858992 416.953459 107.339400 417.928252 107.330061 418.907988 C107.260725 426.216337 107.292342 433.525725 107.292342 440.834746 C107.292342 446.372587 107.292342 451.910429 107.292342 457.448271 C107.292342 461.657194 107.388167 465.869047 107.262129 470.074187 C107.160506 473.463164 106.787215 476.843901 106.541853 480.228789 C106.448103 481.522734 106.157820 482.853361 106.360640 484.101713 C106.524458 485.110136 107.293990 486.020170 107.794844 486.973845 C108.293990 486.017790 109.130965 485.096770 109.234358 484.099699 C109.700545 479.600310 110.113509 475.084563 110.262862 470.565336 C110.680891 457.915434 110.980635 445.261320 111.278914 432.607817 C111.366316 428.899321 111.292342 425.186919 110.792342 420.976347 M643.292342 769.476347 C644.803694 775.321074 646.238265 781.188017 647.912459 786.985747 C648.153182 787.819975 649.547835 788.321074 650.408431 788.976347 C650.703108 788.011992 651.385725 786.980986 651.233260 786.093291 C649.323103 774.960234 647.367781 763.833281 645.222273 752.743803 C644.840804 750.772490 643.541243 748.978667 642.665755 747.102934 C641.874617 749.263945 640.300520 751.479765 640.447005 753.575224 C640.807845 758.738432 641.958968 763.846220 643.292342 769.476347 M48.792342 788.976347 C52.264204 788.837797 55.738692 788.729643 59.196639 788.430571 C59.313521 788.420561 59.685713 786.221098 59.224715 785.496245 C55.962386 780.366728 52.559309 775.323271 49.038313 770.368193 C48.747115 769.958525 47.251631 770.404570 46.315718 770.452910 C47.104353 776.446440 44.354536 782.828154 48.792342 788.976347 M202.292342 851.476347 C202.625716 848.636748 203.266585 845.791899 203.216597 842.959013 C203.150008 839.188505 200.521223 836.287260 197.212325 836.244536 C194.178816 836.205473 194.054427 839.744170 194.284041 842.458403 C194.339644 843.115385 194.422530 843.812285 194.272139 844.437895 C192.920943 850.059355 194.089034 852.772856 198.876265 854.976469 C201.513594 856.190336 202.574507 855.251128 202.292342 851.476347 M646.292342 596.476347 C646.959090 599.693022 647.515242 602.938994 648.354598 606.109892 C648.633650 607.164213 649.639510 608.026396 650.313094 608.976347 C650.639510 607.874541 651.389510 606.702788 651.220808 605.682890 C650.376936 600.582426 649.365462 595.506254 648.276350 590.450835 C646.337386 581.452177 644.319685 572.470183 642.274153 563.494963 C642.071761 562.606535 641.450179 561.813628 641.023177 560.976347 C640.779524 561.994597 640.175765 563.078459 640.347395 564.021086 C642.259993 574.518706 644.292220 584.994658 646.292342 596.476347 M127.792342 306.976347 C125.636580 307.798796 123.173079 308.207304 121.391036 309.532439 C118.005598 312.049834 114.962019 315.040251 111.868086 317.932219 C109.437849 320.203886 107.058272 322.545439 104.846053 325.025297 C104.199568 325.749907 104.204024 327.055083 103.910201 328.094206 C105.067000 327.858855 106.264571 327.736906 107.363631 327.341276 C107.930342 327.137297 108.273970 326.383086 108.800032 325.985564 C115.514449 320.912321 122.293074 315.920927 128.883528 310.692168 C129.468001 310.228483 128.851180 308.250822 127.792342 306.976347 M48.292342 819.476347 C48.625716 826.001738 48.903914 832.531035 49.351057 839.048613 C49.419173 840.041045 50.270369 840.979765 50.759322 841.943266 C51.270308 841.010893 52.083052 840.126616 52.241255 839.137846 C53.020247 834.267729 53.614607 829.368315 54.297591 824.482573 C54.580550 822.458037 55.717268 820.098051 55.030806 818.511259 C54.224410 816.647368 51.858199 815.458159 50.168440 813.976347 C49.543074 815.476347 48.917708 816.976347 48.292342 819.476347 M634.292342 709.476347 C634.292342 712.630400 634.019270 715.817778 634.399886 718.925200 C634.611800 720.654936 635.912947 722.251128 636.723250 723.907378 C637.579573 722.316069 639.231429 720.688017 639.159773 719.139555 C638.772810 710.770781 638.013289 702.416533 637.201277 694.074858 C637.126936 693.311674 635.775618 692.672880 635.017317 691.976347 C634.775618 692.828398 634.337630 693.677397 634.325057 694.532866 C634.256209 699.179838 634.292342 703.828398 634.292342 709.476347 M204.292342 924.476347 C202.579146 917.502348 196.657332 914.166655 191.700179 910.019560 C191.318160 909.699858 190.422286 909.994414 189.765242 910.003447 C189.798384 910.685087 189.829756 911.366972 189.864790 912.048491 C190.317854 920.870878 195.970564 924.092192 204.292342 924.476347 M190.292342 875.476347 C192.496932 877.680937 194.588484 880.023833 196.990157 881.987456 C197.550398 882.445463 199.163619 881.615629 200.292342 881.378325 C199.575057 878.693754 199.636641 875.227202 197.934370 873.531401 C196.004622 871.609038 192.412459 870.713530 190.292342 875.476347 M357.292342 954.476347 C354.662093 952.846098 352.101668 951.080473 349.360579 949.664580 C348.491805 949.215849 347.140974 949.700468 346.010725 949.757963 C346.349837 950.576079 346.456892 951.709746 347.067366 952.158842 C350.078963 954.373930 353.095198 956.654936 356.392195 958.369658 C357.526228 958.959502 359.478499 957.976225 361.056990 957.711699 C359.968733 956.799956 358.880598 955.888090 357.292342 954.476347 M659.292342 643.476347 C658.292342 639.743071 657.311629 636.004423 656.277083 632.280791 C656.055891 631.484770 655.639632 630.743071 655.313460 629.976347 C654.973128 630.894926 654.218123 631.885283 654.362410 632.720000 C655.079573 636.865141 655.971053 640.984404 656.947737 645.077788 C657.194197 646.110014 657.979964 647.013579 658.517806 647.976347 C658.775984 646.809721 659.034163 645.642973 659.292342 643.476347 M384.292342 984.476347 C381.401350 987.426176 385.431624 987.784697 386.245467 989.261381 C386.657088 990.008330 388.613631 990.762846 389.148421 990.411772 C390.424910 989.573881 391.271956 988.081816 392.292342 986.853911 C391.139754 986.228056 390.036238 985.473540 388.821394 985.011381 C387.533431 984.521635 386.139754 984.309599 384.292342 984.476347 M150.792281 298.976347 C150.496260 300.013640 150.200240 301.050932 149.904280 302.088286 C150.961409 301.623198 152.377119 301.437834 153.002730 300.636076 C154.403243 298.840910 155.410506 296.738982 156.578047 294.761992 C154.816145 296.000090 153.054244 297.238188 150.792281 298.976347 z"/></svg>