<?xml version="1.0" encoding="utf-8"?><!DOCTYPE svg PUBLIC "-//W3C//DTD SVG 1.1//EN" "http://www.w3.org/Graphics/SVG/1.1/DTD/svg11.dtd"><svg version="1.1" id="Contours" xmlns="http://www.w3.org/2000/svg" xmlns:xlink="http://www.w3.org/1999/xlink" x="0px" y="0px" width="695.008240px" height="695.008240px" viewBox="0.000024 0.000010 695.008240 1072.583374" enable-background="new 0 0 695.008240 695.008240" xml:space="preserve" stroke="black" fill="none" stroke-linecap='round' stroke-linejoin='round'><path class="selected"  fill="#000000" opacity="1.000000" stroke="none" 
 	d="
M588.248572 736.521596 C582.325110 740.778554 576.430335 744.515249 571.069739 748.904287 C568.326941 751.150014 565.984534 754.292592 564.422156 757.498159 C559.090857 768.437124 554.257972 779.617421 549.103431 790.644155 C539.115638 812.009633 529.160193 833.391469 518.965125 854.658193 C508.295569 876.914785 497.361731 899.044545 486.540931 921.228627 C478.695594 937.312246 471.006385 953.474599 462.942176 969.447866 C457.572547 980.083730 451.338660 990.287221 446.069495 1000.969228 C436.408851 1020.553457 425.372840 1039.317617 412.858680 1057.166127 C409.367225 1062.145742 404.784461 1066.931020 399.640296 1070.058706 C389.768958 1076.060537 381.158973 1070.627309 379.019690 1061.473256 C378.048011 1057.314931 376.713538 1055.619252 371.819617 1057.671376 C366.272010 1059.997548 360.499549 1057.461049 355.422156 1055.024160 C348.861976 1051.875600 342.750281 1047.803823 336.330848 1044.342031 C334.915809 1043.578847 332.429114 1042.866811 331.442908 1043.561269 C325.380042 1047.830190 320.364783 1044.114980 315.765296 1041.336904 C305.705359 1035.260854 296.114417 1028.413076 286.201148 1022.085195 C284.042334 1020.707143 281.382361 1019.573354 278.873389 1019.383779 C270.533973 1018.753774 262.156958 1018.634511 253.796729 1018.265004 C239.238685 1017.621816 224.679053 1017.003896 210.126563 1016.249868 C199.397132 1015.693959 188.675452 1014.976796 177.954932 1014.262075 C163.533545 1013.300405 149.098060 1012.479970 134.703528 1011.205068 C123.393226 1010.203237 112.117103 1008.740834 100.865210 1007.196279 C97.047461 1006.672109 93.188575 1005.658193 89.638343 1004.174550 C85.128821 1002.289907 82.248816 998.571035 82.073584 993.560781 C81.894996 988.455556 84.722632 984.306020 89.086158 982.439687 C95.308204 979.778554 101.938331 977.906850 108.548682 976.356923 C118.476478 974.028920 128.503516 972.070668 138.554175 970.336782 C146.250037 969.009145 154.066321 968.396352 161.795325 967.240224 C171.650489 965.766225 181.462989 964.008901 191.311011 962.484487 C196.822730 961.631337 202.371070 961.016103 207.898108 960.258901 C208.943091 960.115590 209.965674 959.808828 210.998572 959.577504 C210.481421 958.458364 210.199256 957.125966 209.408606 956.255117 C204.654395 951.019521 199.523780 946.106435 195.001441 940.683217 C182.539710 925.739003 169.472815 911.195302 158.230079 895.367543 C146.415320 878.734487 136.271460 860.895986 125.781409 843.354604 C123.379920 839.338735 123.077063 834.103017 120.860938 829.931997 C118.290625 825.094228 114.967627 820.569692 111.458411 816.334096 C101.958655 804.868032 92.054297 793.734975 82.664466 782.181997 C81.227210 780.413686 80.799964 776.814443 81.559852 774.640249 C82.032508 773.288076 85.833472 772.037465 87.764930 772.459707 C93.169654 773.641469 98.405738 775.641591 103.640296 777.509511 C104.549292 777.833852 105.126380 779.088491 105.856727 779.913442 C104.710914 780.366201 103.492347 781.321279 102.434302 781.168081 C100.161597 780.838857 98.005652 779.712758 95.733008 779.370107 C94.657203 779.207998 93.423072 780.096914 92.260657 780.509511 C93.008521 781.098745 93.853797 781.598745 94.488501 782.291616 C98.683814 786.871816 102.870337 791.461171 106.990088 796.109243 C113.463416 803.412709 119.833106 810.809194 126.384986 818.041005 C127.212623 818.954458 128.875831 819.111074 130.151954 819.618276 C129.891456 818.126699 130.049537 816.361806 129.289039 815.196523 C127.290503 812.133779 124.592872 809.510976 122.721167 806.385244 C119.705054 801.348256 120.794349 796.366201 125.000892 793.769277 C128.051246 791.886098 134.480811 793.566762 137.237830 797.020864 C141.031470 801.774160 145.040686 806.381582 148.505896 811.365468 C156.721900 823.182363 166.435340 832.934560 179.166480 840.317495 C195.558326 849.823110 211.215613 860.679555 226.690467 871.657338 C240.211097 881.248769 253.008948 891.855947 266.186011 901.936025 C277.053260 910.249257 287.953040 918.523916 299.022620 926.562001 C299.972754 927.252065 303.042701 926.640493 303.887061 925.613393 C314.678260 912.485830 325.000892 898.968740 335.930945 885.960683 C347.539954 872.144521 359.562781 858.669790 371.609290 845.229116 C380.381873 835.441152 389.015662 825.452871 398.547889 816.438222 C414.800330 801.068471 431.116858 785.659047 448.500037 771.620351 C468.360267 755.581167 489.115027 740.590688 510.067908 725.986440 C521.964270 717.694692 534.653235 710.340078 548.749549 706.019399 C555.086341 704.077016 561.382605 702.890737 567.343299 707.122182 C572.331580 710.663442 575.151770 705.473378 578.561072 703.927358 C585.877967 700.609243 592.553504 695.898305 599.798133 692.391225 C604.235389 690.243398 609.118811 690.056264 613.225379 693.956289 C614.125525 694.811147 615.216468 695.784780 616.346473 695.984365 C617.389075 696.168325 618.602210 695.386342 619.740271 695.029897 C619.155188 694.110463 618.772742 692.676015 617.952918 692.353505 C611.644812 689.871206 605.254065 687.598256 598.882728 685.277700 C597.722327 684.855092 596.448157 684.671499 595.372962 684.101430 C591.702918 682.155751 588.943885 680.989003 586.686805 686.478627 C585.731727 688.801748 581.472571 690.742055 578.506263 691.093496 C565.874915 692.590200 553.646521 689.045766 541.654700 686.048940 C522.295081 681.210927 503.100135 675.511586 484.192908 669.119375 C462.893103 661.918203 441.983436 653.561513 420.914466 645.679555 C409.659827 641.469228 398.499427 636.992543 387.152137 633.051625 C382.020057 631.269399 376.578284 629.901601 371.194129 629.522451 C368.478309 629.331167 365.439856 631.524526 362.785315 633.053090 C353.410682 638.451162 344.044349 643.376455 332.588538 642.370717 C325.583655 641.755849 318.198401 634.806997 317.969031 627.806508 C317.746497 621.012197 318.177649 614.444570 321.330726 608.170156 C321.844397 607.148183 320.428016 604.037221 319.156287 603.411977 C307.817359 597.837636 296.141517 592.933706 284.912146 587.157094 C277.306189 583.244375 269.843787 578.784780 263.082679 573.576040 C256.858497 568.780874 256.369300 556.689565 265.993506 552.985952 C273.631385 550.046865 281.677588 547.792409 289.744605 546.439992 C299.879737 544.740773 310.230750 544.360585 320.469642 543.237844 C326.452796 542.581777 330.569861 534.075002 327.732703 528.514394 C321.481727 516.263234 325.135169 504.347219 337.388465 498.532705 C342.650550 496.035695 348.334266 493.559072 354.018226 492.990468 C368.186683 491.573232 378.768348 483.768911 389.356971 475.496938 C393.052771 472.609609 397.758460 470.837392 400.972205 467.548696 C407.041907 461.337331 412.571692 454.558767 417.951209 447.721181 C426.615027 436.708791 434.858924 425.366445 443.496741 414.332998 C451.708533 403.843923 460.113440 393.502431 468.598426 383.232412 C473.364173 377.464101 478.366736 371.882253 483.435462 366.375356 C492.789222 356.212575 502.415198 346.295400 511.579993 335.967214 C513.493201 333.811086 514.131995 330.381887 514.955359 327.427236 C517.564612 318.062307 516.740271 309.974233 510.328528 301.420278 C502.878333 291.481069 497.429847 279.906179 492.022742 268.605703 C485.514197 255.003408 479.933997 240.955373 474.014808 227.073415 C472.002601 222.354360 468.680701 219.397084 463.964026 217.166311 C447.066199 209.174550 431.388221 199.100209 416.785560 187.458120 C407.553260 180.097524 398.827796 172.104055 389.713782 164.589956 C387.092688 162.428884 383.994544 159.661489 381.418860 165.206289 C380.368201 167.467885 378.315223 169.310537 376.547522 171.182485 C373.110022 174.822805 372.952063 177.457265 376.389441 181.141469 C386.493811 191.971792 396.720496 202.689443 406.710486 213.623708 C408.304847 215.368764 409.306678 217.902150 409.924353 220.244619 C411.503577 226.233754 403.793616 231.850332 398.022010 227.793264 C396.858680 226.975515 395.578406 226.275441 394.565833 225.299367 C383.594886 214.725148 372.619300 204.154958 361.758948 193.467702 C358.877723 190.632436 356.706946 190.535695 353.419959 193.206167 C335.200599 208.007741 315.601722 220.862844 295.081336 232.176015 C271.518958 245.166250 247.728614 257.771352 223.718604 269.913503 C196.891089 283.480581 169.488440 295.877248 140.848548 305.193227 C124.217933 310.602895 107.535560 316.173757 90.482642 319.839772 C80.873816 321.905446 70.305823 321.363088 60.462561 319.952749 C50.971717 318.593007 46.595618 310.606618 47.041541 303.127858 C47.132361 301.604238 47.715125 300.094533 48.185340 298.614736 C48.459937 297.750234 48.960669 296.957631 49.359656 296.132680 C48.221595 296.030080 46.959144 295.554006 45.965552 295.885061 C39.236792 298.126577 32.724036 301.488027 25.832373 302.643544 C18.064795 303.945729 9.519385 305.543874 3.202247 298.004201 C0.067969 294.263295 -0.966882 287.043996 1.003333 282.740224 C6.534827 270.657338 16.523658 262.547719 26.318091 254.297109 C33.690223 248.087087 41.166968 241.992543 48.763404 236.059499 C58.425757 228.512807 68.036475 220.868276 78.065040 213.829458 C93.239417 203.179067 108.557959 192.705922 124.183082 182.733876 C138.872596 173.359060 153.866431 164.425222 169.049415 155.870656 C181.424109 148.898183 194.001441 142.150441 206.982947 136.422658 C224.864905 128.532583 243.213111 121.699392 261.357581 114.403554 C262.257178 114.041799 263.119056 113.586354 263.998572 113.174550 C263.386451 112.094777 263.029578 110.679067 262.121314 109.989003 C255.555640 105.000844 248.869544 100.171437 242.238318 95.269155 C228.456153 85.080495 214.668128 74.899709 200.923926 64.660024 C198.593665 62.923940 196.294898 61.078115 194.290503 58.986928 C190.879676 55.428396 190.001319 49.997915 191.998511 46.786123 C194.423804 42.886220 200.168555 40.683828 204.895545 42.805349 C215.023230 47.350820 225.058326 52.149953 234.873572 57.333364 C250.211463 65.433339 265.381202 73.856252 280.529944 82.307668 C287.633948 86.270986 288.076575 86.422963 293.573951 80.136342 C295.655738 77.755727 296.985816 74.594716 299.347205 72.607961 C303.754615 68.899953 301.936133 65.662709 299.427039 62.207448 C289.655982 48.751760 279.712867 35.416585 270.194922 21.784475 C267.778418 18.323415 265.911719 14.073934 265.160987 9.938253 C263.579566 1.226400 272.444251 -2.154277 278.456519 1.386159 C286.693885 6.236928 295.056373 11.187886 302.296546 17.351369 C315.652869 28.721425 328.250769 40.984304 341.116248 52.927236 C343.311194 54.964711 345.267493 55.398244 348.056678 53.804433 C358.415076 47.884877 368.775672 41.935781 379.443763 36.616262 C381.950110 35.366445 385.828284 35.957967 388.766394 36.791250 C390.857215 37.384176 391.609046 39.660573 390.545813 42.498037 C389.848548 44.358876 390.339759 47.476369 391.551185 49.091298 C395.435828 54.269155 399.922278 58.993459 404.142249 63.921987 C415.937537 77.697988 427.803748 91.414785 439.467688 105.301320 C446.482337 113.652639 453.078772 122.354665 460.066199 130.729543 C462.010779 133.060292 464.642981 134.831472 467.022986 136.782155 C478.672889 146.330434 484.735877 159.976552 493.085608 171.966481 C499.907019 181.761525 507.512732 191.009206 514.738685 200.523916 C518.196936 205.077382 521.568885 209.696340 525.012122 214.261342 C525.503455 214.912648 526.177039 215.426442 526.766272 216.003896 C527.177039 215.174062 527.799231 214.384816 527.967566 213.508352 C531.674842 194.201894 535.315833 174.882741 539.017737 155.575185 C539.515418 152.978872 540.287146 150.435964 540.903968 147.861562 C541.854407 143.894826 544.330115 141.908986 548.418006 142.294362 C552.913001 142.718129 554.754065 146.522939 554.785193 149.831105 C554.856849 157.408315 553.810950 164.997731 553.183387 172.579274 C552.824134 176.917775 552.546790 181.270803 551.969642 185.582082 C550.387000 197.402883 548.488685 209.183767 547.070960 221.023061 C546.328162 227.226430 545.430213 233.652517 546.328284 239.722707 C546.889808 243.518300 550.470740 246.987111 553.036658 250.342702 C559.545081 258.853566 566.307532 267.169851 572.837806 275.664357 C575.531287 279.168081 577.673987 278.280019 580.881995 276.044484 C596.227454 265.350576 611.749549 254.906972 627.327430 244.552724 C629.980018 242.789541 633.254187 241.986379 636.162269 240.576955 C640.971839 238.245839 647.223670 238.944021 649.414832 242.188039 C651.105140 244.690175 649.576819 251.113454 646.325232 254.416188 C640.031409 260.808889 633.652503 267.117788 627.308753 273.461416 C614.580970 286.189138 601.821326 298.885183 589.148475 311.667409 C586.048255 314.794362 583.215247 318.188100 580.293006 321.488820 C578.280677 323.761831 580.510291 333.922841 583.401404 335.052358 C584.196326 335.362905 585.534461 334.823964 586.408362 334.309621 C597.135169 327.996145 607.660804 321.320180 618.573523 315.350209 C626.398963 311.069082 634.682532 307.605825 642.851233 303.979421 C647.169471 302.062368 651.161170 303.007497 653.951331 306.913625 C656.231238 310.105397 655.068396 315.769277 651.668128 319.079030 C641.585120 328.893239 631.517981 338.725515 621.315101 348.414235 C611.903602 357.351735 602.314612 366.102285 592.821448 374.954091 C582.597449 384.487539 572.382361 394.030629 562.190589 403.598439 C559.939978 405.711110 559.413611 407.805410 559.669593 411.379628 C560.323401 420.504018 559.547767 429.761525 558.901648 438.934621 C558.607093 443.116445 558.065467 447.617910 556.252478 451.291860 C551.063269 461.808522 539.074988 459.788381 533.458899 452.100881 C531.203772 449.014028 529.469642 445.434499 528.090857 441.851247 C526.740516 438.341970 525.232703 437.770314 522.478797 440.280690 C519.220740 443.250539 516.115149 446.432607 512.601722 449.067006 C506.999427 453.267690 505.947425 459.609243 504.187415 465.618093 C500.048743 479.747243 496.191687 493.960683 491.880530 508.035878 C491.022986 510.835561 491.772376 511.991384 493.840125 513.286062 C503.903235 519.587392 514.312049 525.421315 523.887244 532.396962 C537.100257 542.022756 549.847937 552.416005 557.554236 567.391469 C563.329139 578.613637 562.779334 589.663686 555.564490 600.209829 C552.163733 605.180776 552.299231 605.258657 557.408606 608.296499 C571.728064 616.810170 586.110511 625.229848 600.220130 634.081777 C617.324134 644.812124 634.354163 655.681264 651.075354 666.994252 C663.663123 675.510488 675.803992 684.700917 687.948035 693.850942 C691.501990 696.528554 694.742225 699.879262 694.994300 704.879506 C695.240882 709.771352 692.189612 713.109487 687.254798 713.262197 C677.257483 713.571401 668.211707 709.675893 658.972815 706.704213 C655.164466 705.479482 651.429969 703.998769 647.728553 702.472768 C641.373816 699.852651 637.146766 704.367666 632.703650 707.205922 C617.843421 716.698476 603.215491 726.554677 588.248572 736.521596 M174.498572 237.271596 C174.164222 237.272634 173.701880 237.128774 173.513648 237.295156 C158.867591 250.232229 144.490638 263.490896 129.482825 275.992238 C124.222449 280.373952 117.723487 283.906118 111.201331 285.901540 C107.156104 287.139211 103.050940 287.628591 99.437171 290.225393 C96.686255 292.202016 93.531958 293.619191 90.548133 295.269033 C87.566871 296.917470 84.537940 298.484792 81.618506 300.235402 C81.047706 300.577749 80.882789 301.596792 80.530677 302.303701 C81.217383 302.595571 81.998938 303.267690 82.577002 303.123647 C96.460547 299.662709 110.527564 296.758291 124.136023 292.419118 C141.151770 286.993520 157.966895 280.821767 174.539344 274.153676 C193.528785 266.513295 212.424109 258.531301 230.868750 249.674001 C249.946448 240.512929 268.777869 230.716726 287.086707 220.110219 C306.666236 208.767446 325.525428 196.178945 344.652625 184.060964 C346.781409 182.712331 347.898719 181.178518 345.135657 178.791433 C337.712195 172.378042 330.683875 165.505849 323.230384 159.129384 C319.763831 156.163686 316.067176 152.915517 310.681739 155.250051 C291.330603 163.638417 271.752662 171.533559 252.642737 180.435781 C242.508704 185.156728 232.328467 190.053151 223.781592 197.789602 C216.815162 204.095510 208.964881 209.417653 201.595252 215.287404 C192.680884 222.387502 183.859961 229.604970 174.498572 237.271596 M403.998572 958.771596 C403.665198 959.301259 403.147864 959.792226 403.026770 960.366689 C401.668250 966.808217 399.889197 973.210805 399.188636 979.727651 C398.448523 986.611928 395.061072 994.272084 402.927649 999.730581 C410.299720 1004.845937 407.776526 1016.357656 398.516150 1019.471914 C396.569617 1020.126333 394.678992 1023.158925 394.187537 1025.407216 C393.457801 1028.745229 393.857337 1032.368642 394.044104 1035.856191 C394.188147 1038.545400 394.743934 1041.212636 395.116492 1043.889638 C396.411536 1041.849233 397.751624 1039.835805 398.994300 1037.764150 C406.674598 1024.959096 414.749183 1012.368398 421.901893 999.274526 C432.935218 979.076772 443.463660 958.598623 453.953162 938.110097 C461.189490 923.975698 467.964515 909.605825 475.007972 895.371938 C482.122840 880.994008 489.257728 866.625478 496.485511 852.304311 C508.445105 828.607045 520.495520 804.955434 532.438880 781.249990 C532.734900 780.662221 532.489173 779.342275 532.014930 778.958852 C531.565833 778.595571 530.228309 778.711049 529.717200 779.137807 C522.889441 784.839101 516.158728 790.656484 509.362342 796.395864 C501.103675 803.370107 492.863685 810.368520 484.509803 817.227651 C474.092688 825.780751 463.571570 834.207509 453.087684 842.679189 C446.227210 848.223012 439.261390 853.640615 432.509803 859.313588 C424.810096 865.783315 417.276893 872.452016 409.730750 879.101796 C408.965735 879.775869 408.608313 880.912587 408.061683 881.834707 C409.029212 882.313588 409.957801 883.090810 410.970374 883.222646 C417.159949 884.028676 420.473182 887.216420 419.866736 893.435048 C419.244300 899.817495 417.891394 906.181386 416.283728 912.405019 C412.365760 927.572866 408.115271 942.655019 403.998572 958.771596 M474.998572 551.771596 C473.350745 555.086171 471.718665 558.408681 470.050696 561.713002 C468.337439 565.106557 469.042518 566.858022 472.913733 568.393789 C484.495032 572.988393 495.953894 577.926015 507.271277 583.140615 C516.793982 587.528310 525.978186 592.649282 535.487342 597.069204 C537.441687 597.977651 540.869178 598.183461 542.423987 597.060415 C549.463416 591.975454 551.813758 583.097036 548.988685 574.579335 C545.671180 564.577504 538.592200 557.484121 530.967078 550.611135 C519.265418 540.063466 505.777747 532.251149 492.349524 524.322377 C488.274573 521.916311 486.750159 522.954030 484.951453 527.414418 C481.786780 535.261831 478.331946 542.992177 474.998572 551.771596 M385.998572 910.771596 C378.735389 914.938344 371.650672 919.463735 364.167029 923.187490 C352.962561 928.762319 343.235633 936.267812 334.140418 944.685292 C329.817786 948.685781 330.003455 948.838735 335.121375 952.284536 C349.967566 962.280385 364.754676 972.364248 379.662879 982.266225 C380.267127 982.667348 382.716712 981.783437 382.873328 981.145864 C386.370032 966.918935 389.334632 952.554433 393.103919 938.403432 C396.080359 927.228750 400.014319 916.309926 403.477088 905.263173 C403.823035 904.159536 403.850745 902.956167 404.026160 901.799306 C402.738929 901.956777 401.256873 901.756826 400.198035 902.333608 C395.564734 904.856679 391.053870 907.604970 385.998572 910.771596 M84.498572 236.271596 C76.817054 242.271596 69.126746 248.260366 61.456092 254.274221 C50.634131 262.758779 39.815101 271.247243 29.039405 279.790273 C28.319678 280.360830 27.976905 281.406911 27.458777 282.231801 C28.714637 282.335805 30.114051 282.849111 31.199866 282.468251 C34.680945 281.247304 38.113074 279.835988 41.443824 278.246206 C53.135413 272.665273 65.517432 268.099904 76.230323 261.020070 C87.102820 253.834768 96.311927 244.131398 106.243934 235.524282 C116.301429 226.808400 126.393531 218.131643 136.396460 209.353444 C152.235694 195.453542 168.943946 182.709768 186.548499 171.125051 C187.626746 170.415517 188.152747 168.866933 188.935645 167.708669 C187.464332 167.888662 185.707496 167.609365 184.565650 168.319265 C172.619239 175.746450 160.543067 182.999013 148.945716 190.946157 C127.473731 205.659963 106.297828 220.805776 84.498572 236.271596 M553.498572 642.271596 C556.188514 644.628042 559.284949 646.657094 561.494666 649.400380 C569.202674 658.969594 580.163855 660.661977 591.208045 662.255727 C600.976233 663.665151 610.760413 664.965078 620.547156 666.240468 C621.887000 666.415273 623.281531 666.170156 624.650794 666.119375 C623.704383 664.941152 622.799353 663.725087 621.783240 662.610341 C621.519935 662.321401 620.846106 662.451040 620.467322 662.216420 C603.755286 651.865224 587.141517 641.352041 570.318152 631.185415 C561.572791 625.900380 552.494910 621.158193 543.493689 616.307485 C540.421058 614.651845 531.796424 616.992055 530.868323 620.370839 C530.455726 621.873037 533.834754 624.686025 535.836585 626.530874 C541.461707 631.714956 547.265296 636.705068 553.498572 642.271596 M409.998572 103.771596 C403.401770 94.508107 396.934729 85.145986 390.058387 76.094960 C389.103186 74.837758 385.516639 74.090932 384.204017 74.875112 C380.384192 77.157155 376.935340 80.167409 373.735877 83.295949 C373.035437 83.980764 373.467322 86.681142 374.259681 87.861318 C376.054114 90.534108 378.331580 92.899465 380.530433 95.280935 C389.219642 104.691945 397.873450 114.137929 406.694129 123.424794 C416.495520 133.744191 426.547400 143.825979 436.326941 154.165639 C441.466224 159.599294 446.219642 165.396535 451.249305 170.936818 C451.910193 171.664785 453.179725 171.840261 454.167273 172.271596 C454.444373 171.118154 455.276893 169.725637 454.901282 168.853139 C453.378089 165.314992 451.877356 161.656179 449.661536 158.545522 C436.717811 140.375478 423.574500 122.347524 409.998572 103.771596 M240.498572 1001.271596 C246.351661 1001.604970 252.203467 1001.967275 258.059729 1002.229604 C258.692664 1002.258046 259.351661 1001.705922 259.998572 1001.423085 C259.619056 1001.039296 259.268531 1000.620717 258.855933 1000.276601 C250.198218 993.060415 241.584021 985.790151 232.820838 978.704335 C231.347937 977.513295 229.046912 976.203725 227.430457 976.515493 C215.465491 978.822744 203.607398 981.679799 191.654090 984.053579 C183.296302 985.713369 174.849402 986.935415 166.427039 988.255117 C159.531226 989.335683 152.605628 990.226186 145.713111 991.325429 C144.788062 991.473012 143.979590 992.350576 143.117103 992.890126 C144.091285 993.350576 145.031043 994.098867 146.045813 994.220571 C149.886695 994.680898 153.752784 994.927358 157.607703 995.273671 C168.677161 996.267812 179.733619 997.441152 190.817481 998.231557 C207.034339 999.387685 223.270606 1000.271718 240.498572 1001.271596 M368.498572 101.271596 C367.439490 100.212575 366.381385 99.152700 365.321326 98.094533 C361.451941 94.231984 359.319129 94.175283 355.020545 97.725271 C354.056434 98.521474 352.919227 99.104787 351.921058 99.864125 C348.993934 102.090749 349.386756 104.580129 352.197669 106.196828 C357.809485 109.424550 363.731971 112.106923 369.410437 115.225026 C378.103431 119.998464 385.986121 126.828969 387.482459 136.368520 C388.814368 144.860952 393.443885 148.484853 399.464881 152.253652 C410.307044 159.040029 421.110267 165.888295 431.934241 172.703847 C434.571570 174.364492 437.173499 176.093740 439.903846 177.586477 C440.715857 178.030446 441.909827 177.775930 442.928748 177.841420 C442.504920 177.037771 442.255042 176.047963 441.627845 175.462087 C438.654700 172.685109 435.414954 170.179128 432.567664 167.284047 C420.732947 155.250722 408.992835 143.124135 397.242835 131.007741 C387.809607 121.280324 378.411902 111.518300 368.498572 101.271596 M364.498572 1006.271596 C368.357459 1005.938344 372.223426 1005.667226 376.071204 1005.234975 C377.276404 1005.099477 378.432654 1004.529775 379.611365 1004.158803 C378.769202 1003.196401 378.090735 1001.984121 377.060096 1001.309560 C364.230872 992.912954 351.328040 984.628896 338.492103 976.242666 C331.399939 971.609121 324.497107 966.679311 317.318763 962.187001 C312.930945 959.441030 311.214759 964.088857 308.853797 966.230703 C308.489783 966.560903 309.732215 969.536611 310.885596 970.527944 C321.162146 979.362294 332.042151 987.549550 341.803260 996.908925 C348.155921 1003.000112 354.160804 1007.973867 364.498572 1006.271596 M451.498572 508.271535 C447.346961 511.089711 443.029212 513.694936 439.082557 516.775686 C433.001624 521.522451 427.242103 526.678640 421.221473 531.505727 C415.514197 536.081411 409.632361 540.438710 403.868689 544.945180 C403.198401 545.469228 402.792029 546.330983 402.263221 547.036184 C403.089881 547.447988 403.875159 548.027150 404.750037 548.244436 C410.334388 549.631215 415.895179 551.183522 421.551307 552.187978 C425.522742 552.893300 430.963172 554.561025 433.392493 552.709462 C437.845984 549.314870 441.496741 544.046926 443.780555 538.816945 C447.277381 530.809743 449.477698 522.214040 451.873084 513.767324 C452.340369 512.119375 456.251258 510.469655 451.498572 508.271535 M477.498572 788.271596 C473.046912 791.604848 468.518348 794.840810 464.158118 798.289541 C449.963172 809.516958 435.787635 820.769887 421.695228 832.125356 C416.647376 836.192739 411.763953 840.477529 406.972693 844.846669 C400.887610 850.395498 394.917762 856.075063 389.046546 861.849233 C388.214881 862.667104 388.221473 864.337392 387.840125 865.613149 C388.998084 865.227529 390.390662 865.129384 391.274695 864.407949 C395.913123 860.623159 400.309607 856.537954 404.999305 852.820668 C417.142493 843.195424 429.463660 833.794179 441.586219 824.143422 C455.522132 813.049062 469.246741 801.689077 483.198401 790.614858 C500.096961 777.201528 517.145667 763.977407 534.099769 750.633779 C535.515174 749.519765 536.704383 748.118276 537.998572 746.850209 C536.204017 747.323964 534.397132 747.757802 532.623694 748.300771 C532.198890 748.430776 531.911536 748.960195 531.516639 749.244497 C513.680457 762.091298 495.839270 774.931020 477.498572 788.271596 M452.998572 621.771596 C456.077308 617.879384 451.352088 618.900869 450.473304 618.407338 C438.222083 611.526723 425.857093 604.843862 413.407386 598.328115 C412.058875 597.622426 409.537757 597.582387 408.370398 598.395742 C404.555945 601.053579 401.023963 604.148061 397.574622 607.284780 C396.064124 608.658315 395.725257 610.490468 397.993323 611.758535 C401.906409 613.946157 405.619300 617.231923 409.805335 618.039541 C418.889686 619.792104 428.213050 620.340810 437.452063 621.243886 C442.453284 621.732778 447.482215 621.938344 452.998572 621.771596 M459.498572 437.271657 C465.004065 432.099538 470.362098 426.758352 476.051062 421.796621 C483.689246 415.134816 491.616248 408.804921 499.331214 402.229299 C500.468055 401.260366 501.568885 399.837087 501.923377 398.431630 C503.751868 391.182424 505.347937 383.874135 506.976722 376.575673 C507.170081 375.709218 507.067298 374.776723 507.101722 373.874868 C506.278846 374.295705 505.223182 374.517690 504.668250 375.167348 C497.446204 383.624318 490.153724 392.027639 483.161902 400.673146 C474.434852 411.463979 465.956336 422.456044 457.402259 433.386281 C455.452308 435.877858 453.567786 438.427846 451.803504 441.051992 C451.421424 441.620168 451.610755 442.634145 451.718421 443.417897 C451.739539 443.572500 452.825477 443.858693 453.028602 443.667592 C455.065467 441.752126 457.020423 439.749624 459.498572 437.271657 M453.498572 788.271596 C457.418738 785.271596 461.271766 782.178334 465.272254 779.289663 C476.027869 771.522939 486.714393 763.649404 497.675696 756.181020 C510.097693 747.717397 522.732093 739.559804 535.389441 731.449208 C540.740394 728.020620 546.412024 725.094960 551.867957 721.823964 C552.655677 721.351918 553.050330 720.224233 553.626868 719.399892 C552.587195 719.353994 551.404090 718.960683 550.531775 719.320546 C545.980994 721.198842 541.215247 722.792836 537.061927 725.356679 C521.775306 734.792958 506.473426 744.237905 491.618079 754.328725 C479.553992 762.523427 467.982337 771.469228 456.459876 780.426137 C449.183509 786.082265 442.383826 792.353872 435.427039 798.414296 C434.949988 798.830068 434.946692 799.789541 434.723060 800.496083 C435.527259 800.542226 436.613074 800.951162 437.092200 800.578969 C442.282508 796.546987 447.377478 792.392568 453.498572 788.271596 M268.998572 926.771596 C257.732642 918.172353 246.460120 909.581777 235.203162 900.970693 C227.987220 895.450795 220.815284 889.872915 213.555884 884.411000 C212.899878 883.917592 211.746558 884.085317 210.824256 883.945913 C211.098426 884.770620 211.139624 885.820302 211.684119 886.383901 C215.599646 890.436391 219.459266 894.565175 223.636634 898.337636 C231.349463 905.302846 239.198096 912.122548 247.120398 918.849599 C254.603492 925.203359 262.535010 931.056997 269.723548 937.719472 C273.922522 941.611196 277.987342 941.882924 282.901770 940.302724 C285.448584 939.483754 285.094519 938.422109 283.383277 937.180410 C278.781409 933.841054 274.130164 930.569936 268.998572 926.771596 M301.498572 997.271596 C307.430152 1003.352773 314.335608 1006.817006 323.087806 1005.265493 C324.934607 1004.937978 326.767493 1004.532705 328.606849 1004.163320 C327.274939 1003.199331 325.915076 1002.271108 324.621619 1001.258291 C323.849158 1000.653310 323.217933 999.870351 322.459388 999.244863 C313.057654 991.490346 303.658484 983.732656 294.202735 976.044545 C293.544227 975.509023 292.444190 975.516591 291.549598 975.271596 C291.365943 976.181752 290.800208 977.221547 291.058387 977.981679 C293.363135 984.766347 293.850135 992.547597 301.498572 997.271596 M366.498572 579.271596 C362.665198 584.679189 358.837317 590.090566 354.996497 595.492910 C352.632605 598.818227 354.135169 600.723012 357.329261 602.117666 C360.997352 603.719350 364.627601 605.407216 368.279578 607.046254 C368.853919 607.303823 369.455359 607.500844 370.044227 607.725942 C370.209510 606.921621 370.730872 605.983876 370.486976 605.332998 C366.584998 594.926992 369.377112 586.958730 380.310340 581.171010 C380.973060 580.820180 381.477820 578.556020 381.027869 577.965444 C376.028479 571.401723 371.045081 571.749624 366.498572 579.271596 M284.998572 567.771596 C293.234839 571.938222 301.482520 576.082753 309.701453 580.283315 C312.702186 581.816884 313.974158 581.198964 314.062049 577.628286 C314.177161 572.962026 313.985999 568.064809 315.365638 563.724355 C316.456702 560.291250 315.730994 559.929189 312.972205 560.298940 C303.552771 561.560903 294.133216 562.841542 284.751380 564.348867 C282.746253 564.671254 282.899451 566.137075 284.998572 567.771596 M451.998572 598.771596 C459.411780 602.938222 466.760413 607.225820 474.257850 611.234853 C480.669959 614.663564 486.801673 619.357778 494.846351 617.248891 C495.872962 616.979848 496.818763 616.402700 497.801917 615.968251 C497.012854 615.381459 496.289588 614.664541 495.424842 614.227773 C484.845862 608.885122 474.340247 603.383046 463.616614 598.345937 C457.097693 595.283803 450.273719 592.845693 443.489295 590.397084 C442.230506 589.942617 440.507361 590.774160 438.998572 591.012075 C440.061927 592.098623 440.943274 593.534902 442.225013 594.201284 C445.213904 595.754873 448.395179 596.938222 451.998572 598.771596 M459.998572 581.771596 C475.906653 587.898305 491.333289 594.952871 505.667029 604.320424 C510.787757 607.667104 515.442298 613.716542 522.950110 609.290883 C523.886756 608.738759 524.978675 608.449941 525.998572 608.039174 C525.128455 607.116689 524.430213 605.824697 523.362098 605.327749 C509.952796 599.089711 496.532142 592.872426 483.022986 586.854482 C476.417151 583.911733 469.657752 581.299062 462.888465 578.747670 C461.035682 578.049428 457.815223 576.686391 459.998572 581.771596 M511.998572 272.771596 C513.527381 275.966970 514.970496 279.208486 516.650672 282.322194 C517.025428 283.016530 518.232581 283.261647 519.056556 283.713552 C519.096228 282.791982 519.414832 281.773732 519.133948 280.963369 C514.845740 268.594350 510.142615 256.356435 506.282508 243.857473 C504.524329 238.164418 502.079627 233.256521 497.587439 229.523732 C496.408606 228.544240 494.320472 228.659230 492.649939 228.271596 C492.766150 229.678640 492.504798 231.258168 493.056556 232.466359 C499.131019 245.768056 505.331946 259.011953 511.998572 272.771596 M455.998572 634.771596 C453.867835 637.016958 455.392737 637.811513 457.447059 638.256093 C460.354041 638.885244 463.314368 639.285512 466.198890 639.998037 C479.902503 643.382680 493.576453 646.888784 507.297644 650.199819 C508.741492 650.548085 510.425818 649.900258 511.998572 649.714467 C510.831092 648.566884 509.863562 646.967275 508.462684 646.347524 C501.307898 643.183095 494.114295 640.074453 486.783973 637.351186 C482.881141 635.901357 478.717444 634.738027 474.593177 634.398183 C468.598792 633.904409 462.533606 634.271596 455.998572 634.771596 M333.498572 569.271596 C333.331946 572.852529 332.998084 576.437246 333.080848 580.012319 C333.113929 581.442983 334.064246 582.852529 334.597205 584.271596 C335.622596 583.213369 336.773475 582.249501 337.652503 581.081044 C342.479895 574.663686 347.251136 568.203725 352.006873 561.732778 C352.438025 561.145986 353.052771 560.034414 352.835120 559.760854 C352.294593 559.081289 351.342078 558.382558 350.519080 558.336660 C347.542029 558.171132 344.503699 558.601674 341.575232 558.189809 C337.739905 557.650258 336.311561 560.194326 335.129920 562.773916 C334.307532 564.569204 334.345130 566.758413 333.498572 569.271596 M353.498572 1037.271596 C356.235633 1038.675405 358.941687 1040.145864 361.727820 1041.444448 C362.630408 1041.865102 363.742957 1041.834707 364.759559 1042.010610 C364.451697 1040.876699 364.465003 1039.468007 363.774695 1038.661367 C361.838538 1036.399038 359.107703 1034.693959 357.591346 1032.217397 C352.275428 1023.534780 344.829749 1019.783437 334.771033 1021.297475 C333.819129 1021.440542 332.921424 1021.944204 331.998572 1022.280507 C332.683387 1023.129018 333.208899 1024.223745 334.078528 1024.786611 C340.346106 1028.842153 346.683387 1032.789785 353.498572 1037.271596 M365.998572 534.771596 C367.826819 527.730092 369.023353 520.459218 373.967933 514.621022 C375.372352 512.962575 376.600623 511.082021 377.528968 509.122854 C378.011145 508.105642 377.662024 506.694448 377.688269 505.461232 C376.767859 505.921865 375.630164 506.176198 374.963294 506.877736 C371.477332 510.545095 368.031653 514.257802 364.726966 518.088430 C361.907630 521.356374 359.153724 524.702016 356.645423 528.209523 C354.897254 530.654042 357.300452 535.630361 361.041053 537.799794 C363.900306 539.458120 364.582312 537.122182 365.998572 534.771596 M353.998572 146.771596 C356.104895 150.544667 357.978064 154.472951 360.365394 158.059011 C365.625769 165.961293 365.423743 165.662343 371.263465 157.796132 C373.320594 155.025136 372.738440 153.865773 370.654334 152.491079 C366.378821 149.670583 362.045936 146.903981 357.521521 144.524343 C356.711097 144.098134 354.866004 145.639028 353.998572 146.771596 M256.498633 144.271657 C254.967933 145.802297 253.311499 147.233388 251.976050 148.918691 C251.520911 149.493154 251.872901 150.707326 251.856116 151.629201 C252.660254 151.586721 253.670874 151.845571 254.237769 151.456899 C264.107642 144.691701 273.941810 137.873525 283.716102 130.971242 C284.531531 130.395437 284.863929 129.135793 285.420813 128.193837 C284.145728 127.854055 282.411719 126.802663 281.665870 127.283681 C273.355384 132.643056 265.197547 138.239248 256.498633 144.271657 M556.498572 675.271596 C558.883216 675.938222 561.232093 676.864003 563.662391 677.198476 C566.065101 677.529165 568.549842 677.262563 570.998572 677.257924 C570.480384 673.012685 566.771155 672.929311 563.939490 672.357045 C553.003211 670.146718 542.004676 668.240834 531.010901 666.326772 C530.076209 666.164174 529.005896 666.780385 527.998572 667.034780 C528.745154 668.026967 529.336463 669.692373 530.262610 669.906118 C538.641150 671.839101 547.078528 673.518178 556.498572 675.271596 M294.998572 28.771596 C294.079322 28.357503 293.160071 27.943410 292.240821 27.529348 C292.493445 28.851796 292.333289 30.489705 293.064490 31.446279 C298.389930 38.413106 303.851905 45.277578 309.374976 52.089895 C310.652625 53.665822 312.347449 55.971853 314.438025 53.211965 C316.074378 51.051625 317.285804 48.511098 314.353553 46.081228 C311.230140 43.492849 308.264319 40.713735 305.238013 38.008565 C301.986487 35.101918 298.744666 32.184346 294.998572 28.771596 M420.998572 568.771596 C420.512610 567.938222 420.186316 566.563588 419.513099 566.364858 C416.524085 565.483022 413.432776 564.950917 410.383826 564.268544 C405.968909 563.280385 401.583655 562.124135 397.129920 561.368764 C395.920936 561.163564 394.511023 562.141713 393.193396 562.576772 C394.022864 563.475087 394.700965 564.635976 395.712195 565.219106 C398.108924 566.601186 400.936927 567.349843 403.102088 568.996938 C408.947303 573.443471 414.630164 573.550283 420.998572 568.771596 M320.498572 135.271657 C322.185096 134.938344 323.893103 134.687246 325.554236 134.256276 C330.693641 132.923024 331.146888 131.592397 327.183997 128.099233 C325.268226 126.410512 322.379310 124.187795 320.407508 124.583242 C317.426917 125.181020 314.862952 127.856008 312.121863 129.648244 C314.580726 131.522695 317.039710 133.397146 320.498572 135.271657 M548.998572 273.771596 C547.848670 273.588125 546.698890 273.404653 545.548987 273.221181 C545.881751 274.254140 545.995520 275.437185 546.583533 276.295034 C549.772864 280.947255 552.999427 285.579763 556.406165 290.072683 C557.186438 291.101674 558.798865 292.209157 559.897986 292.088918 C561.015296 291.966726 562.661170 290.475698 562.822425 289.397023 C563.019202 288.079641 562.285926 286.191213 561.299476 285.205922 C557.507972 281.418874 553.454383 277.894155 548.998572 273.771596 M512.998450 220.771596 C515.087928 225.194387 517.047767 229.685537 519.326087 234.008840 C520.342322 235.937062 521.999061 237.527700 523.365149 239.271596 C523.868811 236.730764 524.505896 234.204824 524.792029 231.639699 C524.874427 230.902028 523.999183 230.013662 523.470496 229.259267 C521.043494 225.796560 518.581702 222.358266 516.137244 218.907827 C515.545203 218.072194 514.971228 217.223745 514.388953 216.381276 C513.925452 217.511342 513.461951 218.641469 512.998450 220.771596 M542.498450 293.271657 C542.147132 292.586904 541.856971 291.860830 541.430091 291.227041 C540.781043 290.263356 540.037024 289.363698 539.333289 288.436879 C538.888343 289.747121 537.883338 291.158254 538.097937 292.349721 C538.923377 296.932241 540.068763 301.463796 541.298133 305.958730 C541.453406 306.525991 543.324744 307.281484 543.536414 307.072744 C545.394324 305.241994 548.394568 303.776174 546.513465 300.286611 C545.342566 298.114553 544.170203 295.943288 542.498450 293.271657 M515.498572 632.271596 C518.471228 633.938222 521.425208 635.639760 524.430091 637.246328 C525.151038 637.631826 526.040686 637.702138 526.852698 637.917470 C526.597205 636.898061 526.681189 635.436147 526.027991 634.935048 C523.041907 632.644033 520.012488 630.293447 516.667151 628.631826 C514.775672 627.692250 512.242591 628.044301 509.998572 627.814565 C511.498572 629.300283 512.998572 630.785878 515.498572 632.271596 M365.998572 54.771596 C361.957557 57.812673 357.881629 60.809987 353.922156 63.953664 C353.460242 64.320363 353.640418 65.495656 353.522986 66.296132 C354.244056 66.287954 355.186805 66.574697 355.651770 66.225515 C359.967078 62.983632 364.200232 59.632314 368.457312 56.312795 C367.804358 55.632436 367.151526 54.952016 365.998572 54.771596 M296.498633 144.271657 C297.020667 143.938344 297.568641 143.638967 298.059607 143.264943 C299.274146 142.339650 300.462561 141.380239 301.661475 140.434499 C300.171729 140.046865 298.366553 138.925954 297.250159 139.406301 C293.603309 140.974904 290.207557 143.127187 286.715186 145.054982 C287.251624 145.793874 288.024695 147.247487 288.287757 147.160451 C290.741309 146.348317 293.107276 145.271657 296.498633 144.271657 M327.498572 918.271596 C328.310828 919.125966 329.123206 919.980336 329.935462 920.834707 C332.502845 918.267324 335.202430 915.812368 337.547644 913.056020 C338.158973 912.337636 337.665931 910.679555 337.680091 909.453115 C336.551185 909.794301 335.091468 909.803823 334.355018 910.538320 C332.087684 912.800527 330.096961 915.339956 327.498572 918.271596 M572.498572 306.271596 C571.665198 308.071889 570.804603 309.861623 570.089393 311.707753 C570.057654 311.789418 571.800330 312.835073 571.962195 312.673879 C574.711829 309.937124 577.386268 307.119313 579.953040 304.209707 C580.358313 303.750417 580.157142 302.756154 580.236243 302.009267 C579.438392 301.981984 578.430213 301.630910 577.881751 301.987355 C576.160926 303.105581 574.613318 304.490224 572.498572 306.271596 M373.998572 1028.771596 C374.932288 1029.837880 375.865882 1030.904287 376.799598 1031.970571 C377.199256 1031.309194 377.973914 1030.620473 377.928016 1029.991689 C377.792029 1028.130849 377.704749 1026.102041 376.883948 1024.506337 C376.192054 1023.161245 374.628943 1022.067495 373.202796 1021.373769 C372.392859 1020.979726 371.083167 1021.612905 369.998572 1021.783437 C370.580603 1023.361440 371.066321 1024.985341 371.787146 1026.497182 C372.122718 1027.200795 372.913855 1027.686879 373.998572 1028.771596 M555.498572 322.271657 C554.687659 323.082570 553.335608 323.806508 553.188147 324.723989 C552.944983 326.236989 553.480262 327.875112 553.687415 329.460500 C555.059363 328.962636 556.536170 328.638662 557.762244 327.898916 C558.449622 327.484243 558.849158 326.427053 559.152747 325.578603 C559.665320 324.146230 559.998694 322.649770 560.407264 321.180227 C558.937659 321.377309 557.468177 321.574453 555.498572 322.271657 M631.498572 679.271474 C630.039710 679.730336 628.580848 680.189199 627.122107 680.648061 C628.400916 681.342519 629.607825 682.294545 630.974158 682.675649 C633.510291 683.383535 636.122962 683.954946 638.738074 684.173085 C639.761634 684.258413 640.877234 683.239858 641.950965 682.723989 C640.970496 681.906606 640.108680 680.697377 638.983802 680.356557 C636.903479 679.726430 634.668860 679.604970 631.498572 679.271474 M602.998572 344.771596 C602.060462 345.709768 600.974646 346.548330 600.246253 347.627980 C599.881019 348.169057 600.166541 349.149282 600.157874 349.930959 C601.056800 349.925893 602.255042 350.294057 602.804358 349.853261 C605.705970 347.524831 608.465369 345.016042 611.216224 342.506398 C611.632483 342.126577 611.745398 341.414296 611.998572 340.855764 C611.266394 340.661062 610.323768 340.076406 609.838416 340.338613 C607.654212 341.518300 605.599769 342.938222 602.998572 344.771596 M345.498572 619.271596 C341.945350 618.612783 339.586707 620.078847 338.415076 623.412832 C338.212684 623.988759 338.347083 624.966420 338.731849 625.388173 C339.142859 625.838613 340.131751 626.167470 340.698768 625.994252 C342.443641 625.460927 344.148841 624.746206 345.788489 623.938100 C346.896521 623.391835 347.868079 622.568715 348.900672 621.869497 C347.933265 621.170156 346.965979 620.470937 345.498572 619.271596 M531.998572 351.771596 C532.460730 353.567067 532.922889 355.362539 533.385047 357.158071 C534.256141 355.442067 535.875892 353.702565 535.822913 352.015737 C535.743445 349.492604 534.487342 347.006521 533.731727 344.504689 C533.153968 346.593679 532.576331 348.682607 531.998572 351.771596 M596.998572 287.771596 C596.503333 287.266835 595.621131 286.283437 595.568396 286.326101 C593.083289 288.335256 590.626014 290.386403 588.288978 292.564931 C587.868445 292.956960 587.976233 293.915883 587.840003 294.613027 C588.634803 294.590627 589.721961 294.895314 590.174598 294.490407 C592.375892 292.521718 594.407142 290.363027 596.998572 287.771596 M476.998450 482.771596 C476.331824 484.464956 475.534095 486.124074 475.076819 487.872243 C474.936194 488.410451 475.682654 489.223134 476.126868 489.834646 C476.211341 489.950979 477.017859 489.810720 477.098304 489.621633 C478.107215 487.249929 479.574866 484.903981 479.837561 482.435659 C480.064612 480.300893 478.493811 479.817495 476.998450 482.771596 M551.998572 356.771596 C553.588782 356.181386 555.343421 355.833120 556.706214 354.908010 C557.493567 354.373525 557.649207 352.908437 558.089148 351.862172 C556.633826 351.923818 554.901282 351.525258 553.805945 352.184804 C552.835486 352.769216 552.573401 354.530080 551.998572 356.771596 M390.998572 596.771596 C391.649939 595.422963 392.301185 594.074208 392.952552 592.725576 C391.719275 592.989614 390.105628 592.860097 389.335853 593.603750 C387.955726 594.937124 387.083289 596.795766 385.998572 598.435048 C387.498572 598.047231 388.998572 597.659414 390.998572 596.771596 M433.498572 573.271596 C436.068274 573.701894 438.638099 574.132192 441.207801 574.562368 C441.156775 573.984121 441.333533 573.177724 441.018836 572.863637 C438.414466 570.265249 435.700965 570.342031 433.498572 573.271596 M515.498572 418.271596 C515.494056 419.600332 515.489417 420.929128 515.484900 422.257863 C515.927771 422.157399 516.503333 422.199697 516.791297 421.932424 C518.221351 420.604055 519.677894 419.275991 520.892371 417.761220 C521.238562 417.329335 521.075477 415.993398 520.651038 415.579519 C520.231482 415.170522 519.005896 415.097524 518.455603 415.422353 C517.505408 415.983205 516.804236 416.965871 515.498572 418.271596 M536.998572 400.771596 C537.343909 401.116872 537.689124 401.462209 538.034461 401.807485 C539.525306 400.292775 541.063758 398.819143 542.448401 397.212941 C542.627356 397.005300 542.011512 396.112355 541.763831 395.536855 C540.515174 396.275319 539.188880 396.913564 538.052039 397.796010 C537.513831 398.213674 537.338416 399.098439 536.998572 400.771596 M336.998572 148.771535 C336.200843 148.569265 335.403235 148.366933 334.605506 148.164663 C334.990760 149.287893 335.198157 150.533620 335.846228 151.476064 C336.117347 151.870351 337.324134 151.621206 338.105628 151.664663 C337.903235 150.866933 337.700965 150.069265 336.998572 148.771535 M546.998572 257.771596 C546.101722 257.335073 545.204871 256.898610 544.307898 256.462148 C544.543616 257.570852 544.779334 258.679494 545.015174 259.788076 C545.676307 259.449208 546.337439 259.110402 546.998572 257.771596 M566.998572 337.771596 C567.026770 338.799794 566.991858 339.838491 567.157752 340.843984 C567.180213 340.980397 568.209144 340.950856 568.772010 340.998159 C568.347571 339.755971 567.923133 338.513784 566.998572 337.771596 z"/></svg>