<?xml version="1.0" encoding="utf-8"?><!DOCTYPE svg PUBLIC "-//W3C//DTD SVG 1.1//EN" "http://www.w3.org/Graphics/SVG/1.1/DTD/svg11.dtd"><svg version="1.1" id="Contours" xmlns="http://www.w3.org/2000/svg" xmlns:xlink="http://www.w3.org/1999/xlink" x="0px" y="0px" width="521.318359px" height="521.318359px" viewBox="0.000008 0.000007 521.318359 679.377014" enable-background="new 0 0 521.318359 521.318359" xml:space="preserve" stroke="black" fill="none" stroke-linecap='round' stroke-linejoin='round'><path class="selected"  fill="#000000" opacity="1.000000" stroke="none" 
 	d="
M268.216911 661.200707 C257.255485 659.450707 246.504020 658.187280 235.844352 656.381493 C225.951713 654.705590 216.229118 651.854272 206.294609 650.657983 C199.537407 649.844018 192.540092 650.916528 185.657707 651.286279 C180.648674 651.555322 175.657280 652.145287 170.648796 652.432763 C158.095390 653.153710 145.541191 653.885522 132.979240 654.426415 C115.260429 655.189233 97.533073 655.751244 79.812492 656.475610 C75.777214 656.640405 71.742424 657.507958 67.728447 657.382104 C51.833488 656.882958 35.928886 656.381616 20.067802 655.296166 C15.052604 654.952905 10.071403 653.045068 5.246025 651.361596 C1.854606 650.178613 -0.236153 647.348046 0.021354 643.566918 C0.284416 639.703759 1.637077 636.643456 5.408378 634.313622 C14.330009 628.802148 24.514579 627.847070 34.286918 625.565331 C45.007133 623.062158 55.925895 621.396020 66.779167 619.484887 C69.935051 618.929223 73.165153 618.502343 76.357902 618.523095 C80.203239 618.548364 82.589714 617.303491 83.665886 613.371606 C84.179557 611.494775 85.421135 609.627221 86.799553 608.208764 C93.651664 601.158105 100.994621 594.558495 107.541435 587.242333 C120.741264 572.491479 133.803642 557.599877 146.427543 542.356225 C159.600517 526.449487 172.013908 509.915795 185.084404 493.921716 C198.772453 477.171655 212.859855 460.748193 226.741142 444.155602 C229.412651 440.962304 231.964836 437.667443 234.504264 434.367333 C234.939262 433.802087 235.031669 432.973229 235.282341 432.266137 C234.366386 432.327660 233.334404 432.147118 232.565544 432.515527 C231.715812 432.922753 231.099052 433.824853 230.394951 434.525598 C228.504997 436.406640 226.654289 438.328271 224.731865 440.175378 C208.164848 456.093469 191.632927 472.048608 174.991325 487.888452 C165.469902 496.951257 155.799797 505.859094 146.131950 514.766503 C134.446769 525.532372 122.740471 536.276269 110.956779 546.933862 C98.249015 558.427270 85.529167 569.910546 72.643547 581.202905 C65.010734 587.891992 57.215446 594.422143 49.174430 600.609521 C43.648063 604.862084 38.999260 604.393578 35.222709 600.206445 C31.852836 596.470239 31.875908 590.050805 36.071159 585.962670 C50.257621 572.138452 64.671684 558.547509 79.033989 544.904565 C82.953788 541.181054 86.990715 537.580590 90.984672 533.935571 C102.351493 523.561425 113.697563 513.164330 125.101127 502.830712 C138.661247 490.542870 152.277214 478.316613 165.860649 466.054406 C179.691154 453.569116 193.492118 441.050988 207.343315 428.588708 C216.556327 420.299462 225.836296 412.084741 235.083366 403.833398 C247.495597 392.757714 259.880973 381.651635 272.323234 370.609765 C283.521232 360.672265 294.740837 350.758141 306.028312 340.922631 C312.363029 335.402856 318.828117 330.031518 325.283439 324.652184 C330.574577 320.243127 331.912468 313.840844 334.154167 307.819360 C340.657097 290.352197 347.295646 272.934655 354.023063 255.552697 C355.053337 252.891015 357.211784 250.534997 360.342521 251.702844 C361.145256 252.002282 361.455803 255.644189 360.849357 257.342431 C358.469841 264.006677 355.519523 270.465051 353.033683 277.094567 C352.244621 279.199120 352.241691 281.598351 351.879020 283.862817 C353.528801 282.271569 355.611686 280.942529 356.759147 279.047143 C365.136589 265.209374 373.323234 251.256005 381.576408 237.342858 C388.877922 225.033898 396.457267 212.879846 403.414665 200.379479 C409.797722 188.910668 415.719474 177.170434 421.455680 165.360864 C425.691154 156.640588 429.352531 147.638268 433.120597 138.698693 C433.559440 137.657800 433.047477 136.216088 432.976432 134.960229 C432.269401 135.660973 431.448478 136.279504 430.873771 137.075829 C427.197013 142.170861 422.491813 143.295678 415.829582 141.905419 C393.754020 137.298791 373.095451 128.471459 351.991691 120.963403 C349.816276 120.189355 347.559562 119.518273 345.555290 118.410973 C337.390739 113.900414 329.870231 116.751183 322.058097 119.743676 C309.392204 124.595422 296.689689 129.482812 283.696891 133.319909 C262.856071 139.474694 241.820060 144.998864 220.752739 150.340417 C212.811210 152.353967 204.575187 153.279260 196.432426 154.403954 C188.730034 155.467797 185.633781 162.126733 181.272026 166.909264 C174.047844 174.830529 167.700004 183.551110 160.982902 191.934838 C154.265800 200.318627 147.644096 208.781152 140.805473 217.064599 C133.496696 225.917382 126.065300 234.672509 118.538627 243.341027 C108.723014 254.645654 98.862114 265.915673 88.760368 276.962487 C87.119987 278.756310 84.145317 279.345117 81.764030 280.440026 C80.506340 281.018273 78.674858 281.113000 77.995597 282.063989 C72.554069 289.682763 64.755424 295.746850 65.713188 307.076440 C66.580436 317.336389 65.462700 327.786523 64.908195 338.136010 C64.556022 344.709741 63.716728 351.262780 62.939323 357.806420 C62.364738 362.642846 57.485710 367.616235 53.504997 366.133569 C50.125847 364.874841 45.963676 361.221398 45.317863 357.993493 C43.614189 349.477563 43.719291 340.608849 42.898491 331.899987 C42.723259 330.041406 41.676567 328.264977 41.031364 326.450707 C38.915702 327.378320 36.453239 327.897607 34.766777 329.330407 C32.323722 331.406030 30.547416 334.244592 28.293876 336.570825 C25.498283 339.456811 19.316459 340.522729 16.785698 338.769494 C12.664970 335.914758 11.629631 331.477258 14.492424 326.490502 C22.385490 312.741601 30.559623 299.153710 38.410453 285.381188 C39.730095 283.066308 40.464653 280.697411 40.330131 277.352746 C39.787346 263.860070 40.403007 250.298181 41.184196 236.796227 C41.321220 234.427636 44.323539 232.237084 45.967888 229.939599 C47.327507 228.040063 49.468986 226.249230 49.833122 224.160729 C52.417534 209.338464 54.488212 194.426965 57.038139 179.598229 C58.061943 173.644738 61.694755 170.418298 66.052665 170.450707 C70.494743 170.483727 73.092765 172.670983 72.900383 177.083215 C72.439750 187.648889 71.649894 198.200524 70.958976 208.755578 C70.673271 213.120385 70.317070 217.480798 69.963310 221.840844 C69.309379 229.898644 68.587577 237.951501 68.026237 246.015588 C67.957817 246.999474 68.702507 248.039941 69.070305 249.054101 C70.013115 248.375695 71.270683 247.897485 71.849418 246.987573 C76.957084 238.955956 81.589653 230.599206 87.043266 222.815514 C97.311210 208.160424 107.693229 193.559533 118.665214 179.431176 C128.559074 166.691003 139.309562 154.616174 149.658867 142.228356 C150.060539 141.747643 150.218986 141.063744 150.490715 140.474511 C149.298820 140.133264 148.017143 139.323815 146.930656 139.532128 C142.338371 140.412682 137.827324 141.709130 133.244194 142.646630 C121.861747 144.974938 110.473259 147.281518 99.054557 149.422631 C89.437675 151.225915 79.828666 153.563012 70.117485 154.232568 C60.316337 154.908349 50.366630 154.162499 40.534782 153.378198 C34.816337 152.921960 30.284843 149.569055 29.052055 143.621911 C27.468864 135.983910 32.909843 131.897363 38.306083 128.530480 C50.034416 121.212914 63.123710 117.831262 76.783256 116.448266 C86.536430 115.460717 96.303764 114.577050 106.021293 113.312829 C107.459526 113.125695 109.752189 111.128137 109.791313 109.908593 C110.069816 101.230370 115.811882 96.007592 121.828972 91.573144 C135.544914 81.464806 151.298515 76.182824 168.198112 74.488061 C180.097221 73.294824 192.035820 72.498376 203.944145 71.389489 C205.410087 71.252953 207.147331 70.632226 208.157402 69.629723 C211.281364 66.529443 214.219474 63.219872 216.961601 59.777917 C217.440361 59.176965 216.973014 57.270471 216.333183 56.431909 C214.268913 53.726159 211.737236 51.372949 209.714164 48.640588 C202.494865 38.890893 210.265434 29.184289 218.152824 27.699487 C225.966850 26.228417 234.160148 26.673913 242.191764 26.512536 C244.881584 26.458459 246.259147 25.431420 248.105705 23.388452 C255.211662 15.526757 262.692741 7.973473 270.477409 0.785394 C271.795036 -0.431220 275.781242 -0.127296 277.673454 0.965386 C280.587761 2.648461 280.859367 6.142724 278.905021 8.908593 C274.864616 14.627038 270.594597 20.194421 266.201774 25.648889 C262.882927 29.769738 263.139030 31.103356 267.929802 32.940514 C283.028801 38.730798 298.403801 43.930566 313.088249 50.637170 C328.394157 57.627465 342.862175 66.436913 358.059440 73.690698 C361.779777 75.466393 366.934074 74.615075 371.395866 74.368310 C377.470939 74.032372 383.505729 73.004662 389.578727 72.555871 C390.655876 72.476220 391.834953 73.772363 392.966911 74.433129 C392.013176 75.105615 391.121696 76.235986 390.095695 76.375329 C384.059684 77.195214 377.986442 77.738427 371.940788 78.494897 C370.912223 78.623559 369.956413 79.333581 368.966911 79.774987 C369.730217 80.596826 370.349113 81.671533 371.278801 82.201867 C381.920768 88.272546 392.738151 94.045617 403.251213 100.329308 C414.244133 106.899743 424.892204 114.045007 435.829948 120.711083 C439.138786 122.727624 439.338737 118.867700 439.842155 117.399560 C441.800163 111.689111 443.629020 105.885339 444.848137 99.980493 C447.495842 87.154748 450.903801 74.357202 449.895988 61.092980 C449.279411 52.978539 447.715690 44.937402 447.054313 36.824426 C446.606559 31.331262 449.442619 27.877038 453.721428 27.450707 C457.767204 27.047570 462.108146 30.600121 462.907341 35.436120 C463.537223 39.248864 464.093254 43.174951 463.882927 47.006921 C463.170158 59.993554 466.050529 72.295617 469.553825 84.680566 C475.923454 107.197656 484.123405 128.982324 495.107292 149.590051 C501.270988 161.154382 507.859123 172.663842 517.721428 181.752831 C518.633537 182.593347 519.301750 183.735314 519.952140 184.816064 C521.618766 187.584924 522.201286 191.040795 519.125236 192.420861 C516.889152 193.424096 512.399040 193.150903 510.955314 191.575768 C500.023430 179.648400 486.437370 171.032861 473.993888 161.010156 C471.086906 158.668664 468.935905 159.617272 467.945915 163.228967 C463.804313 178.338952 459.191032 193.334680 455.593864 208.571374 C454.220573 214.388146 454.938835 220.741296 455.020988 226.845666 C455.086418 231.710961 455.545402 236.578271 456.015495 241.426721 C456.177360 243.096154 456.900383 244.711205 457.367302 246.351098 C458.525505 245.592614 459.638664 244.751550 460.849601 244.089501 C467.369011 240.525231 473.812492 236.798852 480.491569 233.560265 C483.652702 232.027551 487.232902 230.867883 490.707634 230.588342 C495.954094 230.166161 498.396843 234.119164 495.991813 238.819116 C494.358146 242.011681 492.449699 245.242272 489.982414 247.797692 C480.491447 257.627343 470.717521 267.183495 461.069816 276.862451 C459.186149 278.752282 458.222038 280.365563 458.468010 283.764977 C459.268669 294.825952 459.163932 305.995812 458.643180 317.087853 C458.434074 321.543725 454.598991 324.015893 450.037956 324.428552 C445.708610 324.820336 442.154655 323.100488 441.035759 318.876672 C439.587150 313.407861 438.950187 307.723840 437.968498 302.131677 C437.753532 300.906518 437.559318 299.677758 437.355461 298.450707 C436.326042 299.184106 435.047477 299.724328 434.305778 300.680871 C427.473137 309.492944 420.694694 318.347802 413.979484 327.249902 C408.915275 333.963281 403.287101 340.374291 399.132682 347.620812 C393.468376 357.501550 388.937736 368.034936 383.972404 378.313378 C370.622795 405.947595 357.660148 433.776452 343.841423 461.173730 C334.499260 479.695580 324.091179 497.687585 313.845573 515.738305 C312.122429 518.774194 309.195549 521.780419 306.093986 523.175683 C303.568718 524.311669 299.488273 523.909814 296.926872 522.585717 C293.291008 520.706078 291.820793 516.793237 293.384147 512.566674 C297.178459 502.308923 300.634147 491.891442 305.067009 481.911767 C313.386467 463.181909 321.619133 444.358117 331.143547 426.233117 C342.424308 404.765649 355.320915 384.180871 370.059806 364.832055 C371.582145 362.833642 372.989250 360.732385 374.259269 358.567162 C374.600822 357.985009 374.240837 356.991418 374.202873 356.186730 C373.280388 356.285302 372.003288 356.033532 371.498283 356.544518 C369.574699 358.491418 368.074943 360.866784 366.104240 362.756005 C352.646232 375.657189 339.124748 388.492333 325.584953 401.307885 C322.505363 404.222802 319.455436 407.219201 316.074943 409.755883 C308.667228 415.314721 305.631462 423.120385 303.959587 431.771813 C300.650749 448.894860 297.237541 465.998010 293.986198 483.131921 C291.226310 497.675500 288.900749 512.309289 285.741203 526.762841 C285.109977 529.650659 281.903923 532.396752 279.205925 534.181054 C278.275016 534.796777 275.076164 532.540673 273.311271 531.106591 C272.409294 530.373803 271.913200 528.509911 272.043693 527.240502 C272.894279 518.973168 273.593010 510.661462 275.058952 502.493066 C277.020744 491.560204 279.351555 480.673547 282.047111 469.897973 C284.677848 459.382165 287.997062 449.039452 290.923698 438.595544 C291.241081 437.463036 290.960075 436.162866 290.956657 434.940514 C289.798576 435.438867 288.343620 435.646813 287.527702 436.480309 C278.734123 445.462609 269.803581 454.328698 261.378166 463.649377 C249.833976 476.420190 238.711540 489.571740 227.373527 502.529565 C222.115532 508.538659 216.820549 514.516625 211.463310 520.437280 C198.292106 534.993920 185.168754 549.595849 171.842277 564.009667 C163.442741 573.094506 154.712150 581.873315 146.127555 590.787011 C145.549675 591.387109 144.873588 591.909692 144.382133 592.571557 C143.834037 593.309594 143.444755 594.165551 142.986442 594.970361 C144.222160 595.054955 145.658561 595.582665 146.651970 595.132592 C148.766655 594.174584 150.528129 592.429223 152.649406 591.494653 C170.694145 583.544335 189.276176 577.353417 208.648246 573.341088 C225.029228 569.948022 241.413322 567.306542 258.183097 567.434716 C269.239128 567.519311 280.349113 566.763085 291.340568 567.608910 C308.615104 568.938378 325.604850 572.420434 342.197868 577.483666 C366.047355 584.761132 388.591545 595.180200 408.729118 609.754296 C417.647087 616.208398 426.595817 615.022973 435.959465 615.503076 C438.282463 615.622338 440.965324 615.813378 442.759880 617.034081 C444.350578 618.116235 446.163322 621.134423 445.663444 622.467431 C445.005607 624.220727 442.304435 625.432885 440.250602 626.371850 C438.311760 627.258447 436.073478 627.489892 433.966911 628.009545 C435.394889 629.751122 436.735344 631.574243 438.267326 633.219018 C442.582878 637.852563 447.765739 634.118432 452.421623 634.184716 C458.491569 634.271142 464.587150 632.440698 470.674553 631.453149 C478.953605 630.110009 487.218864 628.666406 495.522819 627.499047 C499.845939 626.891259 504.236564 626.634789 508.603019 626.554345 C509.712150 626.533959 510.844963 627.792382 511.966911 628.463159 C511.003166 629.125634 510.114250 630.196679 509.064567 630.389062 C494.019767 633.146020 478.959953 635.822411 463.888176 638.428124 C459.189689 639.240258 454.435051 639.722436 449.725700 640.477929 C447.556999 640.825829 445.744865 641.370751 448.044914 644.157128 C449.382316 645.777245 449.983390 647.995019 450.973869 649.913842 C452.816642 653.483910 452.782341 656.689843 449.480217 659.491845 C448.598869 660.239770 448.023063 661.347924 447.306877 662.290551 C448.646721 662.677270 449.972648 663.123803 451.329094 663.437768 C453.921867 664.037866 456.647331 664.257714 459.107780 665.189843 C462.830680 666.599877 465.542839 669.466332 464.831535 673.593163 C464.124260 677.695947 460.527336 679.520776 456.668937 679.368188 C445.769645 678.937280 434.879509 678.204369 423.998161 677.419213 C417.095817 676.921166 410.193229 676.290551 403.330803 675.407861 C394.359367 674.253808 385.438713 672.710107 376.474846 671.490991 C370.440055 670.670312 364.380973 669.955956 358.310295 669.487695 C347.930534 668.687158 337.518058 668.294579 327.146965 667.406640 C313.684440 666.254052 300.247429 664.802270 286.803093 663.442651 C280.686393 662.823998 274.578727 662.117333 268.216911 661.200707 M156.966911 612.950707 C160.453910 612.450707 163.929557 611.633080 167.429985 611.507226 C180.616081 611.032983 193.811515 610.463647 207.001152 610.517480 C234.188835 610.628564 261.375847 611.064355 288.561515 611.472802 C302.254509 611.678491 315.947136 612.017968 329.634025 612.476220 C346.356193 613.036035 363.071647 613.798852 379.792595 614.400048 C380.503654 614.425683 381.241569 613.706811 381.966911 613.334863 C381.497673 612.706811 381.124015 611.961205 380.534416 611.480981 C379.825187 610.903466 378.957267 610.496850 378.114860 610.110375 C362.803703 603.086327 347.137565 597.026269 330.805656 592.792504 C315.400627 588.799096 299.782951 585.653466 283.861320 585.601342 C269.477653 585.554345 255.053825 586.366967 240.716789 587.601952 C231.642692 588.383691 222.511161 589.963159 213.730461 592.370629 C197.035209 596.948266 180.543998 602.284692 164.044609 607.545922 C161.478080 608.364282 159.316032 610.450707 156.966911 612.950707 M395.966911 245.950646 C391.633537 252.808190 387.351677 259.698998 382.948845 266.511559 C379.968742 271.122704 376.763908 275.589074 373.808220 280.215051 C373.410514 280.837487 373.883781 282.016381 373.953727 282.937524 C374.541984 282.691308 375.250114 282.579797 375.700554 282.178796 C382.275505 276.326196 388.752067 270.361657 395.383049 264.573876 C401.827507 258.948754 408.528190 253.614465 414.913200 247.924767 C419.117302 244.178368 423.676872 240.520654 426.818351 235.956628 C433.407341 226.384179 437.071769 215.607629 436.982414 203.761193 C436.907219 193.778283 436.999748 183.794091 436.916252 173.811303 C436.907707 172.802941 436.196647 171.800500 435.811515 170.795312 C435.105949 171.604455 434.179191 172.309472 433.739128 173.243676 C432.692497 175.464623 432.089103 177.908227 430.934074 180.061974 C419.321525 201.714745 407.633537 223.326989 395.966911 245.950646 M256.466911 63.450707 C259.448722 65.099206 262.460197 66.696557 265.407097 68.405114 C277.333366 75.319421 289.153801 82.338403 303.902336 80.509057 C311.914421 79.515283 320.001823 79.133935 328.050285 78.419763 C328.708976 78.361413 329.328972 77.865624 329.966911 77.573144 C329.524650 76.923425 329.221305 75.936791 328.614372 75.686913 C326.764030 74.925073 324.747184 74.573144 322.882682 73.839379 C304.120720 66.455224 285.429191 58.887414 266.592155 51.701135 C261.396843 49.719140 255.814689 48.686791 250.348991 47.499780 C246.214836 46.601952 244.445305 49.965966 243.421135 52.860436 C243.082023 53.818871 245.675773 56.166467 247.297966 57.388513 C250.032341 59.448693 253.061638 61.117394 256.466911 63.450707 M388.466911 640.450829 C397.685417 639.784081 406.906486 639.146630 416.114982 638.362695 C416.565055 638.324365 417.369133 636.478661 417.231315 636.357324 C411.433097 631.252587 405.662468 626.236230 396.962638 627.402490 C385.547966 628.932641 374.093864 630.178613 362.643669 631.428124 C355.437126 632.214745 348.200309 632.721215 340.988639 633.464623 C328.542961 634.747704 316.105095 636.107202 303.666618 637.459130 C301.133293 637.734399 298.597404 638.042993 296.097282 638.517846 C295.635368 638.605615 295.014885 639.595971 295.061760 640.116113 C295.105217 640.598290 295.886222 641.268945 296.445182 641.392602 C297.397941 641.603417 298.431388 641.460595 299.430656 641.449243 C328.776115 641.117700 358.121452 640.784081 388.466911 640.450829 M209.466911 625.450707 C207.108818 625.117333 204.747184 624.528222 202.393974 624.560204 C201.243522 624.575829 200.108757 625.747949 198.966911 626.396752 C200.072807 627.081323 201.114372 628.193017 202.296562 628.371118 C205.953056 628.922021 209.738945 628.757104 213.339103 629.514184 C227.871818 632.570458 242.078605 637.304955 257.406486 634.602197 C265.967643 633.092675 274.807975 633.211450 283.507438 632.429223 C297.439811 631.176171 311.362907 629.817407 325.283195 628.434472 C331.007316 627.865746 336.722526 627.180077 342.419426 626.386743 C343.329094 626.260156 344.120720 625.285302 344.966911 624.702538 C343.955436 624.285302 342.931022 623.480737 341.934318 623.513574 C335.578483 623.723168 329.230949 624.344140 322.876335 624.413476 C285.407097 624.822534 247.936882 625.117455 209.466911 625.450707 M348.466911 655.450707 C357.494499 655.784081 366.523552 656.083032 375.549186 656.462182 C382.079460 656.736596 388.616447 656.977807 395.129631 657.495507 C400.219963 657.900170 405.266227 658.839745 410.353752 659.305200 C419.217643 660.116235 428.092643 660.852807 436.979362 661.292748 C437.919670 661.339379 439.968620 658.368676 439.820182 658.189355 C436.384758 654.034570 433.162468 649.468774 428.906852 646.323876 C426.707389 644.698510 422.571525 645.303124 419.356926 645.537133 C414.941764 645.858544 410.589592 646.974267 406.176994 647.415551 C391.906974 648.843041 377.634880 650.291528 363.336296 651.370751 C357.039421 651.845971 350.676139 651.400781 344.345451 651.513207 C343.544914 651.527612 342.759391 652.394067 341.966911 652.865746 C342.702751 653.394067 343.369987 654.144555 344.190666 654.398095 C345.391716 654.769311 346.702751 654.784081 348.466911 655.450707 M156.466911 107.450707 C168.368888 105.411096 176.405632 96.178796 186.709831 91.161889 C187.183708 90.931054 187.814506 90.128930 187.710502 89.806054 C187.535942 89.264001 186.866508 88.574059 186.338371 88.511620 C184.859367 88.336694 183.316764 88.258508 181.851371 88.482568 C173.562065 89.750085 165.239921 90.875329 157.020561 92.509728 C145.822807 94.736352 134.986076 98.158776 125.982109 105.549279 C124.138908 107.062219 123.332145 109.837853 122.047660 112.031457 C123.879875 112.171227 125.710197 112.348840 127.544853 112.438073 C128.874748 112.502831 130.218742 112.352807 131.542045 112.466577 C140.026542 113.196008 147.859306 110.872888 156.466911 107.450707 M215.466911 128.450707 C213.819816 130.097802 212.100395 131.680993 210.559745 133.422204 C209.904350 134.162866 209.623100 135.234460 209.171806 136.155663 C210.129387 136.254052 211.140373 136.602685 212.036064 136.411401 C219.513359 134.814111 226.992241 133.212304 234.427421 131.431848 C252.279899 127.156945 270.115715 122.811791 287.930900 118.385278 C289.062370 118.104150 289.960319 116.883141 290.966911 116.099389 C289.892448 115.549828 288.803825 114.504662 287.746086 114.535119 C282.720817 114.679772 277.701530 115.084496 272.685051 115.461572 C268.992057 115.739221 265.256828 115.843469 261.627433 116.503014 C251.447258 118.353051 241.260856 120.228173 231.180168 122.542382 C225.955619 123.741723 219.950431 123.132592 215.466911 128.450707 M201.966850 494.950707 C201.339347 496.323144 200.711784 497.695580 200.084221 499.068017 C201.359123 498.381555 202.899650 497.955712 203.867973 496.968530 C214.410514 486.221887 225.055351 475.565453 235.290153 464.529931 C246.927848 451.981835 258.249015 439.136681 269.558097 426.289025 C273.676139 421.610742 277.544181 416.680566 281.130119 411.586450 C282.111686 410.192101 281.657707 407.787438 281.862541 405.846459 C280.588005 406.857263 279.299675 407.851586 278.045402 408.886987 C277.534172 409.309045 277.070549 409.797387 276.629875 410.295007 C268.973137 418.941613 261.322380 427.593469 253.671989 436.245873 C240.958366 450.624963 228.233818 464.994531 215.539299 479.390527 C211.142875 484.376244 206.822136 489.428674 201.966850 494.950707 M294.466911 103.450707 C297.127678 103.450707 299.790641 103.511315 302.447990 103.415307 C303.295280 103.384667 304.127678 102.938256 304.966911 102.682092 C304.253776 101.938256 303.673576 100.861901 302.802360 100.513268 C300.232536 99.484765 297.596916 98.513146 294.897941 97.935327 C287.389640 96.327783 279.866081 93.979882 272.291496 93.741601 C265.851066 93.538964 259.340934 95.919885 252.843254 97.052148 C248.307365 97.842370 243.666618 98.305749 240.581413 102.363732 C240.109489 102.984460 239.844963 103.762963 239.484611 104.468469 C240.287834 104.653405 241.115715 105.068322 241.890007 104.985070 C246.005485 104.542443 250.116325 103.503930 254.211662 103.581201 C258.436638 103.660851 262.658561 105.426415 266.852531 105.317773 C275.734123 105.087426 284.596550 104.117394 294.466911 103.450707 M124.466911 130.450707 C126.656608 130.117333 128.877800 129.911462 131.019035 129.381860 C131.769584 129.196252 132.323295 128.214990 132.966911 127.597070 C132.253776 127.214929 131.519401 126.471398 130.831169 126.511926 C127.469658 126.710046 124.120353 127.117394 120.766777 127.450646 C107.352409 128.783959 93.909721 129.888635 80.535576 131.546105 C73.727348 132.389855 67.025932 134.156762 60.320488 135.698998 C59.403923 135.909814 58.745048 137.241113 57.966911 138.053735 C58.929069 138.519372 59.932731 139.455102 60.846550 139.374291 C66.734245 138.853661 72.618766 138.229272 78.472831 137.413049 C87.247856 136.189782 96.000053 134.800012 104.756218 133.444177 C110.997978 132.477685 117.230339 131.450646 124.466911 130.450707 M371.466911 102.450646 C374.290763 103.274560 377.107048 104.126916 379.947136 104.890588 C380.356681 105.000817 381.069572 104.825890 381.296257 104.523583 C381.500236 104.251306 381.405510 103.404626 381.138054 103.189355 C379.913688 102.203820 378.669059 101.178430 377.275261 100.478906 C368.866447 96.258752 359.804069 93.012536 352.130119 87.738427 C342.306022 80.986535 332.189811 84.491601 322.103752 84.526269 C321.389640 84.528710 320.679069 85.610986 319.966911 86.191247 C320.710075 86.854272 321.379875 87.954614 322.210930 88.094323 C324.295524 88.444848 326.590324 87.915246 328.559440 88.522118 C342.728996 92.888879 356.838371 97.450707 371.466911 102.450646 M154.466911 640.450707 C155.992302 640.784081 157.516166 641.355126 159.043571 641.364648 C160.015312 641.370629 160.992302 640.543237 161.966911 640.089501 C161.099052 639.508691 160.306877 638.693749 159.351127 638.385156 C153.036186 636.346215 146.332328 635.138574 140.443351 632.254785 C134.102592 629.149682 127.852592 630.236474 121.552360 630.598657 C118.771354 630.758569 116.010490 632.379174 113.397697 633.657861 C112.640861 634.028100 112.357170 635.490380 112.055351 636.510766 C112.016655 636.641747 113.162773 637.366113 113.791618 637.415795 C127.013969 638.462182 140.240898 639.450707 154.466911 640.450707 M375.966911 315.950646 C378.735588 313.783959 381.480827 311.586450 384.278068 309.457055 C389.973747 305.121240 395.735222 300.870446 401.371696 296.459680 C402.286003 295.744225 402.698234 294.386987 403.342643 293.326562 C401.851188 293.567468 400.087638 293.379357 398.915031 294.123071 C393.606559 297.489587 388.169792 300.762597 383.346305 304.754479 C378.511222 308.756005 374.306022 313.529260 369.950798 318.084618 C369.477287 318.579858 369.837394 319.872033 369.810661 320.794518 C370.517692 320.524987 371.361442 320.415917 371.904289 319.953576 C373.168815 318.876428 374.288566 317.629052 375.966911 315.950646 M176.466972 140.450768 C176.349540 140.568200 176.201225 140.669091 176.126274 140.809289 C176.081657 140.892663 176.129081 141.129785 176.175102 141.141564 C176.874687 141.320275 177.596916 141.661401 178.283012 141.602990 C185.239006 141.010034 189.671013 135.972985 194.766716 132.117211 C195.196647 131.791894 195.422538 131.196801 195.743278 130.727075 C194.922966 130.301598 194.129020 129.573266 193.278129 129.499108 C186.997368 128.952050 179.610283 133.744836 176.466972 140.450768 M232.966911 88.950707 C232.347465 88.450707 231.708183 87.494592 231.111564 87.520593 C224.493950 87.808556 217.859550 88.044091 211.287468 88.797936 C209.736503 88.975793 208.308647 90.946435 207.017387 92.279443 C206.566398 92.745080 206.696952 93.774011 206.561882 94.545617 C207.360893 94.683312 208.197013 95.046288 208.952812 94.921716 C213.578178 94.159448 218.219108 93.435265 222.787284 92.400781 C226.068290 91.657739 229.244194 90.450768 232.966911 88.950707 M67.966972 640.950707 C67.204338 640.117333 66.352409 638.496728 65.692863 638.571801 C58.593498 639.377587 51.519035 640.414697 44.454399 641.497704 C43.599601 641.628564 42.843132 642.401269 42.041130 642.876489 C42.939628 643.401269 43.826042 644.354028 44.738701 644.379907 C49.895378 644.526513 55.067863 644.262109 60.215629 644.521508 C63.289116 644.676415 65.692009 643.999291 67.966972 640.950707 M428.967033 277.950707 C427.633659 280.709435 426.192131 283.424584 425.048820 286.259850 C424.788322 286.906091 425.385002 288.107079 425.924553 288.783471 C426.218620 289.152062 427.558342 289.274621 427.851799 288.964379 C430.746086 285.904931 433.927604 282.987817 436.139152 279.471581 C437.107658 277.931725 436.025138 275.101891 435.874015 272.857812 C434.156974 273.636804 432.400261 274.341638 430.741691 275.230004 C430.043327 275.604089 429.552238 276.365380 428.967033 277.950707 M90.966850 644.950707 C90.633537 642.564111 90.054802 640.181420 90.018180 637.790307 C89.942802 632.866235 87.263481 634.469872 85.134208 635.892358 C82.754814 637.482079 80.674369 639.534448 78.545524 641.475243 C77.882499 642.079614 77.485649 642.975854 76.966911 643.738549 C77.842338 644.309228 78.694511 645.325219 79.597343 645.372582 C83.211967 645.562035 86.842338 645.450707 90.966850 644.950707 M483.966911 152.950707 C481.300285 147.389794 478.652702 141.819482 475.942131 136.280053 C475.609245 135.599877 474.938224 135.085229 474.423820 134.493859 C473.952507 134.965173 473.165397 135.377160 473.063713 135.917931 C472.593864 138.417138 471.187614 141.595361 472.187980 143.348290 C474.720451 147.785607 477.953605 152.061791 483.966911 152.950707 M235.466911 68.450707 C231.602348 65.271691 228.117057 65.643090 225.287834 69.772546 C224.955680 70.257348 225.659477 72.263513 226.096611 72.339684 C230.933281 73.182946 235.806205 73.836083 240.686149 74.393456 C241.401481 74.475121 242.204460 73.789269 242.966911 73.458520 C242.542961 72.789208 242.268180 71.899438 241.666618 71.492944 C240.006340 70.370812 238.209709 69.450707 235.466911 68.450707 M455.966911 108.950707 C455.300163 111.496301 454.502433 114.018334 454.039787 116.600488 C453.883781 117.472314 454.577140 118.496301 454.882194 119.450707 C455.407829 118.786706 456.107780 118.197350 456.429191 117.445947 C457.997306 113.780847 459.577018 110.112695 460.916984 106.361535 C461.541984 104.611901 461.869133 102.670190 461.856559 100.818932 C461.850944 100.025231 460.635612 99.239892 459.969963 98.450707 C459.452385 99.133996 458.740348 99.744653 458.452995 100.513940 C457.539177 102.961083 456.783561 105.467309 455.966911 108.950707 M463.966911 252.950707 C461.533073 255.051232 459.020744 257.072534 456.739250 259.327233 C456.340568 259.721215 456.912223 261.097131 457.035759 262.019616 C457.840324 261.835778 458.853630 261.899682 459.414909 261.426904 C462.530510 258.802819 465.571159 256.085961 468.551506 253.308495 C469.195671 252.708154 469.487053 251.729211 469.940788 250.924645 C468.920768 250.962060 467.855095 250.829553 466.894035 251.087182 C466.025627 251.320092 465.271476 251.979394 463.966911 252.950707 M210.466911 108.450707 C214.161003 107.756616 217.878227 107.158349 221.527031 106.276696 C222.156120 106.124780 222.494316 104.769128 222.966911 103.969384 C222.212700 103.796472 221.409416 103.361962 220.712150 103.492761 C215.802726 104.413537 210.909904 105.426904 206.029777 106.492944 C205.609062 106.584863 205.318168 107.270837 204.966911 107.680810 C205.305595 107.937463 205.628532 108.386010 205.985954 108.415429 C207.139457 108.510217 208.305595 108.450707 210.466911 108.450707 M163.966911 158.950707 C163.497490 159.420129 162.765495 159.822106 162.623283 160.375573 C162.434623 161.109887 162.660514 161.973290 162.841362 162.750146 C162.862846 162.842553 163.993217 162.923852 164.143913 162.698693 C165.032158 161.371362 165.782524 159.951684 166.579338 158.563073 C165.875175 158.525598 165.171074 158.488122 163.966911 158.950707 z"/></svg>