<?xml version="1.0" encoding="utf-8"?><!DOCTYPE svg PUBLIC "-//W3C//DTD SVG 1.1//EN" "http://www.w3.org/Graphics/SVG/1.1/DTD/svg11.dtd"><svg version="1.1" id="Contours" xmlns="http://www.w3.org/2000/svg" xmlns:xlink="http://www.w3.org/1999/xlink" x="0px" y="0px" width="411.982208px" height="411.982208px" viewBox="-0.000009 -0.000020 411.982208 627.913696" enable-background="new 0 0 411.982208 411.982208" xml:space="preserve" stroke="black" fill="none" stroke-linecap='round' stroke-linejoin='round'><path class="selected"  fill="#000000" opacity="1.000000" stroke="none" 
 	d="
M367.799814 77.149312 C379.758432 95.245442 388.324839 114.618306 394.390879 134.959614 C398.443369 148.548726 401.443979 162.520222 403.891245 176.499897 C406.286264 190.180073 407.773203 204.054585 408.940073 217.904438 C410.106699 231.750874 410.604624 245.666157 410.996469 259.562520 C411.542124 278.915791 412.286386 298.292378 411.851450 317.634358 C411.555918 330.770222 409.843515 343.931599 407.926889 356.958333 C405.797495 371.430684 403.629160 386.010884 399.806772 400.090352 C395.532724 415.833149 389.860605 431.253926 383.894419 446.460835 C379.344980 458.057393 373.581064 469.198140 368.012461 480.369771 C359.449594 497.547993 349.356455 513.816670 336.895761 528.452290 C326.438608 540.734761 316.043344 553.149678 304.656381 564.541890 C287.298105 581.908589 267.444834 596.002095 245.347910 607.024922 C232.276499 613.545552 218.805612 618.844746 204.767038 622.468403 C195.757028 624.794087 186.358774 625.810322 177.069040 626.797261 C169.260935 627.626851 161.324533 628.192036 153.504282 627.770772 C136.478342 626.853779 119.838388 623.866963 103.882273 617.331685 C83.757700 609.089253 66.006296 597.505513 51.234018 581.535176 C39.923166 569.306904 31.180490 555.441304 23.805734 540.430562 C15.301889 523.121235 9.295053 505.157368 6.152414 486.262227 C3.953806 473.042988 2.037241 459.705342 1.220407 446.345723 C0.182138 429.362568 -0.370169 412.274800 0.279611 395.286152 C0.834909 380.769429 2.876596 366.247700 5.180002 351.875447 C7.963999 334.503987 11.057932 317.126057 15.250131 300.053486 C18.853708 285.377949 24.310800 271.164876 28.731943 256.681233 C35.930002 233.100178 46.676157 211.085042 58.049509 189.332722 C68.510630 169.324849 80.442880 150.289204 94.056406 132.224568 C107.366953 114.561909 122.704111 98.805806 138.824716 83.897236 C157.490488 66.634907 178.277902 52.257893 202.945078 44.566243 C209.614633 42.486531 216.587717 41.350972 223.200327 39.125203 C231.510630 36.328022 239.500009 32.581868 247.797495 29.741230 C259.103891 25.870259 270.831430 24.369587 282.790781 24.917439 C283.558115 24.952595 284.308847 25.368916 285.075083 25.396931 C286.396738 25.445271 287.724619 25.327778 289.049814 25.279805 C288.217050 24.153523 287.611460 22.394307 286.515634 22.001118 C277.657236 18.822224 268.871836 15.183918 259.743173 13.077656 C247.908579 10.347065 235.801157 8.743550 223.766916 6.951985 C215.222910 5.680012 206.598764 4.952290 198.029978 3.831440 C196.974497 3.693440 196.040232 2.628071 195.049814 1.992451 C195.978159 1.294758 196.947580 -0.053936 197.828318 0.001668 C205.400217 0.479268 212.960703 1.163167 220.515451 1.880818 C226.907236 2.487996 233.298838 3.125752 239.669931 3.916218 C264.862070 7.041646 288.784067 13.672017 310.102671 28.257771 C316.698496 32.770588 324.320810 35.756001 331.314096 39.721211 C341.986704 45.772542 349.945444 54.945515 357.981699 63.917378 C361.552011 67.903401 364.383066 72.551655 367.799814 77.149312 M338.549936 438.899312 C342.383188 430.990986 346.780161 423.300313 349.936777 415.130391 C357.356089 395.928242 364.984384 376.718525 368.170053 356.217427 C370.709604 339.873921 373.478403 323.513447 374.808237 307.052449 C375.731089 295.629536 374.661753 284.006306 373.962900 272.504048 C373.389292 263.062581 372.710947 253.538533 370.903330 244.280659 C367.763803 228.202778 364.375742 212.114644 359.898447 196.370259 C352.822031 171.485554 342.678110 147.756367 328.984751 125.738301 C317.562998 107.372639 305.360605 89.572224 288.359262 75.636067 C276.473276 65.893025 263.786630 57.952656 248.457895 54.859883 C241.829355 53.522480 235.659189 51.792622 228.814829 55.421772 C207.712595 66.610981 190.030710 82.167500 172.511301 98.001912 C172.023569 98.442647 171.986521 99.381978 171.739328 100.088887 C172.759287 100.275898 173.884653 100.833699 174.779062 100.579304 C177.289255 99.865193 179.649790 98.223713 182.165293 97.992939 C202.533090 96.123982 219.917124 102.519185 234.015268 117.443196 C234.831308 118.307087 235.065439 119.720906 235.570322 120.878804 C234.196909 120.852437 232.553720 121.312031 231.492929 120.722859 C223.021677 116.018208 214.065622 112.193257 204.542795 111.063557 C184.365183 108.669819 168.060678 116.751729 155.422190 132.139851 C143.726816 146.379719 136.717356 163.338948 131.306833 180.578938 C123.763315 204.615498 118.595163 229.356770 115.137155 254.354023 C113.310129 267.561787 111.887766 280.868245 111.192575 294.177632 C110.530039 306.862202 110.665354 319.623250 111.148813 332.323994 C111.729868 347.586812 112.693857 362.855977 114.171030 378.056538 C115.210764 388.756367 117.279245 399.363667 119.073130 409.981099 C122.058786 427.652241 127.339914 444.710225 134.765818 460.949605 C144.191355 481.562031 156.947458 499.826436 174.825449 514.293843 C188.068552 525.010518 203.130014 532.067891 219.741342 533.569844 C238.837046 535.296772 257.352182 533.043721 273.320566 519.511738 C287.978891 507.090107 301.277231 493.509297 312.765634 478.341816 C322.085947 466.036885 329.686533 452.429219 338.549936 438.899312 M60.049814 331.399312 C58.716501 338.345967 57.323496 345.281819 56.063486 352.241719 C54.013254 363.566426 51.651743 374.854634 50.161203 386.254902 C48.655649 397.770161 47.332712 409.396748 47.234873 420.985737 C47.117685 434.864399 47.428842 448.885396 49.309152 462.604390 C51.327463 477.331440 55.054087 491.767964 60.879343 505.722432 C70.114694 527.845723 84.982981 544.546040 105.881662 555.798604 C116.042551 561.269429 127.126779 564.235615 138.646799 566.055562 C152.300852 568.212544 165.694895 567.855122 179.078806 564.873799 C190.497019 562.330342 201.868723 559.577412 213.248484 556.864766 C213.812143 556.730366 214.684091 556.066914 214.660044 555.699238 C214.619882 555.087056 214.037180 554.069233 213.565317 553.997822 C210.395944 553.517354 207.079477 553.665669 204.024301 552.829609 C185.832712 547.851460 169.449045 539.331440 155.396921 526.691792 C136.412790 509.615742 122.735056 488.890767 112.852732 465.362446 C105.528940 447.925557 100.234323 429.934956 97.230539 411.400898 C94.389597 393.872578 91.710398 376.127339 91.362253 358.430134 C90.833872 331.573262 92.357065 304.674885 93.083017 277.796162 C93.173960 274.428975 93.558908 271.049397 94.079233 267.717976 C95.664743 257.566426 97.201120 247.401326 99.100839 237.306294 C101.011301 227.154194 103.230600 217.055989 105.531687 206.983845 C106.388010 203.235615 108.010507 199.666340 108.962839 195.933613 C109.271799 194.722798 108.560068 193.251484 108.315195 191.899373 C107.415903 192.876851 106.183420 193.705647 105.670297 194.855427 C101.718210 203.711506 97.475351 212.471699 94.137400 221.560811 C86.645029 241.961689 79.138193 262.381550 72.569589 283.089375 C67.643076 298.620381 64.169992 314.612507 60.049814 331.399312 M351.549814 481.899312 C360.917002 466.573872 369.191049 450.696553 375.510874 433.859028 C376.199228 432.025410 376.091562 429.893086 376.353037 427.899312 C375.214121 429.437031 373.868540 430.863301 372.969004 432.530171 C365.254038 446.824482 358.086191 461.437275 349.846445 475.419697 C338.913095 493.972798 324.645151 509.912373 307.874033 523.388936 C299.797129 529.879048 291.091684 535.693135 282.196909 541.022236 C276.032846 544.715230 268.577402 546.301289 262.540537 550.149067 C246.801157 560.181294 230.544321 568.953511 213.029978 575.536152 C195.630747 582.075581 177.682505 585.868794 159.240793 586.708516 C149.901499 587.133564 140.465219 585.643574 131.084238 584.879414 C119.750437 583.956074 109.169992 580.281270 99.050180 575.341694 C83.888254 567.940815 70.658335 558.166646 59.520090 545.189473 C51.282785 535.592427 45.345346 524.760029 40.254221 513.591206 C30.815744 492.884907 27.475290 470.522236 26.213693 447.985859 C25.599314 437.011982 26.263742 425.904438 27.160105 414.923604 C28.385263 399.913838 30.039926 384.918355 32.153696 370.008076 C33.987497 357.072651 35.837351 344.026509 39.236154 331.449910 C45.937204 306.654438 53.115000 281.949360 61.254038 257.593953 C67.001352 240.395588 74.059763 223.560872 81.631845 207.068379 C88.845285 191.356831 97.001413 176.021443 105.641550 161.038716 C113.064035 148.167500 121.482492 135.838215 129.979441 123.630452 C135.727060 115.372700 142.133005 107.533589 148.700327 99.899312 C153.449900 94.378132 158.886606 89.437459 164.132822 84.357563 C168.015512 80.598042 172.106882 77.054768 176.043039 73.348958 C176.544504 72.876973 176.669260 72.004780 176.968515 71.318074 C176.193125 71.178486 175.364389 70.801106 174.655954 70.960042 C173.785288 71.155354 172.921030 71.684041 172.215525 72.264973 C162.515451 80.251790 152.423776 87.823994 143.263254 96.390828 C129.763986 109.015095 117.087595 122.435261 105.950998 137.329365 C92.504282 155.313008 80.408151 174.129780 70.195932 194.054097 C62.829477 208.426167 56.031992 223.199971 50.401010 238.323445 C43.508982 256.833760 37.460459 275.720662 32.228586 294.769246 C26.936106 314.038838 22.695322 333.624104 21.024912 353.651387 C19.819162 368.107319 17.788462 382.519551 17.194589 396.995259 C16.382761 416.782979 17.029001 436.594868 20.069101 456.233906 C21.689157 466.699605 22.631601 477.375874 25.428598 487.530415 C30.259592 505.069478 35.510019 522.448628 44.818064 538.497090 C53.273935 553.076558 62.346079 566.734028 75.291696 577.801289 C89.544260 589.985737 105.343271 598.985615 123.208933 604.640889 C135.418283 608.505513 147.930185 610.214131 160.608530 610.802876 C165.942575 611.050557 171.373422 610.569478 176.676645 609.824727 C185.898569 608.529561 195.151377 607.191792 204.219004 605.118672 C221.052805 601.269917 236.832651 594.509663 251.642465 585.709004 C267.124277 576.508809 281.885263 566.121602 294.728647 553.484395 C305.086923 543.292378 315.041269 532.543110 324.013681 521.128438 C333.727426 508.770405 342.095102 495.354023 351.549814 481.899312 M392.049814 236.399312 C391.383188 225.345418 390.528696 214.298848 390.093515 203.235859 C389.424326 186.225178 384.489511 170.087849 379.533335 154.097737 C370.947519 126.397542 359.885874 99.678853 343.002817 75.796956 C338.637094 69.621357 334.336435 63.168049 328.873422 58.051106 C319.344248 49.125203 307.274057 44.077412 294.585337 42.270649 C284.249033 40.798909 273.541880 41.858052 263.002207 42.008931 C262.009653 42.023091 261.039194 43.571675 260.058359 44.407856 C261.185190 44.904988 262.280039 45.500569 263.445078 45.880574 C266.678354 46.934834 270.180429 47.436665 273.152964 48.974751 C291.775034 58.610676 306.950327 72.525410 320.089853 88.584675 C333.507944 104.984334 345.143198 122.644063 354.025522 141.970173 C359.490610 153.861531 365.564951 165.565266 369.881845 177.873677 C380.492563 208.126118 388.638315 239.002827 389.089609 271.404011 C389.115610 273.269429 389.681162 275.134541 390.080942 276.981221 C390.156992 277.332112 390.617807 277.812764 390.935922 277.841084 C391.286264 277.872151 391.991342 277.465962 392.003183 277.223713 C392.222788 272.773701 392.379526 268.320210 392.510019 263.866292 C392.588755 261.181294 392.685556 258.492268 392.623545 255.808613 C392.481455 249.671040 392.246958 243.535603 392.049814 236.399312 z"/></svg>